<svg xmlns="http://www.w3.org/2000/svg" xmlns:xlink="http://www.w3.org/1999/xlink" width="150.23" height="150.229" viewBox="0 0 150.23 150.229"><defs><linearGradient id="a" x1="-0.607" y1="0.905" x2="0.087" y2="1.599" gradientUnits="objectBoundingBox"><stop offset="0" stop-color="#e2e1e6"/><stop offset="0.845" stop-color="#fff"/></linearGradient><linearGradient id="b" x1="3.009" y1="-15.726" x2="4.008" y2="-15.726" gradientUnits="objectBoundingBox"><stop offset="0" stop-color="#fff"/><stop offset="1" stop-color="#e6e6e6"/></linearGradient></defs><g transform="translate(0)"><g transform="translate(4.346 4.346)" opacity="0.2" style="mix-blend-mode:multiply;isolation:isolate"><ellipse cx="61.984" cy="61.984" rx="61.984" ry="61.984" transform="translate(21.916 21.916)" fill="#fff" opacity="0"/><ellipse cx="61.984" cy="61.984" rx="61.984" ry="61.984" transform="translate(21.486 21.486)" fill="#fcfcfc" opacity="0.02"/><ellipse cx="61.984" cy="61.984" rx="61.984" ry="61.984" transform="translate(21.056 21.056)" fill="#f8f8f9" opacity="0.039"/><ellipse cx="61.984" cy="61.984" rx="61.984" ry="61.984" transform="translate(20.627 20.627)" fill="#f5f5f6" opacity="0.059"/><ellipse cx="61.984" cy="61.984" rx="61.984" ry="61.984" transform="translate(20.197 20.197)" fill="#f2f2f3" opacity="0.078"/><ellipse cx="61.984" cy="61.984" rx="61.984" ry="61.984" transform="translate(19.767 19.767)" fill="#eeeff0" opacity="0.098"/><ellipse cx="61.984" cy="61.984" rx="61.984" ry="61.984" transform="translate(19.337 19.337)" fill="#ebebee" opacity="0.118"/><ellipse cx="61.984" cy="61.984" rx="61.984" ry="61.984" transform="translate(18.908 18.908)" fill="#e7e8eb" opacity="0.137"/><ellipse cx="61.984" cy="61.984" rx="61.984" ry="61.984" transform="translate(18.478 18.478)" fill="#e4e5e8" opacity="0.157"/><ellipse cx="61.984" cy="61.984" rx="61.984" ry="61.984" transform="translate(18.048 18.048)" fill="#e1e1e5" opacity="0.176"/><ellipse cx="61.984" cy="61.984" rx="61.984" ry="61.984" transform="translate(17.619 17.619)" fill="#dddee2" opacity="0.196"/><ellipse cx="61.984" cy="61.984" rx="61.984" ry="61.984" transform="translate(17.189 17.189)" fill="#dadbdf" opacity="0.216"/><ellipse cx="61.984" cy="61.984" rx="61.984" ry="61.984" transform="translate(16.759 16.759)" fill="#d7d7dc" opacity="0.235"/><ellipse cx="61.984" cy="61.984" rx="61.984" ry="61.984" transform="translate(16.329 16.329)" fill="#d3d4d9" opacity="0.255"/><ellipse cx="61.984" cy="61.984" rx="61.984" ry="61.984" transform="translate(15.9 15.9)" fill="#d0d1d6" opacity="0.275"/><ellipse cx="61.984" cy="61.984" rx="61.984" ry="61.984" transform="translate(15.47 15.47)" fill="#ccced3" opacity="0.294"/><ellipse cx="61.984" cy="61.984" rx="61.984" ry="61.984" transform="translate(15.04 15.04)" fill="#c9cad1" opacity="0.314"/><ellipse cx="61.984" cy="61.984" rx="61.984" ry="61.984" transform="translate(14.611 14.611)" fill="#c6c7ce" opacity="0.333"/><ellipse cx="61.984" cy="61.984" rx="61.984" ry="61.984" transform="translate(14.181 14.181)" fill="#c2c4cb" opacity="0.353"/><ellipse cx="61.984" cy="61.984" rx="61.984" ry="61.984" transform="translate(13.751 13.751)" fill="#bfc0c8" opacity="0.373"/><ellipse cx="61.984" cy="61.984" rx="61.984" ry="61.984" transform="translate(13.321 13.321)" fill="#bcbdc5" opacity="0.392"/><ellipse cx="61.984" cy="61.984" rx="61.984" ry="61.984" transform="translate(12.892 12.892)" fill="#b8bac2" opacity="0.412"/><ellipse cx="61.984" cy="61.984" rx="61.984" ry="61.984" transform="translate(12.462 12.462)" fill="#b5b7bf" opacity="0.431"/><ellipse cx="61.984" cy="61.984" rx="61.984" ry="61.984" transform="translate(12.032 12.032)" fill="#b1b3bc" opacity="0.451"/><ellipse cx="61.984" cy="61.984" rx="61.984" ry="61.984" transform="translate(11.603 11.603)" fill="#aeb0b9" opacity="0.471"/><ellipse cx="61.984" cy="61.984" rx="61.984" ry="61.984" transform="translate(11.173 11.173)" fill="#abadb6" opacity="0.49"/><ellipse cx="61.984" cy="61.984" rx="61.984" ry="61.984" transform="translate(10.743 10.743)" fill="#a7a9b4" opacity="0.51"/><ellipse cx="61.984" cy="61.984" rx="61.984" ry="61.984" transform="translate(10.313 10.313)" fill="#a4a6b1" opacity="0.529"/><ellipse cx="61.984" cy="61.984" rx="61.984" ry="61.984" transform="translate(9.884 9.884)" fill="#a1a3ae" opacity="0.549"/><ellipse cx="61.984" cy="61.984" rx="61.984" ry="61.984" transform="translate(9.454 9.454)" fill="#9d9fab" opacity="0.569"/><ellipse cx="61.984" cy="61.984" rx="61.984" ry="61.984" transform="translate(9.024 9.024)" fill="#9a9ca8" opacity="0.588"/><ellipse cx="61.984" cy="61.984" rx="61.984" ry="61.984" transform="translate(8.595 8.594)" fill="#9699a5" opacity="0.608"/><ellipse cx="61.984" cy="61.984" rx="61.984" ry="61.984" transform="translate(8.165 8.165)" fill="#9396a2" opacity="0.627"/><ellipse cx="61.984" cy="61.984" rx="61.984" ry="61.984" transform="translate(7.735 7.735)" fill="#90929f" opacity="0.647"/><ellipse cx="61.984" cy="61.984" rx="61.984" ry="61.984" transform="translate(7.305 7.305)" fill="#8c8f9c" opacity="0.667"/><ellipse cx="61.984" cy="61.984" rx="61.984" ry="61.984" transform="translate(6.876 6.875)" fill="#898c99" opacity="0.686"/><ellipse cx="61.984" cy="61.984" rx="61.984" ry="61.984" transform="translate(6.446 6.446)" fill="#868897" opacity="0.706"/><ellipse cx="61.984" cy="61.984" rx="61.984" ry="61.984" transform="translate(6.016 6.016)" fill="#828594" opacity="0.725"/><ellipse cx="61.984" cy="61.984" rx="61.984" ry="61.984" transform="translate(5.586 5.586)" fill="#7f8291" opacity="0.745"/><ellipse cx="61.984" cy="61.984" rx="61.984" ry="61.984" transform="translate(5.157 5.156)" fill="#7b7f8e" opacity="0.765"/><ellipse cx="61.984" cy="61.984" rx="61.984" ry="61.984" transform="translate(4.727 4.727)" fill="#787b8b" opacity="0.784"/><ellipse cx="61.984" cy="61.984" rx="61.984" ry="61.984" transform="translate(4.297 4.297)" fill="#757888" opacity="0.804"/><ellipse cx="61.984" cy="61.984" rx="61.984" ry="61.984" transform="translate(3.868 3.867)" fill="#717585" opacity="0.824"/><ellipse cx="61.984" cy="61.984" rx="61.984" ry="61.984" transform="translate(3.438 3.438)" fill="#6e7182" opacity="0.843"/><ellipse cx="61.984" cy="61.984" rx="61.984" ry="61.984" transform="translate(3.008 3.008)" fill="#6b6e7f" opacity="0.863"/><ellipse cx="61.984" cy="61.984" rx="61.984" ry="61.984" transform="translate(2.578 2.578)" fill="#676b7c" opacity="0.882"/><ellipse cx="61.984" cy="61.984" rx="61.984" ry="61.984" transform="translate(2.149 2.148)" fill="#64677a" opacity="0.902"/><ellipse cx="61.984" cy="61.984" rx="61.984" ry="61.984" transform="translate(1.719 1.719)" fill="#606477" opacity="0.922"/><ellipse cx="61.984" cy="61.984" rx="61.984" ry="61.984" transform="translate(1.289 1.289)" fill="#5d6174" opacity="0.941"/><ellipse cx="61.984" cy="61.984" rx="61.984" ry="61.984" transform="translate(0.859 0.859)" fill="#5a5e71" opacity="0.961"/><ellipse cx="61.984" cy="61.984" rx="61.984" ry="61.984" transform="translate(0.43 0.43)" fill="#565a6e" opacity="0.98"/><ellipse cx="61.984" cy="61.984" rx="61.984" ry="61.984" fill="#53576b"/></g><ellipse cx="64.749" cy="64.749" rx="64.749" ry="64.749" transform="translate(1.053 1.053)" fill="url(#a)"/><path d="M2533.62,3438.874a65.8,65.8,0,1,1,65.8-65.8A65.875,65.875,0,0,1,2533.62,3438.874Zm0-129.5a63.7,63.7,0,1,0,63.7,63.7A63.769,63.769,0,0,0,2533.62,3309.377Z" transform="translate(-2467.819 -3307.272)" fill="url(#b)"/><g transform="translate(29.796 33.895)"><path d="M2559.132,3386.219c5.923,0,11.845.024,17.767-.022,1.047-.009,1.294.319,1.289,1.333-.041,9.253-.027,18.507-.027,27.76,0,1.789.006,1.754-1.712,1.53-4.78-.62-9.567-1.182-14.346-1.814-5.837-.773-11.667-1.6-17.5-2.391-1.054-.143-2.115-.229-3.175-.3-1.025-.073-1.555-.36-1.544-1.617q.105-11.534,0-23.071c-.01-1.22.426-1.435,1.482-1.428,5.922.032,11.844.015,17.766.015Z" transform="translate(-2507.767 -3352.284)" fill="#01aef0"/><path d="M2558.988,3377.531c-5.882,0-11.765-.023-17.646.021-1.112.009-1.466-.292-1.457-1.457q.079-11.414,0-22.829c-.007-1.139.314-1.534,1.483-1.676,4.67-.564,9.322-1.276,13.985-1.9,5.8-.778,11.6-1.52,17.4-2.285,1.374-.181,2.758-.328,4.112-.614,1.083-.228,1.326.119,1.32,1.166-.04,7.075-.02,14.151-.02,21.226,0,2.3-.057,4.609.023,6.91.039,1.114-.25,1.486-1.428,1.474-5.923-.061-11.846-.029-17.77-.029Z" transform="translate(-2507.767 -3346.725)" fill="#01aef0"/><path d="M2516.861,3386.267c4.441,0,8.882.017,13.322-.016.785-.006,1.055.185,1.052,1.016q-.045,11.658-.01,23.316c0,.656.023,1-.9.868-4.611-.661-9.236-1.231-13.859-1.8-4.3-.533-8.6-1.048-12.909-1.521-.756-.083-1.059-.277-1.055-1.1q.049-9.869,0-19.738c-.006-.942.371-1.051,1.157-1.046,4.4.03,8.8.015,13.2.015Z" transform="translate(-2502.501 -3352.291)" fill="#01aef0"/><path d="M2516.872,3378.47c-4.359,0-8.719-.039-13.077.027-1.067.016-1.3-.321-1.292-1.32q.062-9.561,0-19.122c-.006-.928.352-1.208,1.17-1.305q9.324-1.1,18.643-2.244c2.72-.333,5.439-.674,8.147-1.083.6-.09.752.045.752.571,0,.74,0,1.48,0,2.221,0,6.908-.032,13.817.029,20.726.011,1.225-.263,1.612-1.544,1.587-4.275-.085-8.552-.031-12.829-.031Z" transform="translate(-2502.501 -3347.665)" fill="#01aef0"/></g></g></svg>