<svg xmlns="http://www.w3.org/2000/svg" width="38.263" height="44.795" viewBox="0 0 38.263 44.795"><path d="M6.629,20.186V18.524q0-7.98,0-15.96A2.336,2.336,0,0,1,9.206,0a2.328,2.328,0,0,1,2.6,2.531q.008,4.852,0,9.7v.46a6.864,6.864,0,0,1,1.809-1.147,4.519,4.519,0,0,1,2.268.084c1.139.315,1.427,1.143,1.461,3.635a2.832,2.832,0,0,1,3.893-1.339c1.7.693,1.362,2.313,1.379,3.875.189-.267.29-.423.4-.57a2.2,2.2,0,0,1,2.381-.777,2.037,2.037,0,0,1,1.531,1.9c-.041,3.392.078,6.81-.288,10.17a9.757,9.757,0,0,1-5.311,8.053C17.131,38.72,9.577,38.71,5.511,32.506A27.936,27.936,0,0,1,2.13,24.3c-.575-2.123-1.2-4.231-1.776-6.352a10.789,10.789,0,0,1-.338-1.791,1.729,1.729,0,0,1,.733-1.782,1.755,1.755,0,0,1,2.11-.034A7.852,7.852,0,0,1,4.7,16.314C5.422,17.5,5.954,18.8,6.629,20.186Z" transform="translate(0 9.212) rotate(-20)"/></svg>