<svg xmlns="http://www.w3.org/2000/svg" xmlns:xlink="http://www.w3.org/1999/xlink" width="682" height="654.769" viewBox="0 0 682 654.769"><defs><linearGradient id="a" x1="0.5" y1="1" x2="0.5" gradientUnits="objectBoundingBox"><stop offset="0" stop-color="#fff" stop-opacity="0"/><stop offset="0.083" stop-color="#fff" stop-opacity="0.149"/><stop offset="0.223" stop-color="#fff" stop-opacity="0.369"/><stop offset="0.363" stop-color="#fff" stop-opacity="0.565"/><stop offset="0.5" stop-color="#fff" stop-opacity="0.722"/><stop offset="0.634" stop-color="#fff" stop-opacity="0.843"/><stop offset="0.764" stop-color="#fff" stop-opacity="0.929"/><stop offset="0.888" stop-color="#fff" stop-opacity="0.98"/><stop offset="1" stop-color="#fff"/></linearGradient><linearGradient id="b" x1="0.5" y1="1" x2="0.5" gradientUnits="objectBoundingBox"><stop offset="0" stop-color="#fff" stop-opacity="0"/><stop offset="0.061" stop-color="#fff" stop-opacity="0.106"/><stop offset="0.208" stop-color="#fff" stop-opacity="0.337"/><stop offset="0.356" stop-color="#fff" stop-opacity="0.541"/><stop offset="0.499" stop-color="#fff" stop-opacity="0.706"/><stop offset="0.638" stop-color="#fff" stop-opacity="0.835"/><stop offset="0.77" stop-color="#fff" stop-opacity="0.925"/><stop offset="0.894" stop-color="#fff" stop-opacity="0.98"/><stop offset="1" stop-color="#fff"/></linearGradient><linearGradient id="c" x1="0.5" y1="1" x2="0.5" gradientUnits="objectBoundingBox"><stop offset="0" stop-color="#fff" stop-opacity="0"/><stop offset="0.157" stop-color="#fff" stop-opacity="0.239"/><stop offset="0.325" stop-color="#fff" stop-opacity="0.471"/><stop offset="0.487" stop-color="#fff" stop-opacity="0.659"/><stop offset="0.64" stop-color="#fff" stop-opacity="0.808"/><stop offset="0.78" stop-color="#fff" stop-opacity="0.914"/><stop offset="0.905" stop-color="#fff" stop-opacity="0.976"/><stop offset="1" stop-color="#fff"/></linearGradient></defs><g transform="translate(-932.977 -143.947)"><path d="M988.253,532.459c-41.539-181.71,78.777-324.365,325.977-352.867,276.862-31.921,332.522,121.2,253.867,165.655s-211.546,318.9-228.632,372.511S1046.657,787.948,988.253,532.459Z" transform="translate(14.254 9.452)" fill="#ebf7ff" opacity="0.6"/><g transform="translate(999.862 320.407)"><path d="M1050.1,459.706c4.408-7.283,9.116-14.37,14.2-21.2.6-.814,1.257-1.605,1.833-2.44.191-.277-4.841,6.085-2.41,3.144,1.295-1.565,2.541-3.169,3.839-4.73q4.211-5.068,8.669-9.921,8.884-9.665,18.692-18.428,4.5-4.025,9.187-7.844c1.557-1.271,3.169-2.48,4.717-3.76.28-.233-6.269,4.691-3.165,2.482,1.088-.776,2.148-1.6,3.23-2.384a266.963,266.963,0,0,1,42.93-25.439c2.1-.992,4.224-1.926,6.335-2.89,5.726-2.62-6.979,2.774-1.123.474,4-1.571,8.01-3.118,12.074-4.528q11.684-4.052,23.725-6.958,5.761-1.383,11.583-2.491,2.908-.553,5.827-1.034c1.57-.259,9.51-1.39,3.105-.517-6.343.866.679-.023,2.154-.174q2.943-.3,5.891-.526,6.392-.49,12.8-.633a231.755,231.755,0,0,1,25.476.861c1.949.173,3.894.394,5.841.591,6.356.645-7.951-1.232-1.637-.249,4.194.654,8.375,1.349,12.538,2.187q12.02,2.42,23.76,6.022,5.64,1.728,11.2,3.718,2.78.994,5.537,2.053c1.428.548,8.726,3.569,3.09,1.163-5.6-2.392.828.388,2.112.967q3.152,1.422,6.267,2.923,5.79,2.8,11.442,5.873,10.895,5.931,21.211,12.854c3.859,2.591,7.619,5.313,11.365,8.064,4.588,3.371-6.084-4.858-.065-.027q2.726,2.187,5.4,4.445a268.423,268.423,0,0,1,20.423,19.195q5.214,5.445,10.113,11.177,2.29,2.681,4.51,5.419c.634.784,1.248,1.585,1.888,2.363,2.825,3.44-4.441-5.975-1.829-2.364,5.757,7.957,11.3,15.965,16.329,24.413,9.454,15.9,32.245,23.09,48.382,12.688,16-10.315,22.805-31.369,12.686-48.383-39.961-67.2-106.618-118.5-182.587-137.924-76.414-19.544-158.837-4.615-224.554,38.767a307.774,307.774,0,0,0-94.047,97.308c-9.59,15.844-4.02,39.556,12.686,48.383,17.168,9.071,38.146,4.225,48.382-12.686Z" transform="translate(-984.35 -279.482)" fill="#75a1de"/><g transform="translate(79.4 128.684)"><path d="M1111.1,512.681c2.836-4.662,5.879-9.157,9.085-13.572,3.566-4.911-5.259,6.446.128-.029q2.915-3.506,6.016-6.854,5.151-5.554,10.785-10.633,2.99-2.7,6.1-5.256c.774-.635,1.6-1.233,2.346-1.9-7.635,6.757-2.729,2.118-.743.69A170.126,170.126,0,0,1,1172.38,459c.9-.419,1.819-.808,2.719-1.232,4.057-1.906-7.146,2.829-2.955,1.245,2.166-.82,4.312-1.683,6.5-2.454a161.2,161.2,0,0,1,16.124-4.772c4.816-1.155,9.706-1.753,14.536-2.773-10.973,2.319-2.777.439.4.2q4.425-.336,8.866-.4,7.331-.117,14.648.492c3.444.286,10.839,2.51.279-.142,2.5.628,5.151.832,7.684,1.34,10.388,2.081,19.89,5.882,29.9,9.111-10.3-3.321-2.087-.807.522.453q3.549,1.715,7.013,3.6,6.948,3.769,13.53,8.174c2.475,1.656,4.864,3.419,7.282,5.154,3.606,2.588-5.85-4.738-2.445-1.883,1.269,1.066,2.571,2.091,3.834,3.166a170.213,170.213,0,0,1,13.041,12.327q2.761,2.9,5.384,5.927,1.313,1.516,2.589,3.062c.541.655,4.819,6.011.978,1.143-3.441-4.363-.577-.687.243.452q1.473,2.045,2.885,4.131c1.885,2.8,3.667,5.652,5.4,8.546,9.49,15.877,32.222,23.106,48.383,12.686,15.97-10.3,22.842-31.391,12.686-48.382-27.39-45.83-72.831-80.993-124.806-94.14-51.8-13.1-108.055-3.313-152.684,26.064a211.863,211.863,0,0,0-64.878,66.894c-9.625,15.823-3.994,39.57,12.687,48.383,17.2,9.088,38.108,4.2,48.383-12.686Z" transform="translate(-1045.335 -378.321)" fill="#75a1de"/></g><circle cx="59.558" cy="59.558" r="59.558" transform="translate(191.82 257.73)" fill="#75a1de"/></g><path d="M1237.331,322.971a26.516,26.516,0,0,1,12.6-21.111,28.848,28.848,0,0,1,25.255-2.109c4.238,1.7,8.04,4.416,12.482,5.527,9.749,2.439,19.814-3.569,26.091-11.132s10.136-16.744,16.26-24.422,15.846-14.019,25.724-12.124c10.728,2.058,16.968,12.518,22.076,21.805s12.108,19.544,23,20.555c8.005.743,15.358-3.9,23.129-5.889a36.1,36.1,0,0,1,27.083,3.881c7.965,4.769,13.733,15.465,15.548,24.306Z" transform="translate(91.901 34.215)" fill="url(#a)"/><path d="M1306.008,223.974c4.695-11.771,19.084-23.25,31.2-19.544,4.247,1.3,8.124,3.695,12.452,4.692,8.821,2.032,18.071-2.143,24.789-8.209s11.542-13.892,17.041-21.081,12.116-14.064,20.7-16.942c14.845-4.98,31.507,3.785,40.594,16.536s12.327,28.633,15.347,44Z" transform="translate(112.638 5.292)" fill="url(#b)"/><path d="M1164.3,264.647a35.613,35.613,0,0,0-54.319-28.993c-4.843,2.995-8.9,7.1-13.539,10.4s-10.27,5.828-15.9,4.967c-7.73-1.182-13.242-8.5-15.293-16.045s-1.483-15.515-1.948-23.322c-.768-12.911-4.785-26.216-14.113-35.176s-24.776-12.223-35.551-5.066c-8.206,5.451-12.136,15.4-14.409,24.987s-3.45,19.641-8.157,28.3-14.291,15.709-23.927,13.661c-4.984-1.058-9.254-4.362-14.219-5.507a17.505,17.505,0,0,0-16.458,5.074c-4.082,4.419-4.173,19.278-2.361,25.012Z" transform="translate(0 7.113)" fill="url(#c)"/><g transform="translate(1170.396 594.222)"><g transform="translate(99.635 28.239)"><path d="M1203,512.445c2.031,5.557,7.018,9.533,12.29,12.214s11.012,4.356,16.283,7.041c7.086,3.609,13.421,9.314,16.181,16.773s1.256,16.741-4.826,21.864c-4.388,3.695-10.459,4.824-16.185,4.482a37.224,37.224,0,0,1-24.249-63.336" transform="translate(-1191.86 -511.483)" fill="#3e2945"/></g><path d="M1147.917,628.785l10.176-76.32a27.167,27.167,0,0,1,22.339-23.179,93.5,93.5,0,0,1,42.045,2.432,27.152,27.152,0,0,1,19.338,22.548l10.386,79.189S1197.724,652.133,1147.917,628.785Z" transform="translate(-1105.494 -478.273)" fill="#f37168"/><path d="M1191.86,527.971s45.994-4.135,61.631,51.464-53.828,52.521-53.828,52.521l-2.858-10.261s36.462-13.975,32.395-35.115S1193.647,559.723,1191.86,527.971Z" transform="translate(-1092.226 -478.286)" fill="#f37168"/><path d="M1196.675,527.971s-45.993-4.135-61.631,51.464,53.829,52.521,53.829,52.521l2.858-10.261s-36.464-13.975-32.4-35.115S1194.889,559.723,1196.675,527.971Z" transform="translate(-1110.073 -478.286)" fill="#f37168"/><path d="M1155.951,625.668V576.591a6.2,6.2,0,0,1,6.2-6.2h69.024a6.2,6.2,0,0,1,6.2,6.43l-1.933,52.323Z" transform="translate(-1103.068 -465.456)" fill="#fff"/><path d="M1279.033,618.06c-5.751-31.262-31.13-21.157-138.528,23.272l4.67,19.041S1286.816,660.374,1279.033,618.06Z" transform="translate(-1107.732 -456.533)" fill="#286da5"/><path d="M1150.348,633.38s-35.015-12.91-35.015,5.2,37.444,13.04,37.444,13.04Z" transform="translate(-1115.333 -447.783)" fill="#3e2945"/><g transform="translate(69.915)"><g transform="translate(6.804 0.62)"><path d="M1190.384,490.313a13.189,13.189,0,0,1,4.093.307c12.485,2.911,16.284,20.726,13.153,31.648-1.733,6.045-6.461,11.189-12.608,12.293-8.987,1.616-16.241-5.339-19.159-13.638a26.544,26.544,0,0,1,.37-19.155C1178.82,495.84,1184.113,490.831,1190.384,490.313Z" transform="translate(-1174.259 -490.269)" fill="#ffc49c"/></g><g transform="translate(37.356 20.301)"><path d="M1197.725,516.46a6.745,6.745,0,0,0,6.719.815,7.332,7.332,0,0,0,3.954-5.6,5.942,5.942,0,0,0-2.191-5.644,4.207,4.207,0,0,0-5.628,1.051Z" transform="translate(-1197.725 -505.386)" fill="#ffc49c"/></g><g transform="translate(0 20.301)"><path d="M1179.762,516.46a6.745,6.745,0,0,1-6.719.815,7.331,7.331,0,0,1-3.954-5.6,5.943,5.943,0,0,1,2.191-5.644,4.207,4.207,0,0,1,5.628,1.051Z" transform="translate(-1169.033 -505.386)" fill="#ffc49c"/></g><g transform="translate(15.007 25.524)"><path d="M1200.454,509.4l1.409,26.21a10.661,10.661,0,0,1-9.347,11.24h0a10.661,10.661,0,0,1-11.953-10.86l.542-24.221Z" transform="translate(-1180.559 -509.397)" fill="#ffc49c"/></g><path d="M1180.812,521.648a16.446,16.446,0,0,0,9.6,3.389l-9.742.8Z" transform="translate(-1165.519 -480.174)" fill="#3e2945"/><path d="M1191.461,496.865s-2.681,10.835-17.186,13.888c0,0,.01-20.295,17.186-20.946s17.023,21.1,17.023,21.1S1192.42,509.136,1191.461,496.865Z" transform="translate(-1167.45 -489.793)" fill="#3e2945"/></g><path d="M1121.688,618.06c5.749-31.262,31.13-21.157,138.527,23.272l-4.669,19.041S1113.9,660.374,1121.688,618.06Z" transform="translate(-1113.507 -456.533)" fill="#2f7ad3"/><path d="M1229.1,632.652s32.7-12.112,32.7,6-37.369,13.04-37.369,13.04Z" transform="translate(-1082.391 -447.853)" fill="#3e2945"/><path d="M1192.781,594a4.513,4.513,0,1,1-4.513-4.512A4.513,4.513,0,0,1,1192.781,594Z" transform="translate(-1094.672 -459.69)" fill="#ddd"/><path d="M1177.274,528.067s1.039,31.721,14.94,31.721,13.311-31.364,13.311-31.364S1186.381,527.486,1177.274,528.067Z" transform="translate(-1096.63 -478.293)" fill="#ffc49c"/></g><g transform="translate(1093.095 143.947)"><g transform="translate(69.756 51.058)"><path d="M1215.923,185.1s-20.053-6.423-50.263,31.04c-26.893,33.348-56.123,40.736-56.123,40.736l7.531,12.746s48.462-10.394,78.8-54.169S1215.923,185.1,1215.923,185.1Z" transform="translate(-1109.538 -183.164)" fill="#296eb2"/></g><g transform="translate(32.617 138.964)"><path d="M1186.387,253.415l-87.377-2.733a21.731,21.731,0,0,0-17.173,27.311l42.371,132.85,28.492-10.361-22.22-102.313,79.226-19.119Z" transform="translate(-1081.012 -250.682)" fill="#e0bf65"/></g><g transform="translate(86.64 124.736)"><path d="M1136.037,239.754s-17.38,3.957-12.745,13.294l18.166.934Z" transform="translate(-1122.506 -239.754)" fill="#f09959"/></g><g transform="translate(15.234 134.744)"><path d="M1265.461,247.441s13.724,54.025-46.529,61.556-88.042,9.27-88.042,9.27l-35.76,114.38-27.469-9.908,20.176-111.794a40.683,40.683,0,0,1,31.69-29.691c27.247-5.238,67.077-13.852,68.5-19.692,2.173-8.908,1.521-14.122,1.521-14.122Z" transform="translate(-1067.661 -247.441)" fill="#ffd24f"/></g><g transform="translate(137.056 53.113)"><path d="M1161.3,266.373s-3.083-79.341,32.48-81.544c51.292-3.178,43.432,81.544,43.432,81.544Z" transform="translate(-1161.229 -184.742)" fill="#2f7ad3"/></g><g transform="translate(149.861 10.174)"><g transform="translate(0 0.315)"><path d="M1196.539,152.749a13.179,13.179,0,0,1,3.483,1.8c9.819,7.093,5.865,23.028-1.373,30.731-4.006,4.264-10.286,6.661-16.16,5.235-8.589-2.087-12.135-10.49-11.307-18.347a23.185,23.185,0,0,1,8.18-15.449C1184.075,152.871,1190.8,150.8,1196.539,152.749Z" transform="translate(-1171.064 -152.004)" fill="#f09959"/><g transform="translate(30.035 18.414)"><path d="M1194.133,176.086a7.02,7.02,0,0,0,6.535.732,6.623,6.623,0,0,0,3.844-5.027,5.132,5.132,0,0,0-2.13-5.065,4.319,4.319,0,0,0-5.475.943Z" transform="translate(-1194.133 -166.147)" fill="#f09959"/></g><g transform="translate(12.415 23.101)"><path d="M1199.951,169.747l1.37,22.7c.339,5.052-3.646,9.473-9.09,10.088h0c-6.289.71-11.791-3.9-11.626-9.746l.527-20.921Z" transform="translate(-1180.6 -169.747)" fill="#f09959"/></g><g transform="translate(12.591 33.274)"><path d="M1180.735,186.8v-3.768a17.562,17.562,0,0,0,14.993-5.467S1192.306,185.054,1180.735,186.8Z" transform="translate(-1180.735 -177.561)" fill="#3e2945"/></g></g><g transform="translate(8.856)"><path d="M1203.543,170.756c-3.728-.155-7.857-.078-11.495-.842a21.9,21.9,0,0,1-9.911-4.528,11.435,11.435,0,0,1-4.247-9.192s8.066-7.278,18.266-3.182S1203.543,170.756,1203.543,170.756Z" transform="translate(-1177.866 -151.762)" fill="#3e2945"/></g></g><g transform="translate(100.171 74.58)"><path d="M1233.784,205.8s-7.541-15.75-34.052,11.215c-30.889,31.416-66.833,34.369-66.833,34.369l5.421,14.228s48.865.948,90.9-34.178C1241.884,220.852,1233.784,205.8,1233.784,205.8Z" transform="translate(-1132.899 -201.23)" fill="#296eb2"/></g><g transform="translate(79.767 134.744)"><path d="M1163.339,254.015l-46.112-1.443v-5.131l39.7.93c3.631,0,6.407,2.013,6.407,5.644Z" transform="translate(-1117.227 -247.441)" fill="#261a2b"/></g><g transform="translate(0 310.043)"><path d="M1071.194,382.084l-1.784,7.474-13.45,3.993,38.29,13.1,4.413-14.657Z" transform="translate(-1055.96 -382.084)" fill="#fff"/></g><g transform="translate(71.204 288.764)"><path d="M1115.259,376.1l1.474,6.02-6.083,12.952,36.678-14.168-3.577-15.165Z" transform="translate(-1110.65 -365.74)" fill="#fff"/></g><g transform="translate(176.141)"><circle cx="10.174" cy="10.174" r="10.174" fill="#3e2945"/></g><g transform="translate(195.117 2.645)"><path d="M1220.885,153.508a7.53,7.53,0,1,0-7.53,7.529A7.53,7.53,0,0,0,1220.885,153.508Z" transform="translate(-1205.825 -145.979)" fill="#3e2945"/></g><g transform="translate(208.748 7.689)"><path d="M1226.984,155.2a5.345,5.345,0,1,0-5.344,5.345A5.344,5.344,0,0,0,1226.984,155.2Z" transform="translate(-1216.294 -149.853)" fill="#3e2945"/></g><g transform="translate(38.428 84.775)"><path d="M1088.835,209.061h15.672a11.053,11.053,0,0,1,9.824,5.989l25.522,49.52-28.844-.9-25.166-49.729A3.356,3.356,0,0,1,1088.835,209.061Z" transform="translate(-1085.476 -209.061)" fill="#3e2945"/></g><g transform="translate(60.959 109.972)"><path d="M1107.311,230.694c.571,1.624.07,3.276-1.116,3.692s-2.609-.561-3.178-2.185-.071-3.275,1.115-3.691S1106.74,229.071,1107.311,230.694Z" transform="translate(-1102.781 -228.414)" fill="#2f7ad3"/></g></g><g transform="translate(1393.676 383.143)"><g transform="translate(59.957 141.833)"><path d="M1383.393,436.607V691.786h-42.051l-8.461-254.11Z" transform="translate(-1332.881 -436.607)" fill="#fff"/></g><g transform="translate(68.482 397.012)"><path d="M1381.416,632.6l16.66,17.769h-58.649V632.6Z" transform="translate(-1339.428 -632.604)" fill="#2f7ad3"/></g><g transform="translate(170.571 35.144)"><path d="M1435.484,391.4l-17.643,2.169,3.81-36.529a2.65,2.65,0,0,1,3.16-2.323l11.017,2.217a2.65,2.65,0,0,1,2.12,2.8Z" transform="translate(-1417.841 -354.661)" fill="#3ff9ff"/></g><g transform="translate(173.355 38.415)"><path d="M1433.107,384.08l-13.127,4.645,3-29.811a1.939,1.939,0,0,1,2.313-1.7l8.068,1.624a1.944,1.944,0,0,1,1.553,2.055Z" transform="translate(-1419.979 -357.174)" fill="#004aa2"/></g><g transform="translate(58.598 46.827)"><path d="M1333.2,364.29s36.12-8.887,56.871,38.832c19.657,45.2,61.659-25.193,61.659-25.193l11.008,10.14s-47.434,96.679-95.014,31.61C1321.332,356.239,1333.2,364.29,1333.2,364.29Z" transform="translate(-1331.838 -363.635)" fill="#c1c765"/></g><g transform="translate(7.366 229.702)"><path d="M1308.355,504.1s2.055,10.617-6.9,12.776-8.973-11.1-8.973-11.1Z" transform="translate(-1292.487 -504.097)" fill="#f09959"/></g><g transform="translate(6.063 145.067)"><path d="M1357.077,474.781l6.481,83a72.163,72.163,0,0,1-1.655,15.366l-31.351,117.884h-39.066L1315.422,561.8l-8.411-122.71Z" transform="translate(-1291.486 -439.091)" fill="#ddd"/></g><g transform="translate(0 45.894)"><path d="M1346.786,364.506s-55.166-17.066-59.077,60.713S1294.2,548.4,1294.2,548.4l18.5-1.957s-11.008-79.515,2.462-118.622S1346.786,364.506,1346.786,364.506Z" transform="translate(-1286.829 -362.919)" fill="#c1c765"/></g><g transform="translate(1.139 141.833)"><path d="M1358.219,436.607V558.536a72.162,72.162,0,0,1-1.655,15.366l-24.87,117.884H1287.7l23.935-129.235-8.41-122.71Z" transform="translate(-1287.704 -436.607)" fill="#fff"/></g><g transform="translate(13.111 47.482)"><path d="M1394.258,458.489l-12.035-70.729a26.829,26.829,0,0,0-26.638-23.623h-31.854a26.83,26.83,0,0,0-26.814,27.788l3.536,69.8Z" transform="translate(-1296.9 -364.138)" fill="#c1c765"/></g><g transform="translate(39.788)"><g transform="translate(5.467 0.083)"><path d="M1330.628,328.513a12.4,12.4,0,0,0-3.369,1.887c-9.5,7.437-5.674,24.146,1.329,32.223,3.876,4.472,9.953,6.985,15.635,5.489,8.312-2.186,11.742-11,10.942-19.238a24.984,24.984,0,0,0-7.916-16.2C1342.69,328.642,1336.187,326.468,1330.628,328.513Z" transform="translate(-1321.588 -327.732)" fill="#f09959"/></g><g transform="translate(0 19.392)"><path d="M1327.486,352.984a6.35,6.35,0,0,1-6.323.768,6.9,6.9,0,0,1-3.721-5.272,5.586,5.586,0,0,1,2.062-5.311,3.959,3.959,0,0,1,5.3.988Z" transform="translate(-1317.389 -342.563)" fill="#f09959"/></g><g transform="translate(7.076 24.307)"><path d="M1324.169,346.338l-1.326,23.491a10.035,10.035,0,0,0,8.8,10.577h0a10.034,10.034,0,0,0,11.249-10.22l-.51-21.62Z" transform="translate(-1322.824 -346.338)" fill="#f09959"/></g><g transform="translate(12.467 34.974)"><path d="M1341.473,364.215v-3.95a16.152,16.152,0,0,1-14.508-5.734S1330.277,362.388,1341.473,364.215Z" transform="translate(-1326.965 -354.531)" fill="#3e2945"/></g><g transform="translate(5.456)"><path d="M1321.869,347.339a6.36,6.36,0,0,0,5.75.46c2.67-.976,2.994-2.632,3.648-5.111.98-3.718,4.748-5.812,8.251-6.624a15.339,15.339,0,0,1,5.348-.324,16.683,16.683,0,0,1,3.466.828c.645.227,3.248,1.021,3.466,1.738,0,0-3.557-11.729-17.552-10.554C1318.575,329.067,1321.868,347.339,1321.869,347.339Z" transform="translate(-1321.58 -327.668)" fill="#3e2945"/></g></g><g transform="translate(1.138 397.012)"><path d="M1331.695,632.6l16.661,17.769H1287.7V632.6Z" transform="translate(-1287.704 -632.604)" fill="#2f7ad3"/></g><g transform="translate(176.401 56.233)"><path d="M1422.319,379.06s5.208-11.367,13.483-7.335-.389,14.163-.389,14.163Z" transform="translate(-1422.319 -370.859)" fill="#f09959"/></g></g></g></svg>