<svg xmlns="http://www.w3.org/2000/svg" xmlns:xlink="http://www.w3.org/1999/xlink" width="619.773" height="506.197" viewBox="0 0 619.773 506.197"><defs><clipPath id="a"><circle cx="86.013" cy="86.013" r="86.013" transform="translate(0 121.64) rotate(-45)" fill="none"/></clipPath><clipPath id="b"><circle cx="94.303" cy="94.303" r="94.303" transform="translate(0 133.364) rotate(-45)" fill="none"/></clipPath><clipPath id="c"><circle cx="67.495" cy="67.495" r="67.495" transform="translate(0 95.453) rotate(-45)" fill="none"/></clipPath><clipPath id="d"><circle cx="43.797" cy="43.797" r="43.797" transform="translate(0 61.938) rotate(-45)" fill="none"/></clipPath></defs><g transform="translate(-132.14 -10.098)"><path d="M218.673,343.353c-5.487-97.066,68.843-159.912,198.447-152.975,145.156,7.77,160.4,91.369,116.073,107.359s-136.638,145.5-150.106,171.58S226.388,479.832,218.673,343.353Z" transform="translate(-63.079 -131.466)" fill="#ebf7ff" opacity="0.85"/><path d="M1159.531,593.145c103.222,4.51,173.322,161.924,96.013,243.87s-364.26,52.611-354.035-6.869,132.729-40.374,185.385-113.866S1130.082,591.858,1159.531,593.145Z" transform="translate(-562.484 -426.394)" fill="#ebf7ff" opacity="0.85"/><path d="M718.085,1757.774c-80.418-.2-260.077,3.249-401.267,10.581s-21.685,23.761,75.555,16.766,165.263,15.281,284.28,7.758S811.388,1758.009,718.085,1757.774Z" transform="translate(-87.69 -1278.157)" fill="#9bd6e8" opacity="0.5"/><g transform="translate(241.433 129.917)"><g transform="translate(0 180.582)"><path d="M551.711,1133.055a.667.667,0,0,1-.342-.094l-5.5-3.264-6,2.219a.672.672,0,0,1-.466-1.26l6.3-2.33a.672.672,0,0,1,.576.052l5.775,3.428a.672.672,0,0,1-.343,1.249Z" transform="translate(-538.965 -1128.284)" fill="#63acc2"/></g><g transform="translate(23.993 191.083)"><path d="M807.714,1274.822a.663.663,0,0,1-.342-.094l-11.918-7.074a.671.671,0,0,1,.686-1.155l11.918,7.074a.671.671,0,0,1-.344,1.249Zm-23.836-14.147a.666.666,0,0,1-.342-.094l-11.918-7.074a.671.671,0,1,1,.686-1.155l11.918,7.074a.672.672,0,0,1-.343,1.249Zm-23.836-14.148a.663.663,0,0,1-.342-.094l-11.918-7.074a.672.672,0,1,1,.686-1.155l11.918,7.073a.672.672,0,0,1-.343,1.249Zm-23.836-14.147a.667.667,0,0,1-.343-.094l-11.918-7.073a.672.672,0,0,1,.686-1.155l11.918,7.073a.672.672,0,0,1-.343,1.249Zm-23.836-14.147a.665.665,0,0,1-.342-.095l-11.918-7.074a.672.672,0,1,1,.686-1.155l11.918,7.074a.672.672,0,0,1-.343,1.249Zm-23.836-14.148a.666.666,0,0,1-.342-.094l-11.918-7.074a.671.671,0,0,1,.686-1.155l11.918,7.073a.672.672,0,0,1-.344,1.249ZM664.7,1189.938a.668.668,0,0,1-.343-.094l-11.918-7.073a.672.672,0,0,1,.686-1.155l11.918,7.073a.672.672,0,0,1-.343,1.249Zm-23.836-14.147a.664.664,0,0,1-.342-.094l-11.918-7.073a.672.672,0,1,1,.686-1.155l11.918,7.073a.671.671,0,0,1-.343,1.249Z" transform="translate(-628.273 -1167.373)" fill="#63acc2"/></g><g transform="translate(214.68 304.023)"><path d="M1344.521,1592.782a.667.667,0,0,1-.343-.094l-5.776-3.428a.671.671,0,1,1,.686-1.155l5.416,3.214,5.277-3.439a.672.672,0,1,1,.733,1.125l-5.627,3.667A.673.673,0,0,1,1344.521,1592.782Z" transform="translate(-1338.073 -1587.772)" fill="#63acc2"/></g><g transform="translate(238.005 195.244)"><path d="M1425.571,1285.214a.672.672,0,0,1-.367-1.234l11.923-7.77a.672.672,0,0,1,.734,1.125l-11.923,7.77A.667.667,0,0,1,1425.571,1285.214Zm23.846-15.54a.672.672,0,0,1-.367-1.234l11.923-7.77a.672.672,0,0,1,.734,1.126l-11.923,7.77A.671.671,0,0,1,1449.417,1269.675Zm23.846-15.54a.672.672,0,0,1-.367-1.234l11.923-7.77a.672.672,0,0,1,.733,1.125l-11.923,7.77A.67.67,0,0,1,1473.263,1254.134Zm23.846-15.54a.672.672,0,0,1-.368-1.234l11.923-7.77a.672.672,0,1,1,.733,1.125l-11.923,7.77A.67.67,0,0,1,1497.109,1238.595Zm23.846-15.54a.672.672,0,0,1-.367-1.235l11.923-7.77a.672.672,0,0,1,.734,1.125l-11.923,7.77A.668.668,0,0,1,1520.955,1223.055Zm23.847-15.54a.672.672,0,0,1-.367-1.234l11.923-7.77a.672.672,0,0,1,.734,1.126l-11.923,7.77A.669.669,0,0,1,1544.8,1207.515Zm23.846-15.54a.671.671,0,0,1-.367-1.234l11.922-7.77a.672.672,0,1,1,.734,1.125l-11.923,7.77A.67.67,0,0,1,1568.648,1191.975Z" transform="translate(-1424.898 -1182.862)" fill="#63acc2"/></g><g transform="translate(404.929 177.192)"><path d="M2046.913,1127.292a.672.672,0,0,1-.367-1.235l5.382-3.507,1.11-6.328a.672.672,0,1,1,1.323.232l-1.16,6.615a.671.671,0,0,1-.294.447l-5.627,3.666A.67.67,0,0,1,2046.913,1127.292Z" transform="translate(-2046.241 -1115.667)" fill="#63acc2"/></g><g transform="translate(414.091 41.596)"><path d="M2081.018,734.313a.664.664,0,0,1-.117-.01.672.672,0,0,1-.546-.777l2.376-13.56a.672.672,0,1,1,1.323.232l-2.376,13.56A.672.672,0,0,1,2081.018,734.313Zm4.752-27.119a.7.7,0,0,1-.116-.01.671.671,0,0,1-.546-.777l2.375-13.56a.672.672,0,0,1,1.324.232l-2.376,13.56A.672.672,0,0,1,2085.77,707.194Zm4.753-27.119a.7.7,0,0,1-.117-.01.673.673,0,0,1-.546-.778l2.376-13.559a.672.672,0,1,1,1.323.232l-2.376,13.56A.672.672,0,0,1,2090.523,680.074Zm4.752-27.119a.661.661,0,0,1-.117-.011.671.671,0,0,1-.545-.777l2.376-13.56a.672.672,0,0,1,1.323.232l-2.376,13.56A.672.672,0,0,1,2095.275,652.955Zm4.752-27.119a.673.673,0,0,1-.663-.788l2.376-13.559a.672.672,0,0,1,1.323.232l-2.376,13.56A.672.672,0,0,1,2100.027,625.836Z" transform="translate(-2080.345 -610.933)" fill="#63acc2"/></g><g transform="translate(432.317 20.892)"><path d="M2154.4,542.354a.645.645,0,0,1-.116-.01.672.672,0,0,1-.547-.777l1.032-5.888-5.959-.471a.672.672,0,1,1,.106-1.339l6.7.529a.671.671,0,0,1,.608.785l-1.158,6.615A.672.672,0,0,1,2154.4,542.354Z" transform="translate(-2148.188 -533.866)" fill="#63acc2"/></g><g transform="translate(189.892)"><path d="M1475.423,477.271l-.054,0-13.478-1.065a.672.672,0,0,1,.106-1.339l13.478,1.065a.672.672,0,0,1-.052,1.341Zm-26.955-2.129-.054,0-13.477-1.065a.672.672,0,1,1,.106-1.339l13.478,1.065a.672.672,0,0,1-.052,1.341Zm-26.955-2.13-.054,0-13.477-1.065a.672.672,0,1,1,.106-1.339l13.477,1.065a.672.672,0,0,1-.052,1.341Zm-26.955-2.129-.054,0-13.477-1.065a.672.672,0,0,1,.106-1.339l13.477,1.065a.672.672,0,0,1-.052,1.341Zm-26.955-2.13-.054,0-13.477-1.065a.672.672,0,0,1,.106-1.339l13.478,1.065a.672.672,0,0,1-.052,1.341Zm-26.955-2.129-.054,0-13.478-1.065a.671.671,0,0,1,.105-1.339l13.478,1.065a.672.672,0,0,1-.052,1.341Zm-26.955-2.13-.054,0-13.477-1.065a.672.672,0,0,1,.106-1.339l13.477,1.065a.672.672,0,0,1-.052,1.341Zm-26.938-2.3a.72.72,0,0,1-.079,0L1273.25,460.6a.672.672,0,1,1,.157-1.334l13.427,1.582a.672.672,0,0,1-.078,1.339Zm-26.853-3.164a.648.648,0,0,1-.079,0L1246.4,457.44a.672.672,0,0,1,.157-1.334l13.427,1.582a.672.672,0,0,1-.078,1.339Z" transform="translate(-1245.804 -456.101)" fill="#63acc2"/></g><g transform="translate(22.525 46.61)"><g transform="translate(396.663 155.895)"><path d="M2105.006,1215.7a.669.669,0,0,1-.447-.17l-5.017-4.465a.672.672,0,1,1,.894-1l5.017,4.465a.672.672,0,0,1-.447,1.173Z" transform="translate(-2099.317 -1209.891)" fill="#63acc2"/></g><g transform="translate(236.48 13.372)"><path d="M1653.908,814.333a.669.669,0,0,1-.446-.17l-10.011-8.908a.672.672,0,1,1,.893-1l10.011,8.908a.672.672,0,0,1-.447,1.173Zm-20.023-17.815a.667.667,0,0,1-.446-.17l-10.012-8.908a.672.672,0,0,1,.893-1l10.011,8.908a.671.671,0,0,1-.447,1.173ZM1613.863,778.7a.669.669,0,0,1-.446-.17l-10.011-8.908a.672.672,0,1,1,.893-1l10.012,8.908a.672.672,0,0,1-.447,1.173Zm-20.023-17.815a.669.669,0,0,1-.446-.17l-10.011-8.908a.672.672,0,0,1,.893-1l10.011,8.908a.672.672,0,0,1-.447,1.174Zm-20.023-17.815a.669.669,0,0,1-.446-.17l-10.012-8.908a.672.672,0,0,1,.893-1l10.011,8.908a.672.672,0,0,1-.447,1.174Zm-20.023-17.815a.668.668,0,0,1-.446-.17l-10.012-8.908a.672.672,0,1,1,.893-1l10.012,8.907a.672.672,0,0,1-.447,1.174Zm-20.023-17.815a.666.666,0,0,1-.446-.17l-10.012-8.907a.672.672,0,0,1,.893-1l10.012,8.908a.672.672,0,0,1-.447,1.174Zm-20.023-17.816a.672.672,0,0,1-.446-.17l-10.011-8.908a.672.672,0,1,1,.893-1l10.012,8.908a.672.672,0,0,1-.447,1.173Z" transform="translate(-1503.066 -679.375)" fill="#63acc2"/></g><g transform="translate(215.705)"><path d="M1437.168,635.408a.669.669,0,0,1-.446-.17l-4.647-4.135-5.322,3.22a.672.672,0,0,1-.7-1.149l5.746-3.477a.673.673,0,0,1,.794.073l5.018,4.464a.672.672,0,0,1-.447,1.174Z" transform="translate(-1425.732 -629.6)" fill="#63acc2"/></g><g transform="translate(16.797 10.162)"><path d="M686.006,782.415a.672.672,0,0,1-.348-1.246l11.051-6.685a.672.672,0,1,1,.7,1.149l-11.051,6.685A.667.667,0,0,1,686.006,782.415Zm22.1-13.37a.672.672,0,0,1-.348-1.246l11.05-6.685a.671.671,0,0,1,.7,1.149l-11.051,6.685A.668.668,0,0,1,708.107,769.045Zm22.1-13.37a.672.672,0,0,1-.348-1.246l11.051-6.685a.671.671,0,1,1,.7,1.149l-11.051,6.685A.665.665,0,0,1,730.208,755.675Zm22.1-13.37a.672.672,0,0,1-.348-1.246l11.051-6.685a.672.672,0,0,1,.7,1.149l-11.051,6.685A.666.666,0,0,1,752.309,742.3Zm22.1-13.37a.672.672,0,0,1-.348-1.246L785.112,721a.672.672,0,0,1,.7,1.149l-11.05,6.685A.669.669,0,0,1,774.41,728.934Zm22.1-13.371a.672.672,0,0,1-.348-1.246l11.05-6.685a.671.671,0,1,1,.7,1.149l-11.05,6.685A.667.667,0,0,1,796.511,715.563Zm22.1-13.37a.672.672,0,0,1-.348-1.246l11.05-6.685a.672.672,0,0,1,.7,1.149l-11.05,6.685A.665.665,0,0,1,818.612,702.193Zm22.1-13.37a.672.672,0,0,1-.348-1.247l11.05-6.685a.672.672,0,1,1,.7,1.149l-11.05,6.685A.667.667,0,0,1,840.713,688.823Zm22.1-13.37a.672.672,0,0,1-.348-1.247l11.05-6.685a.672.672,0,1,1,.7,1.149l-11.05,6.685A.669.669,0,0,1,862.813,675.453Z" transform="translate(-685.334 -667.424)" fill="#63acc2"/></g><g transform="translate(0 130.494)"><path d="M623.483,1120.162a.672.672,0,0,1-.348-1.246l5.747-3.476a.671.671,0,1,1,.7,1.149l-5.747,3.476A.667.667,0,0,1,623.483,1120.162Z" transform="translate(-622.81 -1115.342)" fill="#63acc2"/></g></g><g transform="translate(206.793 30.268)"><g transform="translate(217.785)"><path d="M2120.054,575.084a.671.671,0,0,1-.5-1.123l4.515-4.971a.672.672,0,0,1,.994.9l-4.516,4.971A.669.669,0,0,1,2120.054,575.084Z" transform="translate(-2119.383 -568.77)" fill="#63acc2"/></g><g transform="translate(13.789 15.178)"><path d="M1360.715,840.944a.672.672,0,0,1-.5-1.123l9.273-10.207a.672.672,0,0,1,.995.9l-9.273,10.207A.67.67,0,0,1,1360.715,840.944Zm18.545-20.413a.672.672,0,0,1-.5-1.123l9.273-10.207a.671.671,0,1,1,.994.9l-9.272,10.206A.669.669,0,0,1,1379.26,820.531Zm18.545-20.413a.672.672,0,0,1-.5-1.123l9.273-10.206a.672.672,0,1,1,.994.9L1398.3,799.9A.669.669,0,0,1,1397.8,800.118Zm18.545-20.413a.672.672,0,0,1-.5-1.123l9.272-10.206a.672.672,0,1,1,.994.9l-9.273,10.206A.67.67,0,0,1,1416.35,779.706Zm18.545-20.413a.671.671,0,0,1-.5-1.123l9.272-10.207a.672.672,0,0,1,.995.9l-9.273,10.206A.67.67,0,0,1,1434.9,759.293Zm18.545-20.413a.672.672,0,0,1-.5-1.123l9.272-10.206a.672.672,0,0,1,.994.9l-9.273,10.206A.67.67,0,0,1,1453.44,738.88Zm18.545-20.413a.671.671,0,0,1-.5-1.123l9.273-10.206a.672.672,0,0,1,.995.9l-9.273,10.206A.67.67,0,0,1,1471.986,718.467Zm18.545-20.413a.671.671,0,0,1-.5-1.123l9.273-10.207a.672.672,0,0,1,.994.9l-9.272,10.206A.67.67,0,0,1,1490.53,698.054Zm18.545-20.413a.672.672,0,0,1-.5-1.123l9.272-10.206a.672.672,0,0,1,.995.9l-9.273,10.206A.671.671,0,0,1,1509.076,677.641Zm18.545-20.413a.672.672,0,0,1-.5-1.123L1536.4,645.9a.672.672,0,0,1,.994.9l-9.272,10.206A.669.669,0,0,1,1527.621,657.228Zm18.545-20.413a.672.672,0,0,1-.5-1.123l9.273-10.206a.672.672,0,0,1,.994.9l-9.272,10.207A.67.67,0,0,1,1546.166,636.815Z" transform="translate(-1360.043 -625.266)" fill="#63acc2"/></g><g transform="translate(0 239.72)"><path d="M1309.388,1467.4a.672.672,0,0,1-.5-1.123l4.516-4.971a.672.672,0,1,1,.994.9l-4.516,4.971A.671.671,0,0,1,1309.388,1467.4Z" transform="translate(-1308.717 -1461.084)" fill="#63acc2"/></g></g></g><g transform="translate(132.14 181.644)"><g transform="translate(0)" clip-path="url(#a)"><circle cx="86.013" cy="86.013" r="86.013" transform="translate(0 121.64) rotate(-45)" fill="#d5ebfe"/><g transform="translate(45.163 46.161)"><path d="M477.064,826.665c13.066-11.637,22.661-4.7,29.806,3.062,5.7,6.184,6.49,7.555,11.2,13.961a5.621,5.621,0,0,1,1.258,3.187c.132,7.083,3.756,37.03-.272,47.363-4.7,12.045-62.607,17.557-62.607,17.557Z" transform="translate(-414.484 -820.472)" fill="#303c60"/><g transform="translate(99.014 24.524)"><path d="M669.467,967.917a.655.655,0,0,1-.032-1.308,5.5,5.5,0,0,0,4.234-2.339c6.48-8.4,2.829-36.462-.35-51.722a.655.655,0,0,1,1.281-.267,204.794,204.794,0,0,1,3.744,27.511c.746,12.679-.479,21.183-3.639,25.278a6.822,6.822,0,0,1-5.2,2.847Z" transform="translate(-668.813 -911.758)" fill="#303c60"/></g><path d="M372.511,830.6c-25.111,13.883-9.8,60.837-41.647,77.578-8.823,4.638-35.931,28.173-18.169,59.2,11.618,20.3,46.343,15.924,57.775-2.041S372.511,830.6,372.511,830.6Z" transform="translate(-305.03 -827.883)" fill="#303c60"/><g transform="translate(0 20.237)"><path d="M300.907,985.1a.7.7,0,0,1-.087-.006.655.655,0,0,1-.563-.735,34.4,34.4,0,0,1,3.078-9.374,41.109,41.109,0,0,1,15.049-16.951c14.724-9.37,24.5-18.2,36.058-61.746a.654.654,0,0,1,1.265.336c-5.59,21.058-11.133,35.295-17.446,44.8-5.864,8.835-11.9,13.079-19.175,17.711a39.176,39.176,0,0,0-17.532,25.393A.655.655,0,0,1,300.907,985.1Z" transform="translate(-300.251 -895.802)" fill="#303c60"/></g><g transform="translate(0.55 16.767)"><path d="M302.953,963.493a.655.655,0,0,1-.553-1,45.543,45.543,0,0,1,13.8-14.07c20.679-13.373,24.1-21.064,41.189-65.118a.654.654,0,1,1,1.22.473c-8.547,22.036-13.655,34.95-19.243,44.1-6.005,9.837-12.781,15.384-22.455,21.64a44.24,44.24,0,0,0-13.407,13.67A.654.654,0,0,1,302.953,963.493Z" transform="translate(-302.299 -882.883)" fill="#303c60"/></g><path d="M528.091,939.676a73.213,73.213,0,0,0-7.315,34.25s1,6.318,4.988,7.648,9.643-2.66,9.311-7.981,1.33-18.289,3.325-22.944S528.091,939.676,528.091,939.676Z" transform="translate(-461.478 -907.652)" fill="#f09959"/><path d="M378.173,1368.523c.544,4.9-.68,4.491,3.675,5.308s12.113-2.177,12.113-2.177l-8.711-16.2Z" transform="translate(-357.239 -1211.733)" fill="#6791c9"/><path d="M414.825,1031.271c-2.45,7.961-20.823,1.837-27.253,3.674s-11.942,28.784-12.861,52.975.306,43.482,2.756,46.544,42.87,4.287,46.544,3.062-30.621-16.536-30.621-16.536-2.143-28.171.612-42.563,27.559-33.377,27.559-33.377Z" transform="translate(-354.484 -974.64)" fill="#f09959"/><path d="M551.771,1040.39c6.43,9.8,23.272,8.574,29.091,16.535s18.066,51.75,18.066,51.75l12.861-44.4s10.43-1.752,7.043,5.512c-6.024,12.918-8.27,54.6-14.8,60.52-7.265,6.584-14.495,1.225-18.574-10.3-3.947-11.15-13.78-35.215-20.822-44.4s-14.7-23.885-14.7-23.885Z" transform="translate(-482.857 -981.309)" fill="#f09959"/><path d="M391.123,1041.5c12.861,15,37.971,14.392,43.483,12.555l5.512-1.837s4.287-1.531,7.962,2.756,12.555,31.234,14.086,37.358,3.981,16.229,3.981,16.229-6.57,7.885-6.57,15.847,2.79,8.03,2.79,8.03-8.163-1.829-10-6.729-18.373-49.3-18.373-49.3l-45.626.918.613,50.219s-3.981-3.675-9.493,0-7.349,12.248-6.43,13.473-1.837,1.225-1.837.306-5.206-23.272-1.531-60.018,10.717-40.726,14.7-41.033A12.934,12.934,0,0,1,391.123,1041.5Z" transform="translate(-350.074 -981.199)" fill="#75a1de"/><g transform="translate(88.131 85.608)"><path d="M711.281,1381.089a.487.487,0,0,0,.136.029Z" transform="translate(-688.989 -1316.088)" fill="#6791c9"/><path d="M652.361,1182.006c-2.654.817-7.145,10.208-7.145,10.208s-10.208-22.253-13.27-53.08l-3.644,20.913c5.03,13.5,12.924,34.695,14.161,37.993,1.681,4.482,8.458,6.352,9.388,6.559-.254-.086-.816-.425-1.28-1.77-.268-.245-1.8-.961-2.088-1.224-2.45-2.246-1.429-7.554.2-13.474S655.015,1181.189,652.361,1182.006Z" transform="translate(-628.302 -1139.134)" fill="#6791c9"/></g><path d="M423.307,1115.156l-5.061-23.137c-5.512,7.758-6.125,34.3-3.879,52.467,1.842,14.9,4.6,18.768,6.489,20.321a5.568,5.568,0,0,1,.867.612l-.613-50.218Z" transform="translate(-382.818 -1019.068)" fill="#6791c9"/><path d="M396.411,1091.258c9.391,25.315,4.7,30.419,17.053,60.131,6.9,16.595,20.21,29.09,20.21,29.09a84.527,84.527,0,0,0,24.191,1.837c13.473-.918,23.337-1.844,23.337-1.844s-14.151-8.567-14.763-14.385-3.27-28.9.2-45.228c2.71-12.754-8.468-25.508-8.468-25.508l-18.679-.919Z" transform="translate(-370.578 -1018.511)" fill="#75a1de"/><path d="M457.425,1229.66c-1.633-5.921,6.941,1.837,21.028,3.266s29.806-.816,22.048,1.633-28.99-1.225-25.111,6.533c4.565,9.13,9.955,17.965,17.761,23.273,5.1,3.471,17.353,6.737,5.512,4.9s-24.5-15.72-30.01-24.7S457.789,1230.98,457.425,1229.66Z" transform="translate(-415.055 -1118.124)" fill="#6791c9" opacity="0.5"/><path d="M548.492,974.575c.124-6.111,1.615-16.541,3.36-20.613,1.429-3.335-4.481-7.524-7.947-9.631l-2.932-.126q-.67,1.46-1.257,2.9c-3.1,20.324,6.168,28.722,10.588,30.412a13.361,13.361,0,0,0,5.872.645A35.581,35.581,0,0,1,548.492,974.575Z" transform="translate(-474.931 -910.964)" fill="#e38540"/><g transform="translate(54.588 60.331)"><path d="M516.808,1057.391a13.827,13.827,0,0,1-3.266-.4c-2.562-.624-8.672-3-10.093-11.521a.371.371,0,0,1,.732-.122c1.348,8.089,7.118,10.333,9.537,10.923,3.754.916,7.737.071,9.263-1.965,1.224-1.631.487-5.108.479-5.143a.371.371,0,1,1,.725-.158c.034.156.815,3.846-.61,5.745C522.315,1056.435,519.716,1057.391,516.808,1057.391Z" transform="translate(-503.445 -1045.042)" fill="#f5ce5c"/></g><path d="M579.426,906.661c-2.077,10.968-6.874,19.817-14.993,18.149s-16.653-13.253-14.407-24.189,10.649-18.448,18.767-16.78S582.194,892.045,579.426,906.661Z" transform="translate(-482.658 -866.647)" fill="#f09959"/><path d="M724.683,1171.05s-15.005,40.32-15.72,44.505.715,6.839,1.123,6.839,13.168-21.844,13.168-21.844Z" transform="translate(-599.019 -1076.867)" fill="#f09959"/><path d="M768.44,1139.27c1.225-4.083-.68-9.255-.68-9.255l5.444.68Z" transform="translate(-642.164 -1046.856)" fill="#f09959"/><g transform="translate(115.689 50.541)"><path d="M747.452,1043.508H732.261a1.378,1.378,0,0,1-1.32-1.772l9.589-32.152a1.379,1.379,0,0,1,1.321-.984h15.19a1.378,1.378,0,0,1,1.321,1.772l-9.589,32.152A1.378,1.378,0,0,1,747.452,1043.508Z" transform="translate(-730.883 -1008.6)" fill="#4381db"/><path d="M754.544,1043.508h-15.19a1.378,1.378,0,0,1-1.321-1.772l9.589-32.152a1.378,1.378,0,0,1,1.32-.984h15.19a1.378,1.378,0,0,1,1.321,1.772l-9.589,32.152A1.379,1.379,0,0,1,754.544,1043.508Z" transform="translate(-736.07 -1008.6)" fill="#2e5b9a"/><path d="M751.97,1023.4c-1.619,5.835-2.71,10.627-2.435,10.7s1.811-4.592,3.43-10.427,2.709-10.627,2.434-10.7S753.589,1017.568,751.97,1023.4Z" transform="translate(-744.493 -1011.8)" fill="#9cbeed"/></g><path d="M782.385,1076.7c.449-5.3,5.042-10.273,6.789-11.858a2.508,2.508,0,0,0,.825-1.883c-.025-2.643-.143-8.882-.689-9.611-.7-.927-2.435-12.874-3.247-12.41s.232,10.9.232,10.9-1.972-.928-3.016-1.392-5.335,4.291-5.335,4.291-2.013,5.083,3.489,2.906c6.533-2.586,1.633,4.628-2.722,9.255-3.589,3.813-.535,4.656-.535,4.656l2.9-.116Z" transform="translate(-648.895 -981.7)" fill="#f09959"/><g transform="translate(125.701 92.076)"><path d="M774.291,1170.336a5.376,5.376,0,0,1-1.58-.246c-1.42-.442-3.9-1.87-4.556-6.457a.371.371,0,0,1,.735-.1c.548,3.838,2.394,5.265,3.846,5.787a3.781,3.781,0,0,0,2.516.118.371.371,0,0,1,.709-.071.51.51,0,0,1-.114.542A2.276,2.276,0,0,1,774.291,1170.336Z" transform="translate(-768.151 -1163.209)" fill="#f5ce5c"/></g><g transform="translate(125.037 93.659)"><path d="M771.909,1173.331a9.584,9.584,0,0,1-1.364-.1c-2.64-.383-4.409-1.724-4.855-3.679a.371.371,0,0,1,.724-.165,4.179,4.179,0,0,0,3.27,2.911,6.3,6.3,0,0,0,3.967-.015.362.362,0,0,1,.5-.134.379.379,0,0,1,.136.513C774.028,1173.123,773.026,1173.331,771.909,1173.331Z" transform="translate(-765.681 -1169.1)" fill="#f5ce5c"/></g><g transform="translate(83.226 31.861)"><path d="M614.269,952.987a3.383,3.383,0,0,1-.508-.039c-2.608-.4-4.186-3.752-3.591-7.633s3.106-6.6,5.711-6.207,4.185,3.752,3.591,7.632C618.916,950.368,616.688,952.987,614.269,952.987Zm1.116-12.607c-1.728,0-3.48,2.25-3.922,5.135-.467,3.049.676,5.861,2.5,6.14s3.751-2.063,4.219-5.112-.676-5.862-2.5-6.14A1.953,1.953,0,0,0,615.385,940.38Z" transform="translate(-610.045 -939.07)" fill="#fff"/></g><g transform="translate(93.421 33.567)"><path d="M650.526,957.633a1.759,1.759,0,0,1-.262-.02c-1.739-.267-2.65-3.084-2.119-6.555s2.245-5.885,3.984-5.62,2.651,3.084,2.119,6.555a10.4,10.4,0,0,1-1.432,4.04A2.951,2.951,0,0,1,650.526,957.633Zm1.344-11.224c-.974,0-2.3,1.9-2.747,4.8-.461,3.011.31,5.276,1.291,5.426.477.073,1.049-.344,1.574-1.145a9.394,9.394,0,0,0,1.281-3.647c.461-3.011-.31-5.276-1.291-5.427A.692.692,0,0,0,651.87,946.408Z" transform="translate(-647.994 -945.418)" fill="#fff"/></g><g transform="translate(63.967 28.608)"><path d="M559.021,933.984a.663.663,0,0,1-.18-.025l-20.007-5.716a.654.654,0,1,1,.359-1.259L559.2,932.7a.654.654,0,0,1-.18,1.284Z" transform="translate(-538.359 -926.959)" fill="#fff"/></g><path d="M579.54,875.475c-30.963,18.238-32.664,5.988-32.664,5.988l1.837-17.421,18.374,1.021Z" transform="translate(-480.62 -852.337)" fill="#303c60"/><path d="M536.086,930.821c.72,3.083-.263,5.949-2.2,6.4s-4.086-1.682-4.806-4.764.264-5.948,2.2-6.4S535.365,927.738,536.086,930.821Z" transform="translate(-467.435 -897.647)" fill="#f09959"/><path d="M541.258,955.708a1.219,1.219,0,1,1-1.219-1.219A1.219,1.219,0,0,1,541.258,955.708Z" transform="translate(-474.729 -918.485)" fill="#f5ce5c"/><path d="M581.072,1385.237s8.37-3.675,10.82-2.042,9.527,9.119,9.527,9.119Z" transform="translate(-505.63 -1231.714)" fill="#f09959"/><path d="M603.775,1379.209c-.16.2-.4.282-.53.183l-17.223-12.822c-.928-.691-1.369-1.747-.923-2.3s1.574-.359,2.451.395l16.288,13.991C603.963,1378.761,603.934,1379.01,603.775,1379.209Z" transform="translate(-508.446 -1217.942)" fill="#2e5b9a"/><path d="M476.838,1386.107s13.882,5.512,15.516,5.512,10.752-6.125,13.814-5.308,18.034,8.37,17.625,8.983-4.7,2.042-17.353,1.633-33.277-2.246-33.277-2.246Z" transform="translate(-426.71 -1234.15)" fill="#f09959"/></g></g></g><g transform="translate(339.025 303.41)"><path d="M1012.839,1658.081s-72.8-50.563-103.588-21.409c-24.587,23.279,19.057,50.627,74.89,43.274,39.3-5.176,43.754,2.342,50.638,2.18,51.223-3.926,120.244-19.25,86.654-43.328-45.757-32.8-76.708,1.973-92.651,10.628Z" transform="translate(-902.235 -1484.458)" fill="#232e4f"/><path d="M1139.285,1647.927c-19.133-3.949-92.02,23.081-92.02,23.081s-63.473-19.133-78.658-20.955-22.17,3.948-22.17,3.948,7.165-8.073,15.489-8.807,20.348-2.734,20.348-2.734,121.479-5.77,137.575-2.126S1139.285,1647.927,1139.285,1647.927Z" transform="translate(-934.562 -1494.801)" fill="#1b243d"/><path d="M1148.464,1305.628c-2.886.455-47.76,20.029-48.31,28.229s12.294,74.72,37.135,83.374,52.628,0,52.628,0,29.153-71.972,20.5-85.638-47.83-25.965-47.83-25.965Z" transform="translate(-1046.971 -1250.896)" fill="#ffd24f"/><path d="M1031.211,1354.08c-42.87,22.971-53.4,64.445-42.059,73.587,7.944,6.406,37.9,20.574,63.865,19.663a423.593,423.593,0,0,1,50.35,1.533s44.541-9.063,53.425-22.411-15.762-56.709-37.861-69.243S1031.211,1354.08,1031.211,1354.08Z" transform="translate(-962.699 -1283.855)" fill="#ffd24f"/><path d="M1280.062,1244.786a10.813,10.813,0,0,1-10.782-10.781v-36.289a10.781,10.781,0,1,1,21.563,0v36.289A10.813,10.813,0,0,1,1280.062,1244.786Z" transform="translate(-1170.674 -1164.09)" fill="#f09959"/><path d="M1280.062,1186.935a10.813,10.813,0,0,0-10.782,10.781v29.674c6.357,5.312,12.512,2.529,21.563-4.486v-25.187A10.813,10.813,0,0,0,1280.062,1186.935Z" transform="translate(-1170.674 -1164.09)" fill="#e38540"/><path d="M1376.362,1208.193c-1.771,3.617-4.649,5.623-6.426,4.48s-1.783-5-.011-8.618,4.649-5.623,6.426-4.48S1378.133,1204.577,1376.362,1208.193Z" transform="translate(-1243.31 -1173.1)" fill="#f09959"/><path d="M1221.809,1208.014c2.048,3.291,2.442,7.268.879,8.883s-4.492.256-6.541-3.035-2.442-7.268-.879-8.883S1219.76,1204.723,1221.809,1208.014Z" transform="translate(-1130.472 -1176.789)" fill="#f09959"/><ellipse cx="18.542" cy="23.875" rx="18.542" ry="23.875" transform="translate(91.331 10.985)" fill="#f09959"/><path d="M1427.652,1451.624c12.148,6.479,22.734,31.029,22.734,31.029s-27.333,4.252-33,8.5.81-1.62,4.049-13.363S1427.652,1451.624,1427.652,1451.624Z" transform="translate(-1277.349 -1357.671)" fill="#edc055"/><path d="M1071.391,1445.037c2.834,12.958,16.4,49.134,16.4,49.134s-12.565-14.31-25.916-15.12-18.306-1.012-18.222,2.227c.016.64,2.227-14.375,12.552-23.688S1071.391,1445.037,1071.391,1445.037Z" transform="translate(-1005.661 -1352.853)" fill="#edc055"/><path d="M1209.766,1572.05h-73.352a6.05,6.05,0,0,1-5.967-5.05l-8.845-52.787a6.05,6.05,0,0,1,5.967-7.05h91.041a6.05,6.05,0,0,1,5.967,7.05L1215.733,1567A6.05,6.05,0,0,1,1209.766,1572.05Z" transform="translate(-1062.608 -1398.29)" fill="#2a66c6"/><path d="M1209.766,1578.424h-73.352a5.99,5.99,0,0,1-5.967-4.868l-8.845-50.882a5.9,5.9,0,0,1,5.967-6.8h91.041a5.9,5.9,0,0,1,5.967,6.8l-8.845,50.882A5.989,5.989,0,0,1,1209.766,1578.424Z" transform="translate(-1062.608 -1404.664)" fill="#63acc2"/><path d="M1187.818,1808.82c-.439-.076-47.374-11.823-57.851-3.168s35.076,8.8,43.275,6.906S1187.818,1808.82,1187.818,1808.82Z" transform="translate(-1067.649 -1614.263)" fill="#1b243d"/><path d="M1388.544,1816.651s10.022-7.551,23.232-6.185,24.6,4.247,13.21,7.817a83.713,83.713,0,0,1-28.7,3.571A9.918,9.918,0,0,1,1388.544,1816.651Z" transform="translate(-1257.897 -1619.99)" fill="#1b243d"/><path d="M1269.9,1103.1c-12.044,3.654-7.853,37.561,5.917,36.443s14.329-15.778,13.351-25.273S1282.325,1099.335,1269.9,1103.1Z" transform="translate(-1165.942 -1101.9)" fill="#0f2d5c"/><path d="M1236.783,1134.148c-3.351-3.211-7.959,6.9-6.144,11.337s-.724,7.026,1.733,11.808-4.525-3.038-5.5-8.763-1.536-15.639-2.932-20.107.071-12.216,6.293-13.823,7.67-4.468,10.044-4.608,13.684.977,19.269,4.049,8.657,7.68,8.238,14.661-2.234,24.854-3.91,27.787-2.542,2.237-2.039.56,2.319-11.73.922-15.361-.7-12.567-4.328-13.265-2.793,5.492-7.121,5.958S1236.783,1134.148,1236.783,1134.148Z" transform="translate(-1137.156 -1107.81)" fill="#0f2d5c"/></g><g transform="translate(302.714 219.042)"><path d="M837,823H770.86a3.787,3.787,0,0,1-3.786-3.834l.348-27.478a3.905,3.905,0,0,1,3.883-3.834h66.139a3.787,3.787,0,0,1,3.785,3.834l-.348,27.478A3.905,3.905,0,0,1,837,823Z" transform="translate(-767.074 -787.853)" fill="#9ec8ff"/><path d="M844.179,827.952H784.617a3.28,3.28,0,0,1-3.279-3.321l.288-22.753a3.382,3.382,0,0,1,3.363-3.321h59.561a3.28,3.28,0,0,1,3.279,3.321l-.288,22.753A3.382,3.382,0,0,1,844.179,827.952Z" transform="translate(-777.506 -795.681)" fill="#fff"/><path d="M842.542,912.732c-.4,14.484-7.27,18.958-7.27,18.958s3.087-8.307.8-12.355a14.722,14.722,0,0,0-6.1-5.751Z" transform="translate(-813.068 -879.183)" fill="#9ec8ff"/><path d="M897.605,822.307H859.21a1.131,1.131,0,0,1-1.13-1.145v-.053a1.166,1.166,0,0,1,1.159-1.145h38.4a1.131,1.131,0,0,1,1.13,1.145v.053A1.166,1.166,0,0,1,897.605,822.307Z" transform="translate(-833.631 -811.337)" fill="#9ec8ff"/><path d="M897.375,840.544h-38.4a1.13,1.13,0,0,1-1.13-1.145v-.054a1.166,1.166,0,0,1,1.16-1.145H897.4a1.131,1.131,0,0,1,1.131,1.145v.054A1.165,1.165,0,0,1,897.375,840.544Z" transform="translate(-833.463 -824.675)" fill="#9ec8ff"/><path d="M897.113,861.159h-38.4a1.131,1.131,0,0,1-1.13-1.145v-.053a1.166,1.166,0,0,1,1.159-1.145h38.395a1.131,1.131,0,0,1,1.13,1.145v.053A1.166,1.166,0,0,1,897.113,861.159Z" transform="translate(-833.271 -839.752)" fill="#9ec8ff"/><path d="M811.519,822.769c-.053,4.176-2.862,7.562-6.273,7.562s-6.135-3.386-6.082-7.562,2.862-7.562,6.273-7.562S811.572,818.592,811.519,822.769Z" transform="translate(-790.543 -807.858)" fill="#9ec8ff"/></g><g transform="translate(357.091 268.636)"><path d="M1040.3,1008.055H973.317a3.835,3.835,0,0,1-3.834-3.883l.352-27.83a3.956,3.956,0,0,1,3.933-3.883h66.987a3.836,3.836,0,0,1,3.834,3.883l-.352,27.83A3.955,3.955,0,0,1,1040.3,1008.055Z" transform="translate(-969.483 -972.458)" fill="#9ec8ff"/><path d="M1047.576,1013.071H987.251a3.322,3.322,0,0,1-3.321-3.363l.292-23.045a3.425,3.425,0,0,1,3.406-3.364h60.324a3.322,3.322,0,0,1,3.321,3.364l-.292,23.045A3.426,3.426,0,0,1,1047.576,1013.071Z" transform="translate(-980.049 -980.387)" fill="#fff"/><path d="M1114.594,1098.939c.03,14.67,6.876,19.2,6.876,19.2s-2.914-8.414-.489-12.513a15.469,15.469,0,0,1,6.33-5.825Z" transform="translate(-1075.61 -1064.96)" fill="#9ec8ff"/><path d="M1042.026,1014.582h-32.814a1.055,1.055,0,0,1-1.054-1.068l0-.237a1.088,1.088,0,0,1,1.082-1.068h32.814a1.055,1.055,0,0,1,1.055,1.068l0,.237A1.088,1.088,0,0,1,1042.026,1014.582Z" transform="translate(-997.768 -1001.53)" fill="#9ec8ff"/><path d="M1041.791,1033.053h-32.814a1.055,1.055,0,0,1-1.055-1.068l0-.237a1.087,1.087,0,0,1,1.081-1.068h32.814a1.055,1.055,0,0,1,1.055,1.068l0,.237A1.087,1.087,0,0,1,1041.791,1033.053Z" transform="translate(-997.596 -1015.038)" fill="#9ec8ff"/><path d="M1041.527,1053.932h-32.814a1.055,1.055,0,0,1-1.055-1.068l0-.237a1.088,1.088,0,0,1,1.082-1.068h32.813a1.055,1.055,0,0,1,1.055,1.068l0,.237A1.088,1.088,0,0,1,1041.527,1053.932Z" transform="translate(-997.403 -1030.308)" fill="#9ec8ff"/><path d="M1169.662,1020.047h-4.746a3.836,3.836,0,0,1-3.834-3.883l.123-9.708a3.955,3.955,0,0,1,3.932-3.884h4.746a3.836,3.836,0,0,1,3.834,3.884l-.123,9.708A3.955,3.955,0,0,1,1169.662,1020.047Z" transform="translate(-1109.608 -994.482)" fill="#9ec8ff"/></g><g transform="translate(345.645 10.098)"><g transform="translate(0 0)" clip-path="url(#b)"><circle cx="94.303" cy="94.303" r="94.303" transform="translate(0 133.364) rotate(-45)" fill="#d5ebfe"/><g transform="translate(91.598 70.35)"><path d="M1294.008,473.765a6.905,6.905,0,0,1-7.43,1.087c-4.128-1.987-19.2-12.637-18.738-15.236s7.5-3.221,7.5-3.221S1297.157,473.642,1294.008,473.765Z" transform="translate(-1267.83 -406.848)" fill="#255096"/><path d="M1296.83,477.664c2.826-.452-6.472-7.848-9.513-10.9a46.931,46.931,0,0,0-5-4.484s-5.2.633-5.2,1.641,14.906,12.912,14.906,12.912S1295.555,477.868,1296.83,477.664Z" transform="translate(-1274.623 -411.148)" fill="#ffc34e"/><path d="M1361.07,517.8s-5.427-9.173-8.026-11.618-11.373-7.187-12.7-7.216c-2.277-.05,7.813,6.758,7.813,6.758s-1.375,8.867-.152,12.077,14.064,7.491,14.064,7.491Z" transform="translate(-1320.615 -437.984)" fill="#f09959"/><path d="M1406.449,571.081s-8.866-13.3-10.854-12.383-7.338,12.383-7.338,12.383,15.593,16.2,15.593,13.147S1406.449,571.081,1406.449,571.081Z" transform="translate(-1355.904 -481.634)" fill="#a1a654"/><path d="M1414.161,339.78s9.172,32.409,15.287,45.862,9.172,38.524,7.949,82.551,7.338,42.8-5.5,48.308-58.7-3.669-64.818-17.733,4.094-71.324,19.262-92.335c14.974-20.744,21.708-28.128,21.708-33.02s-5.918-25.683-5.918-25.683Z" transform="translate(-1339.096 -321.561)" fill="#f09959"/><path d="M1367.076,592.822c-6.115-14.064,4.094-71.324,19.262-92.335,6.973-9.66,12.159-16.422,15.71-21.386,7.26-4.334,15.277-8.371,22.97-10.718,1.538,4.336,3.061,8.3,4.43,11.313,6.115,13.453,9.172,38.524,7.949,82.551s7.338,42.8-5.5,48.308S1373.191,606.886,1367.076,592.822Z" transform="translate(-1339.096 -415.616)" fill="#c1c765"/><path d="M1504.583,445.879c-.152-2.516-32.817,10.4-33.021,12.841s-2.131,11.57-4.836,16.486,45.474,32.375,43.7,19.005S1504.991,452.606,1504.583,445.879Z" transform="translate(-1413.213 -398.92)" fill="#c1c765"/><path d="M1508.342,373.958c.018-.185.028-.367.028-.546,0-4.892-5.918-25.683-5.918-25.683l12.033-7.95s2.129,7.524,5.02,16.826C1515.768,367.771,1512.27,371.577,1508.342,373.958Z" transform="translate(-1439.421 -321.561)" fill="#e38540"/><path d="M1419.935,331.088c2.543,11.525,10.5,19.72,19.7,17.466,6.747-1.653,17.119-11.09,13.793-24.858-2.771-11.472-12.1-19.212-21.353-17.171S1417.392,319.564,1419.935,331.088Z" transform="translate(-1378.615 -297.002)" fill="#f09959"/><path d="M1306.36,537.149c-8.35-14.419-9.283-27.887-15.2-32.093-8.321-5.917-15.157-19.149-12.143-19.67s15.213,10.656,15.213,10.656-3.174-4.345-2.417-4.708,6.9,4.1,7.857,9.368,12.758,29.489,22.661,37.247S1314.71,551.568,1306.36,537.149Z" transform="translate(-1275.483 -428.037)" fill="#f09959"/><path d="M1431.421,541.538c14.8,3.683,8.028,48.362-4.445,74.86s-35.913,3.606-44.678-2.885a29.094,29.094,0,0,1-6.962-7.114c2.813-15.812,7.638-32.774,13.592-44.711C1402.891,578.078,1409.531,536.089,1431.421,541.538Z" transform="translate(-1346.454 -468.758)" fill="#a1a654"/><path d="M1396.681,530.828c18.605,1.865,8.417,48.308-5.187,67.06s-32.968.611-39.083-10.192-18.5-29.172-18.5-41.123c0-2.242,4.586-2.7,10.089-2.293,5.182.384,28.594,32.613,28.594,32.613S1380.414,529.2,1396.681,530.828Z" transform="translate(-1316.161 -461.254)" fill="#c1c765"/><path d="M1383.784,282.02c-11.376,4.789-4.561,19.939,1.437,20.507s12.934-10.492,16.5-10.867-.719,6.186,2.452,7.685,6.13,3.991,7.053,7.927,3.457,12.5-.681,12.879-8.637-4.124-11.448-4.311a15.347,15.347,0,0,0-5.254.626s7.141,9.871,12.383,10.434,10.963-7.1,15.038-13.579,2.344-10.794,2.344-10.794,4.168,4.691,6.792,4.316-3.936-4.124-4.124-15.183-5.061-16.87-11.059-16.87-5.249-3.053-14.41-2.812C1392.547,272.2,1386.453,280.9,1383.784,282.02Z" transform="translate(-1348.144 -271.965)" fill="#0f2d5c"/><path d="M1493.518,380.349c-.265,2.855,1.2,5.326,3.274,5.519s3.97-1.966,4.235-4.821-1.2-5.326-3.274-5.519S1493.783,377.493,1493.518,380.349Z" transform="translate(-1432.864 -347.697)" fill="#f09959"/></g></g></g><g transform="translate(561.007 215.717)"><g transform="translate(0 0)" clip-path="url(#c)"><circle cx="67.495" cy="67.495" r="67.495" transform="translate(0 95.453) rotate(-45)" fill="#d5ebfe"/><g transform="translate(35.39 46.042)"><path d="M2038.3,979.133c-5.144,10.286-.886,22.131,9.231,26.316,10.184,4.212,21.318,1.82,26.463-8.466s1.323-22.62-8.533-27.549S2043.443,968.847,2038.3,979.133Z" transform="translate(-1988.866 -961.883)" fill="#303c60"/><g transform="translate(75.834 16.517)"><path d="M2143.855,1036.751a3.332,3.332,0,0,1-.846-.089.655.655,0,0,1,.358-1.26c.015,0,2.381.559,5.927-2.586,4-3.551,6.8-11.617,2.655-23.607a.655.655,0,0,1,1.238-.428c5.483,15.856-.928,23.155-3.023,25.014C2147.292,1036.343,2145.017,1036.751,2143.855,1036.751Z" transform="translate(-2142.534 -1008.341)" fill="#303c60"/></g><g transform="translate(0 53.672)"><path d="M1921.686,1160.063c-5.854,1.312-13.245,17.58-16.865,28-3.65,10.512-9.839,23.552-13.89,27.6s-30.676,13.445-30.676,13.445,65.783.127,64.435,0S1921.686,1160.063,1921.686,1160.063Z" transform="translate(-1860.255 -1156.458)" fill="#a8ceff"/><path d="M1922.507,1223.887c3.6-.515,16.593,1.157,11.062-1.158s-4.759-5.274-4.759-5.274,7.846,6.56,9.261.823c1.22-4.946,1.687-22.408,6.317-39.911,3.826-8.678,8.832-17.361,13.043-18.3,0,0,.149,6.162.392,14.8-1.615,19.122-4.357,47.216-5.053,54.3-8.719.014-23.312,0-35.52-.016l-8.12-.387S1918.905,1224.4,1922.507,1223.887Z" transform="translate(-1895.999 -1156.458)" fill="#93bbf0"/><path d="M2077.312,1146.644s18.622,10.405,22.963,12.618-12.162,67.164-15.832,69.948-35.982.479-39.66-3.028,2.823-14.27-.36-35.82,9.709-40.155,11.366-40.113,12.466-3.6,12.466-3.6Z" transform="translate(-1994.358 -1146.644)" fill="#a8ceff"/><path d="M2078.778,1266.143c-3.67,2.784-26.791,2.846-36.633-.216-1.111-.346-6.154-2.355-6.272-4.245,1.188-.223,5.9.344,7.818-.1,6.656-1.53,10.323-9.775,10.323-9.775s3.665-1.318,11.865-4.791,4.823-13.988,5.017-18.618,8.1-19.776,22.96-31.256l1.362.61C2096.277,1208.311,2082.174,1263.568,2078.778,1266.143Z" transform="translate(-1988.693 -1183.578)" fill="#93bbf0"/><path d="M2055.2,1393.8c-11.7,2.187-14.582,4.874-20.963,5.9-7.234,1.166-6.373,2.765-1,2.765s18.871.208,23.5-.821S2055.2,1393.8,2055.2,1393.8Z" transform="translate(-1983.671 -1327.404)" fill="#f09959"/><path d="M2158.247,1195.077c8.971,28.682,21.688,61.229,19.663,61.229s-53.536,2.082-55.563.348-1.447-8.39-1.157-9.258,29.284-6.014,29.284-6.014-3.818-7.441-5.265-21.984S2156.546,1189.637,2158.247,1195.077Z" transform="translate(-2050.867 -1181.24)" fill="#a8ceff"/></g><path d="M2111.8,1053.869l7.227,26.407s-12.211,19.06-15.569,17.367,1.877-15.492,1.877-17.367-5.234-21.222-5.234-21.222Z" transform="translate(-2035.668 -1025.121)" fill="#f09959"/><path d="M2105.086,1081.622a7.063,7.063,0,0,0,.25-1.346c0-1.875-5.234-21.222-5.234-21.222l11.7-5.185,2.391,8.738A45.56,45.56,0,0,1,2105.086,1081.622Z" transform="translate(-2035.668 -1025.121)" fill="#e38540"/><path d="M2041.509,1020.19c-1.377,7.657-.47,17.827,6.33,20.413s14.991-2.361,18.294-11.049.469-17.828-6.33-20.414S2043.153,1011.042,2041.509,1020.19Z" transform="translate(-1992.415 -991.879)" fill="#f09959"/><ellipse cx="5.145" cy="3.794" rx="5.145" ry="3.794" transform="translate(70.382 37.467) rotate(-70.406)" fill="#f09959"/><path d="M2042.7,999.948c2.315,17.969,24.147,15.654,24.147,15.654s4.5-5.919,6.528-2.815-2.81-18.218-15.337-18.89C2053.926,993.677,2042.7,999.948,2042.7,999.948Z" transform="translate(-1993.69 -981.257)" fill="#303c60"/><ellipse cx="11.825" cy="11.094" rx="11.825" ry="11.094" transform="translate(71.204)" fill="#303c60"/></g></g></g><g transform="translate(619.179 87.69)"><g transform="translate(0 0)" clip-path="url(#d)"><circle cx="43.797" cy="43.797" r="43.797" transform="translate(0 61.938) rotate(-45)" fill="#c6e0f7"/><g transform="translate(32.022 28.296)"><path d="M2090.766,505.327c0,12.035,7.246,31.453,24.339,30.83s20.875-19.133,21.536-24.356S2090.766,505.327,2090.766,505.327Z" transform="translate(-2083.643 -478.172)" fill="#7a4e34"/><path d="M2064.252,636.107c5.645-12.142,15.2-16.031,30.883-16.031,18.678,0,28.376,6.766,31.125,16.617-10.989.15-21.451,11.077-30.545,10.994C2077.128,647.516,2064.252,636.107,2064.252,636.107Z" transform="translate(-2064.252 -562.093)" fill="#d54a41"/><path d="M2164.552,548.883c-1.788,2.64-3.1,2.749-5.04,0-1.544-2.186-4.583-7.152-4.583-9.672v-25.15a4.6,4.6,0,0,1,4.583-4.582h5.04a4.6,4.6,0,0,1,4.582,4.582v25.15C2169.134,541.731,2166.156,546.516,2164.552,548.883Z" transform="translate(-2130.569 -481.208)" fill="#f09959"/><path d="M2164.552,509.479h-5.04a4.6,4.6,0,0,0-4.583,4.582V536.5c5.659,1.8,10.824-1.78,14.2-5.815V514.061A4.6,4.6,0,0,0,2164.552,509.479Z" transform="translate(-2130.569 -481.208)" fill="#e38540"/><path d="M2155.126,453.915c0,11.465-6.82,20.759-15.234,20.759s-15.235-9.294-15.235-20.759,6.821-20.759,15.235-20.759S2155.126,442.45,2155.126,453.915Z" transform="translate(-2108.429 -425.389)" fill="#f09959"/><path d="M2123.339,416.993c-1.811,6.384-5.778,6.31-11.31,8.406s-8.176,4.206-9.986,8.29c-2.308,5.208,1.048,20.391,1.048,20.391s-14.007-10.482-12.387-26.966,11.339-22.868,20.486-22.868,12.625,5.574,12.625,5.574,4.874.02,9.481,5.479c6.194,7.337,4.288,25.155,0,31.54s-7.147,8.385-7.051,8.1,4-14.947,1.905-24.012S2123.339,416.993,2123.339,416.993Z" transform="translate(-2083.502 -404.246)" fill="#7a4e34"/><path d="M2171.5,552.334s-2.565,3.324-5.727,3.324-5.728-3.324-5.728-3.324Z" transform="translate(-2134.311 -512.55)" fill="#fff"/></g></g></g><g transform="translate(383.632 48.085)"><path d="M1163.651,342.253a95.08,95.08,0,1,1,37.125-7.5A94.787,94.787,0,0,1,1163.651,342.253Zm0-188.606a93.228,93.228,0,1,0,93.228,93.228A93.334,93.334,0,0,0,1163.651,153.647Z" transform="translate(-1068.274 -151.498)" fill="#9bd6e8"/></g><g transform="translate(587.889 242.6)"><path d="M1897.157,1012.683a68.569,68.569,0,1,1,48.486-20.083A68.123,68.123,0,0,1,1897.157,1012.683Zm0-134.991a66.421,66.421,0,1,0,66.421,66.421A66.5,66.5,0,0,0,1897.157,877.692Z" transform="translate(-1828.587 -875.543)" fill="#9bd6e8"/></g><g transform="translate(636.245 104.756)"><path d="M2053.456,452.189a44.871,44.871,0,1,1,44.871-44.871A44.922,44.922,0,0,1,2053.456,452.189Zm0-87.594a42.722,42.722,0,1,0,42.722,42.722A42.771,42.771,0,0,0,2053.456,364.6Z" transform="translate(-2008.584 -362.446)" fill="#9bd6e8"/></g><g transform="translate(407.638 74.586)"><circle cx="20.027" cy="20.027" r="20.027" transform="translate(0 39.631) rotate(-81.665)" fill="#f37168"/><path d="M1204.917,299.6s-6.994-6.168-11.944-.242c-6.795,8.134,11.944,18.481,11.944,18.481s19.075-10.678,12.4-18.907C1212.273,292.711,1204.917,299.6,1204.917,299.6Z" transform="translate(-1182.394 -283.922)" fill="#fff"/></g><g transform="translate(486.522 354.401)"><circle cx="20.027" cy="20.027" r="20.027" transform="translate(0 38.873) rotate(-76.051)" fill="#f37168"/><path d="M1504.3,1346.916s-6.993-6.168-11.943-.242c-6.8,8.134,11.943,18.481,11.943,18.481s19.076-10.678,12.4-18.907C1511.659,1340.026,1504.3,1346.916,1504.3,1346.916Z" transform="translate(-1480.234 -1329.692)" fill="#fff"/></g><g transform="translate(370.872 49.922)"><path d="M1049.076,172.484a14.148,14.148,0,1,1-14.149-14.148A14.148,14.148,0,0,1,1049.076,172.484Z" transform="translate(-1020.779 -158.336)" fill="#f37168"/><path d="M1047.106,186.2s-4.941-4.357-8.438-.171c-4.8,5.747,8.438,13.056,8.438,13.056s13.476-7.544,8.762-13.357C1052.3,181.331,1047.106,186.2,1047.106,186.2Z" transform="translate(-1033.095 -177.024)" fill="#fff"/></g><g transform="translate(524.935 289.262)"><path d="M1622.545,1063.383a14.148,14.148,0,1,1-14.148-14.148A14.149,14.149,0,0,1,1622.545,1063.383Z" transform="translate(-1594.249 -1049.235)" fill="#f37168"/><path d="M1620.575,1077.1s-4.941-4.357-8.437-.171c-4.8,5.747,8.437,13.057,8.437,13.057s13.476-7.544,8.762-13.357C1625.772,1072.231,1620.575,1077.1,1620.575,1077.1Z" transform="translate(-1606.565 -1067.923)" fill="#fff"/></g><g transform="translate(586.194 253.191)"><circle cx="18.358" cy="18.358" r="18.358" fill="#3e6bab"/><path d="M1859.054,938.253c2.381-.329,4.432,5.582,4.269,7.47s4.433-.246,6.649,1.4,1.559,10.178,0,10.753-7.851.657-9.877-.41a6.1,6.1,0,0,0-3.394-.868l-1.044-8.93a7.963,7.963,0,0,0,2.658-1.612C1859.71,944.82,1859.054,938.253,1859.054,938.253Zm-10.589,20.932c.575.493,7.06,2.052,7.388-1.231s-1.313-10.26-1.313-10.26-4.512-.228-6.075.571C1847.863,948.572,1847.89,958.692,1848.465,959.185Z" transform="translate(-1841.107 -931.988)" fill="#fff"/></g><g transform="translate(259.248 400.165)"><circle cx="20.027" cy="20.027" r="20.027" transform="matrix(0.322, -0.947, 0.947, 0.322, 0, 37.92)" fill="#c1c765"/><path d="M663.147,1532.5c-2.957-17.7,10.588-18.132,10.588-18.132v-5.243l10.733,10.732L674.126,1530.2v-6s-5.2.219-7.164,3.058S663.147,1532.5,663.147,1532.5Z" transform="translate(-647.291 -1496.482)" fill="#fff"/></g><g transform="translate(693.06 201.579)"><circle cx="5.373" cy="5.373" r="5.373" transform="translate(20.149)" fill="#9bd6e8"/><circle cx="5.373" cy="5.373" r="5.373" transform="translate(20.149 24.178)" fill="#9bd6e8"/><circle cx="5.373" cy="5.373" r="5.373" transform="translate(0 12.5)" fill="#9bd6e8"/><g transform="translate(4.298 4.298)"><path d="M2257.289,765.18a1.069,1.069,0,0,1-.538-.145L2236.6,753.356a1.075,1.075,0,0,1-.028-1.843l20.149-12.5a1.074,1.074,0,1,1,1.133,1.826L2239.23,752.4l18.6,10.78a1.075,1.075,0,0,1-.54,2Z" transform="translate(-2236.067 -738.852)" fill="#9bd6e8"/></g></g></g></svg>