<svg xmlns="http://www.w3.org/2000/svg" xmlns:xlink="http://www.w3.org/1999/xlink" width="515.817" height="768.515" viewBox="0 0 515.817 768.515"><defs><linearGradient id="a" x1="0.5" y1="1" x2="0.5" gradientUnits="objectBoundingBox"><stop offset="0" stop-color="#ffe6c8"/><stop offset="0.106" stop-color="#f9c7a4"/><stop offset="0.113" stop-color="#f5c29d"/><stop offset="0.16" stop-color="#e1a878"/><stop offset="0.212" stop-color="#cf9058"/><stop offset="0.269" stop-color="#bf7d3d"/><stop offset="0.334" stop-color="#b36d27"/><stop offset="0.41" stop-color="#aa6116"/><stop offset="0.504" stop-color="#a3590a"/><stop offset="0.635" stop-color="#a05403"/><stop offset="1" stop-color="#9f5302"/></linearGradient><linearGradient id="b" x1="0.5" y1="1" x2="0.5" gradientUnits="objectBoundingBox"><stop offset="0" stop-color="#9f5302"/><stop offset="0.365" stop-color="#a05403"/><stop offset="0.496" stop-color="#a3590a"/><stop offset="0.59" stop-color="#aa6116"/><stop offset="0.666" stop-color="#b36d27"/><stop offset="0.731" stop-color="#bf7d3d"/><stop offset="0.788" stop-color="#cf9058"/><stop offset="0.84" stop-color="#e1a878"/><stop offset="0.887" stop-color="#f5c29d"/><stop offset="0.894" stop-color="#f9c7a4"/><stop offset="1" stop-color="#ffe6c8"/></linearGradient><linearGradient id="c" x1="0.001" y1="0.5" x2="1.002" y2="0.5" gradientUnits="objectBoundingBox"><stop offset="0" stop-color="#666"/><stop offset="0.422" stop-color="#676767"/><stop offset="0.573" stop-color="#6e6e6e"/><stop offset="0.682" stop-color="#7a7a7a"/><stop offset="0.769" stop-color="#8b8b8b"/><stop offset="0.844" stop-color="#a1a1a1"/><stop offset="0.91" stop-color="#bcbcbc"/><stop offset="0.969" stop-color="#dcdcdc"/><stop offset="1" stop-color="#f0f0f0"/></linearGradient><linearGradient id="d" x1="0.5" y1="1" x2="0.5" gradientUnits="objectBoundingBox"><stop offset="0" stop-color="#fff0df"/><stop offset="0.02" stop-color="#f3dcc3"/><stop offset="0.098" stop-color="#c6935c"/><stop offset="0.153" stop-color="#aa641b"/><stop offset="0.178" stop-color="#9f5302"/><stop offset="0.354" stop-color="#d1a06a"/><stop offset="0.519" stop-color="#ffe6c8"/><stop offset="0.741" stop-color="#9f5302"/><stop offset="1" stop-color="#e6c6a7"/></linearGradient><linearGradient id="f" x1="-0.083" y1="0.062" x2="1.083" y2="0.938" gradientUnits="objectBoundingBox"><stop offset="0" stop-color="#f1f2f3"/><stop offset="0.495" stop-color="#eceded"/><stop offset="1" stop-color="#e2e2e2"/></linearGradient><linearGradient id="g" x1="0" y1="0.5" x2="1" y2="0.5" xlink:href="#f"/><linearGradient id="h" x1="0.146" y1="0.854" x2="0.854" y2="0.146" gradientUnits="objectBoundingBox"><stop offset="0" stop-color="#c6c6c6"/><stop offset="0.145" stop-color="#dadada"/><stop offset="0.375" stop-color="#f5f5f5"/><stop offset="0.51" stop-color="#fff"/><stop offset="0.644" stop-color="#f4f4f4"/><stop offset="0.876" stop-color="#d7d7d7"/><stop offset="1" stop-color="#c6c6c6"/></linearGradient><linearGradient id="i" x1="0.146" y1="0.146" x2="0.854" y2="0.854" gradientUnits="objectBoundingBox"><stop offset="0" stop-color="#929292"/><stop offset="0.106" stop-color="#aeaeae"/><stop offset="0.287" stop-color="#dadada"/><stop offset="0.427" stop-color="#f5f5f5"/><stop offset="0.51" stop-color="#fff"/><stop offset="0.591" stop-color="#f4f4f4"/><stop offset="0.732" stop-color="#d7d7d7"/><stop offset="0.915" stop-color="#a9a9a9"/><stop offset="1" stop-color="#929292"/></linearGradient></defs><g opacity="0.48"><g opacity="0.25"><path d="M2280.518,2799.358c.15-.386.352-.771.536-1.14C2280.87,2798.587,2280.685,2798.972,2280.518,2799.358Zm0,713.331c.167.385.352.771.536,1.139C2280.87,3513.46,2280.668,3513.074,2280.518,3512.689Zm461.394-732.1H2309.374a32.126,32.126,0,0,0-32.091,32.09v686.7a32.126,32.126,0,0,0,32.091,32.091h432.537A32.126,32.126,0,0,0,2774,3499.384v-686.7A32.126,32.126,0,0,0,2741.912,2780.589Z" transform="translate(-2258.186 -2762.96)" fill="#919191" opacity="0"/><path d="M2280.154,2799.022c.15-.386.351-.772.535-1.14C2280.5,2798.25,2280.321,2798.636,2280.154,2799.022Zm0,713.331c.167.385.351.771.535,1.138C2280.5,3513.124,2280.3,3512.738,2280.154,3512.353Zm461.393-732.1H2309.01a32.126,32.126,0,0,0-32.091,32.091v686.7a32.126,32.126,0,0,0,32.091,32.092h432.537a32.126,32.126,0,0,0,32.091-32.092v-686.7A32.126,32.126,0,0,0,2741.547,2780.252Z" transform="translate(-2258.135 -2762.913)" fill="#8f8f8f" opacity="0.016"/><path d="M2279.789,2798.685c.151-.385.352-.771.536-1.14C2280.141,2797.914,2279.956,2798.3,2279.789,2798.685Zm0,713.331c.167.386.352.771.536,1.139C2280.141,3512.786,2279.94,3512.4,2279.789,3512.016Zm461.394-732.1H2308.646a32.127,32.127,0,0,0-32.092,32.092v686.7a32.127,32.127,0,0,0,32.092,32.091h432.537a32.126,32.126,0,0,0,32.091-32.091v-686.7A32.126,32.126,0,0,0,2741.183,2779.916Z" transform="translate(-2258.083 -2762.865)" fill="#8c8c8c" opacity="0.033"/><path d="M2279.425,2798.349c.15-.386.351-.771.536-1.14C2279.776,2797.578,2279.592,2797.963,2279.425,2798.349Zm0,713.331c.167.385.351.771.536,1.138C2279.776,3512.45,2279.575,3512.065,2279.425,3511.68Zm461.393-732.1H2308.281a32.126,32.126,0,0,0-32.092,32.091v686.7a32.126,32.126,0,0,0,32.092,32.091h432.536a32.127,32.127,0,0,0,32.092-32.091v-686.7A32.127,32.127,0,0,0,2740.818,2779.579Z" transform="translate(-2258.032 -2762.817)" fill="#8a8a8a" opacity="0.049"/><path d="M2279.06,2798.012c.151-.385.352-.771.536-1.139C2279.412,2797.241,2279.227,2797.627,2279.06,2798.012Zm0,713.331c.167.386.352.771.536,1.139C2279.412,3512.115,2279.211,3511.729,2279.06,3511.343Zm461.394-732.1H2307.917a32.126,32.126,0,0,0-32.091,32.091v686.7a32.126,32.126,0,0,0,32.091,32.091h432.537a32.126,32.126,0,0,0,32.091-32.091v-686.7A32.126,32.126,0,0,0,2740.454,2779.243Z" transform="translate(-2257.981 -2762.771)" fill="#878787" opacity="0.066"/><path d="M2278.7,2797.676c.15-.386.352-.771.536-1.14C2279.048,2796.905,2278.863,2797.29,2278.7,2797.676Zm0,713.331c.167.386.352.771.536,1.139C2279.048,3511.777,2278.846,3511.393,2278.7,3511.007Zm461.394-732.1H2307.552A32.126,32.126,0,0,0,2275.461,2811v686.7a32.126,32.126,0,0,0,32.091,32.09H2740.09a32.126,32.126,0,0,0,32.091-32.09V2811A32.126,32.126,0,0,0,2740.09,2778.907Z" transform="translate(-2257.929 -2762.723)" fill="#858585" opacity="0.082"/><path d="M2278.332,2797.34c.151-.386.352-.771.535-1.14C2278.683,2796.568,2278.5,2796.954,2278.332,2797.34Zm0,713.331c.167.385.352.771.535,1.138C2278.683,3511.441,2278.482,3511.056,2278.332,3510.671Zm461.393-732.1H2307.188a32.126,32.126,0,0,0-32.091,32.092v686.7a32.126,32.126,0,0,0,32.091,32.091h432.537a32.126,32.126,0,0,0,32.091-32.091v-686.7A32.126,32.126,0,0,0,2739.725,2778.57Z" transform="translate(-2257.878 -2762.675)" fill="#838383" opacity="0.098"/><path d="M2277.967,2797c.151-.385.352-.77.536-1.139C2278.319,2796.233,2278.134,2796.618,2277.967,2797Zm0,713.331c.167.386.352.771.536,1.139C2278.319,3511.1,2278.118,3510.72,2277.967,3510.334Zm461.394-732.1H2306.824a32.127,32.127,0,0,0-32.092,32.092v686.7a32.127,32.127,0,0,0,32.092,32.091h432.536a32.126,32.126,0,0,0,32.092-32.091v-686.7A32.126,32.126,0,0,0,2739.361,2778.234Z" transform="translate(-2257.827 -2762.628)" fill="gray" opacity="0.115"/><path d="M2277.6,2796.667c.15-.386.351-.771.536-1.14C2277.954,2795.9,2277.77,2796.281,2277.6,2796.667Zm0,713.331c.167.385.351.771.536,1.138C2277.954,3510.769,2277.753,3510.383,2277.6,3510ZM2739,2777.9H2306.459a32.126,32.126,0,0,0-32.091,32.091v686.7a32.126,32.126,0,0,0,32.091,32.091H2739a32.127,32.127,0,0,0,32.092-32.091v-686.7A32.127,32.127,0,0,0,2739,2777.9Z" transform="translate(-2257.775 -2762.581)" fill="#7e7e7e" opacity="0.131"/><path d="M2277.238,2796.33c.151-.385.352-.771.536-1.139C2277.59,2795.559,2277.405,2795.945,2277.238,2796.33Zm0,713.331c.167.386.352.771.536,1.139C2277.59,3510.432,2277.389,3510.047,2277.238,3509.661Zm461.394-732.1H2306.1A32.126,32.126,0,0,0,2274,2809.653v686.7a32.126,32.126,0,0,0,32.091,32.091h432.537a32.126,32.126,0,0,0,32.091-32.091v-686.7A32.126,32.126,0,0,0,2738.632,2777.561Z" transform="translate(-2257.724 -2762.533)" fill="#7c7c7c" opacity="0.148"/><path d="M2276.874,2795.994c.15-.385.352-.77.536-1.14C2277.226,2795.223,2277.042,2795.608,2276.874,2795.994Zm0,713.332c.168.385.352.77.536,1.139C2277.226,3510.1,2277.024,3509.711,2276.874,3509.325Zm461.394-732.1H2305.73a32.126,32.126,0,0,0-32.092,32.09v686.7a32.127,32.127,0,0,0,32.092,32.091h432.537a32.127,32.127,0,0,0,32.091-32.091v-686.7A32.126,32.126,0,0,0,2738.268,2777.225Z" transform="translate(-2257.673 -2762.486)" fill="#797979" opacity="0.164"/><path d="M2276.51,2795.658c.15-.386.351-.772.535-1.14C2276.861,2794.886,2276.677,2795.272,2276.51,2795.658Zm0,713.331c.168.385.351.771.535,1.138C2276.861,3509.76,2276.66,3509.374,2276.51,3508.989Zm461.393-732.1H2305.366a32.126,32.126,0,0,0-32.092,32.091v686.7a32.126,32.126,0,0,0,32.092,32.092H2737.9a32.126,32.126,0,0,0,32.091-32.092v-686.7A32.126,32.126,0,0,0,2737.9,2776.888Z" transform="translate(-2257.622 -2762.438)" fill="#777" opacity="0.18"/><path d="M2276.145,2795.321c.151-.385.352-.771.536-1.139C2276.5,2794.55,2276.312,2794.936,2276.145,2795.321Zm0,713.331c.167.386.352.771.536,1.139C2276.5,3509.423,2276.3,3509.038,2276.145,3508.652Zm461.394-732.1H2305a32.127,32.127,0,0,0-32.092,32.092v686.7A32.127,32.127,0,0,0,2305,3527.438h432.537a32.126,32.126,0,0,0,32.092-32.091v-686.7A32.126,32.126,0,0,0,2737.539,2776.552Z" transform="translate(-2257.57 -2762.391)" fill="#747474" opacity="0.197"/><path d="M2275.781,2794.985c.15-.386.352-.771.536-1.14C2276.132,2794.214,2275.948,2794.6,2275.781,2794.985Zm0,713.331c.168.385.352.77.536,1.138C2276.132,3509.086,2275.931,3508.7,2275.781,3508.316Zm461.393-732.1H2304.637a32.126,32.126,0,0,0-32.091,32.091v686.7a32.125,32.125,0,0,0,32.091,32.09h432.537a32.126,32.126,0,0,0,32.092-32.09v-686.7A32.127,32.127,0,0,0,2737.174,2776.215Z" transform="translate(-2257.519 -2762.344)" fill="#727272" opacity="0.213"/><path d="M2275.416,2794.649c.151-.386.352-.772.536-1.14C2275.768,2793.877,2275.584,2794.263,2275.416,2794.649Zm0,713.33c.168.386.352.772.536,1.139C2275.768,3508.751,2275.567,3508.365,2275.416,3507.979Zm461.394-732.1H2304.273a32.126,32.126,0,0,0-32.091,32.091v686.7a32.126,32.126,0,0,0,32.091,32.091H2736.81a32.126,32.126,0,0,0,32.091-32.091v-686.7A32.126,32.126,0,0,0,2736.81,2775.879Z" transform="translate(-2257.468 -2762.296)" fill="#707070" opacity="0.23"/><path d="M2275.052,2794.312c.15-.385.352-.771.536-1.14C2275.4,2793.541,2275.219,2793.927,2275.052,2794.312Zm0,713.331c.168.386.352.771.536,1.139C2275.4,3508.414,2275.2,3508.029,2275.052,3507.643Zm461.394-732.1H2303.908a32.126,32.126,0,0,0-32.092,32.09v686.7a32.127,32.127,0,0,0,32.092,32.091h432.537a32.127,32.127,0,0,0,32.092-32.091v-686.7A32.126,32.126,0,0,0,2736.446,2775.543Z" transform="translate(-2257.416 -2762.249)" fill="#6d6d6d" opacity="0.246"/><path d="M2274.688,2793.976c.15-.385.351-.771.535-1.14C2275.039,2793.205,2274.855,2793.59,2274.688,2793.976Zm0,713.332c.167.384.351.77.535,1.138C2275.039,3508.077,2274.838,3507.691,2274.688,3507.307Zm461.393-732.1H2303.544a32.126,32.126,0,0,0-32.091,32.091V3494a32.126,32.126,0,0,0,32.091,32.091h432.537A32.126,32.126,0,0,0,2768.172,3494V2807.3A32.126,32.126,0,0,0,2736.081,2775.206Z" transform="translate(-2257.365 -2762.201)" fill="#6b6b6b" opacity="0.262"/><path d="M2274.323,2793.639c.151-.385.352-.771.536-1.139C2274.675,2792.868,2274.49,2793.254,2274.323,2793.639Zm0,713.331c.168.386.352.772.536,1.139C2274.675,3507.742,2274.474,3507.356,2274.323,3506.97Zm461.394-732.1H2303.18a32.127,32.127,0,0,0-32.092,32.091v686.7a32.127,32.127,0,0,0,32.092,32.092h432.537a32.126,32.126,0,0,0,32.091-32.092v-686.7A32.126,32.126,0,0,0,2735.717,2774.87Z" transform="translate(-2257.313 -2762.154)" fill="#696969" opacity="0.279"/><path d="M2273.959,2793.3c.151-.386.352-.771.536-1.14C2274.31,2792.532,2274.126,2792.917,2273.959,2793.3Zm0,713.331c.168.386.352.771.536,1.14C2274.31,3507.4,2274.109,3507.02,2273.959,3506.634Zm461.393-732.1H2302.815a32.125,32.125,0,0,0-32.091,32.09v686.7a32.125,32.125,0,0,0,32.091,32.091h432.536a32.126,32.126,0,0,0,32.092-32.091v-686.7A32.126,32.126,0,0,0,2735.352,2774.534Z" transform="translate(-2257.262 -2762.107)" fill="#666" opacity="0.295"/><path d="M2273.594,2792.967c.151-.386.352-.771.536-1.14C2273.946,2792.2,2273.762,2792.581,2273.594,2792.967Zm0,713.331c.168.385.352.771.536,1.138C2273.946,3507.068,2273.745,3506.683,2273.594,3506.3Zm461.394-732.1H2302.451a32.126,32.126,0,0,0-32.091,32.092v686.7a32.126,32.126,0,0,0,32.091,32.091h432.536a32.126,32.126,0,0,0,32.092-32.091v-686.7A32.126,32.126,0,0,0,2734.988,2774.2Z" transform="translate(-2257.211 -2762.059)" fill="#646464" opacity="0.311"/><path d="M2273.23,2792.63c.15-.385.352-.771.536-1.14C2273.582,2791.859,2273.4,2792.245,2273.23,2792.63Zm0,713.331c.167.386.352.771.536,1.139C2273.582,3506.732,2273.38,3506.347,2273.23,3505.961Zm461.394-732.1H2302.086A32.127,32.127,0,0,0,2270,2805.953v686.7a32.127,32.127,0,0,0,32.091,32.092h432.537a32.127,32.127,0,0,0,32.091-32.092v-686.7A32.126,32.126,0,0,0,2734.624,2773.861Z" transform="translate(-2257.159 -2762.012)" fill="#616161" opacity="0.328"/><path d="M2272.865,2792.294c.151-.386.352-.771.535-1.14C2273.217,2791.523,2273.033,2791.908,2272.865,2792.294Zm0,713.331c.168.385.352.771.535,1.138C2273.217,3506.4,2273.016,3506.01,2272.865,3505.625Zm461.393-732.1H2301.722a32.126,32.126,0,0,0-32.091,32.091v686.7a32.125,32.125,0,0,0,32.091,32.09h432.537a32.126,32.126,0,0,0,32.091-32.09v-686.7A32.126,32.126,0,0,0,2734.259,2773.524Z" transform="translate(-2257.108 -2761.965)" fill="#5f5f5f" opacity="0.344"/><path d="M2272.5,2791.957c.151-.385.352-.771.536-1.139C2272.853,2791.186,2272.668,2791.572,2272.5,2791.957Zm0,713.331c.168.386.352.771.536,1.139C2272.853,3506.059,2272.652,3505.674,2272.5,3505.288Zm461.394-732.1H2301.358a32.127,32.127,0,0,0-32.092,32.091v686.7a32.127,32.127,0,0,0,32.092,32.091h432.536a32.126,32.126,0,0,0,32.092-32.091v-686.7A32.126,32.126,0,0,0,2733.895,2773.188Z" transform="translate(-2257.057 -2761.917)" fill="#5d5d5d" opacity="0.361"/><path d="M2272.137,2791.621c.15-.386.351-.771.536-1.14C2272.488,2790.85,2272.3,2791.235,2272.137,2791.621Zm0,713.331c.168.386.351.771.536,1.139C2272.488,3505.723,2272.287,3505.338,2272.137,3504.952Zm461.393-732.1H2300.993a32.125,32.125,0,0,0-32.091,32.091v686.7a32.126,32.126,0,0,0,32.091,32.092H2733.53a32.127,32.127,0,0,0,32.092-32.092v-686.7A32.126,32.126,0,0,0,2733.53,2772.852Z" transform="translate(-2257.005 -2761.87)" fill="#5a5a5a" opacity="0.377"/><path d="M2271.772,2791.285c.151-.385.352-.771.536-1.14C2272.124,2790.513,2271.939,2790.9,2271.772,2791.285Zm0,713.331c.167.385.352.771.536,1.138C2272.124,3505.387,2271.923,3505,2271.772,3504.616Zm461.394-732.1H2300.629a32.126,32.126,0,0,0-32.091,32.091v686.7a32.126,32.126,0,0,0,32.091,32.092h432.536a32.126,32.126,0,0,0,32.091-32.092v-686.7A32.126,32.126,0,0,0,2733.166,2772.515Z" transform="translate(-2256.954 -2761.823)" fill="#585858" opacity="0.393"/><path d="M2271.407,2790.948c.151-.385.352-.771.536-1.139C2271.76,2790.177,2271.575,2790.563,2271.407,2790.948Zm0,713.331c.168.386.352.771.536,1.139C2271.76,3505.05,2271.558,3504.665,2271.407,3504.279Zm461.394-732.1H2300.264a32.127,32.127,0,0,0-32.091,32.091v686.7a32.126,32.126,0,0,0,32.091,32.091H2732.8a32.126,32.126,0,0,0,32.091-32.091v-686.7A32.126,32.126,0,0,0,2732.8,2772.179Z" transform="translate(-2256.903 -2761.775)" fill="#565656" opacity="0.41"/><path d="M2271.044,2790.612c.151-.386.352-.771.535-1.14C2271.4,2789.841,2271.211,2790.226,2271.044,2790.612Zm0,713.331c.168.385.352.771.535,1.138C2271.4,3504.713,2271.194,3504.328,2271.044,3503.943Zm461.393-732.1H2299.9a32.126,32.126,0,0,0-32.092,32.092v686.7a32.126,32.126,0,0,0,32.092,32.091h432.536a32.126,32.126,0,0,0,32.091-32.091v-686.7A32.126,32.126,0,0,0,2732.437,2771.842Z" transform="translate(-2256.852 -2761.728)" fill="#535353" opacity="0.426"/><path d="M2270.679,2790.275c.151-.385.352-.77.536-1.139C2271.031,2789.5,2270.846,2789.89,2270.679,2790.275Zm0,713.331c.168.386.352.771.536,1.139C2271.031,3504.377,2270.83,3503.992,2270.679,3503.606Zm461.394-732.1H2299.536a32.127,32.127,0,0,0-32.092,32.091v686.7a32.127,32.127,0,0,0,32.092,32.091h432.536a32.126,32.126,0,0,0,32.092-32.091V2803.6A32.126,32.126,0,0,0,2732.073,2771.507Z" transform="translate(-2256.8 -2761.681)" fill="#515151" opacity="0.443"/><path d="M2270.315,2789.939c.15-.386.351-.771.536-1.14C2270.666,2789.168,2270.482,2789.553,2270.315,2789.939Zm0,713.331c.167.386.351.771.536,1.139C2270.666,3504.041,2270.465,3503.656,2270.315,3503.27Zm461.393-732.1H2299.171a32.125,32.125,0,0,0-32.091,32.091v686.7a32.126,32.126,0,0,0,32.091,32.091h432.537a32.126,32.126,0,0,0,32.092-32.091v-686.7A32.126,32.126,0,0,0,2731.708,2771.17Z" transform="translate(-2256.749 -2761.633)" fill="#4e4e4e" opacity="0.459"/><path d="M2269.95,2789.6c.151-.386.352-.771.536-1.14C2270.3,2788.831,2270.117,2789.217,2269.95,2789.6Zm0,713.331c.168.385.352.771.536,1.139C2270.3,3503.7,2270.1,3503.319,2269.95,3502.934Zm461.394-732.1H2298.807a32.126,32.126,0,0,0-32.091,32.092v686.7a32.126,32.126,0,0,0,32.091,32.091h432.536a32.126,32.126,0,0,0,32.091-32.091v-686.7A32.126,32.126,0,0,0,2731.344,2770.833Z" transform="translate(-2256.698 -2761.585)" fill="#4c4c4c" opacity="0.475"/><path d="M2269.586,2789.266c.151-.385.352-.771.536-1.139C2269.938,2788.5,2269.753,2788.881,2269.586,2789.266Zm0,713.331c.168.386.352.77.536,1.139C2269.938,3503.367,2269.736,3502.983,2269.586,3502.6Zm461.394-732.1H2298.443a32.126,32.126,0,0,0-32.092,32.091v686.7a32.127,32.127,0,0,0,32.092,32.091h432.537a32.127,32.127,0,0,0,32.092-32.091v-686.7A32.127,32.127,0,0,0,2730.979,2770.5Z" transform="translate(-2256.646 -2761.538)" fill="#4a4a4a" opacity="0.492"/><path d="M2269.222,2788.93c.15-.386.351-.771.535-1.14C2269.573,2788.159,2269.389,2788.544,2269.222,2788.93Zm0,713.331c.168.385.351.771.535,1.138C2269.573,3503.032,2269.372,3502.646,2269.222,3502.261Zm461.393-732.1H2298.079a32.126,32.126,0,0,0-32.092,32.091v686.7a32.126,32.126,0,0,0,32.092,32.09h432.536a32.126,32.126,0,0,0,32.092-32.09v-686.7A32.126,32.126,0,0,0,2730.615,2770.16Z" transform="translate(-2256.595 -2761.491)" fill="#474747" opacity="0.508"/><path d="M2268.857,2788.594c.151-.386.352-.771.536-1.14C2269.209,2787.822,2269.024,2788.208,2268.857,2788.594Zm0,713.33c.167.386.352.771.536,1.139C2269.209,3502.7,2269.008,3502.31,2268.857,3501.924Zm461.394-732.1H2297.714a32.127,32.127,0,0,0-32.092,32.091v686.7a32.126,32.126,0,0,0,32.092,32.091H2730.25a32.126,32.126,0,0,0,32.091-32.091v-686.7A32.126,32.126,0,0,0,2730.25,2769.824Z" transform="translate(-2256.543 -2761.443)" fill="#454545" opacity="0.525"/><path d="M2268.492,2788.257c.151-.385.352-.771.536-1.14C2268.844,2787.486,2268.66,2787.872,2268.492,2788.257Zm0,713.331c.168.386.352.77.536,1.139C2268.844,3502.358,2268.643,3501.974,2268.492,3501.588Zm461.393-732.1H2297.349a32.126,32.126,0,0,0-32.091,32.09v686.7a32.126,32.126,0,0,0,32.091,32.092h432.536a32.127,32.127,0,0,0,32.092-32.092v-686.7A32.126,32.126,0,0,0,2729.886,2769.488Z" transform="translate(-2256.492 -2761.396)" fill="#434343" opacity="0.541"/><path d="M2268.128,2787.921c.151-.386.352-.771.536-1.14C2268.48,2787.149,2268.3,2787.535,2268.128,2787.921Zm0,713.331c.167.385.352.771.536,1.138C2268.48,3502.023,2268.279,3501.637,2268.128,3501.252Zm461.394-732.1H2296.986a32.126,32.126,0,0,0-32.092,32.091v686.7a32.126,32.126,0,0,0,32.092,32.091h432.536a32.126,32.126,0,0,0,32.092-32.091v-686.7A32.126,32.126,0,0,0,2729.522,2769.151Z" transform="translate(-2256.441 -2761.349)" fill="#404040" opacity="0.557"/><path d="M2267.764,2787.583c.15-.385.352-.771.536-1.139C2268.116,2786.813,2267.931,2787.2,2267.764,2787.583Zm0,713.331c.168.385.352.771.536,1.139C2268.116,3501.686,2267.914,3501.3,2267.764,3500.915Zm461.394-732.1H2296.62a32.127,32.127,0,0,0-32.091,32.091v686.7a32.126,32.126,0,0,0,32.091,32.091h432.537a32.126,32.126,0,0,0,32.092-32.091v-686.7A32.127,32.127,0,0,0,2729.157,2768.815Z" transform="translate(-2256.39 -2761.301)" fill="#3e3e3e" opacity="0.574"/><path d="M2267.4,2787.248c.15-.386.351-.771.535-1.14C2267.751,2786.477,2267.567,2786.862,2267.4,2787.248Zm0,713.331c.167.386.351.771.535,1.138C2267.751,3501.35,2267.55,3500.965,2267.4,3500.579Zm461.393-732.1H2296.256a32.125,32.125,0,0,0-32.091,32.091v686.7a32.125,32.125,0,0,0,32.091,32.091h432.536a32.125,32.125,0,0,0,32.091-32.091v-686.7A32.125,32.125,0,0,0,2728.793,2768.479Z" transform="translate(-2256.338 -2761.254)" fill="#3b3b3b" opacity="0.59"/><path d="M2267.035,2786.912c.151-.385.353-.771.536-1.14C2267.387,2786.14,2267.2,2786.526,2267.035,2786.912Zm0,713.331c.167.385.353.771.536,1.138C2267.387,3501.014,2267.186,3500.628,2267.035,3500.243Zm461.394-732.1H2295.892a32.127,32.127,0,0,0-32.092,32.091v686.7a32.127,32.127,0,0,0,32.092,32.092h432.537a32.126,32.126,0,0,0,32.091-32.092v-686.7A32.126,32.126,0,0,0,2728.429,2768.142Z" transform="translate(-2256.287 -2761.207)" fill="#393939" opacity="0.607"/><path d="M2266.671,2786.575c.151-.385.352-.771.536-1.14C2267.022,2785.8,2266.838,2786.19,2266.671,2786.575Zm0,713.331c.168.386.352.771.536,1.14C2267.022,3500.676,2266.821,3500.292,2266.671,3499.906Zm461.393-732.1H2295.528a32.126,32.126,0,0,0-32.092,32.091v686.7a32.126,32.126,0,0,0,32.092,32.091h432.536a32.127,32.127,0,0,0,32.092-32.091V2799.9A32.126,32.126,0,0,0,2728.064,2767.806Z" transform="translate(-2256.236 -2761.159)" fill="#373737" opacity="0.623"/><path d="M2266.306,2786.239c.151-.386.352-.771.536-1.14C2266.658,2785.468,2266.473,2785.853,2266.306,2786.239Zm0,713.331c.167.385.352.771.536,1.138C2266.658,3500.34,2266.457,3499.955,2266.306,3499.57Zm461.394-732.1H2295.164a32.126,32.126,0,0,0-32.092,32.092v686.7a32.126,32.126,0,0,0,32.092,32.091H2727.7a32.126,32.126,0,0,0,32.092-32.091v-686.7A32.126,32.126,0,0,0,2727.7,2767.469Z" transform="translate(-2256.184 -2761.112)" fill="#343434" opacity="0.639"/><path d="M2265.942,2785.9c.15-.385.352-.771.536-1.139C2266.294,2785.131,2266.109,2785.517,2265.942,2785.9Zm0,713.331c.167.386.352.771.536,1.139C2266.294,3500,2266.092,3499.619,2265.942,3499.233Zm461.394-732.1H2294.8a32.126,32.126,0,0,0-32.091,32.091v686.7a32.127,32.127,0,0,0,32.091,32.092h432.537a32.126,32.126,0,0,0,32.091-32.092v-686.7A32.126,32.126,0,0,0,2727.336,2767.133Z" transform="translate(-2256.133 -2761.064)" fill="#323232" opacity="0.656"/><path d="M2265.577,2785.566c.151-.386.352-.771.536-1.14C2265.929,2784.8,2265.744,2785.18,2265.577,2785.566Zm0,713.331c.167.386.352.771.536,1.139C2265.929,3499.668,2265.728,3499.283,2265.577,3498.9Zm461.394-732.1H2294.434a32.125,32.125,0,0,0-32.091,32.09v686.7a32.126,32.126,0,0,0,32.091,32.091h432.537a32.126,32.126,0,0,0,32.091-32.091v-686.7A32.125,32.125,0,0,0,2726.971,2766.8Z" transform="translate(-2256.082 -2761.017)" fill="#303030" opacity="0.672"/><path d="M2265.213,2785.229c.151-.386.353-.771.536-1.14C2265.565,2784.458,2265.38,2784.844,2265.213,2785.229Zm0,713.331c.168.385.353.771.536,1.138C2265.565,3499.331,2265.364,3498.946,2265.213,3498.561Zm461.394-732.1H2294.07a32.127,32.127,0,0,0-32.092,32.091v686.7a32.127,32.127,0,0,0,32.092,32.091h432.537a32.126,32.126,0,0,0,32.091-32.091v-686.7A32.126,32.126,0,0,0,2726.607,2766.46Z" transform="translate(-2256.03 -2760.969)" fill="#2d2d2d" opacity="0.689"/><path d="M2264.849,2784.893c.15-.385.352-.771.536-1.139C2265.2,2784.122,2265.016,2784.508,2264.849,2784.893Zm0,713.331c.168.386.352.771.536,1.139C2265.2,3498.995,2265,3498.61,2264.849,3498.224Zm461.393-732.1H2293.705a32.126,32.126,0,0,0-32.091,32.091v686.7a32.126,32.126,0,0,0,32.091,32.092h432.536a32.127,32.127,0,0,0,32.092-32.092v-686.7A32.127,32.127,0,0,0,2726.242,2766.125Z" transform="translate(-2255.979 -2760.922)" fill="#2b2b2b" opacity="0.705"/><path d="M2264.484,2784.557c.151-.385.352-.771.536-1.14C2264.836,2783.786,2264.651,2784.171,2264.484,2784.557Zm0,713.331c.168.385.352.771.536,1.138C2264.836,3498.659,2264.635,3498.273,2264.484,3497.888Zm461.394-732.1H2293.341a32.126,32.126,0,0,0-32.091,32.091v686.7a32.126,32.126,0,0,0,32.091,32.091h432.537a32.126,32.126,0,0,0,32.091-32.091v-686.7A32.126,32.126,0,0,0,2725.878,2765.787Z" transform="translate(-2255.927 -2760.875)" fill="#282828" opacity="0.721"/><path d="M2264.12,2784.221c.15-.386.353-.772.536-1.14C2264.472,2783.449,2264.287,2783.835,2264.12,2784.221Zm0,713.33c.167.386.353.771.536,1.139C2264.472,3498.322,2264.27,3497.937,2264.12,3497.551Zm461.394-732.1H2292.977a32.127,32.127,0,0,0-32.091,32.091v686.7a32.126,32.126,0,0,0,32.091,32.091h432.537a32.127,32.127,0,0,0,32.092-32.091v-686.7A32.127,32.127,0,0,0,2725.514,2765.451Z" transform="translate(-2255.876 -2760.827)" fill="#262626" opacity="0.738"/><path d="M2263.756,2783.884c.151-.386.352-.771.535-1.14C2264.107,2783.113,2263.923,2783.5,2263.756,2783.884Zm0,713.331c.167.386.352.771.535,1.14C2264.107,3497.986,2263.906,3497.6,2263.756,3497.215Zm461.393-732.1H2292.613a32.125,32.125,0,0,0-32.092,32.09v686.7A32.126,32.126,0,0,0,2292.613,3516h432.536a32.126,32.126,0,0,0,32.091-32.091v-686.7A32.125,32.125,0,0,0,2725.149,2765.115Z" transform="translate(-2255.825 -2760.78)" fill="#242424" opacity="0.754"/><path d="M2263.391,2783.548c.151-.386.352-.771.536-1.14C2263.743,2782.776,2263.558,2783.162,2263.391,2783.548Zm0,713.331c.167.385.352.771.536,1.138C2263.743,3497.65,2263.542,3497.264,2263.391,3496.879Zm461.394-732.1H2292.248a32.127,32.127,0,0,0-32.092,32.091v686.7a32.127,32.127,0,0,0,32.092,32.091h432.537a32.126,32.126,0,0,0,32.092-32.091v-686.7A32.126,32.126,0,0,0,2724.785,2764.778Z" transform="translate(-2255.773 -2760.733)" fill="#212121" opacity="0.77"/><path d="M2263.027,2783.211c.15-.385.352-.771.536-1.139C2263.378,2782.44,2263.194,2782.826,2263.027,2783.211Zm0,713.331c.167.386.352.771.536,1.14C2263.378,3497.313,2263.177,3496.928,2263.027,3496.542Zm461.393-732.1H2291.883a32.126,32.126,0,0,0-32.091,32.091v686.7a32.126,32.126,0,0,0,32.091,32.091H2724.42a32.127,32.127,0,0,0,32.092-32.091v-686.7A32.127,32.127,0,0,0,2724.42,2764.442Z" transform="translate(-2255.722 -2760.685)" fill="#1f1f1f" opacity="0.787"/><path d="M2262.662,2782.875c.151-.386.353-.771.536-1.14C2263.014,2782.1,2262.829,2782.489,2262.662,2782.875Zm0,713.331c.168.386.353.771.536,1.138C2263.014,3496.976,2262.813,3496.592,2262.662,3496.206Zm461.394-732.1H2291.519a32.126,32.126,0,0,0-32.091,32.091v686.7a32.126,32.126,0,0,0,32.091,32.09h432.537a32.126,32.126,0,0,0,32.091-32.09V2796.2A32.126,32.126,0,0,0,2724.056,2764.105Z" transform="translate(-2255.671 -2760.638)" fill="#1d1d1d" opacity="0.803"/><path d="M2262.3,2782.539c.15-.386.353-.771.536-1.14C2262.65,2781.767,2262.465,2782.153,2262.3,2782.539Zm0,713.331c.168.386.353.771.536,1.139C2262.65,3496.641,2262.448,3496.255,2262.3,3495.869Zm461.394-732.1H2291.155a32.127,32.127,0,0,0-32.092,32.091v686.7a32.127,32.127,0,0,0,32.092,32.092h432.537a32.127,32.127,0,0,0,32.092-32.092v-686.7A32.127,32.127,0,0,0,2723.692,2763.769Z" transform="translate(-2255.62 -2760.591)" fill="#1a1a1a" opacity="0.82"/><path d="M2261.934,2782.2c.15-.385.351-.771.535-1.14C2262.285,2781.431,2262.1,2781.817,2261.934,2782.2Zm0,713.331c.167.386.351.771.535,1.139C2262.285,3496.3,2262.084,3495.919,2261.934,3495.533Zm461.393-732.1H2290.79a32.126,32.126,0,0,0-32.091,32.09v686.7a32.126,32.126,0,0,0,32.091,32.091h432.537a32.126,32.126,0,0,0,32.091-32.091v-686.7A32.126,32.126,0,0,0,2723.327,2763.433Z" transform="translate(-2255.568 -2760.543)" fill="#181818" opacity="0.836"/><path d="M2261.569,2781.866c.151-.386.352-.771.536-1.14C2261.921,2781.094,2261.736,2781.48,2261.569,2781.866Zm0,713.331c.167.385.352.771.536,1.139C2261.921,3495.967,2261.72,3495.582,2261.569,3495.2Zm461.394-732.1H2290.426a32.127,32.127,0,0,0-32.092,32.091v686.7a32.126,32.126,0,0,0,32.092,32.09h432.537a32.126,32.126,0,0,0,32.091-32.09v-686.7A32.126,32.126,0,0,0,2722.963,2763.1Z" transform="translate(-2255.517 -2760.496)" fill="#151515" opacity="0.852"/><path d="M2261.2,2781.529c.15-.385.352-.771.536-1.139C2261.556,2780.758,2261.372,2781.144,2261.2,2781.529Zm0,713.331c.167.386.352.771.536,1.139C2261.556,3495.631,2261.355,3495.246,2261.2,3494.86Zm461.394-732.1H2290.062a32.126,32.126,0,0,0-32.091,32.091v686.7a32.126,32.126,0,0,0,32.091,32.091H2722.6a32.127,32.127,0,0,0,32.092-32.091v-686.7A32.126,32.126,0,0,0,2722.6,2762.76Z" transform="translate(-2255.466 -2760.448)" fill="#131313" opacity="0.869"/><path d="M2260.84,2781.193c.151-.386.352-.771.536-1.14C2261.192,2780.423,2261.008,2780.807,2260.84,2781.193Zm0,713.331c.167.386.352.771.536,1.138C2261.192,3495.295,2260.991,3494.91,2260.84,3494.524Zm461.394-732.1H2289.7a32.125,32.125,0,0,0-32.092,32.09v686.7a32.126,32.126,0,0,0,32.092,32.091h432.536a32.126,32.126,0,0,0,32.092-32.091v-686.7A32.125,32.125,0,0,0,2722.234,2762.425Z" transform="translate(-2255.414 -2760.401)" fill="#111" opacity="0.885"/><path d="M2260.476,2780.857c.15-.386.352-.772.536-1.141C2260.828,2780.085,2260.643,2780.471,2260.476,2780.857Zm0,713.331c.167.385.352.771.536,1.139C2260.828,3494.958,2260.626,3494.573,2260.476,3494.188Zm461.394-732.1H2289.332a32.127,32.127,0,0,0-32.091,32.091v686.7a32.126,32.126,0,0,0,32.091,32.091H2721.87a32.126,32.126,0,0,0,32.092-32.091v-686.7A32.127,32.127,0,0,0,2721.87,2762.087Z" transform="translate(-2255.363 -2760.353)" fill="#0e0e0e" opacity="0.902"/><path d="M2260.112,2780.52c.15-.385.351-.771.535-1.14C2260.463,2779.749,2260.278,2780.135,2260.112,2780.52Zm0,713.331c.167.385.351.771.535,1.139C2260.463,3494.622,2260.262,3494.237,2260.112,3493.851Zm461.393-732.1H2288.968a32.126,32.126,0,0,0-32.091,32.092v686.7a32.126,32.126,0,0,0,32.091,32.091H2721.5a32.126,32.126,0,0,0,32.091-32.091v-686.7A32.126,32.126,0,0,0,2721.5,2761.751Z" transform="translate(-2255.312 -2760.306)" fill="#0c0c0c" opacity="0.918"/><path d="M2259.747,2780.184c.151-.386.352-.77.536-1.14C2260.1,2779.413,2259.914,2779.8,2259.747,2780.184Zm0,713.331c.167.385.352.771.536,1.138C2260.1,3494.286,2259.9,3493.9,2259.747,3493.515Zm461.394-732.1H2288.6a32.127,32.127,0,0,0-32.092,32.091v686.7A32.127,32.127,0,0,0,2288.6,3512.3h432.537a32.126,32.126,0,0,0,32.091-32.091v-686.7A32.126,32.126,0,0,0,2721.141,2761.414Z" transform="translate(-2255.26 -2760.259)" fill="#0a0a0a" opacity="0.934"/><path d="M2259.383,2779.847c.15-.385.352-.771.536-1.14C2259.734,2779.076,2259.55,2779.462,2259.383,2779.847Zm0,713.331c.167.386.352.772.536,1.139C2259.734,3493.95,2259.533,3493.564,2259.383,3493.178Zm461.393-732.1H2288.24a32.126,32.126,0,0,0-32.092,32.091v686.7a32.126,32.126,0,0,0,32.092,32.091h432.536a32.127,32.127,0,0,0,32.092-32.091v-686.7A32.127,32.127,0,0,0,2720.776,2761.078Z" transform="translate(-2255.209 -2760.211)" fill="#070707" opacity="0.951"/><path d="M2259.018,2779.511c.151-.386.352-.771.536-1.14C2259.37,2778.74,2259.185,2779.125,2259.018,2779.511Zm0,713.331c.167.386.352.771.536,1.139C2259.37,3493.613,2259.169,3493.228,2259.018,3492.842Zm461.394-732.1H2287.875a32.126,32.126,0,0,0-32.091,32.091v686.7a32.126,32.126,0,0,0,32.091,32.091h432.537a32.126,32.126,0,0,0,32.091-32.091v-686.7A32.125,32.125,0,0,0,2720.412,2760.742Z" transform="translate(-2255.158 -2760.164)" fill="#050505" opacity="0.967"/><path d="M2258.654,2779.175c.15-.386.352-.771.536-1.14C2259.006,2778.4,2258.821,2778.789,2258.654,2779.175Zm0,713.331c.167.385.352.771.536,1.138C2259.006,3493.277,2258.8,3492.891,2258.654,3492.506Zm461.394-732.1H2287.51a32.126,32.126,0,0,0-32.091,32.091v686.7a32.127,32.127,0,0,0,32.091,32.092h432.538a32.127,32.127,0,0,0,32.091-32.092V2792.5A32.126,32.126,0,0,0,2720.048,2760.406Z" transform="translate(-2255.106 -2760.117)" fill="#020202" opacity="0.984"/><path d="M2258.29,2778.838c.15-.385.352-.771.536-1.139C2258.641,2778.067,2258.457,2778.453,2258.29,2778.838Zm0,713.331c.167.386.352.771.536,1.139C2258.641,3492.94,2258.44,3492.555,2258.29,3492.169Zm461.394-732.1H2287.146a32.126,32.126,0,0,0-32.091,32.091v686.7a32.126,32.126,0,0,0,32.091,32.091h432.537a32.126,32.126,0,0,0,32.091-32.091v-686.7A32.126,32.126,0,0,0,2719.683,2760.069Z" transform="translate(-2255.055 -2760.069)"/></g><path d="M2751.52,2791.386v-.067c0-.2-.016-.385-.034-.6-.016-.335-.033-.687-.067-1.022a5.14,5.14,0,0,0-.034-.52.974.974,0,0,1-.016-.218c-.017-.118-.033-.234-.05-.352-.034-.335-.083-.67-.117-.988-.068-.52-.169-1.023-.268-1.542-.1-.5-.2-1.005-.319-1.491-.134-.486-.268-.955-.4-1.424a.673.673,0,0,0-.017-.083q-.226-.7-.452-1.407-.251-.73-.553-1.409c-.185-.468-.386-.921-.586-1.374-.184-.385-.369-.771-.553-1.139a.925.925,0,0,1-.117-.218c-.235-.436-.469-.871-.721-1.29a28.558,28.558,0,0,0-2.479-3.653c-.017-.016-.017-.034-.033-.05-.6-.754-1.257-1.509-1.928-2.213,0-.016-.033-.033-.033-.033-.336-.369-.687-.7-1.039-1.039-.185-.2-.385-.386-.587-.57-.351-.3-.7-.62-1.072-.906-.218-.2-.453-.386-.687-.57-.536-.436-1.106-.839-1.675-1.24-.2-.134-.4-.269-.62-.4-.184-.134-.4-.251-.587-.385a15.141,15.141,0,0,0-1.324-.771l-.653-.351a31.46,31.46,0,0,0-6.486-2.564c-.185-.051-.369-.1-.553-.134-.251-.067-.5-.135-.737-.185a34,34,0,0,0-3.938-.62c-.234-.017-.452-.033-.67-.067-.788-.051-1.575-.084-2.38-.084H2287.193c-.8,0-1.592.033-2.38.084-.251.033-.5.05-.737.083a29.092,29.092,0,0,0-3.854.6c-.251.051-.5.119-.754.185-.2.05-.436.1-.637.167a30.3,30.3,0,0,0-6.4,2.531l-.654.351a28.244,28.244,0,0,0-2.563,1.593c-.2.133-.386.267-.587.4q-.528.378-1.056.8a33.033,33.033,0,0,0-2.581,2.262c-.185.168-.352.352-.536.536a2.248,2.248,0,0,0-.268.285,2.846,2.846,0,0,0-.234.251c-.285.284-.537.569-.788.854-.234.268-.469.553-.687.837-.1.117-.2.236-.284.353a1.033,1.033,0,0,0-.167.218c-.235.3-.469.6-.7.921,0,.035-.033.051-.05.084-.268.369-.52.771-.788,1.139a.7.7,0,0,1-.067.118c-.234.385-.469.771-.7,1.173-.252.419-.486.854-.721,1.29-.05.083-.067.15-.118.218-.184.369-.369.754-.535,1.139-.218.453-.419.906-.6,1.374-.2.453-.368.923-.536,1.409-.251.72-.486,1.44-.687,2.178-.2.72-.369,1.474-.519,2.229-.1.519-.185,1.005-.268,1.542-.051.435-.118.888-.168,1.34a.974.974,0,0,1-.016.218,4.528,4.528,0,0,0-.051.687,7.377,7.377,0,0,0-.05.855c-.034.5-.05.989-.05,1.491v686.7c0,.486.016.988.05,1.474a7.378,7.378,0,0,0,.05.855,4.931,4.931,0,0,0,.051.7.834.834,0,0,1,.016.2c.05.452.117.9.168,1.357.083.52.167,1.022.268,1.525.15.754.319,1.491.519,2.229s.436,1.474.687,2.178c.167.486.335.955.536,1.407.185.47.386.94.6,1.375.167.386.352.771.535,1.139.051.084.068.151.118.218.235.436.469.872.721,1.307l.7,1.156a.654.654,0,0,1,.067.118c.268.386.52.771.788,1.139.016.034.05.051.05.084.235.319.47.62.7.921a1.036,1.036,0,0,0,.167.219c.083.118.184.235.284.351.219.286.453.571.688.839.251.285.5.569.788.855.067.083.15.167.234.268.084.083.168.185.268.268.184.185.351.368.536.536.839.8,1.676,1.558,2.581,2.279.353.268.7.536,1.056.788.2.133.385.268.587.419.82.57,1.675,1.088,2.563,1.591l.654.352a31.167,31.167,0,0,0,6.4,2.514c.2.067.436.117.637.167.251.067.5.134.754.184a31.581,31.581,0,0,0,3.854.62c.235.017.486.05.737.067.788.05,1.576.083,2.38.083H2719.73c.805,0,1.592-.034,2.38-.083.218-.017.436-.05.67-.067a30.264,30.264,0,0,0,3.938-.62c.234-.05.486-.117.737-.184.185-.033.369-.083.553-.134a31.451,31.451,0,0,0,6.486-2.547l.653-.352c.453-.251.888-.5,1.324-.788.185-.117.4-.251.587-.385.217-.134.419-.268.62-.4.57-.4,1.139-.8,1.675-1.223.235-.184.469-.386.687-.57.369-.3.721-.62,1.072-.922.2-.185.4-.369.587-.57.352-.336.7-.67,1.039-1.022,0-.017.033-.017.033-.051.671-.7,1.324-1.441,1.928-2.211.016-.017.016-.033.033-.051a29.667,29.667,0,0,0,2.479-3.637c.252-.435.486-.871.721-1.307.033-.067.067-.134.117-.218.184-.368.369-.753.553-1.139.2-.435.4-.9.586-1.375q.3-.678.553-1.407c.167-.453.318-.938.452-1.407,0-.016.017-.051.017-.067.134-.47.268-.956.4-1.442.117-.485.218-.989.319-1.491s.184-1.005.268-1.525c.05-.453.117-.9.167-1.357a.834.834,0,0,1,.016-.2,3.665,3.665,0,0,0,.034-.437v-.1c0-.067.017-.134.017-.2a.823.823,0,0,0,.016-.2c.017-.2.033-.419.033-.62.017-.2.034-.385.034-.6v-.067c.017-.268.017-.537.017-.8v-686.7C2751.537,2791.922,2751.537,2791.655,2751.52,2791.386ZM2287.193,3507.75a28.876,28.876,0,0,1-28.857-28.84v-686.7a28.878,28.878,0,0,1,28.857-28.857H2719.73a28.879,28.879,0,0,1,28.857,28.857v686.7a28.877,28.877,0,0,1-28.857,28.84Z" transform="translate(-2255.102 -2760.116)" fill="#fff"/><path d="M2719.683,2760.069H2287.146a32.126,32.126,0,0,0-32.091,32.091v686.7a32.126,32.126,0,0,0,32.091,32.091h432.537a32.126,32.126,0,0,0,32.091-32.091v-686.7A32.126,32.126,0,0,0,2719.683,2760.069Zm31.807,718.794c0,.267,0,.536-.017.8v.067c0,.219-.017.4-.034.6,0,.2-.017.419-.033.62a.814.814,0,0,1-.017.2c0,.068-.017.135-.017.2v.1a3.661,3.661,0,0,1-.034.437.822.822,0,0,0-.017.2c-.05.452-.117.9-.167,1.357-.068.5-.168,1.022-.268,1.525s-.2,1.006-.319,1.491c-.134.486-.268.972-.4,1.442,0,.016-.018.051-.018.067-.134.469-.284.955-.452,1.407q-.251.729-.553,1.407c-.185.47-.386.94-.586,1.375-.185.386-.37.771-.554,1.139-.05.084-.084.151-.117.218-.235.436-.469.872-.721,1.307a29.612,29.612,0,0,1-2.479,3.637c-.017.017-.017.033-.033.051-.6.771-1.257,1.508-1.928,2.211,0,.034-.033.034-.033.051-.335.352-.687.687-1.039,1.022-.185.2-.385.385-.587.57-.352.3-.7.62-1.072.922-.218.184-.453.386-.687.57-.536.419-1.105.82-1.675,1.223-.2.134-.4.268-.62.4-.184.134-.4.268-.587.385-.436.285-.871.537-1.324.788l-.653.352a31.451,31.451,0,0,1-6.486,2.547c-.185.051-.369.1-.553.134-.251.067-.5.134-.737.184a30.264,30.264,0,0,1-3.938.62c-.234.018-.452.05-.67.067-.788.05-1.575.083-2.379.083H2287.146c-.8,0-1.592-.034-2.38-.083-.251-.017-.5-.05-.737-.067a31.57,31.57,0,0,1-3.854-.62c-.252-.05-.5-.117-.754-.184-.2-.051-.436-.1-.637-.167a31.169,31.169,0,0,1-6.4-2.514l-.654-.352c-.888-.5-1.743-1.021-2.563-1.591-.2-.151-.386-.286-.587-.419-.352-.252-.7-.52-1.056-.788-.9-.721-1.743-1.474-2.581-2.279-.185-.168-.352-.351-.536-.536-.1-.083-.184-.185-.268-.268-.084-.1-.167-.185-.234-.268-.285-.285-.537-.57-.788-.855-.234-.268-.469-.552-.687-.839-.1-.117-.2-.234-.285-.351a1,1,0,0,1-.167-.219c-.235-.3-.469-.6-.705-.921,0-.033-.033-.05-.05-.084-.268-.368-.52-.753-.788-1.139a.658.658,0,0,0-.067-.118l-.7-1.156c-.252-.435-.486-.871-.721-1.307-.05-.067-.067-.134-.118-.218-.184-.368-.385-.753-.536-1.139-.218-.435-.419-.9-.6-1.375-.2-.452-.369-.921-.536-1.407-.251-.7-.486-1.441-.687-2.178s-.369-1.475-.519-2.229c-.1-.5-.2-1.021-.268-1.525-.051-.453-.118-.9-.168-1.357a.846.846,0,0,0-.016-.2,4.967,4.967,0,0,1-.051-.7,7.271,7.271,0,0,1-.05-.855c-.034-.486-.05-.988-.05-1.474v-686.7c0-.5.016-.989.05-1.491a7.27,7.27,0,0,1,.05-.855,4.554,4.554,0,0,1,.051-.687.992.992,0,0,0,.016-.218c.051-.452.118-.906.168-1.34.067-.52.167-1.023.268-1.542.15-.754.319-1.509.519-2.229.2-.737.436-1.458.687-2.178.167-.487.335-.956.536-1.409.185-.468.386-.921.6-1.373.15-.385.352-.771.536-1.139.05-.068.067-.135.118-.218.234-.436.469-.871.721-1.29.234-.4.469-.788.7-1.173a.71.71,0,0,0,.067-.118c.268-.368.52-.771.788-1.139.017-.033.05-.05.05-.084.236-.318.47-.619.705-.921a1,1,0,0,1,.167-.218c.083-.117.184-.236.285-.353.218-.284.453-.569.687-.837.251-.285.5-.57.788-.854a2.919,2.919,0,0,1,.234-.251,2.248,2.248,0,0,1,.268-.285c.184-.184.351-.368.536-.536a32.9,32.9,0,0,1,2.581-2.262q.528-.428,1.056-.805c.2-.134.385-.268.587-.4a28.3,28.3,0,0,1,2.563-1.593l.654-.351a30.288,30.288,0,0,1,6.4-2.531c.2-.067.436-.117.637-.167.251-.067.5-.135.754-.186a29.082,29.082,0,0,1,3.854-.6c.235-.033.486-.05.737-.083.788-.051,1.576-.084,2.38-.084h432.537c.8,0,1.592.033,2.379.084.218.033.436.05.67.067a34,34,0,0,1,3.938.62c.235.051.486.119.737.186.185.033.368.083.553.134a31.46,31.46,0,0,1,6.486,2.564l.653.351a15.1,15.1,0,0,1,1.324.771c.185.134.4.251.587.385.217.134.419.269.62.4.57.4,1.139.8,1.675,1.24.235.184.469.368.688.569.369.285.721.6,1.072.906.2.184.4.367.587.569.352.334.7.67,1.039,1.039,0,0,.033.016.033.033.671.7,1.324,1.459,1.928,2.213.016.017.016.034.033.05a28.507,28.507,0,0,1,2.479,3.653c.252.419.5.854.721,1.29a.92.92,0,0,0,.117.218c.184.369.369.754.554,1.139.2.452.4.905.586,1.373q.3.68.553,1.409.225.7.452,1.407a.665.665,0,0,1,.018.083c.134.469.268.938.4,1.424.117.486.234.989.319,1.491.1.519.2,1.022.268,1.542.033.318.083.653.117.988.017.118.033.234.05.352a.964.964,0,0,0,.017.218,5.131,5.131,0,0,1,.034.52c.034.335.067.687.067,1.022.017.218.034.4.034.6v.067c.017.269.017.536.017.821Z" transform="translate(-2255.055 -2760.069)" fill="#fff"/><path d="M2749.071,2792.691v686.7a28.877,28.877,0,0,1-28.857,28.84H2287.677a28.876,28.876,0,0,1-28.857-28.84v-686.7a28.879,28.879,0,0,1,28.857-28.857h432.537A28.879,28.879,0,0,1,2749.071,2792.691Z" transform="translate(-2255.585 -2760.599)" fill="#fff"/><path d="M2751.4,3599.981c.017-.083.017-.184.033-.285a3.712,3.712,0,0,1-.033.437.822.822,0,0,0-.017.2c-.05.452-.117.9-.167,1.357-.084.52-.169,1.022-.268,1.525s-.2,1.006-.319,1.491c-.134.486-.268.972-.4,1.442,0,.016-.017.051-.017.067-.151.469-.3.955-.452,1.407q-.251.729-.553,1.407c-.185.47-.386.94-.586,1.375-.185.386-.369.771-.553,1.139-.051.084-.084.151-.117.218-.235.436-.469.872-.721,1.307a33.891,33.891,0,0,1-2.479,3.637c-.017.017-.017.033-.033.051-.6.771-1.257,1.508-1.928,2.211,0,.034-.033.034-.033.051-.336.352-.687.687-1.039,1.022-.185.2-.385.385-.587.57-.351.3-.7.62-1.072.922-.218.184-.453.386-.687.57-.536.419-1.106.82-1.675,1.223-.2.134-.4.268-.62.4-.184.134-.4.268-.587.385-.436.285-.871.537-1.324.788l-.653.352a31.451,31.451,0,0,1-6.486,2.547c-.185.051-.368.1-.553.134-.251.067-.5.134-.737.184a30.264,30.264,0,0,1-3.938.62c-.234.018-.452.05-.67.067-.788.05-1.575.083-2.38.083H2287.209c-.8,0-1.592-.034-2.38-.083-.251-.017-.5-.05-.737-.067a31.581,31.581,0,0,1-3.854-.62c-.251-.05-.5-.117-.754-.184-.2-.051-.436-.1-.637-.167a31.182,31.182,0,0,1-6.4-2.514l-.654-.352c-.888-.5-1.743-1.021-2.563-1.591-.2-.151-.386-.286-.587-.419-.352-.252-.7-.52-1.056-.788-.9-.721-1.742-1.474-2.581-2.279-.185-.168-.352-.351-.536-.536-.1-.083-.184-.185-.268-.268-.084-.1-.167-.185-.234-.268-.285-.285-.537-.57-.788-.855-.234-.268-.469-.552-.687-.839-.1-.117-.2-.234-.284-.351a1.027,1.027,0,0,1-.167-.219c-.235-.3-.469-.6-.7-.921,0-.033-.033-.05-.05-.084-.268-.368-.52-.753-.788-1.139a.629.629,0,0,0-.067-.118l-.7-1.156c-.251-.435-.486-.871-.721-1.307-.05-.067-.067-.134-.117-.218-.184-.368-.369-.753-.536-1.139-.218-.435-.419-.9-.6-1.375-.2-.452-.368-.921-.536-1.407-.251-.7-.486-1.441-.687-2.178s-.369-1.475-.519-2.229c-.1-.5-.185-1.005-.268-1.525-.051-.453-.118-.9-.168-1.357a.834.834,0,0,0-.016-.2,4.967,4.967,0,0,1-.051-.7c.017.185.034.369.051.553.051.469.117.956.185,1.408a4.276,4.276,0,0,0,.117.67,7.25,7.25,0,0,0,.151.838c.067.418.167.838.267,1.24.118.436.252.871.37,1.308.117.367.234.72.352,1.072a19.41,19.41,0,0,0,.871,2.213c.1.235.2.452.318.67.151.351.319.687.486,1.021.034.033.034.067.051.084.217.386.418.754.636,1.14,0,.016.017.033.034.05.15.252.3.52.469.788.151.218.284.435.436.653a.916.916,0,0,0,.117.151c.235.351.486.7.737,1.056.251.335.52.67.771.989a.722.722,0,0,0,.185.2,10.6,10.6,0,0,0,.822.954c.3.336.619.67.938.989.284.285.586.571.871.855a2.933,2.933,0,0,1,.252.218c.3.268.62.535.938.8.352.284.721.57,1.09.855.284.217.587.436.888.637a4.671,4.671,0,0,0,.469.318,6.691,6.691,0,0,0,.586.369,4.125,4.125,0,0,0,.571.352c.385.235.753.452,1.156.67.235.117.486.251.721.368q.855.43,1.76.805c.185.084.386.151.587.234.284.118.587.218.888.335.385.134.771.269,1.173.386.386.117.788.235,1.19.334a.1.1,0,0,0,.067.017c.436.118.871.218,1.324.319h.067c.335.067.67.134,1.005.184a28.1,28.1,0,0,0,4.793.4H2722.7c.571,0,1.157-.017,1.71-.05.3-.018.6-.035.9-.067.251-.035.5-.051.771-.085a2.571,2.571,0,0,1,.352-.034c.352-.05.688-.1,1.022-.167a.429.429,0,0,0,.134-.016c.2-.034.4-.067.62-.1a1.717,1.717,0,0,1,.284-.067c.051,0,.067-.016.118-.016.3-.067.587-.134.9-.2.118-.034.252-.067.369-.1q.653-.175,1.257-.351c.419-.134.838-.269,1.223-.4a.063.063,0,0,1,.05-.016c.2-.084.4-.151.6-.235.016-.016.05-.016.067-.034.218-.067.453-.167.67-.251.017-.016.017-.016.051-.016.586-.252,1.173-.519,1.742-.805.252-.117.485-.251.721-.368.4-.218.77-.436,1.156-.67a4.161,4.161,0,0,0,.57-.352,6.732,6.732,0,0,0,.586-.369,4.71,4.71,0,0,0,.47-.318c.3-.2.6-.419.887-.637.386-.285.738-.571,1.09-.855.285-.235.553-.469.821-.7.033-.033.083-.067.117-.1a2.97,2.97,0,0,1,.252-.218.21.21,0,0,1,.084-.084c.268-.251.536-.5.787-.771l.369-.368c.117-.118.251-.251.368-.385a.242.242,0,0,1,.05-.067,2.174,2.174,0,0,0,.319-.352c.217-.235.419-.487.62-.721a2.717,2.717,0,0,0,.218-.251c.268-.319.52-.654.771-.989a7.715,7.715,0,0,0,.537-.755l.067-.067.4-.6c.217-.318.436-.67.637-1.022a.236.236,0,0,0,.05-.067l.4-.7a4.341,4.341,0,0,0,.218-.4c.151-.269.285-.52.4-.771.168-.335.335-.687.486-1.039.117-.251.235-.52.352-.771a2.1,2.1,0,0,1,.117-.285c.1-.268.2-.553.3-.838a4.8,4.8,0,0,0,.185-.52l.05-.1c.1-.318.2-.636.3-.954.1-.336.2-.67.285-1.023a.375.375,0,0,0,.034-.133l.1-.352c.083-.318.151-.654.218-.989,0-.016.016-.033.016-.05.051-.285.1-.553.134-.838a4.423,4.423,0,0,0,.118-.67C2751.3,3600.937,2751.352,3600.45,2751.4,3599.981Z" transform="translate(-2255.118 -2878.305)" fill="url(#a)"/><path d="M2832.874,3596.707q0,.746-.038,1.483C2832.859,3597.7,2832.874,3597.2,2832.874,3596.707Z" transform="translate(-2336.443 -2877.922)" fill="#dfdfdf"/><path d="M2751.218,2787.616c.033.318.083.653.117.988-.033-.234-.083-.469-.117-.7a4.826,4.826,0,0,0-.118-.67c-.033-.285-.083-.553-.134-.838-.1-.47-.218-.922-.335-1.391-.1-.386-.2-.789-.319-1.156l-.3-.956c-.218-.586-.418-1.172-.653-1.742-.117-.252-.236-.5-.352-.771-.151-.352-.319-.7-.486-1.039-.134-.251-.251-.5-.4-.754a2.233,2.233,0,0,0-.218-.4,7.384,7.384,0,0,0-.452-.788c-.2-.351-.419-.687-.637-1.022-.134-.2-.269-.4-.4-.586-.2-.285-.4-.57-.6-.838-.251-.335-.5-.654-.771-.988a1.475,1.475,0,0,0-.218-.236c-.2-.251-.4-.5-.62-.737-.1-.117-.2-.235-.319-.352-.251-.286-.5-.553-.788-.821-.284-.285-.586-.57-.871-.839-.083-.083-.167-.15-.252-.234-.3-.267-.619-.536-.938-.787a8.661,8.661,0,0,0-1.09-.855,7.781,7.781,0,0,0-.887-.637,4.535,4.535,0,0,0-.47-.335c-.184-.118-.385-.252-.586-.37a4.038,4.038,0,0,0-.57-.351c-.386-.235-.754-.453-1.156-.654-.236-.134-.469-.268-.721-.386-.57-.284-1.156-.535-1.742-.8-.236-.1-.486-.184-.721-.268-.234-.1-.47-.185-.721-.268-.386-.151-.8-.284-1.223-.418q-.6-.177-1.257-.352c-.453-.118-.922-.218-1.391-.318a10.01,10.01,0,0,0-1.039-.186,27.883,27.883,0,0,0-4.76-.4H2284.26a26.6,26.6,0,0,0-4.793.418,10.149,10.149,0,0,0-1.005.168c-.016,0-.033.016-.067.016-.453.083-.888.184-1.324.3a.1.1,0,0,0-.067.016c-.4.1-.8.218-1.19.336-.4.134-.788.251-1.173.385-.3.117-.6.218-.888.336-.2.083-.4.167-.587.234q-.9.376-1.76.8c-.234.118-.485.252-.721.386-.4.2-.771.418-1.156.654a4,4,0,0,0-.571.351c-.2.118-.4.252-.586.37a4.5,4.5,0,0,0-.469.335,7.81,7.81,0,0,0-.888.637,10.145,10.145,0,0,0-1.09.855c-.319.251-.637.52-.938.787-.084.084-.168.151-.252.234-.285.269-.587.553-.871.839-.319.318-.636.654-.938,1.005a10.279,10.279,0,0,0-.822.939,1.041,1.041,0,0,0-.185.2c-.251.334-.52.653-.771.988-.251.352-.5.7-.737,1.056a.9.9,0,0,0-.117.151c-.151.217-.284.436-.436.67-.168.251-.319.52-.469.786a.037.037,0,0,0-.034.034c-.218.386-.419.755-.636,1.14a.225.225,0,0,1-.051.083c-.167.336-.335.688-.486,1.023-.117.218-.217.436-.318.671a20.643,20.643,0,0,0-.871,2.212c-.118.352-.236.7-.352,1.073-.118.435-.252.871-.37,1.324-.1.4-.2.8-.267,1.223a7.224,7.224,0,0,0-.151.838,4.647,4.647,0,0,0-.117.67c-.067.47-.134.938-.185,1.407-.017.185-.034.37-.051.553a4.56,4.56,0,0,1,.051-.687.974.974,0,0,0,.016-.218c.051-.452.117-.906.168-1.34.083-.537.167-1.023.268-1.542.15-.754.319-1.509.519-2.229.2-.737.436-1.458.687-2.178.167-.487.335-.956.536-1.409.185-.468.386-.921.6-1.374.167-.385.352-.771.536-1.139.05-.068.067-.135.117-.218.235-.436.469-.871.721-1.29.234-.4.469-.788.7-1.173a.686.686,0,0,0,.067-.118c.268-.368.52-.771.788-1.139.016-.033.05-.05.05-.084.235-.318.47-.619.7-.921a1.024,1.024,0,0,1,.167-.218c.083-.117.184-.236.284-.353.219-.284.453-.57.688-.837.251-.285.5-.57.788-.854a2.846,2.846,0,0,1,.234-.251,2.248,2.248,0,0,1,.268-.285c.184-.184.352-.368.536-.536a32.992,32.992,0,0,1,2.581-2.262q.528-.428,1.056-.8c.2-.134.385-.268.587-.4a28.244,28.244,0,0,1,2.563-1.593l.654-.351a30.3,30.3,0,0,1,6.4-2.531c.2-.067.436-.117.637-.167.251-.067.5-.135.754-.185a29.092,29.092,0,0,1,3.854-.6c.235-.033.486-.05.737-.083.788-.051,1.576-.084,2.38-.084h432.537c.8,0,1.592.033,2.38.084.218.033.436.05.67.067a34,34,0,0,1,3.938.62c.235.051.486.119.737.185.185.034.368.083.553.134a31.46,31.46,0,0,1,6.486,2.564l.653.351a15.141,15.141,0,0,1,1.324.771c.185.134.4.251.587.385.217.134.419.269.62.4.57.4,1.139.8,1.675,1.24.235.184.469.368.687.57.369.285.721.6,1.072.906.2.184.4.368.587.57.352.334.7.67,1.039,1.039,0,0,.033.016.033.033.671.7,1.324,1.459,1.928,2.213.016.016.016.034.033.05a32.429,32.429,0,0,1,2.479,3.653c.252.419.486.854.721,1.29a.925.925,0,0,0,.117.218c.184.369.369.754.553,1.139.2.453.4.906.586,1.374q.3.68.553,1.409l.452,1.407a.682.682,0,0,1,.017.083c.134.469.268.938.4,1.424.117.486.218.989.319,1.491C2751.05,2786.593,2751.134,2787.079,2751.218,2787.616Z" transform="translate(-2255.118 -2760.116)" fill="url(#b)"/><path d="M2832.7,2793.8c0,.05.017.084,0,.134-.016-.234-.05-.469-.067-.7.017.118.033.234.051.352A.978.978,0,0,0,2832.7,2793.8Z" transform="translate(-2336.415 -2764.74)" fill="url(#c)"/><path d="M2832.874,2797.173c0-.5-.015-.991-.038-1.483Q2832.874,2796.426,2832.874,2797.173Z" transform="translate(-2336.443 -2765.087)" fill="#dfdfdf"/><path d="M2287.193,3508.234h-2.949a28.131,28.131,0,0,1-4.793-.4c-.335-.05-.67-.117-1.005-.184h-.067c-.453-.1-.888-.2-1.324-.319a.1.1,0,0,1-.067-.017c-.4-.1-.8-.217-1.19-.334-.4-.117-.788-.252-1.173-.386-.3-.118-.6-.217-.888-.335-.2-.083-.4-.15-.587-.235q-.9-.377-1.76-.8c-.234-.117-.485-.251-.721-.368-.4-.218-.771-.436-1.156-.67a4.148,4.148,0,0,1-.571-.352,6.676,6.676,0,0,1-.586-.369,4.7,4.7,0,0,1-.469-.318c-.3-.2-.6-.419-.888-.636-.369-.285-.738-.571-1.09-.855-.319-.269-.637-.536-.938-.8a2.97,2.97,0,0,0-.252-.218c-.285-.284-.587-.57-.871-.855-.319-.319-.637-.653-.938-.989-.285-.318-.553-.62-.821-.954a.719.719,0,0,1-.185-.2c-.251-.319-.52-.654-.771-.989-.251-.352-.5-.7-.737-1.056a.9.9,0,0,1-.117-.151c-.151-.218-.284-.435-.436-.653-.167-.268-.319-.536-.469-.788-.017-.017-.034-.034-.034-.05-.218-.386-.419-.754-.636-1.14-.017-.017-.017-.051-.051-.084-.167-.334-.335-.67-.486-1.021-.117-.218-.217-.436-.318-.67a19.443,19.443,0,0,1-.871-2.213c-.118-.351-.235-.7-.352-1.071-.118-.437-.252-.872-.37-1.308-.1-.4-.2-.821-.267-1.24a7.306,7.306,0,0,1-.151-.839,4.245,4.245,0,0,1-.117-.67c-.067-.452-.134-.938-.185-1.408-.017-.184-.034-.368-.051-.552a7.378,7.378,0,0,1-.05-.855c-.034-.486-.05-.988-.05-1.474v-686.7c0-.5.016-.989.05-1.491a7.377,7.377,0,0,1,.05-.855c.017-.183.034-.368.051-.553.051-.469.117-.937.185-1.407a4.617,4.617,0,0,1,.117-.67,7.275,7.275,0,0,1,.151-.838c.067-.419.167-.821.267-1.223.118-.453.252-.889.37-1.324.117-.369.234-.721.352-1.073a20.7,20.7,0,0,1,.871-2.212c.1-.234.2-.452.318-.671.151-.335.319-.687.486-1.022a.225.225,0,0,0,.051-.083c.217-.385.418-.754.636-1.14a.036.036,0,0,1,.034-.034c.15-.267.3-.535.469-.786.151-.235.284-.453.436-.67a.883.883,0,0,1,.117-.151c.235-.352.486-.7.737-1.056.251-.335.52-.654.771-.988a1.033,1.033,0,0,1,.185-.2c.268-.319.536-.638.821-.939.3-.351.62-.687.938-1.005.284-.285.586-.57.871-.839.083-.083.167-.15.252-.234.3-.267.619-.536.938-.787.352-.3.721-.587,1.09-.855a7.816,7.816,0,0,1,.888-.636,4.522,4.522,0,0,1,.469-.335c.184-.118.385-.252.586-.37a3.982,3.982,0,0,1,.571-.351c.385-.235.753-.453,1.156-.654.235-.134.486-.268.721-.386q.855-.427,1.76-.8c.185-.067.386-.151.587-.234.284-.118.587-.219.888-.336.385-.134.771-.251,1.173-.385.386-.118.788-.235,1.19-.336a.1.1,0,0,1,.067-.016c.436-.118.871-.218,1.324-.3.033,0,.051-.016.067-.016.335-.068.67-.135,1.005-.168a26.6,26.6,0,0,1,4.793-.419h2.949a28.879,28.879,0,0,0-28.857,28.857v686.7A28.876,28.876,0,0,0,2287.193,3508.234Z" transform="translate(-2255.102 -2760.599)" fill="url(#d)"/><path d="M2827.67,2792.691v686.7c0,.267,0,.536-.017.8v.067c0,.218-.016.4-.033.6s-.016.419-.033.62c0,.067-.016.134-.016.2s-.017.135-.017.2v.1c-.016.1-.016.2-.033.284-.05.47-.1.956-.184,1.408a4.42,4.42,0,0,1-.118.67c-.033.285-.083.553-.134.839,0,.016-.016.033-.016.05-.067.335-.135.671-.218.989l-.1.352a.381.381,0,0,1-.033.133c-.084.353-.185.688-.285,1.023l-.3.954-.05.1a4.732,4.732,0,0,1-.185.52c-.1.284-.2.57-.3.838a2.1,2.1,0,0,0-.117.285c-.117.251-.235.52-.352.771-.151.351-.319.7-.486,1.039-.117.252-.251.5-.4.771a4.373,4.373,0,0,1-.218.4l-.4.7a.24.24,0,0,1-.05.067c-.2.352-.419.7-.637,1.022l-.4.6-.067.067a8.8,8.8,0,0,1-.537.755c-.251.335-.5.67-.771.989a2.749,2.749,0,0,1-.218.251c-.2.234-.4.486-.62.721a2.166,2.166,0,0,1-.319.352.239.239,0,0,0-.05.067c-.117.117-.251.251-.368.385l-.37.369c-.251.268-.519.52-.787.771a.21.21,0,0,0-.084.084,2.97,2.97,0,0,0-.252.218c-.033.033-.083.067-.117.1-.268.234-.536.469-.821.7-.352.284-.7.57-1.09.855-.284.217-.586.436-.887.636a4.71,4.71,0,0,1-.47.318,6.676,6.676,0,0,1-.586.369,4.17,4.17,0,0,1-.57.352c-.385.235-.754.452-1.156.67-.236.117-.469.251-.721.368-.57.286-1.156.553-1.742.8-.034,0-.034,0-.051.017-.217.084-.452.185-.67.251-.017.017-.051.017-.067.033-.2.083-.4.151-.6.235a.063.063,0,0,0-.05.016c-.386.134-.8.269-1.223.4q-.6.175-1.257.351c-.117.033-.251.067-.369.1-.318.067-.6.135-.9.2-.05,0-.067.016-.118.016a1.74,1.74,0,0,0-.284.067c-.218.034-.419.067-.62.1a.429.429,0,0,1-.134.016c-.335.067-.671.118-1.022.167a2.572,2.572,0,0,0-.352.034c-.268.034-.519.05-.771.085-.3.033-.6.05-.9.067-.553.033-1.139.05-1.71.05h-2.949a28.876,28.876,0,0,0,28.857-28.84v-686.7a28.879,28.879,0,0,0-28.857-28.857h2.949a27.883,27.883,0,0,1,4.76.4,10.075,10.075,0,0,1,1.039.186c.469.1.938.2,1.391.318q.653.175,1.257.352c.419.134.838.267,1.223.418.251.083.486.168.721.268.235.084.485.168.721.268.586.269,1.173.52,1.742.8.252.118.485.252.721.386.4.2.771.418,1.156.654a4,4,0,0,1,.57.351c.2.118.4.252.586.37a4.535,4.535,0,0,1,.47.335,7.808,7.808,0,0,1,.887.636,13.28,13.28,0,0,1,1.09.855c.319.251.636.52.938.787.084.084.168.151.252.234.285.269.587.553.871.839.269.268.52.535.788.821.117.117.218.235.319.352.217.235.419.486.62.737a1.475,1.475,0,0,1,.218.236c.268.334.52.653.771.988.2.269.4.553.6.838.134.184.268.385.4.586.217.335.436.671.637,1.022a7.384,7.384,0,0,1,.452.788,2.233,2.233,0,0,1,.218.4c.151.251.268.5.4.754.167.334.335.687.486,1.039.117.268.235.519.352.771.235.57.435,1.156.653,1.742l.3.956c.118.368.218.771.319,1.156.117.469.234.921.335,1.391.051.285.1.553.134.838a4.829,4.829,0,0,1,.118.67c.083.47.134.938.184,1.407a2.685,2.685,0,0,1,.033.386c.034.335.051.687.067,1.022.017.218.033.4.033.6v.067C2827.67,2792.138,2827.67,2792.406,2827.67,2792.691Z" transform="translate(-2331.235 -2760.599)" fill="url(#d)"/><g transform="translate(24.455 74.45)"><rect width="443.454" height="590.253" transform="translate(2.178 2.178)" fill="url(#f)"/><path d="M2729.9,2846.726H2284.95a1.431,1.431,0,0,0-1.431,1.431v591.748a1.43,1.43,0,0,0,1.431,1.43H2729.9a1.431,1.431,0,0,0,1.431-1.43V2848.157A1.432,1.432,0,0,0,2729.9,2846.726Zm-.747,592.432H2285.7V2848.9h443.455Z" transform="translate(-2283.519 -2846.726)" fill="url(#g)"/></g><g transform="translate(224.784 692.2)"><ellipse cx="19.285" cy="19.285" rx="19.285" ry="19.285" transform="translate(4.291 4.291)" fill="url(#h)"/><ellipse cx="19.106" cy="19.106" rx="19.106" ry="19.106" transform="translate(0 36.911) rotate(-75.011)" fill="url(#i)"/><ellipse cx="16.696" cy="16.696" rx="16.696" ry="16.696" transform="matrix(0.174, -0.985, 0.985, 0.174, 4.054, 36.938)" fill="#b6b6b6"/><ellipse cx="16.182" cy="16.182" rx="16.182" ry="16.182" transform="translate(4.649 36.521) rotate(-79.993)" fill="#fff"/></g></g></svg>