<svg xmlns="http://www.w3.org/2000/svg" width="60" height="60.57" viewBox="0 0 60 60.57">
  <g id="Group_3458" data-name="Group 3458" transform="translate(1158.569 -4349.979)">
    <path id="Path_6478" data-name="Path 6478" d="M-1043.982,4463.007c.846.788,1.626,1.484,2.371,2.215,1.361,1.334,2.7,2.688,4.049,4.037.7.705.7,1.2.01,1.9-.508.514-1.016,1.029-1.535,1.532a1.126,1.126,0,0,1-1.866-.021q-2.936-2.92-5.86-5.852c-.138-.138-.285-.267-.5-.466l-1.49,3.55a3.083,3.083,0,0,1-.424.952,1.855,1.855,0,0,1-1.088.669,1.325,1.325,0,0,1-.908-.766c-2.14-5.439-4.238-10.9-6.346-16.347a1.294,1.294,0,0,1,.108-1.479,1.289,1.289,0,0,1,1.525-.172q8.138,3.077,16.281,6.138c.519.2,1,.418,1.005,1.056s-.451.955-.984,1.178q-1.848.773-3.695,1.548C-1043.479,4462.748-1043.626,4462.83-1043.982,4463.007Z" transform="translate(-61.537 -62.63)" fill="#606060"/>
    <path id="Path_6479" data-name="Path 6479" d="M-1060.06,4373.164c.914-.266,1.782-.479,2.624-.771,1.3-.45,2.579-.969,3.88-1.418a.819.819,0,0,1,.71.123,26.688,26.688,0,0,1,6.286,10.715,4.084,4.084,0,0,1,.077.446c-.274.016-.505.04-.736.04q-5.058.006-10.117.011c-.385,0-.648-.024-.713-.524a42.625,42.625,0,0,0-1.893-8.168C-1059.982,4373.494-1060.007,4373.366-1060.06,4373.164Z" transform="translate(-60.123 -12.795)" fill="#606060"/>
    <path id="Path_6480" data-name="Path 6480" d="M-1158.569,4382.141c.552-1.381,1.023-2.693,1.593-3.96a26.456,26.456,0,0,1,4.755-7.04.767.767,0,0,1,1-.234c1.967.725,3.961,1.375,5.945,2.051l.418.145c-.172.567-.369,1.1-.492,1.643-.521,2.3-1.032,4.6-1.513,6.911-.081.386-.171.569-.605.567-3.524-.013-7.048,0-10.572-.006A5.1,5.1,0,0,1-1158.569,4382.141Z" transform="translate(0 -12.719)" fill="#606060"/>
    <path id="Path_6481" data-name="Path 6481" d="M-1144.592,4447.173c-2.25.8-4.409,1.564-6.574,2.313a.585.585,0,0,1-.505-.084,26.3,26.3,0,0,1-6.5-11.1.818.818,0,0,1,.031-.249h.581c3.394,0,6.788.01,10.182-.012.528,0,.659.169.77.681.579,2.667,1.229,5.321,1.858,7.977C-1144.7,4446.884-1144.627,4447.064-1144.592,4447.173Z" transform="translate(-0.242 -53.746)" fill="#606060"/>
    <path id="Path_6482" data-name="Path 6482" d="M-1089.227,4438.165h11.549c-.155.9-.247,1.771-.459,2.606-.483,1.908-1.028,3.8-1.541,5.7-.1.353-.26.475-.655.432-2.848-.314-5.7-.6-8.551-.895-.1-.011-.208-.03-.343-.049Z" transform="translate(-42.321 -53.822)" fill="#606060"/>
    <path id="Path_6483" data-name="Path 6483" d="M-1121.688,4446.84a41.913,41.913,0,0,1-2.119-8.671h11.512v7.706Z" transform="translate(-21.216 -53.825)" fill="#606060"/>
    <path id="Path_6484" data-name="Path 6484" d="M-1079.761,4378.037a41.113,41.113,0,0,1,2.063,8.553h-11.525v-7.57Z" transform="translate(-42.324 -17.125)" fill="#606060"/>
    <path id="Path_6485" data-name="Path 6485" d="M-1104.8,4409.111c-.113.34-.235.677-.338,1.021-.541,1.8-1.092,3.6-1.605,5.411-.13.456-.326.645-.815.609-.61-.044-1.228.018-1.839-.025a.684.684,0,0,1-.505-.348c-1.051-3.2-2.076-6.4-3.146-9.731.886,0,1.7-.024,2.517.024.134.008.308.321.364.521.55,1.982,1.078,3.969,1.614,5.956a1.589,1.589,0,0,0,.363.724q.667-2.311,1.331-4.621c.2-.694.411-1.386.578-2.087a.588.588,0,0,1,.726-.531,9.54,9.54,0,0,0,1.576,0c.491-.043.678.163.8.614.61,2.213,1.251,4.416,2.024,6.651.073-.229.155-.456.217-.687.541-2.007,1.088-4.013,1.607-6.024.106-.411.281-.573.716-.551.7.036,1.4.01,2.184.01-.438,1.368-.856,2.674-1.276,3.98-.6,1.854-1.209,3.7-1.78,5.565-.134.437-.331.6-.784.564a13.652,13.652,0,0,0-1.708,0,.614.614,0,0,1-.733-.536c-.562-1.955-1.16-3.9-1.746-5.849-.066-.219-.134-.437-.2-.654Z" transform="translate(-27.781 -34.206)" fill="#606060"/>
    <path id="Path_6486" data-name="Path 6486" d="M-1052.3,4405.976c-.65,2.034-1.268,3.97-1.888,5.9-.394,1.229-.806,2.454-1.184,3.688-.113.372-.279.541-.689.515a12.54,12.54,0,0,0-1.708,0,.683.683,0,0,1-.824-.6c-.558-1.958-1.156-3.9-1.743-5.854-.061-.2-.14-.4-.279-.792-.245.776-.438,1.362-.615,1.953-.473,1.572-.955,3.142-1.4,4.722a.653.653,0,0,1-.779.572c-.741-.039-1.486-.011-2.262-.011l-3.246-10.1c.892,0,1.678-.036,2.457.027.168.014.383.361.447.59.558,2,1.087,4.014,1.626,6.022.05.188.113.371.22.72.116-.272.19-.406.231-.549.594-2.061,1.2-4.119,1.763-6.188.122-.449.272-.677.781-.636.7.057,1.6-.219,2.039.126.469.368.523,1.287.724,1.975.5,1.719.986,3.443,1.609,5.171.126-.432.259-.863.377-1.3.492-1.817.991-3.631,1.46-5.455.1-.388.261-.536.668-.518C-1053.813,4406-1053.113,4405.976-1052.3,4405.976Z" transform="translate(-54.72 -34.138)" fill="#606060"/>
    <path id="Path_6487" data-name="Path 6487" d="M-1157.2,4406.048c.883,0,1.687-.025,2.486.024.142.008.333.3.387.494.573,2.044,1.121,4.094,1.679,6.143.056.205.125.407.247.8.494-1.724.933-3.256,1.372-4.787.217-.757.412-1.522.671-2.265a.737.737,0,0,1,.522-.4c.587-.052,1.183.008,1.773-.028.434-.028.608.142.72.55.583,2.109,1.2,4.209,1.8,6.313.035.12.08.238.172.5.115-.291.2-.45.241-.619.552-2.049,1.113-4.1,1.636-6.153a.666.666,0,0,1,.811-.6c.653.039,1.31.01,2.056.01-.056.241-.084.423-.14.6-.947,2.96-1.907,5.916-2.838,8.88-.147.469-.346.694-.867.636a5.51,5.51,0,0,0-1.377,0c-.7.1-.927-.221-1.1-.847-.528-1.92-1.128-3.82-1.7-5.727-.05-.165-.121-.324-.252-.672-.757,2.5-1.465,4.833-2.192,7.232-.848,0-1.7.012-2.55-.012a.5.5,0,0,1-.376-.26C-1155.082,4412.63-1156.125,4409.386-1157.2,4406.048Z" transform="translate(-0.835 -34.207)" fill="#606060"/>
    <path id="Path_6488" data-name="Path 6488" d="M-1121.742,4378.046l9.452.975v7.568h-11.521A41.461,41.461,0,0,1-1121.742,4378.046Z" transform="translate(-21.214 -17.13)" fill="#606060"/>
    <path id="Path_6489" data-name="Path 6489" d="M-1089.207,4349.979a7.353,7.353,0,0,1,3.527,1.641,18.9,18.9,0,0,1,5.17,7.369,45.818,45.818,0,0,1-8.7.871Z" transform="translate(-42.334)" fill="#606060"/>
    <path id="Path_6490" data-name="Path 6490" d="M-1107.722,4350.094v9.825a45.64,45.64,0,0,1-8.621-.832C-1114.966,4355.161-1111.319,4350.414-1107.722,4350.094Z" transform="translate(-25.772 -0.07)" fill="#606060"/>
    <path id="Path_6491" data-name="Path 6491" d="M-1056.143,4441.616c.16-.993.321-2.074.523-3.148a.578.578,0,0,1,.4-.375c3.681-.021,7.361-.017,11.147-.017a5.351,5.351,0,0,1-.211.844c-.783,1.782-1.585,3.555-2.375,5.333-.207.465-.484.55-.972.359q-3-1.176-6.022-2.275C-1054.443,4442.051-1055.27,4441.866-1056.143,4441.616Z" transform="translate(-62.514 -53.768)" fill="#606060"/>
    <path id="Path_6492" data-name="Path 6492" d="M-1089.252,4472.776v-9.667a51.523,51.523,0,0,1,8.54.838C-1081.133,4467.379-1086.416,4472.839-1089.252,4472.776Z" transform="translate(-42.306 -69.046)" fill="#606060"/>
    <path id="Path_6493" data-name="Path 6493" d="M-1116.627,4463.662l8.724-.864v9.862a6.586,6.586,0,0,1-2.8-1.1,15.131,15.131,0,0,1-4.739-5.535C-1115.83,4465.321-1116.164,4464.59-1116.627,4463.662Z" transform="translate(-25.598 -68.857)" fill="#606060"/>
    <path id="Path_6494" data-name="Path 6494" d="M-1063.668,4358.049l-6.1,1.975a23.3,23.3,0,0,0-5.093-7.814C-1072.923,4351.964-1065.612,4355.75-1063.668,4358.049Z" transform="translate(-51.089 -1.354)" fill="#606060"/>
    <path id="Path_6495" data-name="Path 6495" d="M-1137.1,4357.648a26.682,26.682,0,0,1,11.015-5.79c-1.01,1.358-2.084,2.676-3.011,4.09-.679,1.036-1.152,2.205-1.747,3.3-.1.179-.4.421-.53.382-1.921-.553-3.83-1.15-5.742-1.735Z" transform="translate(-13.093 -1.147)" fill="#606060"/>
    <path id="Path_6496" data-name="Path 6496" d="M-1125.768,4474.3a27.112,27.112,0,0,1-11.245-5.826,4.018,4.018,0,0,1,.537-.275c1.664-.531,3.335-1.04,4.992-1.588.438-.145.613-.014.784.378a22.982,22.982,0,0,0,3.625,5.9C-1126.7,4473.329-1126.288,4473.741-1125.768,4474.3Z" transform="translate(-13.156 -71.149)" fill="#606060"/>
    <path id="Path_6497" data-name="Path 6497" d="M-1074.892,4474.175a23.806,23.806,0,0,0,4.984-7.646,1.455,1.455,0,0,1,1.643,1.109,28.526,28.526,0,0,0,1.048,2.757c.122.3.138.508-.189.706A24.919,24.919,0,0,1-1074.892,4474.175Z" transform="translate(-51.07 -71.134)" fill="#606060"/>
  </g>
</svg>
