<svg xmlns="http://www.w3.org/2000/svg" width="40.952" height="53" viewBox="0 0 40.952 53"><g transform="translate(-693.024 -551.977)"><path d="M710.463,586.874c-1.084-4.062-2.1-7.859-3.109-11.659-.5-1.882-1.02-3.759-1.463-5.654a3.965,3.965,0,1,1,7.667-2.011c.737,2.526,1.392,5.075,2.109,7.713,2.151-.832,4.043-.747,5.616.959a4.3,4.3,0,0,1,5.194.193,1.357,1.357,0,0,0,1,.054c2.6-.654,4.265-.009,5.5,2.4a17.726,17.726,0,0,1,1.514,4.09c.889,3.885,2.086,7.773,2.333,11.712.358,5.7-3.833,10.894-9.476,12.773-5.562,1.852-11.993.054-15.353-4.485-2.446-3.3-4.708-6.747-6.995-10.166a4,4,0,0,1,.122-4.854C706.469,586.292,708.226,586.15,710.463,586.874Zm11.569,18.555c8.219-.02,13.577-6.747,11.888-13.916-.719-3.049-1.546-6.074-2.414-9.083a9.616,9.616,0,0,0-1.33-2.747c-.26-.377-.976-.44-1.485-.644a4.29,4.29,0,0,0-.384,1.537c.137.954.529,1.869.733,2.817.181.842.154,1.685-.946,1.9-.99.19-1.489-.318-1.72-1.261-.346-1.416-.776-2.811-1.148-4.222-.231-.875-.495-1.842-1.635-1.578-1.263.293-1.216,1.336-.938,2.359a18.285,18.285,0,0,1,.847,3.287,2.355,2.355,0,0,1-.823,1.936c-.952.455-1.546-.263-1.791-1.263-.45-1.837-.96-3.659-1.451-5.486-.234-.87-.55-1.818-1.679-1.531s-1.209,1.211-.923,2.228a43.7,43.7,0,0,1,1.262,5.023c.081.518-.616,1.158-.957,1.742-.529-.353-1.29-.589-1.537-1.083a15.29,15.29,0,0,1-.872-2.942q-1.853-6.965-3.7-13.931c-.226-.845-.7-1.684-1.659-1.224-.443.211-.566,1.164-.753,1.8-.065.222.116.516.185.777,1.987,7.467,4,14.927,5.919,22.412a2.588,2.588,0,0,1-.483,2.225c-.926.7-1.638-.1-2.178-.954-.724-1.139-1.51-2.239-2.278-3.35-.511-.739-1.084-1.508-2.1-.877-1.116.694-.618,1.562-.071,2.364,2.012,2.948,4,5.908,6.053,8.831A10.679,10.679,0,0,0,722.032,605.429Z" transform="translate(-2.876 -3.191)" fill="#ffa900"/><path d="M722.772,563.3c-1.289-.254-2.106-1.379-1.461-2.123a17.192,17.192,0,0,1,3.174-2.657,1.415,1.415,0,0,1,1.294.271c.291.268.542,1.081.38,1.256C725.1,561.2,723.914,562.232,722.772,563.3Z" transform="translate(-7.191 -1.659)" fill="#ffa900"/><path d="M700.746,555.842c1.01.038,3.421,3.092,3.2,4.055a1.246,1.246,0,0,1-1.991.793,14.138,14.138,0,0,1-2.429-2.966A1.262,1.262,0,0,1,700.746,555.842Z" transform="translate(-1.619 -0.99)" fill="#ffa900"/><path d="M714.869,554.578c-.06.588-.106,1.177-.185,1.762-.128.94-.675,1.633-1.6,1.272a2.415,2.415,0,0,1-1.052-1.631,7.487,7.487,0,0,1,.145-2.235c.107-.974.376-1.893,1.613-1.756,1.157.128,1.234,1.009,1.112,1.943-.028.214-.038.428-.056.643Z" transform="translate(-4.857)" fill="#ffa900"/><path d="M694.88,567.72a10.6,10.6,0,0,1,2.55.383,2.038,2.038,0,0,1,1.132,1.4c.031.374-.743,1.142-1.188,1.165a11.172,11.172,0,0,1-3.516-.382c-.4-.112-.956-1.139-.81-1.447.278-.582,1.014-.945,1.56-1.4Z" transform="translate(0 -3.961)" fill="#ffa900"/></g></svg>