<svg xmlns="http://www.w3.org/2000/svg" width="153" height="92.729" viewBox="0 0 153 92.729">
  <path id="Path_7095" data-name="Path 7095" d="M4881.086,3473.909a45.253,45.253,0,0,0-29.9,11.229l-.072-.065-.629-.574-.007.007a46.365,46.365,0,1,0,0,69.669l.007.007.629-.573.072-.065a45.431,45.431,0,1,0,29.9-79.634Zm-31.117,77.233c-.141-.137-.281-.275-.419-.414s-.263-.269-.395-.4-.273-.281-.407-.424-.255-.274-.382-.412-.265-.288-.4-.434-.249-.281-.372-.422-.256-.294-.383-.443-.241-.287-.36-.431-.248-.3-.37-.451-.233-.293-.35-.44-.239-.306-.357-.46-.226-.3-.337-.448-.232-.312-.346-.469-.217-.3-.325-.455-.224-.317-.333-.478-.21-.308-.313-.463-.215-.323-.32-.486-.2-.312-.3-.469-.207-.329-.308-.494-.193-.316-.288-.475-.2-.335-.3-.5-.185-.32-.274-.48-.19-.341-.284-.512-.176-.323-.262-.486-.182-.346-.271-.52-.167-.327-.25-.491-.173-.351-.258-.528-.158-.33-.236-.5-.164-.356-.245-.535-.15-.334-.223-.5-.154-.36-.23-.541-.143-.338-.211-.508-.146-.365-.217-.547-.133-.34-.2-.511-.137-.369-.2-.554-.124-.343-.184-.515-.127-.373-.189-.56-.116-.345-.171-.519c-.06-.189-.118-.378-.176-.568-.053-.173-.106-.346-.157-.52-.056-.191-.109-.384-.162-.576-.048-.173-.1-.346-.143-.52-.051-.195-.1-.39-.148-.585-.043-.174-.087-.347-.129-.521-.047-.2-.09-.394-.134-.59-.038-.174-.078-.348-.115-.523-.042-.2-.08-.4-.119-.6-.034-.174-.069-.348-.1-.523-.037-.2-.07-.4-.1-.606-.029-.173-.061-.347-.088-.521-.032-.2-.06-.41-.089-.615-.025-.173-.051-.345-.074-.518-.027-.209-.051-.42-.075-.631-.02-.169-.041-.338-.059-.507-.022-.217-.041-.435-.06-.652-.015-.164-.032-.328-.045-.492-.018-.229-.031-.458-.045-.688-.01-.154-.021-.306-.03-.46-.014-.256-.022-.513-.031-.77,0-.127-.011-.255-.015-.383-.01-.385-.016-.77-.016-1.155s.006-.771.016-1.156c0-.128.01-.255.015-.383.009-.257.017-.513.031-.77.008-.153.02-.306.03-.459.014-.23.027-.459.045-.688.013-.164.03-.328.045-.492.02-.218.038-.435.06-.652.018-.17.04-.339.059-.508.024-.21.048-.421.075-.631.022-.173.049-.345.074-.518.029-.205.057-.411.089-.616.027-.174.059-.347.088-.521.034-.2.067-.4.1-.606.032-.175.067-.348.1-.522.039-.2.078-.4.119-.6.037-.175.077-.348.115-.522.044-.2.087-.395.134-.591.042-.174.085-.347.129-.521.048-.195.1-.39.148-.584.046-.174.095-.347.143-.521.053-.192.106-.385.162-.576.051-.174.1-.347.157-.52.058-.19.116-.379.176-.568.056-.173.114-.346.171-.519s.124-.374.189-.56.123-.344.184-.515.134-.37.2-.554.13-.341.2-.511.143-.365.217-.547.14-.339.211-.508.152-.361.23-.541.148-.334.223-.5.162-.357.245-.535.157-.332.236-.5.17-.352.258-.528.166-.328.25-.492.179-.347.271-.519.174-.324.262-.486.188-.342.284-.512.182-.321.274-.48.2-.336.3-.5.191-.317.288-.475.2-.33.308-.495.2-.313.3-.469.212-.325.32-.486.208-.309.313-.462.221-.32.333-.479.215-.3.324-.454.23-.314.346-.469.224-.3.337-.448.237-.307.357-.459.232-.294.35-.44.246-.3.37-.451.239-.288.36-.431.255-.3.383-.443.246-.282.372-.421.263-.29.4-.434.253-.276.382-.412.271-.283.407-.424.262-.27.395-.4.279-.276.419-.414.268-.264.4-.394l.113-.105a44.494,44.494,0,0,1,0,64.6l-.113-.105C4850.238,3551.4,4850.1,3551.273,4849.97,3551.141Zm-30.087,12.7a44.5,44.5,0,1,1,29.216-78.06l-.069.068c-.127.122-.252.247-.378.371-.16.157-.32.313-.478.472-.125.126-.248.255-.372.383-.154.159-.309.318-.461.48-.123.13-.242.263-.363.394-.149.162-.3.324-.445.488-.12.134-.237.27-.355.405-.143.165-.287.329-.428.5-.117.138-.231.277-.346.416-.139.167-.277.335-.414.5-.113.14-.223.282-.334.423-.134.171-.268.342-.4.514-.109.143-.216.287-.324.432q-.194.26-.385.522c-.105.146-.209.293-.313.441-.125.176-.249.353-.37.531-.1.149-.2.3-.3.449q-.179.268-.355.538c-.1.152-.2.3-.292.457q-.172.272-.341.547-.141.231-.279.463-.165.277-.327.556c-.09.156-.179.312-.267.469q-.159.282-.313.565-.129.237-.255.476-.151.284-.3.571c-.082.16-.163.321-.243.482q-.144.289-.283.579-.116.243-.23.488-.136.292-.268.585c-.074.165-.147.329-.219.495q-.128.294-.252.591-.1.25-.207.5-.121.3-.237.6c-.065.168-.131.336-.194.5-.076.2-.149.4-.222.6-.061.169-.122.338-.182.508-.07.2-.138.408-.207.612q-.085.256-.168.512c-.065.205-.128.411-.191.618-.052.172-.1.344-.155.516-.06.207-.117.414-.175.622-.048.173-.1.347-.143.521-.055.208-.107.417-.159.627-.043.175-.088.349-.129.525-.049.21-.1.421-.143.632-.039.175-.079.351-.116.527-.044.212-.085.425-.126.639-.035.176-.07.351-.1.528-.039.214-.075.43-.111.645-.03.176-.061.352-.088.528-.035.219-.065.438-.1.657-.024.174-.051.347-.074.521-.029.223-.054.448-.08.672-.02.171-.042.342-.06.514-.024.23-.043.461-.064.692-.015.166-.032.332-.045.5-.019.242-.033.484-.048.727-.01.156-.022.312-.03.469-.015.27-.023.54-.032.81,0,.129-.012.259-.015.388q-.015.6-.016,1.2t.016,1.2c0,.129.011.259.015.388.009.27.018.541.032.81.008.157.02.313.03.469.015.242.029.484.048.726.013.167.03.332.045.5.021.231.04.462.064.692.018.171.04.342.06.513.026.224.051.448.08.672.023.174.049.347.074.521.031.219.062.439.1.657.027.177.059.352.088.528.036.215.072.43.111.645.033.177.068.353.1.529.041.213.083.426.126.638.037.176.077.351.116.526.047.211.093.422.143.632.042.176.086.35.129.525.052.209.1.418.159.627.046.174.095.347.143.521.058.208.115.415.175.622.05.173.1.345.155.517.063.206.125.412.191.617.055.171.111.341.168.512.068.2.136.408.207.612.06.169.121.338.182.507.073.2.146.4.222.6.063.169.129.337.194.5q.116.3.237.6.1.25.207.5.124.3.252.591.108.248.219.495.132.293.268.585.114.245.23.488.14.291.283.579c.08.161.162.322.243.482q.147.286.3.571.126.238.255.475.155.284.313.565c.088.157.177.313.267.469q.161.278.327.555.138.233.279.463.168.275.341.547c.1.153.193.306.292.457q.175.271.355.538.15.226.3.45c.122.178.246.354.37.531.1.147.208.294.313.44q.19.263.385.523c.107.144.214.288.324.431.132.173.266.344.4.515.111.141.222.283.334.423.137.169.275.337.414.5.115.139.229.278.346.415.141.167.285.331.428.5.118.135.236.271.355.405.146.164.3.326.445.488.121.131.241.264.363.394.152.162.307.321.461.48.124.127.247.256.372.382.158.159.318.315.478.472.126.124.251.248.378.371.024.022.046.045.069.068A44.382,44.382,0,0,1,4819.883,3563.837Z" transform="translate(-4773.518 -3472.975)" fill="#00d1e3"/>
</svg>
