<svg xmlns="http://www.w3.org/2000/svg" width="425.883" height="298.729" viewBox="0 0 425.883 298.729"><g transform="translate(0 0)"><rect width="284.904" height="41.253" rx="7.199" fill="#fff"/><path d="M1313.209,1558.2h-44.261v41.253h44.261a6.876,6.876,0,0,0,6.876-6.876v-27.5A6.876,6.876,0,0,0,1313.209,1558.2Z" transform="translate(-1035.181 -1558.203)" fill="#ff6a48"/><g transform="translate(241.545 3.666)"><path d="M1287.537,1562.767a15.04,15.04,0,1,0,18.919,9.719A15.04,15.04,0,0,0,1287.537,1562.767Zm16.55,10.48a12.551,12.551,0,1,1-15.788-8.111A12.551,12.551,0,0,1,1304.086,1573.247Z" transform="translate(-1277.092 -1562.042)" fill="#fff"/><path d="M1313.962,1593.055a1.425,1.425,0,0,1,.206,2.006h0a1.426,1.426,0,0,1-2.006.207l-8.253-6.653a1.427,1.427,0,0,1-.207-2.007h0a1.425,1.425,0,0,1,2.005-.206Z" transform="translate(-1278.273 -1563.121)" fill="#fff"/></g><g transform="translate(173.225 28.502)"><path d="M1212.013,1614.279l-6.455-26.234,24.616,11.4-5.563,5.146,5.98,7.371-5.98,4.868-5.841-7.51Z" transform="translate(-1205.559 -1588.045)" fill="#728db7"/><path d="M1212.013,1614.279l-6.455-26.234,22.079,26.325-3.026,2.463-5.841-7.51Z" transform="translate(-1205.559 -1588.045)" fill="#3a6592"/></g></g><g transform="translate(8.149 54.6)"><path d="M1135.948,1756.142s-12.241-27.821,2.853-62.068c0,0,.94,10.278-.7,43.278,0,0-1.1-14.387,13.96-38.861a265.828,265.828,0,0,1-11.948,50.454s5.352-21.591,15.156-28.978C1155.272,1719.966,1154.264,1742.861,1135.948,1756.142Z" transform="translate(-1037.145 -1618.906)" fill="#55d2d0"/><g transform="translate(55.695 37.82)"><path d="M1103.971,1671.231c10.6-1.465,21.119-2.363,24.134,9.6,2.338,8.4-3.194,15.173,1.414,23.881,5.1,9.352,13.579,6.447,20.195,13.114,7.675,7.388,5.845,21.009,4.057,30.014" transform="translate(-1091.614 -1655.663)" fill="none" stroke="#3a6592" stroke-miterlimit="10" stroke-width="0.225"/><path d="M1105.041,1670.874s.755,11.339-14.008,6.835C1091.033,1677.708,1095.912,1666.049,1105.041,1670.874Z" transform="translate(-1091.033 -1655.632)" fill="#3a6592"/><path d="M1140.066,1714.621s8.539,7.5-5.1,14.729C1134.967,1729.349,1130.194,1717.645,1140.066,1714.621Z" transform="translate(-1092.954 -1657.649)" fill="#3a6592"/><path d="M1131.164,1708.99s.756,11.339-14.008,6.836C1117.156,1715.826,1122.036,1704.165,1131.164,1708.99Z" transform="translate(-1092.206 -1657.344)" fill="#3a6592"/><path d="M1135.308,1710.453s-4.5-10.437,10.924-11.117C1146.232,1699.336,1145.523,1711.956,1135.308,1710.453Z" transform="translate(-1092.994 -1656.963)" fill="#3a6592"/><path d="M1127.913,1699.651s-5.717,9.822-15.435-2.17C1112.478,1697.481,1123.045,1690.546,1127.913,1699.651Z" transform="translate(-1091.996 -1656.766)" fill="#3a6592"/><path d="M1129.774,1691.708s5.209-10.1,15.525,1.381C1145.3,1693.089,1135.1,1700.553,1129.774,1691.708Z" transform="translate(-1092.773 -1656.435)" fill="#3a6592"/><path d="M1129.376,1680.229s2-11.188,15.241-3.262C1144.617,1676.967,1137.074,1687.109,1129.376,1680.229Z" transform="translate(-1092.755 -1655.83)" fill="#3a6592"/><path d="M1128.628,1685.15s-2.858,11-15.448,2.071C1113.18,1687.221,1121.486,1677.694,1128.628,1685.15Z" transform="translate(-1092.028 -1656.198)" fill="#3a6592"/><path d="M1125.188,1672.895s-5.483-9.954,9.8-12.121C1134.987,1660.774,1135.5,1673.4,1125.188,1672.895Z" transform="translate(-1092.524 -1655.23)" fill="#3a6592"/><path d="M1117.543,1671.3s7.225,8.772-7.4,13.72C1110.148,1685.02,1107.314,1672.7,1117.543,1671.3Z" transform="translate(-1091.875 -1655.703)" fill="#3a6592"/><path d="M1114.012,1669.463s-11.364-.122-5.733-14.494C1108.278,1654.97,1119.526,1660.735,1114.012,1669.463Z" transform="translate(-1091.737 -1654.97)" fill="#3a6592"/></g><path d="M1144.593,1847.6s-40.88-35.318-88.52-34.758c0,0,11.564,6.237,51.019,20.809,0,0-16.295-8.478-52.474-3.074a338.288,338.288,0,0,0,65.042,11.222s-27.952-4.522-41.5,3.266C1078.159,1845.062,1119.891,1862.406,1144.593,1847.6Z" transform="translate(-1033.703 -1624.24)" fill="#55d2d0"/><path d="M1134.454,1758.736s3.307-30.214-21.389-58.336c0,0,2.195,10.085,13.682,41.064,0,0-3.278-14.052-25-32.863a265.769,265.769,0,0,0,26.568,44.524s-11.6-18.982-23.17-23.078C1105.143,1730.048,1112.991,1751.58,1134.454,1758.736Z" transform="translate(-1035.819 -1619.19)" fill="#55d2d0"/><path d="M1238.155,1675.092s20.841-22.125,18.07-59.448c0,0-4.324,9.371-13.817,41.019,0,0,5.849-13.192-.158-41.292a265.7,265.7,0,0,0-5.615,51.544s2.177-22.137-4.592-32.378C1232.042,1634.537,1225.335,1656.45,1238.155,1675.092Z" transform="translate(-1041.593 -1615.371)" fill="#55d2d0"/><path d="M1282.653,1725.087s-2.772-29.825,20.356-58.7c0,0-2.128,10.088-13.056,41.267,0,0,3.168-14.065,23.455-33.591a287.041,287.041,0,0,1-25.017,45.217s10.916-19.287,21.666-23.814C1310.056,1695.462,1302.586,1717.128,1282.653,1725.087Z" transform="translate(-1043.94 -1617.662)" fill="#55d2d0"/><path d="M1250.6,1845.379s6.757-38.81,49.428-61.441c0,0-6.577,11.351-32.993,43.918,0,0,20.046-23.387,55.406-36,0,0-31.137,29.619-61.739,49.594,0,0,22.157-17.738,38.819-17.161C1299.527,1824.292,1281.345,1846.993,1250.6,1845.379Z" transform="translate(-1042.506 -1622.942)" fill="#55d2d0"/><g transform="translate(0 155.788)"><path d="M1042.632,1789.271c9.945,13.272,15.74,16.052,31.869,15.293,15.519-.916,17.429,14.532,31.09,18.345,8.166,2.411,15.591.079,23.172-2.863" transform="translate(-1033.164 -1778.97)" fill="none" stroke="#3a6592" stroke-miterlimit="10" stroke-width="0.35"/><path d="M1045.414,1792.358s-11.87,2.318-9.1-13.873C1036.319,1778.486,1049.283,1782.074,1045.414,1792.358Z" transform="translate(-1032.861 -1778.486)" fill="#3a6592"/><path d="M1092.944,1811.17s-11.078-4.853.422-16.582C1093.366,1794.588,1101.981,1804.919,1092.944,1811.17Z" transform="translate(-1035.208 -1779.209)" fill="#3a6592"/><path d="M1105.913,1824.184s9.278,7.759-5.045,15.8C1100.869,1839.987,1095.489,1827.657,1105.913,1824.184Z" transform="translate(-1035.718 -1780.539)" fill="#3a6592"/><path d="M1096.775,1818.455s2.54,11.824-13.7,9.351C1083.075,1827.806,1086.421,1814.778,1096.775,1818.455Z" transform="translate(-1034.981 -1780.252)" fill="#3a6592"/><path d="M1083.853,1807.1s5.2,10.917-11.168,12.264C1072.685,1819.368,1072.928,1805.918,1083.853,1807.1Z" transform="translate(-1034.514 -1779.768)" fill="#3a6592"/><path d="M1072.46,1804.115s-10.248-3.847-.425-15.007C1072.035,1789.108,1080.322,1798.027,1072.46,1804.115Z" transform="translate(-1034.294 -1778.963)" fill="#3a6592"/><path d="M1061.631,1805.452s10.346,6.263-2.591,16.385C1059.04,1821.836,1051.853,1810.465,1061.631,1805.452Z" transform="translate(-1033.787 -1779.697)" fill="#3a6592"/><path d="M1048.3,1797.783s-.44,12.086-15.576,5.7C1032.719,1803.487,1039.16,1791.678,1048.3,1797.783Z" transform="translate(-1032.719 -1779.274)" fill="#3a6592"/><path d="M1056.71,1801.223s-9.44-7.559,4.708-15.906C1061.418,1785.317,1067.058,1797.529,1056.71,1801.223Z" transform="translate(-1033.658 -1778.793)" fill="#3a6592"/></g><g transform="translate(30.326 83.975)"><path d="M1154.107,1837.275s10.677-48.641-14.237-52.794c-30.121-5.02-9.385-32.529-33.812-36.777s-9.67-34.247-27.724-42.743-16.992,17.523-5.31,32.922-16.461,26.55,15.93,46.728-11.151,35.047,43.543,53.632S1154.107,1837.275,1154.107,1837.275Z" transform="translate(-1064.471 -1703.296)" fill="#48b7b3"/><path d="M1155.487,1845.24c-.638-.852-1.289-1.714-1.973-2.6-49.757-64.566-84.132-138.589-84.231-138.8-8.058,3.316-5.438,21.971,3.741,34.071,11.682,15.4-16.461,26.55,15.93,46.728s-11.151,35.047,43.543,53.632C1143.252,1841.921,1150.6,1844.1,1155.487,1845.24Z" transform="translate(-1064.471 -1703.32)" fill="#aceee5" opacity="0.2"/></g><g transform="translate(97.859 64.405)"><path d="M1161.568,1838.992s40.616-28.815,24.971-48.644c-18.914-23.974,14.933-30.386-.286-49.958s15.876-31.847,8.23-50.277-24.36,1.539-26.072,20.792-30.038,8.578-19.638,45.295-31.823,18.436-3.847,68.974S1161.568,1838.992,1161.568,1838.992Z" transform="translate(-1135.18 -1682.805)" fill="#48b7b3"/><path d="M1157.248,1845.8c.1-1.06.2-2.136.289-3.254,6.6-81.244,30.949-159.146,31.018-159.369-8.193-2.966-18.8,12.6-20.146,27.73-1.711,19.253-30.038,8.578-19.638,45.295s-31.823,18.436-3.847,68.974C1150.426,1835.113,1154.4,1841.666,1157.248,1845.8Z" transform="translate(-1135.18 -1682.805)" fill="#aceee5" opacity="0.2"/></g><g transform="translate(164.192 19.04)"><path d="M1214.061,1762.7s-10.152-46.252,13.537-50.2c28.641-4.774,8.924-30.932,32.151-34.971s9.194-32.564,26.362-40.643,16.157,16.662,5.048,31.3,15.653,25.246-15.147,44.432,10.6,33.325-41.4,51S1214.061,1762.7,1214.061,1762.7Z" transform="translate(-1204.633 -1635.306)" fill="#48b7b3"/><path d="M1213.131,1770.277c.607-.81,1.226-1.63,1.877-2.474,47.312-61.394,80-131.781,80.092-131.984,7.662,3.154,5.172,20.892-3.558,32.4-11.108,14.643,15.653,25.246-15.147,44.432s10.6,33.325-41.4,51C1224.765,1767.122,1217.776,1769.191,1213.131,1770.277Z" transform="translate(-1205.015 -1635.329)" fill="#aceee5" opacity="0.2"/></g></g><g transform="translate(80.485 28.645)"><g transform="translate(0 251.526)"><ellipse cx="172.699" cy="9.278" rx="172.699" ry="9.278" fill="#213d5d" opacity="0.1"/></g><g transform="translate(10.215)"><g transform="translate(134.557 117.873)"><g transform="translate(0.647 123.156)"><path d="M1280.71,1852.3s-49.818,17.433,7.813,7.111l1.453-10.276Z" transform="translate(-1260.714 -1840.944)" fill="#213d5d"/><path d="M1421.115,1848.313s47.747,34.769,7.5-7.754l-9.388,4.422Z" transform="translate(-1267.835 -1840.559)" fill="#213d5d"/></g><path d="M1374.419,1717.464s17.428,24.2,8.891,51.035-26.751,46.5-30.443,54.984a46.967,46.967,0,0,1,27.021-1.646c15.374,3.467,36.139,14.01,36.139,14.01l.666,11.341s-84.21,7.926-95.251,3.3,8.174-83.586,8.174-83.586-27.139,1.771-42.474-2.985c0,0,7.841,10.982,9.324,33.383s-6.614,48.815-6.614,48.815l-12.47.058s-21.232-81.029-16.714-102.821,67.586-17.334,67.586-17.334l7.165-14.4Z" transform="translate(-1260.037 -1711.611)" fill="#3a6592"/><path d="M1349.552,1724c9.264.916,21.762,2.136,30.62-2.527-.922-1.528-2.852-4.338-2.852-4.338l-38.583-5.52-4.808,9.667A110.426,110.426,0,0,0,1349.552,1724Z" transform="translate(-1263.356 -1711.611)" fill="#213d5d" opacity="0.5"/><path d="M1329.616,1767.56s-.046.267-.127.751a2.64,2.64,0,0,1,.647-.557c-8.631-11.363-10.717-27.62-13.786-41.451-18.507-.085-52.413,1.941-55.682,17.706-4.518,21.792,16.714,102.821,16.714,102.821l12.47-.058s8.1-26.415,6.614-48.815-9.324-33.383-9.324-33.383C1302.477,1769.33,1329.616,1767.56,1329.616,1767.56Z" transform="translate(-1260.037 -1712.271)" fill="#213d5d" opacity="0.5"/></g><g transform="translate(188.479)"><g transform="translate(0 2.019)"><path d="M1377.571,1592.523s-20.2-8.273-28.22,7.162-2.505,25.586-18.3,35.4-15.609,30.668.18,41.067,44.454-5.229,44.454-5.229Z" transform="translate(-1316.621 -1590.308)" fill="#0b3563"/><path d="M1378.447,1593.922s-19.668-9.461-28.6,5.468-4.026,25.391-20.378,34.242-17.409,29.683-2.269,41" transform="translate(-1316.496 -1590.338)" fill="#0b3563"/></g><g transform="translate(18.221 10.161)"><path d="M1362.688,1645.381s.286,11.747-1.432,12.892-15.185-7.162-23.78.287,14.325,36.958,20.914,37.244,31.8-7.449,31.514-15.757-14.038-16.9-12.892-34.093S1362.688,1645.381,1362.688,1645.381Z" transform="translate(-1335.573 -1600.6)" fill="#ffaa89"/><path d="M1363.639,1654.523a34.481,34.481,0,0,0,14.7-3.032,35.85,35.85,0,0,1-.063-5.536c1.146-17.19-14.325-.573-14.325-.573A81.473,81.473,0,0,1,1363.639,1654.523Z" transform="translate(-1336.834 -1600.6)" fill="#ffaa89"/><path d="M1374.768,1598.85s-14.186-1.067-20.055,13.836c-6.088,15.458-5.8,32.117,9.1,34.658s28.865-10.729,29.724-22.023S1392.245,1600.262,1374.768,1598.85Z" transform="translate(-1336.265 -1598.833)" fill="#ffaa89"/></g><g transform="translate(51.56)"><path d="M1370.782,1599.447s-2.364,10.744,13.536,20.2c0,0-19.768,35.883-3.008,47.056s-1.082,26.992,6.438,35.372,32.464,3.739,42.338-18.4c13.322-29.866-30.3-35.239-22.562-60.593,0,0,6.232-18.479-7.52-28.793C1386.688,1584.3,1372.93,1586.984,1370.782,1599.447Z" transform="translate(-1370.488 -1588.195)" fill="#0b3563"/><path d="M1432.578,1684.161c12.311-30.3-31.463-34.2-24.583-59.8,0,0,5.607-18.678-8.483-28.525-13.643-9.535-27.3-6.392-29.033,6.135" transform="translate(-1370.48 -1588.288)" fill="#0b3563"/><path d="M1389.044,1624.669l-4.083,10.744s4.592,3.945,8.595-3.009C1397.639,1625.313,1393.341,1621.446,1389.044,1624.669Z" transform="translate(-1371.13 -1589.781)" fill="#0b3563"/></g><g transform="translate(35.538 27.396)"><path d="M1355.188,1617.683a1.8,1.8,0,1,0,2.491-.5A1.8,1.8,0,0,0,1355.188,1617.683Z" transform="translate(-1353.758 -1616.88)" fill="#121936"/><path d="M1367.609,1623.012a1.8,1.8,0,1,0,2.322-1.033A1.8,1.8,0,0,0,1367.609,1623.012Z" transform="translate(-1354.324 -1617.103)" fill="#121936"/><g transform="translate(12.403 7.304)"><path d="M1370.144,1626.3a2.56,2.56,0,0,0-2.953-1.152" transform="translate(-1366.714 -1624.55)" fill="#ffa386"/><path d="M1366.994,1625.564a.477.477,0,0,1,.042-.9,3.017,3.017,0,0,1,3.5,1.379.477.477,0,0,1-.834.464,2.081,2.081,0,0,0-2.4-.927A.476.476,0,0,1,1366.994,1625.564Z" transform="translate(-1366.692 -1624.527)" fill="#ff6a48"/></g><path d="M1354.007,1620.9a.477.477,0,0,1,0-.888,2.747,2.747,0,0,1,3.424,1.1.477.477,0,0,1-.82.487,1.788,1.788,0,0,0-2.259-.7A.475.475,0,0,1,1354.007,1620.9Z" transform="translate(-1353.705 -1617.01)" fill="#ff6a48"/></g><g transform="translate(35.921 28.714)"><path d="M1362.333,1618.759l-2.294,5.806-3.017-1.193a1.51,1.51,0,0,0-1.958.849l-.251.635a2.956,2.956,0,0,0,1.663,3.835l2.749,1.086" transform="translate(-1354.129 -1618.281)" fill="#ffaa89"/><path d="M1359.026,1630.2l-2.749-1.086a3.436,3.436,0,0,1-1.931-4.454l.25-.634a1.988,1.988,0,0,1,2.578-1.117l2.573,1.016,2.118-5.362a.477.477,0,0,1,.888.35l-2.469,6.25-3.462-1.368a1.033,1.033,0,0,0-1.339.581l-.25.635a2.481,2.481,0,0,0,1.394,3.216l2.749,1.086a.477.477,0,1,1-.35.887Z" transform="translate(-1354.106 -1618.259)" fill="#ff6a48"/></g><g transform="translate(38.218 16.445)"><g transform="translate(13.561 5.869)"><path d="M1377.075,1617.577a4.613,4.613,0,0,1-1.623-1.013c-.525-.434-1.064-.857-1.544-1.207s-1.049-.738-1.622-1.106a4.572,4.572,0,0,1-1.455-1.236c-.286-.477-.088-1.1.85-1.358a5.286,5.286,0,0,1,4.171,1.123,5.12,5.12,0,0,1,2.3,3.6C1378.169,1617.341,1377.621,1617.708,1377.075,1617.577Z" transform="translate(-1370.71 -1611.558)" fill="#0b3563"/></g><path d="M1356.731,1607.43a3.172,3.172,0,0,0,1.391.557c.52.121,1.038.257,1.483.394s.952.314,1.451.5a3.166,3.166,0,0,0,1.462.318c.44-.068.76-.548.509-1.337a3.875,3.875,0,0,0-2.6-2.247,3.8,3.8,0,0,0-3.391.412C1356.4,1606.547,1356.4,1607.127,1356.731,1607.43Z" transform="translate(-1356.511 -1605.413)" fill="#0b3563"/></g><path d="M1360.742,1638.5l-.052-.021-5.3-2.173a.477.477,0,0,1,.356-.884l.006,0,5.3,2.173a3.473,3.473,0,0,0,4.138-1.225l.784.544A4.429,4.429,0,0,1,1360.742,1638.5Z" transform="translate(-1318.229 -1590.315)" fill="#ff6a48"/></g><g transform="translate(132.682 65.256)"><g transform="translate(0 8.91)"><path d="M1322.107,1676.305l-13.323,14.612-48.99-18.049-1.719,10.744s47.272,25.785,52,25.785,27.5-24.495,27.5-24.495Z" transform="translate(-1258.075 -1666.164)" fill="#ffaa89"/><path d="M1281.284,1680.786l-21.49-7.918-1.719,10.744s18.136,9.892,33.065,17.423C1288.046,1694.187,1284.9,1687.367,1281.284,1680.786Z" transform="translate(-1258.075 -1666.164)" fill="#ffaa89"/><path d="M1336.712,1688.989c2.262-2.35,3.729-3.926,3.729-3.926l-15.471-8.6-3.145,3.45C1326.8,1682.938,1331.407,1686.58,1336.712,1688.989Z" transform="translate(-1260.938 -1666.326)" fill="#ffaa89"/><path d="M1266.328,1676.534s-.182-21.679-2.915-3.279S1266.328,1676.534,1266.328,1676.534Z" transform="translate(-1258.281 -1665.849)" fill="#ffaa89"/></g><path d="M1332.953,1683.757l-11.209-8.1s12.071-18.452,21.7-19.132C1343.444,1656.52,1333.815,1675.652,1332.953,1683.757Z" transform="translate(-1260.935 -1656.52)" fill="#55d2d0"/><g transform="translate(68.376)"><path d="M1343.8,1656.52s-3.724,13.751,12.893,20.34,23.779-9.454,29.223-.287-7.735,39.25-7.735,39.25-22.92,1.719-40.11-6.3c0,0-.859-6.59-1.146-12.606,0,0-16.33-7.592,0-26.93l.287-10.6A8.1,8.1,0,0,1,1343.8,1656.52Z" transform="translate(-1329.667 -1656.52)" fill="#55d2d0"/><path d="M1371.176,1705.785c-7.879-.987-15.8-2.135-23.574-3.747a45.214,45.214,0,0,1-10.329-3.114c.291,5.987,1.14,12.5,1.14,12.5,17.19,8.022,40.11,6.3,40.11,6.3s2.038-4.659,4.18-10.862C1378.853,1706.614,1375.008,1706.266,1371.176,1705.785Z" transform="translate(-1330.008 -1658.425)" fill="#213d5d" opacity="0.2"/></g></g><g transform="translate(0 55.842)"><g transform="translate(0 95.576)"><path d="M1154.388,1848.476l-23.344,6.166-11.892-107.908h43.163l2.2,7.928h52.853l5.286,90.29Z" transform="translate(-1119.153 -1746.734)" fill="#ffab00"/><path d="M1135.63,1851.217l-2.643-92.052,118.919-.441-24.665,89.85Z" transform="translate(-1119.774 -1747.273)" fill="#fff"/><path d="M1135.63,1851.217l-2.643-92.052,118.919-.441-24.665,89.85Z" transform="translate(-1119.774 -1747.273)" fill="#728db7" opacity="0.3"/><path d="M1144.392,1849.139l-2.643-87.207,118.919-.441L1236,1851.341Z" transform="translate(-1120.167 -1747.397)" fill="#fff"/><path d="M1144.392,1849.139l-2.643-87.207,118.919-.441L1236,1851.341Z" transform="translate(-1120.167 -1747.397)" fill="#728db7" opacity="0.1"/></g><g transform="translate(62.718 63.42)"><path d="M1187.463,1800.713l-2.643-87.207,118.919-.44-3.964,90.29Z" transform="translate(-1184.82 -1713.066)" fill="#fff"/><path d="M1186.237,1765.552l1.289,36.683,112.312,2.643,2.543-57.928Z" transform="translate(-1184.884 -1714.588)" fill="#728db7" opacity="0.1"/></g><g transform="translate(21.099)"><path d="M1143.886,1734.311l-2.643-87.207,118.919-.44-3.964,90.29Z" transform="translate(-1141.244 -1646.663)" fill="#fff"/><path d="M1143.5,1718.231l.492,16.223L1256.3,1737.1l3.831-87.248Z" transform="translate(-1141.345 -1646.807)" fill="#728db7" opacity="0.1"/></g><path d="M1131.6,1855.264h117.157l34.795-94.695H1244.8l-3.523,6.606h-79.72Z" transform="translate(-1119.712 -1651.78)" fill="#ffab00"/><g transform="translate(158.048 34.409)"><path d="M1358.334,1692.114l-22.259,24.245s-29.114,3.17-35.7,3.922c-.583.067-1.074.126-1.5.181-7.552-5.863-4.357-1.58-2.626.54-21.585,4.906-3.3,2.855-3.3,2.855-19.383,6.841,1.232,1.908,1.232,1.908-15.108,11.117,1.425,1.711,1.425,1.711-11.22,11.06,2.28.855,2.28.855s39.338,3.991,47.32.57,24.514-21.094,24.514-21.094C1363.155,1703.817,1358.334,1692.114,1358.334,1692.114Z" transform="translate(-1284.634 -1683.114)" fill="#ffaa89"/><path d="M1370.613,1710.165c1.408-1.444,2.263-2.358,2.263-2.358-6.556-3.99-11.377-15.693-11.377-15.693l-6.4,6.972C1360.2,1702.88,1365.347,1706.612,1370.613,1710.165Z" transform="translate(-1287.798 -1683.114)" fill="#ffa398"/><path d="M1356.051,1695.28l17.417,12.589a101.262,101.262,0,0,0,10-12.244c4.138-6.208-17.245-12.934-17.245-12.934Z" transform="translate(-1287.841 -1682.691)" fill="#55d2d0"/></g></g></g></g></svg>