<svg xmlns="http://www.w3.org/2000/svg" width="153" height="92.167" viewBox="0 0 153 92.167">
  <path id="Path_7096" data-name="Path 7096" d="M4292.914,3122.051a45.961,45.961,0,0,0-30.417,11.467,46.083,46.083,0,1,0,0,69.233,46.083,46.083,0,1,0,30.417-80.7Zm-105.061,46.083a44.228,44.228,0,0,1,73.268-33.359,46.08,46.08,0,0,0,0,66.718,44.228,44.228,0,0,1-73.268-33.359Zm105.061,44.228a44.109,44.109,0,0,1-29.039-10.869,46.082,46.082,0,0,0,0-66.718,44.228,44.228,0,1,1,29.039,77.586Z" transform="translate(-4185.998 -3122.051)" fill="#00d1e3"/>
</svg>
