<svg xmlns="http://www.w3.org/2000/svg" xmlns:xlink="http://www.w3.org/1999/xlink" width="150.23" height="150.229" viewBox="0 0 150.23 150.229"><defs><linearGradient id="a" x1="-3.368" y1="3.666" x2="-2.674" y2="4.36" gradientUnits="objectBoundingBox"><stop offset="0" stop-color="#e2e1e6"/><stop offset="0.845" stop-color="#fff"/></linearGradient><linearGradient id="b" x1="1.088" y1="-11.088" x2="2.087" y2="-11.088" gradientUnits="objectBoundingBox"><stop offset="0" stop-color="#fff"/><stop offset="1" stop-color="#e6e6e6"/></linearGradient></defs><g transform="translate(0)"><g transform="translate(4.346 4.345)" opacity="0.2" style="mix-blend-mode:multiply;isolation:isolate"><ellipse cx="61.984" cy="61.984" rx="61.984" ry="61.984" transform="translate(21.916 21.916)" fill="#fff" opacity="0"/><ellipse cx="61.984" cy="61.984" rx="61.984" ry="61.984" transform="translate(21.486 21.486)" fill="#fcfcfc" opacity="0.02"/><ellipse cx="61.984" cy="61.984" rx="61.984" ry="61.984" transform="translate(21.056 21.057)" fill="#f8f8f9" opacity="0.039"/><ellipse cx="61.984" cy="61.984" rx="61.984" ry="61.984" transform="translate(20.627 20.627)" fill="#f5f5f6" opacity="0.059"/><ellipse cx="61.984" cy="61.984" rx="61.984" ry="61.984" transform="translate(20.197 20.197)" fill="#f2f2f3" opacity="0.078"/><ellipse cx="61.984" cy="61.984" rx="61.984" ry="61.984" transform="translate(19.767 19.767)" fill="#eeeff0" opacity="0.098"/><ellipse cx="61.984" cy="61.984" rx="61.984" ry="61.984" transform="translate(19.337 19.338)" fill="#ebebee" opacity="0.118"/><ellipse cx="61.984" cy="61.984" rx="61.984" ry="61.984" transform="translate(18.908 18.908)" fill="#e7e8eb" opacity="0.137"/><ellipse cx="61.984" cy="61.984" rx="61.984" ry="61.984" transform="translate(18.478 18.478)" fill="#e4e5e8" opacity="0.157"/><ellipse cx="61.984" cy="61.984" rx="61.984" ry="61.984" transform="translate(18.048 18.048)" fill="#e1e1e5" opacity="0.176"/><ellipse cx="61.984" cy="61.984" rx="61.984" ry="61.984" transform="translate(17.619 17.619)" fill="#dddee2" opacity="0.196"/><ellipse cx="61.984" cy="61.984" rx="61.984" ry="61.984" transform="translate(17.189 17.189)" fill="#dadbdf" opacity="0.216"/><ellipse cx="61.984" cy="61.984" rx="61.984" ry="61.984" transform="translate(16.759 16.759)" fill="#d7d7dc" opacity="0.235"/><ellipse cx="61.984" cy="61.984" rx="61.984" ry="61.984" transform="translate(16.329 16.329)" fill="#d3d4d9" opacity="0.255"/><ellipse cx="61.984" cy="61.984" rx="61.984" ry="61.984" transform="translate(15.9 15.9)" fill="#d0d1d6" opacity="0.275"/><ellipse cx="61.984" cy="61.984" rx="61.984" ry="61.984" transform="translate(15.47 15.47)" fill="#ccced3" opacity="0.294"/><ellipse cx="61.984" cy="61.984" rx="61.984" ry="61.984" transform="translate(15.04 15.04)" fill="#c9cad1" opacity="0.314"/><ellipse cx="61.984" cy="61.984" rx="61.984" ry="61.984" transform="translate(14.611 14.611)" fill="#c6c7ce" opacity="0.333"/><ellipse cx="61.984" cy="61.984" rx="61.984" ry="61.984" transform="translate(14.181 14.181)" fill="#c2c4cb" opacity="0.353"/><ellipse cx="61.984" cy="61.984" rx="61.984" ry="61.984" transform="translate(13.751 13.751)" fill="#bfc0c8" opacity="0.373"/><ellipse cx="61.984" cy="61.984" rx="61.984" ry="61.984" transform="translate(13.321 13.321)" fill="#bcbdc5" opacity="0.392"/><ellipse cx="61.984" cy="61.984" rx="61.984" ry="61.984" transform="translate(12.892 12.892)" fill="#b8bac2" opacity="0.412"/><ellipse cx="61.984" cy="61.984" rx="61.984" ry="61.984" transform="translate(12.462 12.462)" fill="#b5b7bf" opacity="0.431"/><ellipse cx="61.984" cy="61.984" rx="61.984" ry="61.984" transform="translate(12.032 12.032)" fill="#b1b3bc" opacity="0.451"/><ellipse cx="61.984" cy="61.984" rx="61.984" ry="61.984" transform="translate(11.603 11.603)" fill="#aeb0b9" opacity="0.471"/><ellipse cx="61.984" cy="61.984" rx="61.984" ry="61.984" transform="translate(11.173 11.173)" fill="#abadb6" opacity="0.49"/><ellipse cx="61.984" cy="61.984" rx="61.984" ry="61.984" transform="translate(10.743 10.743)" fill="#a7a9b4" opacity="0.51"/><ellipse cx="61.984" cy="61.984" rx="61.984" ry="61.984" transform="translate(10.313 10.313)" fill="#a4a6b1" opacity="0.529"/><ellipse cx="61.984" cy="61.984" rx="61.984" ry="61.984" transform="translate(9.884 9.884)" fill="#a1a3ae" opacity="0.549"/><ellipse cx="61.984" cy="61.984" rx="61.984" ry="61.984" transform="translate(9.454 9.454)" fill="#9d9fab" opacity="0.569"/><ellipse cx="61.984" cy="61.984" rx="61.984" ry="61.984" transform="translate(9.024 9.024)" fill="#9a9ca8" opacity="0.588"/><ellipse cx="61.984" cy="61.984" rx="61.984" ry="61.984" transform="translate(8.595 8.595)" fill="#9699a5" opacity="0.608"/><ellipse cx="61.984" cy="61.984" rx="61.984" ry="61.984" transform="translate(8.165 8.165)" fill="#9396a2" opacity="0.627"/><ellipse cx="61.984" cy="61.984" rx="61.984" ry="61.984" transform="translate(7.735 7.735)" fill="#90929f" opacity="0.647"/><ellipse cx="61.984" cy="61.984" rx="61.984" ry="61.984" transform="translate(7.305 7.305)" fill="#8c8f9c" opacity="0.667"/><ellipse cx="61.984" cy="61.984" rx="61.984" ry="61.984" transform="translate(6.876 6.876)" fill="#898c99" opacity="0.686"/><ellipse cx="61.984" cy="61.984" rx="61.984" ry="61.984" transform="translate(6.446 6.446)" fill="#868897" opacity="0.706"/><ellipse cx="61.984" cy="61.984" rx="61.984" ry="61.984" transform="translate(6.016 6.016)" fill="#828594" opacity="0.725"/><ellipse cx="61.984" cy="61.984" rx="61.984" ry="61.984" transform="translate(5.586 5.586)" fill="#7f8291" opacity="0.745"/><ellipse cx="61.984" cy="61.984" rx="61.984" ry="61.984" transform="translate(5.157 5.157)" fill="#7b7f8e" opacity="0.765"/><ellipse cx="61.984" cy="61.984" rx="61.984" ry="61.984" transform="translate(4.727 4.727)" fill="#787b8b" opacity="0.784"/><ellipse cx="61.984" cy="61.984" rx="61.984" ry="61.984" transform="translate(4.297 4.297)" fill="#757888" opacity="0.804"/><ellipse cx="61.984" cy="61.984" rx="61.984" ry="61.984" transform="translate(3.868 3.868)" fill="#717585" opacity="0.824"/><ellipse cx="61.984" cy="61.984" rx="61.984" ry="61.984" transform="translate(3.438 3.438)" fill="#6e7182" opacity="0.843"/><ellipse cx="61.984" cy="61.984" rx="61.984" ry="61.984" transform="translate(3.008 3.008)" fill="#6b6e7f" opacity="0.863"/><ellipse cx="61.984" cy="61.984" rx="61.984" ry="61.984" transform="translate(2.578 2.578)" fill="#676b7c" opacity="0.882"/><ellipse cx="61.984" cy="61.984" rx="61.984" ry="61.984" transform="translate(2.149 2.149)" fill="#64677a" opacity="0.902"/><ellipse cx="61.984" cy="61.984" rx="61.984" ry="61.984" transform="translate(1.719 1.719)" fill="#606477" opacity="0.922"/><ellipse cx="61.984" cy="61.984" rx="61.984" ry="61.984" transform="translate(1.289 1.289)" fill="#5d6174" opacity="0.941"/><ellipse cx="61.984" cy="61.984" rx="61.984" ry="61.984" transform="translate(0.859 0.86)" fill="#5a5e71" opacity="0.961"/><ellipse cx="61.984" cy="61.984" rx="61.984" ry="61.984" transform="translate(0.43 0.43)" fill="#565a6e" opacity="0.98"/><ellipse cx="61.984" cy="61.984" rx="61.984" ry="61.984" fill="#53576b"/></g><ellipse cx="64.749" cy="64.749" rx="64.749" ry="64.749" transform="translate(1.053 1.052)" fill="url(#a)"/><path d="M2533.62,3022.681a65.8,65.8,0,1,1,65.8-65.8A65.876,65.876,0,0,1,2533.62,3022.681Zm0-129.5a63.7,63.7,0,1,0,63.7,63.7A63.768,63.768,0,0,0,2533.62,2893.184Z" transform="translate(-2467.819 -2891.079)" fill="url(#b)"/><g transform="matrix(0.966, -0.259, 0.259, 0.966, 15.295, 29.59)"><path d="M2537.65,3007.518a5.3,5.3,0,0,1-5.29-6.777q1.351-5.373,2.83-10.712c.246-.887.116-1.26-.844-1.457a39.882,39.882,0,0,1-4.689-1.248c-1-.335-1.354-.027-1.591.9q-1.339,5.217-2.761,10.413a5.418,5.418,0,0,1-10.7-.9,10.375,10.375,0,0,1,.6-3.266c.785-2.985,1.517-5.985,2.406-8.937.358-1.188-.067-1.535-1.088-1.739-.941-.189-1.867-.455-2.793-.716a5.353,5.353,0,0,1-3.942-6.8c2.883-10.85,5.82-21.687,8.676-32.544.308-1.172.668-1.371,1.842-1.053q22.258,6.021,44.548,11.92c.885.234,1.248.474.963,1.521-2.976,10.931-5.89,21.88-8.836,32.82a5.265,5.265,0,0,1-6.242,3.983,24.241,24.241,0,0,1-3.517-.921c-1.036-.355-1.4-.016-1.649.989-.837,3.386-1.766,6.751-2.654,10.126A5.414,5.414,0,0,1,2537.65,3007.518Z" transform="translate(-2499.476 -2916.275)" fill="#94c922"/><path d="M2536.845,2911.968c.8.129.89.787,1.032,1.359.462,1.865.939,3.729,1.31,5.612.194.982.613,1.344,1.629,1.248a26.713,26.713,0,0,1,18.478,5,1.038,1.038,0,0,0,1.639-.209c1.393-1.539,2.856-3.014,4.285-4.52.448-.471.95-.891,1.559-.356.677.594.134,1.082-.284,1.527-1.351,1.441-2.663,2.923-4.083,4.292-.762.734-.758,1.159,0,1.908a21.8,21.8,0,0,1,6.377,11.838,17.585,17.585,0,0,1-.263,7.967c-.259.934-.533,1.189-1.543.911-6.384-1.76-12.788-3.443-19.186-5.15q-12.307-3.282-24.614-6.563c-2.221-.59-2.312-.683-1.494-2.819,2.578-6.738,7.554-10.862,14.339-12.9,1.3-.392,1.867-.766,1.392-2.241-.587-1.821-.917-3.726-1.357-5.594C2535.9,2912.574,2536.053,2912.072,2536.845,2911.968Zm2.148,17.2a2.318,2.318,0,0,0-4.633-.069,2.357,2.357,0,0,0,2.292,2.333A2.3,2.3,0,0,0,2538.992,2929.171Zm21.454,5.72a2.337,2.337,0,0,0-2.393-2.238,2.274,2.274,0,0,0-2.159,2.3,2.276,2.276,0,0,0,4.552-.062Z" transform="translate(-2501.115 -2911.968)" fill="#94c922"/><path d="M2580.451,2957.979a5.3,5.3,0,0,1,5.222,6.6q-2.82,11.009-5.879,21.957a5.248,5.248,0,0,1-6.68,3.657,5.3,5.3,0,0,1-3.7-6.547q2.844-10.922,5.82-21.808A5.258,5.258,0,0,1,2580.451,2957.979Z" transform="translate(-2507.879 -2918.449)" fill="#94c922"/><path d="M2508.917,2938.845a5.271,5.271,0,0,1,5.282,6.662c-1.861,7.292-3.831,14.558-5.832,21.813a5.369,5.369,0,1,1-10.345-2.876q2.854-10.84,5.774-21.662A5.126,5.126,0,0,1,2508.917,2938.845Z" transform="translate(-2497.82 -2915.755)" fill="#94c922"/></g></g></svg>