<svg xmlns="http://www.w3.org/2000/svg" xmlns:xlink="http://www.w3.org/1999/xlink" width="150.23" height="150.229" viewBox="0 0 150.23 150.229"><defs><linearGradient id="a" x1="-1.976" y1="2.275" x2="-1.283" y2="2.968" gradientUnits="objectBoundingBox"><stop offset="0" stop-color="#e2e1e6"/><stop offset="0.845" stop-color="#fff"/></linearGradient><linearGradient id="b" x1="2.056" y1="-13.425" x2="3.055" y2="-13.425" gradientUnits="objectBoundingBox"><stop offset="0" stop-color="#fff"/><stop offset="1" stop-color="#e6e6e6"/></linearGradient></defs><g transform="translate(4.346 4.346)" opacity="0.2" style="mix-blend-mode:multiply;isolation:isolate"><ellipse cx="61.984" cy="61.984" rx="61.984" ry="61.984" transform="translate(21.916 21.916)" fill="#fff" opacity="0"/><ellipse cx="61.984" cy="61.984" rx="61.984" ry="61.984" transform="translate(21.486 21.486)" fill="#fcfcfc" opacity="0.02"/><ellipse cx="61.984" cy="61.984" rx="61.984" ry="61.984" transform="translate(21.056 21.056)" fill="#f8f8f9" opacity="0.039"/><ellipse cx="61.984" cy="61.984" rx="61.984" ry="61.984" transform="translate(20.627 20.627)" fill="#f5f5f6" opacity="0.059"/><ellipse cx="61.984" cy="61.984" rx="61.984" ry="61.984" transform="translate(20.197 20.197)" fill="#f2f2f3" opacity="0.078"/><ellipse cx="61.984" cy="61.984" rx="61.984" ry="61.984" transform="translate(19.767 19.767)" fill="#eeeff0" opacity="0.098"/><ellipse cx="61.984" cy="61.984" rx="61.984" ry="61.984" transform="translate(19.337 19.337)" fill="#ebebee" opacity="0.118"/><ellipse cx="61.984" cy="61.984" rx="61.984" ry="61.984" transform="translate(18.908 18.908)" fill="#e7e8eb" opacity="0.137"/><ellipse cx="61.984" cy="61.984" rx="61.984" ry="61.984" transform="translate(18.478 18.478)" fill="#e4e5e8" opacity="0.157"/><ellipse cx="61.984" cy="61.984" rx="61.984" ry="61.984" transform="translate(18.048 18.048)" fill="#e1e1e5" opacity="0.176"/><ellipse cx="61.984" cy="61.984" rx="61.984" ry="61.984" transform="translate(17.619 17.619)" fill="#dddee2" opacity="0.196"/><ellipse cx="61.984" cy="61.984" rx="61.984" ry="61.984" transform="translate(17.189 17.189)" fill="#dadbdf" opacity="0.216"/><ellipse cx="61.984" cy="61.984" rx="61.984" ry="61.984" transform="translate(16.759 16.759)" fill="#d7d7dc" opacity="0.235"/><ellipse cx="61.984" cy="61.984" rx="61.984" ry="61.984" transform="translate(16.329 16.329)" fill="#d3d4d9" opacity="0.255"/><ellipse cx="61.984" cy="61.984" rx="61.984" ry="61.984" transform="translate(15.9 15.9)" fill="#d0d1d6" opacity="0.275"/><ellipse cx="61.984" cy="61.984" rx="61.984" ry="61.984" transform="translate(15.47 15.47)" fill="#ccced3" opacity="0.294"/><ellipse cx="61.984" cy="61.984" rx="61.984" ry="61.984" transform="translate(15.04 15.04)" fill="#c9cad1" opacity="0.314"/><ellipse cx="61.984" cy="61.984" rx="61.984" ry="61.984" transform="translate(14.611 14.611)" fill="#c6c7ce" opacity="0.333"/><ellipse cx="61.984" cy="61.984" rx="61.984" ry="61.984" transform="translate(14.181 14.181)" fill="#c2c4cb" opacity="0.353"/><ellipse cx="61.984" cy="61.984" rx="61.984" ry="61.984" transform="translate(13.751 13.751)" fill="#bfc0c8" opacity="0.373"/><ellipse cx="61.984" cy="61.984" rx="61.984" ry="61.984" transform="translate(13.321 13.321)" fill="#bcbdc5" opacity="0.392"/><ellipse cx="61.984" cy="61.984" rx="61.984" ry="61.984" transform="translate(12.892 12.892)" fill="#b8bac2" opacity="0.412"/><ellipse cx="61.984" cy="61.984" rx="61.984" ry="61.984" transform="translate(12.462 12.462)" fill="#b5b7bf" opacity="0.431"/><ellipse cx="61.984" cy="61.984" rx="61.984" ry="61.984" transform="translate(12.032 12.032)" fill="#b1b3bc" opacity="0.451"/><ellipse cx="61.984" cy="61.984" rx="61.984" ry="61.984" transform="translate(11.603 11.603)" fill="#aeb0b9" opacity="0.471"/><ellipse cx="61.984" cy="61.984" rx="61.984" ry="61.984" transform="translate(11.173 11.173)" fill="#abadb6" opacity="0.49"/><ellipse cx="61.984" cy="61.984" rx="61.984" ry="61.984" transform="translate(10.743 10.743)" fill="#a7a9b4" opacity="0.51"/><ellipse cx="61.984" cy="61.984" rx="61.984" ry="61.984" transform="translate(10.313 10.313)" fill="#a4a6b1" opacity="0.529"/><ellipse cx="61.984" cy="61.984" rx="61.984" ry="61.984" transform="translate(9.884 9.884)" fill="#a1a3ae" opacity="0.549"/><ellipse cx="61.984" cy="61.984" rx="61.984" ry="61.984" transform="translate(9.454 9.454)" fill="#9d9fab" opacity="0.569"/><ellipse cx="61.984" cy="61.984" rx="61.984" ry="61.984" transform="translate(9.024 9.024)" fill="#9a9ca8" opacity="0.588"/><ellipse cx="61.984" cy="61.984" rx="61.984" ry="61.984" transform="translate(8.595 8.594)" fill="#9699a5" opacity="0.608"/><ellipse cx="61.984" cy="61.984" rx="61.984" ry="61.984" transform="translate(8.165 8.165)" fill="#9396a2" opacity="0.627"/><ellipse cx="61.984" cy="61.984" rx="61.984" ry="61.984" transform="translate(7.735 7.735)" fill="#90929f" opacity="0.647"/><ellipse cx="61.984" cy="61.984" rx="61.984" ry="61.984" transform="translate(7.305 7.305)" fill="#8c8f9c" opacity="0.667"/><ellipse cx="61.984" cy="61.984" rx="61.984" ry="61.984" transform="translate(6.876 6.876)" fill="#898c99" opacity="0.686"/><ellipse cx="61.984" cy="61.984" rx="61.984" ry="61.984" transform="translate(6.446 6.446)" fill="#868897" opacity="0.706"/><ellipse cx="61.984" cy="61.984" rx="61.984" ry="61.984" transform="translate(6.016 6.016)" fill="#828594" opacity="0.725"/><ellipse cx="61.984" cy="61.984" rx="61.984" ry="61.984" transform="translate(5.586 5.586)" fill="#7f8291" opacity="0.745"/><ellipse cx="61.984" cy="61.984" rx="61.984" ry="61.984" transform="translate(5.157 5.157)" fill="#7b7f8e" opacity="0.765"/><ellipse cx="61.984" cy="61.984" rx="61.984" ry="61.984" transform="translate(4.727 4.727)" fill="#787b8b" opacity="0.784"/><ellipse cx="61.984" cy="61.984" rx="61.984" ry="61.984" transform="translate(4.297 4.297)" fill="#757888" opacity="0.804"/><ellipse cx="61.984" cy="61.984" rx="61.984" ry="61.984" transform="translate(3.868 3.867)" fill="#717585" opacity="0.824"/><ellipse cx="61.984" cy="61.984" rx="61.984" ry="61.984" transform="translate(3.438 3.438)" fill="#6e7182" opacity="0.843"/><ellipse cx="61.984" cy="61.984" rx="61.984" ry="61.984" transform="translate(3.008 3.008)" fill="#6b6e7f" opacity="0.863"/><ellipse cx="61.984" cy="61.984" rx="61.984" ry="61.984" transform="translate(2.578 2.578)" fill="#676b7c" opacity="0.882"/><ellipse cx="61.984" cy="61.984" rx="61.984" ry="61.984" transform="translate(2.149 2.148)" fill="#64677a" opacity="0.902"/><ellipse cx="61.984" cy="61.984" rx="61.984" ry="61.984" transform="translate(1.719 1.719)" fill="#606477" opacity="0.922"/><ellipse cx="61.984" cy="61.984" rx="61.984" ry="61.984" transform="translate(1.289 1.289)" fill="#5d6174" opacity="0.941"/><ellipse cx="61.984" cy="61.984" rx="61.984" ry="61.984" transform="translate(0.859 0.859)" fill="#5a5e71" opacity="0.961"/><ellipse cx="61.984" cy="61.984" rx="61.984" ry="61.984" transform="translate(0.43 0.43)" fill="#565a6e" opacity="0.98"/><ellipse cx="61.984" cy="61.984" rx="61.984" ry="61.984" fill="#53576b"/></g><ellipse cx="64.749" cy="64.749" rx="64.749" ry="64.749" transform="translate(1.053 1.053)" fill="url(#a)"/><path d="M2533.62,3232.43a65.8,65.8,0,1,1,65.8-65.8A65.876,65.876,0,0,1,2533.62,3232.43Zm0-129.5a63.7,63.7,0,1,0,63.7,63.7A63.768,63.768,0,0,0,2533.62,3102.932Z" transform="translate(-2467.819 -3100.827)" fill="url(#b)"/><g transform="translate(30.29 20.518)"><path d="M2552.228,3212.165a7.3,7.3,0,0,1-4.608-.986,17.583,17.583,0,0,0-16.859-.273c-6.185,3.039-10.8,1.016-14.465-3.233a51.7,51.7,0,0,1-12.773-28.317c-.711-6.38-.919-12.94,2.044-19.044,3.285-6.765,10.539-13.069,18.706-12.73a20.632,20.632,0,0,1,7.711,1.963c4.822,2.21,9.4,1.8,14.169-.311a17.283,17.283,0,0,1,17.4,1.358,26.178,26.178,0,0,1,5.268,4.669c.552.631.79.968-.215,1.656a17.3,17.3,0,0,0-7.988,13.911c-.429,8.225,2.752,14.5,10.14,18.429.741.393,1.042.794.68,1.639-2.842,6.635-6.346,12.862-11.527,17.97C2557.841,3210.911,2555.469,3212.64,2552.228,3212.165Z" transform="translate(-2503.076 -3127.921)" fill="#9ea2ac"/><path d="M2558.122,3127.508c-.029,8.13-6.361,15.952-14.225,17.573-2.042.421-2.258.151-2.372-2.023-.4-7.631,6.212-16.506,15.133-18.285,1.071-.213,1.64.077,1.475,1.291A10.955,10.955,0,0,0,2558.122,3127.508Z" transform="translate(-2508.489 -3124.709)" fill="#9ea2ac"/></g></svg>