<svg xmlns="http://www.w3.org/2000/svg" xmlns:xlink="http://www.w3.org/1999/xlink" width="674" height="399.875" viewBox="0 0 674 399.875"><defs><linearGradient id="a" y1="0.5" x2="1" y2="0.5" gradientUnits="objectBoundingBox"><stop offset="0" stop-color="#b37cff"/><stop offset="1" stop-color="#f895e7"/></linearGradient><linearGradient id="c" x1="-2.948" y1="1.572" x2="-2.041" y2="0.068" xlink:href="#a"/><linearGradient id="d" x1="0.478" y1="0.454" x2="0.258" y2="-0.012" gradientUnits="objectBoundingBox"><stop offset="0" stop-color="#a737d5"/><stop offset="1" stop-color="#ef497a"/></linearGradient><linearGradient id="f" x1="0.387" y1="0.417" x2="1.045" y2="1.226" gradientUnits="objectBoundingBox"><stop offset="0" stop-color="#2b3582"/><stop offset="1" stop-color="#150e42"/></linearGradient><linearGradient id="g" x1="0.48" y1="0.741" x2="0.745" y2="-0.499" gradientUnits="objectBoundingBox"><stop offset="0" stop-color="#53d8ff"/><stop offset="1" stop-color="#3840f7"/></linearGradient><linearGradient id="h" x1="0.336" y1="0.26" x2="1.697" y2="1.995" xlink:href="#f"/><linearGradient id="i" x1="0.535" y1="0.274" x2="1.319" y2="-4.135" xlink:href="#f"/><linearGradient id="j" x1="1.064" y1="-4.477" x2="2.086" y2="-13.26" xlink:href="#f"/><linearGradient id="k" x1="1.026" y1="0.224" x2="0.336" y2="0.657" xlink:href="#g"/><linearGradient id="l" x1="0.721" y1="0.212" x2="0.27" y2="0.899" gradientUnits="objectBoundingBox"><stop offset="0" stop-color="#f9b776"/><stop offset="1" stop-color="#f47960"/></linearGradient><linearGradient id="m" x1="0.967" y1="0.057" x2="-1.086" y2="2.132" gradientUnits="objectBoundingBox"><stop offset="0" stop-color="#fdf53f"/><stop offset="1" stop-color="#d93c65"/></linearGradient><linearGradient id="n" x1="0.461" y1="0.791" x2="1.158" y2="-1.379" xlink:href="#l"/><linearGradient id="o" x1="0.443" y1="1.062" x2="0.553" y2="0.1" xlink:href="#l"/><linearGradient id="p" x1="0.619" y1="0.82" x2="0.308" y2="-0.114" xlink:href="#l"/><linearGradient id="q" x1="0.39" y1="-0.467" x2="0.567" y2="0.954" xlink:href="#f"/><linearGradient id="r" x1="1.286" y1="2.058" x2="-0.186" y2="-0.895" xlink:href="#l"/><linearGradient id="s" x1="0" y1="0.5" x2="1" y2="0.5" xlink:href="#f"/><linearGradient id="t" x1="1.018" y1="-0.604" x2="0.278" y2="0.973" xlink:href="#f"/><linearGradient id="u" x1="7.276" y1="-1.742" x2="-4.856" y2="2.272" xlink:href="#m"/><linearGradient id="v" x1="3.264" y1="-2.519" x2="-0.575" y2="1.675" xlink:href="#m"/><linearGradient id="w" x1="2.506" y1="-3.159" x2="0.376" y2="0.672" xlink:href="#m"/><linearGradient id="x" x1="0.504" y1="0.262" x2="0.394" y2="1.808" xlink:href="#g"/><linearGradient id="y" x1="1.482" y1="-3.333" x2="-0.948" y2="5.987" xlink:href="#g"/><linearGradient id="z" x1="0.145" y1="0.289" x2="1.136" y2="0.959" xlink:href="#m"/><linearGradient id="aa" x1="0.286" y1="-51.209" x2="-0.064" y2="-52.22" xlink:href="#d"/><linearGradient id="ab" x1="1598.664" y1="0.954" x2="1600.825" y2="-0.303" gradientUnits="objectBoundingBox"><stop offset="0" stop-color="#cb236d"/><stop offset="1" stop-color="#4c246d"/></linearGradient><linearGradient id="ac" x1="183.064" y1="0.088" x2="183.316" y2="-21.186" xlink:href="#ab"/><linearGradient id="ad" x1="136.963" y1="4.039" x2="137.159" y2="-0.315" xlink:href="#m"/><linearGradient id="ae" x1="-48.975" y1="-4.203" x2="-49.385" y2="-3.084" xlink:href="#f"/><linearGradient id="af" x1="-139.032" y1="-5.217" x2="-137.904" y2="-5.217" xlink:href="#l"/><linearGradient id="ag" x1="-20.145" y1="-0.355" x2="-19.453" y2="-1.267" gradientUnits="objectBoundingBox"><stop offset="0" stop-color="#2b3582"/><stop offset="0.231" stop-color="#242a70"/><stop offset="0.728" stop-color="#19154e"/><stop offset="1" stop-color="#150e42"/></linearGradient><linearGradient id="ah" x1="-42.872" y1="-4.788" x2="-44.114" y2="-1.316" xlink:href="#f"/><linearGradient id="ai" x1="-42.289" y1="-7.322" x2="-41.356" y2="-7.322" xlink:href="#g"/><linearGradient id="aj" x1="-119.543" y1="-5.609" x2="-118.641" y2="-5.609" xlink:href="#l"/><linearGradient id="ak" x1="-16.653" y1="0.113" x2="-16.623" y2="-0.865" xlink:href="#f"/><linearGradient id="al" x1="-6.749" y1="1.812" x2="-6.126" y2="1.254" xlink:href="#ab"/><linearGradient id="am" x1="-35.662" y1="-2.222" x2="-34.668" y2="-2.222" xlink:href="#l"/><linearGradient id="an" x1="0.219" y1="-0.14" x2="1.183" y2="1.276" xlink:href="#ab"/><linearGradient id="ao" x1="-65.591" y1="-2.433" x2="-64.472" y2="-2.433" xlink:href="#l"/><linearGradient id="ap" x1="-0.327" y1="-0.484" x2="1.3" y2="1.465" xlink:href="#ab"/><linearGradient id="aq" x1="-17.84" y1="1.054" x2="-19.083" y2="7.871" xlink:href="#l"/><linearGradient id="ar" x1="-135.274" y1="-63.079" x2="-136.673" y2="-61.743" xlink:href="#l"/><linearGradient id="as" x1="-93.009" y1="-90.014" x2="-92.002" y2="-90.014" xlink:href="#f"/><linearGradient id="at" x1="-458.199" y1="-198.799" x2="-454.917" y2="-201.133" xlink:href="#l"/><linearGradient id="au" x1="157.851" y1="121.668" x2="157.111" y2="124.105" xlink:href="#f"/><linearGradient id="av" x1="121.213" y1="0.134" x2="120.812" y2="0.8" xlink:href="#f"/><linearGradient id="aw" x1="178.206" y1="0.5" x2="179.206" y2="0.5" gradientUnits="objectBoundingBox"><stop offset="0" stop-color="#9cfffb"/><stop offset="1" stop-color="#9bfffa"/></linearGradient><linearGradient id="ay" x1="178.206" y1="0.5" x2="179.206" y2="0.5" xlink:href="#aw"/><linearGradient id="az" x1="178.206" y1="0.5" x2="179.206" y2="0.5" xlink:href="#aw"/><linearGradient id="ba" x1="42.015" y1="0.5" x2="43.015" y2="0.5" xlink:href="#aw"/><linearGradient id="bb" x1="-21.638" y1="3.633" x2="-21.552" y2="2.303" gradientUnits="objectBoundingBox"><stop offset="0" stop-color="#fdf53f"/><stop offset="0.665" stop-color="#e57a58"/><stop offset="1" stop-color="#d93c65"/></linearGradient><linearGradient id="bc" x1="-422.882" y1="-130.565" x2="-429.273" y2="-133.247" xlink:href="#g"/><linearGradient id="bd" x1="-55.112" y1="-41.437" x2="-56.06" y2="-43.139" xlink:href="#g"/><linearGradient id="be" x1="-64.917" y1="-112.497" x2="-65.832" y2="-114.662" xlink:href="#g"/><linearGradient id="bf" x1="109.47" y1="-216.841" x2="112.644" y2="-217.866" xlink:href="#g"/><linearGradient id="bg" x1="-8.102" y1="0.015" x2="-8.527" y2="0.481" xlink:href="#f"/><linearGradient id="bh" x1="31.411" y1="-0.845" x2="31.067" y2="1.374" xlink:href="#l"/><linearGradient id="bi" x1="122.435" y1="1.191" x2="122.265" y2="-1.912" xlink:href="#ab"/><linearGradient id="bj" x1="-513.728" y1="53.642" x2="-513.54" y2="52.72" xlink:href="#l"/><linearGradient id="bk" x1="-432.389" y1="28.001" x2="-431.029" y2="29.075" xlink:href="#l"/><linearGradient id="bl" x1="-399.487" y1="42.393" x2="-401.146" y2="44.708" xlink:href="#f"/><linearGradient id="bm" x1="-1247.266" y1="91.547" x2="-1243.337" y2="95.11" xlink:href="#l"/><linearGradient id="bn" x1="104.807" y1="1.384" x2="106.208" y2="0.247" xlink:href="#l"/><linearGradient id="bo" x1="255.774" y1="0.852" x2="256.769" y2="0.852" xlink:href="#f"/><linearGradient id="bp" x1="197.706" y1="0.498" x2="193.809" y2="0.828" xlink:href="#l"/><linearGradient id="bq" x1="214.014" y1="0.916" x2="215.007" y2="0.916" xlink:href="#f"/><linearGradient id="br" x1="93.744" y1="0.095" x2="92.712" y2="1.715" xlink:href="#f"/><linearGradient id="bs" x1="21.451" y1="0.5" x2="22.451" y2="0.5" xlink:href="#l"/><linearGradient id="bt" x1="-434.518" y1="-24.693" x2="-434.932" y2="-24.283" xlink:href="#f"/><linearGradient id="bu" x1="111.068" y1="-0.446" x2="110.416" y2="1.215" xlink:href="#l"/><linearGradient id="bv" x1="0.143" y1="-0.646" x2="1.217" y2="2.77" gradientUnits="objectBoundingBox"><stop offset="0" stop-color="#9f5699"/><stop offset="1" stop-color="#202278"/></linearGradient><linearGradient id="bw" x1="0.143" y1="-0.646" x2="1.217" y2="2.77" gradientUnits="objectBoundingBox"><stop offset="0" stop-color="#f9c200"/><stop offset="0.996" stop-color="#9b1e5f"/></linearGradient><linearGradient id="bx" x1="0.143" y1="-0.646" x2="1.217" y2="2.77" gradientUnits="objectBoundingBox"><stop offset="0" stop-color="#2c50ff"/><stop offset="0.996" stop-color="#1a1b80"/></linearGradient></defs><g transform="translate(-53.493 -75.765)"><g transform="translate(53.493 75.765)"><path d="M709.345,305.836c-10.63-10.789-23.2-21.311-26.478-35.96-5.673-25.348,18.583-46.961,26.522-71.717a60.231,60.231,0,0,0-7.491-51.544,62.762,62.762,0,0,0-45.643-26.653c-31.377-2.821-62.082,17.9-92.991,11.9-24.748-4.8-44.3-26-69.427-28.267-29.562-2.671-54.089,21.241-82.319,30.243C377.754,144.6,341.145,133.349,307.947,121s-68.125-26.128-103.119-20.218c-38.952,6.579-71.61,39.837-76.82,78.23-5.163,38.049,38.138,68.592,1.278,114.278-11.519,14.277-19.181,34.155-14.088,51.657,4.948,17.005,26,27.761,26.155,45.444.121,13.96-13.311,25.067-14.393,38.986-.929,11.947,7.841,22.993,18.617,28.655s23.281,7.047,35.439,8.331h0a2.411,2.411,0,0,0-.49,2.639,2.748,2.748,0,0,0,2.322,1.594c59.456,4.857,119.255,3.693,178.916,2.525l290.828-5.694c9.964-.195,20.169-.435,29.452-3.985s17.609-11.15,19.023-20.815c2.407-16.45-15.141-30.725-13.519-47.267,2.071-21.122,32.425-29.271,38.2-49.723C729.832,331.183,719.975,316.625,709.345,305.836Z" transform="translate(-76.533 -84.814)" opacity="0.5" fill="url(#a)"/><g opacity="0.26"><path d="M706.305,269.6c-12.842-15.231-30.869-26.876-40.26-44.132-14.341-26.351-5.037-58.8-14.854-86.875-8.414-24.06-30.561-42.612-55.768-52.354s-53.243-11.535-80.507-9.987c-56.524,3.208-112.044,20.5-159.172,49.565-23.209,14.314-44.406,31.408-68.493,44.418S235,192.11,207.515,187.768c-27.465-4.339-50.462-21.029-75.63-32.091a115.478,115.478,0,0,0-31.914-8.964c-24.1-2.941-45.672,14.172-46.425,36.668a95.246,95.246,0,0,0,15.245,54.984c13.425,20.626,34.354,36.018,50.743,54.718s28.472,43.966,19.6,66.6C131.567,379,109.793,393.766,110.4,414.3c.639,21.479,25.223,34.832,47.272,41.545,64.918,19.765,136.956,18.845,201.261-2.569,36.979-12.314,72.527-31.385,111.794-32.826,41.256-1.514,80.6,16.772,121.831,18.8,45.114,2.214,91.728-17.238,116.594-52.157S734.1,302.573,706.305,269.6Z" transform="translate(-53.493 -75.765)" fill="url(#a)"/></g></g><g transform="translate(352.419 82.78)"><path d="M575.678,463.191s-43.753-59.933-36.64-116.591,42.618-49.9,58.417-16.4,30,28.9,20.615-2.594-21.15-52-1.7-83.354,21.467-44.678,10.538-72.656S602.256,103.98,645.74,89.835s86.8,29.313,76.662,86.191-16.232,63.073-2.265,84.142,8.146,29.722,6.168,43.435,19.359,16.924,18.9-2.391-27.6-64.9-9.072-86.173,54.838-21.5,64.137,27.679-20.5,71.279-19.012,89.065,17.486-9.183,31.424,8.948-4.828,32.374-18.637,42.2-34.633,27.436-14.819,40.224,38.574.55,26.436,40.037Z" transform="translate(-538.256 -87.141)" fill="url(#c)"/><path d="M741.177,158.022a22.847,22.847,0,0,1,3.9,2.975,31.707,31.707,0,0,1,3.382,3.662,41.79,41.79,0,0,1,5.336,8.676,58.429,58.429,0,0,1,4.979,20.209c.092.874.118,1.748.157,2.623s.079,1.753.06,2.626l-.014,2.626-.117,2.617-.065,1.309-.118,1.3-.239,2.6c-.24,1.718-.408,3.459-.712,5.163-.289,1.709-.573,3.422-.952,5.106l-.535,2.538-.555,2.452-2.235,9.793c-2.958,13.051-5.809,26.1-8.049,39.209-2.179,13.1-3.687,26.353-3.348,39.444.078,3.268.278,6.525.664,9.737a78.422,78.422,0,0,0,1.64,9.5,65.051,65.051,0,0,0,2.829,9.056,73.116,73.116,0,0,1,3.1,10.1,175.324,175.324,0,0,1,3.053,20.374c.654,6.775,1.162,13.525,1.565,20.264.849,13.467,1.577,26.893,3.358,40.133.225,1.654.463,3.305.749,4.945.251,1.65.578,3.277.888,4.911.287,1.643.7,3.242,1.043,4.87.195.805.416,1.6.623,2.4s.407,1.608.667,2.388l.733,2.364c.246.788.557,1.544.832,2.32.531,1.564,1.228,3.035,1.864,4.55a41.871,41.871,0,0,0,5.121,8.235l-.5.534a42.225,42.225,0,0,1-5.85-8.021,65.049,65.049,0,0,1-4.122-9.229,123.985,123.985,0,0,1-5.122-19.675c-2.514-13.349-3.707-26.869-5.063-40.266-.689-6.7-1.3-13.387-2.144-20.005A168.885,168.885,0,0,0,744.547,353a70.14,70.14,0,0,0-2.946-9.01,72.036,72.036,0,0,1-3.317-10.016,85.5,85.5,0,0,1-1.962-10.333c-.474-3.467-.744-6.947-.884-10.419-.533-13.911,1.051-27.6,3.182-41.038,2.177-13.441,5.118-26.653,8.407-39.707.832-3.261,1.665-6.52,2.528-9.767l.651-2.432.6-2.37c.424-1.576.74-3.172,1.087-4.764.367-1.589.6-3.2.906-4.8l.342-2.415c.121-.805.227-1.611.3-2.42a82.348,82.348,0,0,0,.54-9.723,60.493,60.493,0,0,0-.744-9.678,56.05,56.05,0,0,0-2.294-9.391c-.547-1.511-1.136-3.012-1.83-4.457a38.594,38.594,0,0,0-2.267-4.24,31.888,31.888,0,0,0-6.023-7.342Z" transform="translate(-613.807 -114.314)" fill="#fff" opacity="0.62"/><path d="M593.327,487.245c1.3,10.606,3.16,21.123,5.426,31.5q1.71,7.779,3.785,15.439c.329,1.281.72,2.542,1.077,3.814s.744,2.533,1.13,3.794c.739,2.535,1.574,5.031,2.388,7.535.876,2.478,1.725,4.967,2.681,7.408.885,2.473,1.9,4.884,2.88,7.31,2.058,4.8,4.231,9.546,6.645,14.145s5.066,9.042,7.9,13.364a144.436,144.436,0,0,0,9.362,12.285l-.471.56a88.866,88.866,0,0,1-10.674-11.306,122.759,122.759,0,0,1-8.835-13.123,152.952,152.952,0,0,1-7.146-14.291c-1.027-2.468-2.088-4.924-3.016-7.437-.966-2.5-1.807-5.047-2.682-7.582-.81-2.558-1.642-5.109-2.374-7.694-.385-1.286-.736-2.583-1.07-3.885s-.7-2.594-1.006-3.9c-1.321-5.211-2.407-10.484-3.345-15.782a212.731,212.731,0,0,1-3.348-32.1Z" transform="translate(-559.101 -240.524)" fill="#fff" opacity="0.62"/></g><g transform="translate(211.276 133.349)"><ellipse cx="159.699" cy="172.379" rx="159.699" ry="172.379" transform="translate(0 319.09) rotate(-87.486)" fill="url(#d)"/><ellipse cx="135.264" cy="127.782" rx="135.264" ry="127.782" transform="translate(34.623 27.802)" opacity="0.26" fill="url(#a)"/><g transform="translate(22.414 11.5)" opacity="0.68"><path d="M616.6,344.719c-.014,14.091-.529,28.184-1.624,42.237-1.122,14.049-2.84,28.058-5.333,41.939-1.26,6.938-2.721,13.842-4.461,20.682a199.316,199.316,0,0,1-6.225,20.241A95.969,95.969,0,0,1,589.67,488.9a38.164,38.164,0,0,1-6.974,8.125,19.9,19.9,0,0,1-4.57,2.943,13.706,13.706,0,0,1-5.343,1.256,13.486,13.486,0,0,1-5.4-.992,18.692,18.692,0,0,1-4.678-2.781,36.238,36.238,0,0,1-7.124-8,92.882,92.882,0,0,1-9.42-19.017,194.964,194.964,0,0,1-6.291-20.22c-1.757-6.835-3.232-13.736-4.5-20.672-2.536-13.874-4.268-27.881-5.438-41.926s-1.748-28.141-1.826-42.237c-.037-7.046.165-14.092.419-21.133s.66-14.077,1.183-21.1c1.051-14.051,2.618-28.071,4.941-41.976,1.166-6.95,2.524-13.872,4.158-20.732a199.3,199.3,0,0,1,5.9-20.317,92,92,0,0,1,9.026-19.152,34.778,34.778,0,0,1,6.966-8.043,17.8,17.8,0,0,1,4.609-2.758,13.008,13.008,0,0,1,5.3-.938,14.069,14.069,0,0,1,5.237,1.224,20.419,20.419,0,0,1,4.549,2.835,38.767,38.767,0,0,1,7.115,7.9,95.109,95.109,0,0,1,9.757,18.788,192.576,192.576,0,0,1,6.691,20.072c1.885,6.8,3.482,13.669,4.864,20.582a399.861,399.861,0,0,1,5.914,41.856Q616.58,323.55,616.6,344.719Zm-2.334,0q.044-21.047-1.663-42.049a405.305,405.305,0,0,0-5.463-41.714c-1.291-6.893-2.8-13.748-4.587-20.526a191.449,191.449,0,0,0-6.4-20.014,94.135,94.135,0,0,0-9.417-18.693,37.915,37.915,0,0,0-6.856-7.811,19.664,19.664,0,0,0-4.342-2.782,12.98,12.98,0,0,0-4.956-1.212,12.175,12.175,0,0,0-5,.944,17.023,17.023,0,0,0-4.374,2.692,33.965,33.965,0,0,0-6.689,7.925,91,91,0,0,0-8.684,19.035,198.036,198.036,0,0,0-5.61,20.252c-1.54,6.841-2.808,13.744-3.884,20.676-4.257,27.75-5.65,55.88-5.561,83.936q-.067,21.045,1.455,42.058c1.045,13.99,2.648,27.946,5.051,41.765,1.2,6.908,2.612,13.78,4.3,20.581a193.173,193.173,0,0,0,6.063,20.1,91.48,91.48,0,0,0,9.1,18.787,34.907,34.907,0,0,0,6.781,7.759,17.434,17.434,0,0,0,4.331,2.631,11.922,11.922,0,0,0,4.892.932,12.453,12.453,0,0,0,4.844-1.188,18.633,18.633,0,0,0,4.243-2.79,36.847,36.847,0,0,0,6.643-7.893,94.543,94.543,0,0,0,8.962-18.858,197.589,197.589,0,0,0,5.991-20.12c1.667-6.807,3.057-13.682,4.249-20.591,2.388-13.821,3.971-27.778,5.025-41.768C613.777,372.789,614.271,358.753,614.264,344.719Z" transform="translate(-415.633 -188.342)" fill="#fff" style="mix-blend-mode:soft-light;isolation:isolate"/><path d="M637.836,344.174a205.477,205.477,0,0,1-7.3,53.812A173.187,173.187,0,0,1,608,447.321c-10.11,15.045-22.988,28.4-38.384,38.08a102.051,102.051,0,0,1-24.7,11.289,92.534,92.534,0,0,1-53.71.026,102.084,102.084,0,0,1-24.724-11.268c-15.414-9.671-28.317-23.015-38.453-38.06a173.466,173.466,0,0,1-22.606-49.356,195.156,195.156,0,0,1-5.475-26.682A200.249,200.249,0,0,1,399.962,317a195.145,195.145,0,0,1,5.495-26.674,173.422,173.422,0,0,1,22.64-49.318c10.141-15.029,23.042-28.358,38.449-38a102.541,102.541,0,0,1,24.7-11.222,91.791,91.791,0,0,1,53.617.025,102.457,102.457,0,0,1,24.68,11.243c15.388,9.656,28.263,22.991,38.379,38.02a173.108,173.108,0,0,1,22.574,49.3A205.444,205.444,0,0,1,637.836,344.174Zm-2.676,0a202.913,202.913,0,0,0-6.972-53.161,172.339,172.339,0,0,0-21.74-48.957,140.437,140.437,0,0,0-16.772-20.98,117.229,117.229,0,0,0-20.754-17.037,100.253,100.253,0,0,0-24.349-11.265,89.249,89.249,0,0,0-53.019.025,100.2,100.2,0,0,0-24.328,11.287A117.131,117.131,0,0,0,446.5,221.136a140.319,140.319,0,0,0-16.735,20.985A172.073,172.073,0,0,0,408.1,291.059a196.8,196.8,0,0,0-5.208,26.33,205.211,205.211,0,0,0,.019,53.567,196.688,196.688,0,0,0,5.229,26.321,171.984,171.984,0,0,0,21.708,48.9,140.242,140.242,0,0,0,16.738,20.958,116.637,116.637,0,0,0,20.714,17.017A100.636,100.636,0,0,0,491.6,495.393a88.556,88.556,0,0,0,52.925.027,100.671,100.671,0,0,0,24.328-11.22,116.785,116.785,0,0,0,20.746-17,140.339,140.339,0,0,0,16.775-20.954,172.255,172.255,0,0,0,21.773-48.92A202.9,202.9,0,0,0,635.16,344.174Z" transform="translate(-365.797 -187.797)" fill="#fff" style="mix-blend-mode:soft-light;isolation:isolate"/><path d="M366.137,340.558l35.928-.325,35.928-.184c11.975-.079,23.951-.07,35.927-.094l35.927-.055,71.855.164,35.927.2,35.928.35a.118.118,0,0,1,0,.237l-35.928.351-35.927.2-71.855.163-35.927-.054c-11.976-.024-23.952-.016-35.927-.094l-35.928-.184-35.928-.325a.176.176,0,0,1,0-.352Z" transform="translate(-353.477 -246.107)" fill="#fff" style="mix-blend-mode:soft-light;isolation:isolate"/><path d="M433.729,242.973c8.5-.151,17-.216,25.507-.325l25.507-.184c8.5-.078,17.005-.07,25.508-.094l25.507-.054,25.507.062c8.5.037,17.005.017,25.507.1l25.508.2c8.5.12,17.005.189,25.507.351a.118.118,0,0,1,0,.236c-8.5.162-17.005.232-25.507.351l-25.508.2c-8.5.085-17,.065-25.507.1l-25.507.062-25.507-.054c-8.5-.025-17-.016-25.508-.094l-25.507-.184c-8.5-.109-17-.174-25.507-.325a.176.176,0,0,1,0-.351Z" transform="translate(-379.389 -208.697)" fill="#fff" style="mix-blend-mode:soft-light;isolation:isolate"/><path d="M345.889,438.143l39.048-.325,39.049-.184,78.1-.149,78.1.163,39.048.2,39.049.351a.118.118,0,0,1,0,.236l-39.049.351-39.048.2-78.1.163-78.1-.149-39.049-.184-39.048-.325a.176.176,0,0,1,0-.352Z" transform="translate(-345.715 -283.517)" fill="#fff" style="mix-blend-mode:soft-light;isolation:isolate"/><path d="M366.137,535.729l35.928-.325,35.928-.184c11.975-.078,23.951-.07,35.927-.094l35.927-.054,71.855.163,35.927.2,35.928.35a.118.118,0,0,1,0,.236l-35.928.351-35.927.2-71.855.163-35.927-.054c-11.976-.024-23.952-.015-35.927-.094l-35.928-.184-35.928-.325a.176.176,0,0,1,0-.352Z" transform="translate(-353.477 -320.927)" fill="#fff" style="mix-blend-mode:soft-light;isolation:isolate"/><path d="M645.85,634.241H441.791a.617.617,0,1,1,0-1.233H645.85a.617.617,0,1,1,0,1.233Z" transform="translate(-382.31 -358.472)" fill="#fff" style="mix-blend-mode:soft-light;isolation:isolate"/></g></g><g transform="translate(408.504 89.981)"><path d="M770.889,244.332s-4.1.217-4.608,8.661c0,0,9.517,8.532,22.373,10.563.966.152-1.349-6.589-1.7-7.5C785.3,251.71,780.088,248.911,770.889,244.332Z" transform="translate(-681.756 -154.602)" fill="url(#f)"/><path d="M698.3,208.136h8.661s26.584-29.36,44.02-32.321c0,0,12.137,15.493-.646,44.44a4.225,4.225,0,0,1-6.05,1.993,3.465,3.465,0,0,1-1.382-1.648l1.028-24.717s-22.676,19.833-26.618,23.661S693.339,221.038,698.3,208.136Z" transform="translate(-655.395 -128.336)" fill="url(#g)"/><path d="M821.789,323.362a32.557,32.557,0,0,0-17.761-7.773l-2.824,1.727a30.774,30.774,0,0,0,5.09,5.46c3.023,1.756,7.69,4.134,11.56,4.649C821.616,327.927,822.171,325.653,821.789,323.362Z" transform="translate(-695.144 -181.919)" fill="url(#h)"/><path d="M786.957,260.636c-2.236.724-3.219,3.892-8.893,1.8a50.226,50.226,0,0,1-11.67-6.148c-.047.409-.086.836-.113,1.29,0,0,10.035,9.546,22.892,11.576a1.279,1.279,0,0,0,1.382-1.724A32.272,32.272,0,0,0,786.957,260.636Z" transform="translate(-681.755 -159.184)" fill="url(#i)"/><path d="M827.687,330.546a29.791,29.791,0,0,0-2.734-2.716c.382,2.291-.173,4.565-3.935,4.064-3.87-.516-8.537-2.894-11.56-4.65,3.789,3.231,9.553,6.661,16.829,6.459A1.908,1.908,0,0,0,827.687,330.546Z" transform="translate(-698.308 -186.387)" fill="url(#j)"/><path d="M688.473,238.393l40.56.439S752.2,258,756.4,287.218c0,0,.7,2.149-3.49,2.517a80.414,80.414,0,0,1-23.136-25.318c-11.2-19.828-29.208-12.75-29.208-12.75-21.851,7.448-29.332-3.611-29.515-6.228Z" transform="translate(-645.248 -152.325)" fill="url(#k)"/><path d="M696.4,185.407s4.366,21.883,25.76,30.539l7.61-.9,1.8,2.863-17.851.569a48.822,48.822,0,0,1-23.344-22.512C690.109,195.426,685.657,186.233,696.4,185.407Z" transform="translate(-652.221 -132.013)" fill="url(#l)"/><path d="M675.731,204.669s-4.965-13.5-6.033-26.612a57.317,57.317,0,0,1,5.9-4.469,1.641,1.641,0,0,0,.641-2.129c-1.669-3.458-11.764-17.036-12.52-17.225-4.11-1.026-20.966-9.041-32.839,7.2-5.1,6.969,1.011,28.423,24.126,50.641l.767.147a11.711,11.711,0,0,0,7.614-1.118Z" transform="translate(-629.208 -118.959)" fill="url(#m)"/><path d="M669.061,199.453s13.795,16.334,31.433,18.723c0,0,4.558-4.156,7.947-2.673s8.037,8.032,8.037,8.032H693.832s-21.413-.754-32.113-13.739C662.58,205.253,665.159,202.539,669.061,199.453Z" transform="translate(-641.671 -137.398)" fill="url(#n)"/><path d="M658.669,137.445l-3.019,10.067a1.107,1.107,0,0,0,.43,1.233,11.247,11.247,0,0,0,10.462,1.051,1.642,1.642,0,0,0,1.056-1.41l.715-8.77Z" transform="translate(-639.327 -113.626)" fill="url(#o)"/><g transform="translate(11.173)"><path d="M676.835,119.946s-1.484,10.435-5.493,13.645-11.819.792-14.457-7.075l5.256-13.451Z" transform="translate(-650.991 -104.28)" fill="url(#p)"/><path d="M657.885,116.308a.517.517,0,0,0,.672-.414,13.49,13.49,0,0,1,1.237-4.169s-.382-1.37,3.461.7,9.614,5.106,13.012,3.3c3.313-1.764,6.669-10.641-2.087-9a.517.517,0,0,1-.615-.541c.108-1.459-.037-4.815-3.436-5.893-3.181-1.008-4.923.428-5.64,1.294a.513.513,0,0,1-.8-.012c-.953-1.244-3.541-3.892-7.35-2.213-3.138,1.383-3.626,3.316-3.574,4.52a.515.515,0,0,1-.734.491c-.961-.443-2.507-.672-3.987,1.183-2.047,2.565.878,4.789,1.756,5.372a.515.515,0,0,1,.234.427c.009,1.334.216,7.152,3.132,10.434a.521.521,0,0,0,.866-.15l2.245-5.349a.519.519,0,0,1,.638-.293Z" transform="translate(-647.327 -98.819)" fill="url(#q)"/><path d="M661.908,126.373s-1.371-5.584-3.454-3.771.543,5.8,2.928,6.564Z" transform="translate(-651.302 -107.797)" fill="url(#r)"/></g><path d="M748.673,217.364l10.168-33.91a3.469,3.469,0,0,1,3.085-2.464l13.728-.939a1.947,1.947,0,0,1,1.97,2.587l-11.367,32.384a2.85,2.85,0,0,1-2.4,1.891l-13.519,1.5Z" transform="translate(-675.006 -129.958)" fill="url(#s)"/><path d="M732.658,239.757l-.067,0L703.786,238.3a1.291,1.291,0,1,1,.13-2.579l28.806,1.456a1.291,1.291,0,0,1-.064,2.581Z" transform="translate(-657.328 -151.3)" fill="url(#t)"/><path d="M693.258,185.957h0A.258.258,0,0,1,693,185.7c.02-6.015-2.3-14-2.325-14.079a.258.258,0,1,1,.5-.146c.023.081,2.366,8.136,2.346,14.226A.258.258,0,0,1,693.258,185.957Z" transform="translate(-652.768 -126.6)" fill="url(#u)"/><path d="M668.184,191.145a.259.259,0,0,1-.2-.1c-.063-.08-6.366-8.092-8.533-13.585a.258.258,0,1,1,.48-.189c2.14,5.423,8.4,13.376,8.459,13.455a.258.258,0,0,1-.2.418Z" transform="translate(-640.794 -128.831)" fill="url(#v)"/><path d="M649.919,210.189l-.192-.082c-9.124-3.907-14.759-14.8-14.815-14.908a.258.258,0,0,1,.46-.235c.054.108,5.529,10.683,14.367,14.585l.925-1.307a.258.258,0,1,1,.421.3Z" transform="translate(-631.384 -135.623)" fill="url(#w)"/></g><g transform="translate(240.459 260.265)"><path d="M384.836,456.979a26.273,26.273,0,0,1-25.628-24.1l-2.43-30.37a25.713,25.713,0,0,1,6.531-19.472,23.5,23.5,0,0,1,17.426-7.637l237.118-.436a23.077,23.077,0,0,1,18.311,8.354,24.534,24.534,0,0,1,4.662,20.561l-6.49,31.853c-2.7,13.239-15.592,23.611-29.354,23.611Z" transform="translate(-356.692 -374.965)" fill="url(#x)"/><path d="M621.7,384.965l-237.118.436c-10.755.02-18.709,9.345-17.822,20.451l2.43,30.371a20.2,20.2,0,0,0,19.547,18.423l219.849,2.363c10.86.117,21.374-8.036,23.542-18.675l6.49-31.853C640.991,394.826,633.447,384.943,621.7,384.965Z" transform="translate(-360.525 -378.799)" fill="url(#y)"/><g transform="translate(26.329 12.354)"><g transform="translate(0 9.285)"><path d="M452.168,416.478l-10.944,33.434h-.043a4.638,4.638,0,0,1-3.231,3.146h-.043c-.043,0-.13.043-.173.043h-.086c-.043,0-.086.043-.129.043h-1.034c-.043,0-.086-.043-.129-.043h-.086c-.043,0-.129-.043-.173-.043h-.043a4.774,4.774,0,0,1-3.275-3.146l-6.893-21.068-6.893,21.068a4.638,4.638,0,0,1-3.231,3.146h-.043c-.086,0-.129.043-.173.043h-.086c-.043,0-.086.043-.129.043H414.3c-.043,0-.086-.043-.129-.043h-.086c-.086,0-.13-.043-.173-.043h-.043a4.7,4.7,0,0,1-3.275-3.146l-10.944-33.434v-.086a5.152,5.152,0,0,1-.258-1.594,4.712,4.712,0,0,1,2.973-4.481,3.624,3.624,0,0,1,1.336-.216,4.505,4.505,0,0,1,4.223,3.318c.043.086,3.791,11.5,6.893,20.983,3.1-9.478,6.85-20.9,6.85-20.983a4.812,4.812,0,0,1,2.671-3.015l.043-.044c.043,0,.087-.043.129-.043h.043c.043,0,.043-.043.086-.043h.086a.157.157,0,0,1,.129-.043l.043-.043c.086,0,.129,0,.173-.043h.043c.086,0,.129,0,.173-.044h.258c.086,0,.13,0,.172-.043h.388a.159.159,0,0,0,.129.043h.258a.384.384,0,0,0,.215.044.332.332,0,0,0,.173.043c.043,0,.043,0,.043.043.086,0,.129,0,.172.043h.086a.151.151,0,0,0,.086.043h.043c.043,0,.086.043.129.043l.043.044a4.809,4.809,0,0,1,2.671,3.015c0,.086,3.749,11.5,6.851,20.983,3.1-9.478,6.85-20.9,6.85-20.983a4.594,4.594,0,0,1,4.265-3.318,3.624,3.624,0,0,1,1.336.216,4.711,4.711,0,0,1,2.973,4.481,5.153,5.153,0,0,1-.258,1.594Z" transform="translate(-399.389 -410.058)" fill="#fff"/><path d="M541.677,416.478l-10.944,33.434h-.043a4.637,4.637,0,0,1-3.231,3.146h-.043c-.043,0-.129.043-.173.043h-.086c-.043,0-.086.043-.129.043h-1.034c-.043,0-.086-.043-.13-.043h-.086c-.043,0-.129-.043-.172-.043h-.043a4.772,4.772,0,0,1-3.274-3.146L515.4,428.843,508.5,449.912a4.637,4.637,0,0,1-3.231,3.146h-.043c-.086,0-.13.043-.173.043h-.086c-.043,0-.086.043-.13.043h-1.034c-.043,0-.086-.043-.129-.043h-.086c-.086,0-.129-.043-.172-.043h-.044a4.7,4.7,0,0,1-3.274-3.146l-10.943-33.434v-.086a5.133,5.133,0,0,1-.259-1.594,4.712,4.712,0,0,1,2.973-4.481,3.623,3.623,0,0,1,1.336-.216,4.5,4.5,0,0,1,4.223,3.318c.043.086,3.791,11.5,6.893,20.983,3.1-9.478,6.85-20.9,6.85-20.983a4.81,4.81,0,0,1,2.671-3.015l.043-.044c.043,0,.086-.043.129-.043h.043c.043,0,.043-.043.086-.043h.086a.157.157,0,0,1,.129-.043l.043-.043c.086,0,.13,0,.173-.043h.043c.086,0,.129,0,.172-.044h.258c.086,0,.13,0,.173-.043h.388a.157.157,0,0,0,.129.043H516a.382.382,0,0,0,.215.044.33.33,0,0,0,.172.043c.043,0,.043,0,.043.043.086,0,.129,0,.173.043h.086a.153.153,0,0,0,.086.043h.043c.043,0,.086.043.13.043l.043.044a4.811,4.811,0,0,1,2.672,3.015c0,.086,3.748,11.5,6.85,20.983,3.1-9.478,6.85-20.9,6.85-20.983a4.594,4.594,0,0,1,4.265-3.318,3.622,3.622,0,0,1,1.336.216,4.711,4.711,0,0,1,2.973,4.481,5.152,5.152,0,0,1-.258,1.594Z" transform="translate(-433.703 -410.058)" fill="#fff"/><path d="M631.187,416.478l-10.944,33.434H620.2a4.639,4.639,0,0,1-3.232,3.146h-.043c-.043,0-.129.043-.172.043h-.086c-.043,0-.086.043-.129.043H615.5c-.043,0-.086-.043-.129-.043h-.086c-.043,0-.129-.043-.172-.043h-.043a4.772,4.772,0,0,1-3.274-3.146l-6.894-21.068-6.893,21.068a4.639,4.639,0,0,1-3.232,3.146h-.043c-.087,0-.129.043-.173.043h-.086c-.043,0-.086.043-.129.043h-1.035c-.043,0-.086-.043-.129-.043H593.1c-.086,0-.129-.043-.172-.043h-.043a4.694,4.694,0,0,1-3.274-3.146l-10.943-33.434v-.086a5.134,5.134,0,0,1-.258-1.594,4.712,4.712,0,0,1,2.972-4.481,3.626,3.626,0,0,1,1.336-.216,4.5,4.5,0,0,1,4.223,3.318c.043.086,3.791,11.5,6.893,20.983,3.1-9.478,6.85-20.9,6.85-20.983a4.812,4.812,0,0,1,2.671-3.015l.043-.044c.043,0,.086-.043.129-.043h.043c.043,0,.043-.043.086-.043h.086a.158.158,0,0,1,.13-.043l.043-.043c.086,0,.129,0,.172-.043h.043c.086,0,.129,0,.172-.044h.259c.086,0,.129,0,.172-.043h.388a.158.158,0,0,0,.129.043h.259a.382.382,0,0,0,.215.044.33.33,0,0,0,.173.043c.043,0,.043,0,.043.043.086,0,.129,0,.172.043h.086a.15.15,0,0,0,.086.043h.043c.043,0,.086.043.13.043l.043.044a4.812,4.812,0,0,1,2.671,3.015c0,.086,3.748,11.5,6.85,20.983,3.1-9.478,6.851-20.9,6.851-20.983a4.593,4.593,0,0,1,4.265-3.318,3.626,3.626,0,0,1,1.336.216,4.712,4.712,0,0,1,2.972,4.481,5.132,5.132,0,0,1-.258,1.594Z" transform="translate(-468.017 -410.058)" fill="#fff"/></g><path d="M680.7,448.031a1.85,1.85,0,0,1-1.85,1.85h0a1.85,1.85,0,0,1-1.85-1.85V396.85a1.85,1.85,0,0,1,1.85-1.85h0a1.85,1.85,0,0,1,1.85,1.85Z" transform="translate(-505.813 -395)" fill="#fff"/></g><path d="M794.8,494.084,767.2,460.419a1,1,0,0,1,.539-1.6l24.373-5.849a2.533,2.533,0,0,0,.762-4.6l-69.541-43.949a2.533,2.533,0,0,0-3.852,2.555l14.458,87.306a2.533,2.533,0,0,0,4.675.882l13.492-22.646a1,1,0,0,1,1.645-.1l25.7,32.961a4.543,4.543,0,0,0,6.139.964l8.247-5.608a4.544,4.544,0,0,0,.959-6.638Z" transform="translate(-495.757 -386.103)" fill="#fff"/></g><g transform="translate(217.541 329.169)"><g transform="translate(10.014)"><path d="M337.279,580.149c-2.874-12.031-1.524-23.822,2.963-32.987a35.106,35.106,0,0,0,1.946-26.3q-.446-1.366-.789-2.8c-3.456-14.47,2.608-28.317,13.544-30.929s22.6,7,26.06,21.469a34.86,34.86,0,0,1,.964,8.706,35.265,35.265,0,0,0,8.992,24.417,51.739,51.739,0,0,1,11.771,22.789c3.213,13.453,1.146,26.605-4.683,36.124a34.568,34.568,0,0,0-4.519,11.73c-1.277,6.893-5.612,12.391-11.752,13.859-6.623,1.582-13.493-1.972-17.711-8.416a36.878,36.878,0,0,0-8.964-9.374C346.83,602.305,340.184,592.313,337.279,580.149Z" transform="translate(-335.767 -486.706)" fill="url(#z)"/><path d="M366.615,513.818c.855,9.9,2.028,19.773,3.3,29.629.318,2.464.675,4.923,1.025,7.382l.525,3.69.556,3.685c.38,2.455.726,4.917,1.134,7.368l1.223,7.354c.878,4.892,1.714,9.791,2.684,14.666.481,2.438.914,4.886,1.445,7.315l1.558,7.292c2.175,9.7,4.595,19.351,7.5,28.86l.411-.122-1.9-7.2-.479-1.8-.435-1.81-.861-3.62-.868-3.618c-.292-1.206-.538-2.422-.81-3.632-.527-2.425-1.072-4.845-1.583-7.273-1.98-9.725-3.832-19.475-5.481-29.263-.787-4.9-1.617-9.794-2.37-14.7l-.575-3.678-.544-3.683c-.364-2.455-.728-4.91-1.068-7.368q-1.081-7.367-2.053-14.751c-.672-4.919-1.3-9.845-1.907-14.772Z" transform="translate(-347.593 -497.083)" fill="#fff" opacity="0.57"/></g><g transform="translate(0 71.097)"><path d="M334.348,655.584a27.767,27.767,0,0,1-5.573-17.687,19.693,19.693,0,0,0-4.658-14.012q-.524-.611-1.01-1.278c-4.9-6.739-4.751-15.2.331-18.89s13.171-1.225,18.07,5.515a19.53,19.53,0,0,1,2.372,4.294,19.793,19.793,0,0,0,9.9,10.7,29.033,29.033,0,0,1,10.981,9.259c4.555,6.266,6.319,13.508,5.361,19.677a19.354,19.354,0,0,0,.194,7.032c.824,3.837-.229,7.608-3.081,9.682-3.078,2.237-7.388,1.872-10.952-.556a20.658,20.658,0,0,0-6.644-2.925A27.7,27.7,0,0,1,334.348,655.584Z" transform="translate(-319.528 -602.002)" fill="url(#aa)"/><path d="M331.434,618.435c2.573,4.937,5.3,9.787,8.084,14.609.695,1.206,1.408,2.4,2.119,3.6l1.065,1.795,1.08,1.786c.725,1.188,1.433,2.386,2.171,3.565l2.214,3.54c1.506,2.341,2.993,4.694,4.543,7.007.773,1.158,1.523,2.33,2.32,3.472l2.374,3.435c3.211,4.549,6.537,9.019,10.083,13.313l.186-.151-2.531-3.313-.634-.827-.614-.842-1.224-1.687-1.227-1.685c-.41-.561-.8-1.136-1.2-1.7-.794-1.141-1.6-2.275-2.382-3.42q-4.674-6.9-9.129-13.953c-1.461-2.364-2.943-4.716-4.388-7.091l-1.089-1.778-1.074-1.787c-.717-1.191-1.433-2.382-2.137-3.58q-2.145-3.577-4.235-7.185-2.109-3.6-4.164-7.228Z" transform="translate(-324.092 -608.258)" fill="#fff" opacity="0.57"/></g></g><g transform="translate(539.52 324.98)"><g transform="translate(69.057 87.804)"><rect width="4.044" height="43.738" transform="translate(20.901 10.415)" fill="url(#ab)"/><path d="M997.539,709.854H962.115v-1.112a1.52,1.52,0,0,1,1.52-1.52H995.9a1.639,1.639,0,0,1,1.638,1.638Z" transform="translate(-956.904 -654.857)" fill="url(#ac)"/><rect width="47.333" height="13.424" rx="6.712" fill="url(#ad)"/></g><g transform="translate(32.052)"><path d="M925.015,687.941s-13.075,5.632-12.326,11.526c0,0,13.516-2.592,15.935-6.455s1.086-6.1,1.086-6.1Z" transform="translate(-900.939 -559.267)" fill="url(#ae)"/><path d="M934.392,678.144l.664,5.739a1.9,1.9,0,0,1-1.2,2.016,4.96,4.96,0,0,1-1.657.253,2.21,2.21,0,0,1-2.147-1.612l-1.286-4.641Z" transform="translate(-907.113 -555.906)" fill="url(#af)"/><path d="M958.609,606.741s-24.049-1.112-36.016,5.866.607,40.472.607,40.472,3.126.672,7.627-1.733c0,0-6.424-24.519,4.735-28.784a64.233,64.233,0,0,1,25.518-3.629l-2.4-11.434Z" transform="translate(-902.767 -528.508)" fill="url(#ag)"/><path d="M913.959,700.646c2.734-.6,10.844-3.959,12.075-3.914s2.977,1.89,2.977,1.89a3.279,3.279,0,0,1-.58,2.457c-2.09,1.629-6.591,4.621-11.824,4.948a8.778,8.778,0,0,1-7.49-2.776A10.7,10.7,0,0,1,913.959,700.646Z" transform="translate(-899.582 -563.032)" fill="url(#ah)"/><path d="M915.88,708.73c5.233-.327,9.734-3.319,11.824-4.948a10.212,10.212,0,0,1-3.862,3.363c-5.288,2.988-14.028,2.552-15.761,1.88-1.388-.539-.959-1.836.31-3.07A8.778,8.778,0,0,0,915.88,708.73Z" transform="translate(-898.854 -565.735)" fill="url(#ai)"/><path d="M941.433,693.017c-.179.678-2.095,2.712-3.2,3.846a2.178,2.178,0,0,1-2.026.609,5.614,5.614,0,0,1-1.45-.509,1.414,1.414,0,0,1-.547-1.924l2.8-5.093Z" transform="translate(-909.132 -560.431)" fill="url(#aj)"/><path d="M989.425,603.511s2.1,14.892-3.971,17.936-19.382,5.037-23.967,12.761-12.821,22.884-20.315,27.24c0,0-4.28-1.392-5.531-3.5,0,0,8.9-23.385,12.607-29.069,3.213-4.923,7.913-12.014,14.59-15.081,1.911-.878,2.061-2.906,1.725-4.982l-.613-3.781Z" transform="translate(-909.749 -527.295)" fill="url(#ak)"/><path d="M930.518,562.394c8.509,2.429,12.318-21.519,12.284-22.1l13.047,15.255s-7.774,13.678-19.512,15.135a13.849,13.849,0,0,1-7.615-1.117A12.191,12.191,0,0,0,930.518,562.394Z" transform="translate(-907.097 -503.06)" fill="url(#al)"/><path d="M901.316,563.157c3.709-1.524,6.855,1.517,6.855,1.517,3.675,3.761,6.589,5.661,8.9,6.321a12.191,12.191,0,0,1-1.8,7.171c-4.585-2.1-7.257-6.346-8.358-8.465a1.592,1.592,0,0,0-2.1-.712c-.786.38-1.6.96-1.647,1.748-.1,1.553-1.949,1.645-1.96,1.071a23.015,23.015,0,0,1,1.432-3.641s-4.262,2.733-5.92,3.779-3.072-.68-3.072-.68S897.608,564.681,901.316,563.157Z" transform="translate(-893.653 -511.661)" fill="url(#am)"/><path d="M992.106,522.975s-11.435-7.8-39.053,6.308c0,0-2.844,3.605-1.512,7.67s17.73,26.061,18.367,36.388c0,0,11.209,6.6,25.76.057C995.669,573.4,1000.549,546.129,992.106,522.975Z" transform="translate(-915.709 -495.596)" fill="url(#an)"/><path d="M970.533,504.5l7.318,11.1a2.519,2.519,0,0,1-.261,2.715c-1.244,1.559-3.842,3.654-8.276,2.3a3.884,3.884,0,0,1-2.646-2.816l-2.342-9.884Z" transform="translate(-920.746 -489.338)" fill="url(#ao)"/><path d="M1022.916,555.232c.774-5.383-13.45-15.815-13.45-15.815l4.982-15.105s27.142,19.369,21.434,35.188a11.059,11.059,0,0,1-3.527,5.09C1029.481,558.695,1025.583,556.245,1022.916,555.232Z" transform="translate(-938.051 -496.934)" fill="url(#ap)"/><path d="M991.6,575.949s16.09,4.493,19.428-.4a2.553,2.553,0,0,0,.417-1.09c2.667,1.013,6.565,3.463,9.439,9.358-7.64,6.01-22.369-.727-26.371-2.747a2.827,2.827,0,0,0-2.12-.178,19.3,19.3,0,0,1-5.264,1.059c-2.011-.111-4.168,7.155-7.59,5.315C979.536,587.263,981.091,574.849,991.6,575.949Z" transform="translate(-926.577 -516.156)" fill="url(#aq)"/><g transform="translate(28.712)"><path d="M947.308,491.942c-.011.189,3.32,11.714,5.021,17.586a3.121,3.121,0,0,0,4.2,2.009l1.319-.552c1.8-.755,4.953-3.08,5.129-5.026l-.6-13.921S947.547,487.686,947.308,491.942Z" transform="translate(-942.934 -483.809)" fill="url(#ar)"/><path d="M959.56,484.283a3.089,3.089,0,0,0-2.1-4.1,4.358,4.358,0,0,0-5.072,1.7,1.191,1.191,0,0,1-1.5.311.941.941,0,0,0-1.064.13,1.173,1.173,0,0,1-1.7-.356,3.553,3.553,0,0,0-4.292-1.689c-4.123,1.083-4.191,5.764-2.849,8.386s5.747,1.193,7.881-.375c1.623-1.193,3.942-.295,4.961.2a1.18,1.18,0,0,1,.631.805l1.152,5.173c1.282.126,2.541.356,3.8.6-.021-.385-.03-.713-.023-.956.048-1.716,2.043-2.916,2.917-3.359a1.167,1.167,0,0,0,.591-.707c.327-1.088.692-3.57-2.459-4.3A1.192,1.192,0,0,1,959.56,484.283Z" transform="translate(-940.215 -479.913)" fill="url(#as)"/><path d="M971.677,503.695s-2.143-4.669-.478-6,4.338-.951,4.066,2.591C974.929,504.687,971.677,503.695,971.677,503.695Z" transform="translate(-951.85 -486.457)" fill="url(#at)"/></g></g><g transform="translate(2.558 35.908)"><path d="M941.312,591.375c-.029,0-.058,0-.087,0l-37.589-.041a1.682,1.682,0,1,1,0-3.365l37.589.041a1.682,1.682,0,0,1,.083,3.362Z" transform="translate(-867.342 -557.246)" fill="url(#au)"/><path d="M848.326,538.145h31.305a5.967,5.967,0,0,1,5.4,3.421L899.5,572.254H860.6a3.626,3.626,0,0,1-3.373-2.294L846,541.564A2.5,2.5,0,0,1,848.326,538.145Z" transform="translate(-845.824 -538.145)" fill="url(#av)"/></g><g transform="translate(0 69.68)"><g transform="translate(8.557 3.362)"><path d="M857.13,675.982a1.627,1.627,0,0,1-.623-.125,1.511,1.511,0,0,1-.826-2.009l33.128-74.558a1.6,1.6,0,0,1,2.076-.8,1.511,1.511,0,0,1,.826,2.009l-33.128,74.558A1.583,1.583,0,0,1,857.13,675.982Z" transform="translate(-855.552 -598.364)" fill="url(#aw)"/><path d="M897.056,675.982a1.582,1.582,0,0,1-1.452-.925L862.476,600.5a1.512,1.512,0,0,1,.827-2.009,1.6,1.6,0,0,1,2.076.8l33.128,74.558a1.511,1.511,0,0,1-.827,2.009A1.623,1.623,0,0,1,897.056,675.982Z" transform="translate(-858.157 -598.364)" fill="url(#aw)"/><path d="M1023.429,675.982a1.626,1.626,0,0,1-.624-.125,1.512,1.512,0,0,1-.827-2.009l33.128-74.558a1.6,1.6,0,0,1,2.076-.8,1.511,1.511,0,0,1,.826,2.009l-33.128,74.558A1.583,1.583,0,0,1,1023.429,675.982Z" transform="translate(-919.303 -598.364)" fill="url(#ay)"/><path d="M1063.354,675.982a1.581,1.581,0,0,1-1.452-.925L1028.774,600.5a1.511,1.511,0,0,1,.827-2.009,1.6,1.6,0,0,1,2.075.8l33.129,74.558a1.511,1.511,0,0,1-.827,2.009A1.626,1.626,0,0,1,1063.354,675.982Z" transform="translate(-921.908 -598.364)" fill="url(#az)"/></g><path d="M995.564,594.9a1.82,1.82,0,0,0-.313-1.379,1.435,1.435,0,0,0-1.15-.607H843.391a1.68,1.68,0,0,0-1.445.886,2.122,2.122,0,0,0-.112,1.84l1.633,3.958a2.285,2.285,0,0,0,2.076,1.486H993.066a1.8,1.8,0,0,0,1.7-1.57Z" transform="translate(-841.675 -592.912)" fill="url(#ba)"/></g></g><g transform="translate(161.143 184.614)"><path d="M279.108,252.283c19.456.792,41.334,11.169,45.236,31.934,3.318,17.657-14.65,28.8-25.942,34.3a14.35,14.35,0,0,0-6.967,7.405c-3.214,7.744-11.011,21.414-25.211,18.38a1.015,1.015,0,0,1-.043-1.97c3.248-.877,7.657-2.763,9.813-6.747A8.617,8.617,0,0,0,269.025,323c-11.637-.97-34.694-6.311-40.279-33.014C221.195,253.87,279.108,252.283,279.108,252.283Z" transform="translate(-228.067 -252.283)" fill="url(#bb)"/><path d="M296.188,296.743s-2.774-11.994-14.556-8.112c-11.161,3.677-5.061,18.782,12.627,26.252a6.411,6.411,0,0,0,5.877-.466c6.619-4.113,21.786-15.3,10.823-25.876C303.879,281.714,296.188,296.743,296.188,296.743Z" transform="translate(-246.447 -265.501)" fill="#fff"/><g transform="translate(42.938 3.274)"><path d="M339.453,273.659a.922.922,0,0,1-.7-.326c-5.921-6.959-17.679-15-40.074-13.77a.943.943,0,0,1-.974-.873.925.925,0,0,1,.873-.974c12.78-.7,30.366,1.233,41.585,14.419a.925.925,0,0,1-.7,1.524Z" transform="translate(-297.699 -257.593)" fill="#fff"/><path d="M375.87,303.158a.925.925,0,0,1-.912-.778,26.1,26.1,0,0,0-1.622-5.193.925.925,0,0,1,1.707-.71,27.289,27.289,0,0,1,1.741,5.611.925.925,0,0,1-.915,1.07Z" transform="translate(-326.667 -272.281)" fill="#fff"/></g></g><g transform="translate(157.992 116.68)"><g transform="translate(0 22.261)"><path d="M327.955,179.227l-1.682.754-.009,0a.529.529,0,0,1-.433-.966h0l1.7-.755a.525.525,0,1,1,.426.961Z" transform="translate(-262.275 -178.217)" fill="#fff"/><path d="M318.964,183.484l-1.63.853-.009,0a.541.541,0,0,1-.5-.958h0l1.651-.855a.537.537,0,1,1,.495.954Z" transform="translate(-258.831 -179.846)" fill="#fff"/><path d="M310.256,188.272l-1.576.948-.008,0a.553.553,0,0,1-.57-.948h0l1.6-.952a.549.549,0,0,1,.562.943Z" transform="translate(-255.496 -181.679)" fill="#fff"/><path d="M301.849,193.569l-1.518,1.038-.008,0a.564.564,0,1,1-.638-.931h0l1.538-1.043a.561.561,0,1,1,.63.928Z" transform="translate(-252.278 -183.708)" fill="#fff"/><path d="M293.771,199.343l-1.456,1.124-.008.006a.576.576,0,0,1-.7-.913h0l1.476-1.13a.573.573,0,0,1,.7.91Z" transform="translate(-249.188 -185.92)" fill="#fff"/><path d="M286.036,205.572l-1.391,1.2-.007.007a.588.588,0,1,1-.77-.889v0l1.41-1.212a.584.584,0,0,1,.762.886Z" transform="translate(-246.231 -188.308)" fill="#fff"/><path d="M278.664,212.231l-1.321,1.28-.007.007a.6.6,0,1,1-.835-.861l0,0,1.341-1.289a.6.6,0,0,1,.826.86Z" transform="translate(-243.414 -190.861)" fill="#fff"/><path d="M271.675,219.293l-1.249,1.352-.007.007a.611.611,0,1,1-.9-.829v0l1.268-1.362a.608.608,0,1,1,.89.828Z" transform="translate(-240.746 -193.57)" fill="#fff"/><path d="M265.087,226.736l-1.173,1.42-.006.007a.623.623,0,1,1-.961-.794v0l1.191-1.431a.62.62,0,0,1,.952.793Z" transform="translate(-238.233 -196.425)" fill="#fff"/><path d="M258.924,234.528l-1.093,1.481-.006.009a.635.635,0,0,1-1.022-.754v0l1.111-1.495a.631.631,0,0,1,1.013.754Z" transform="translate(-235.885 -199.415)" fill="#fff"/><path d="M253.2,242.65l-1.009,1.539-.006.009a.646.646,0,0,1-1.081-.709v0l1.027-1.553a.643.643,0,1,1,1.072.71Z" transform="translate(-233.708 -202.533)" fill="#fff"/><path d="M247.937,251.08l-.922,1.592-.006.009a.658.658,0,1,1-1.139-.66v0l.939-1.608a.655.655,0,0,1,1.131.661Z" transform="translate(-231.707 -205.769)" fill="#fff"/><path d="M243.153,259.788l-.832,1.641,0,.01a.67.67,0,1,1-1.2-.606v0l.848-1.658a.666.666,0,0,1,1.186.607Z" transform="translate(-229.893 -209.113)" fill="#fff"/><path d="M238.869,268.751l-.737,1.684,0,.01a.682.682,0,1,1-1.249-.547v0l.754-1.7a.678.678,0,0,1,1.24.548Z" transform="translate(-228.272 -212.555)" fill="#fff"/><path d="M235.106,277.941l-.639,1.722,0,.011a.694.694,0,1,1-1.3-.482v0l.654-1.742a.69.69,0,1,1,1.292.485Z" transform="translate(-226.853 -216.086)" fill="#fff"/><path d="M231.884,287.332l-.538,1.756,0,.012a.705.705,0,0,1-1.349-.413v0l.552-1.778a.7.7,0,0,1,1.34.416Z" transform="translate(-225.643 -219.695)" fill="#fff"/><path d="M229.221,296.9l-.432,1.785,0,.012a.717.717,0,1,1-1.394-.337v0l.445-1.807a.713.713,0,0,1,1.385.34Z" transform="translate(-224.65 -223.371)" fill="#fff"/><path d="M227.138,306.609l-.323,1.808,0,.014a.729.729,0,0,1-1.435-.257v0l.335-1.833a.725.725,0,0,1,1.427.26Z" transform="translate(-223.881 -227.105)" fill="#fff"/><path d="M225.653,316.435l-.212,1.825v.014a.741.741,0,0,1-1.471-.171v0l.222-1.851a.737.737,0,1,1,1.463.176Z" transform="translate(-223.343 -230.884)" fill="#fff"/><path d="M224.766,326.336l-.1,1.833v.014a.752.752,0,1,1-1.5-.085v0l.111-1.859a.748.748,0,1,1,1.494.089Z" transform="translate(-223.035 -234.692)" fill="#fff"/><path d="M224.468,336.274l0,1.835v.013a.756.756,0,1,1-1.512,0h0v-1.862a.755.755,0,1,1,1.51,0Z" transform="translate(-222.958 -238.515)" fill="#fff"/><path d="M224.681,346.222l.109,1.833v.013a.76.76,0,0,1-1.518.091h0l-.108-1.859a.759.759,0,0,1,1.515-.088Z" transform="translate(-223.037 -242.345)" fill="#fff"/><path d="M225.464,356.139l.213,1.824v.013a.764.764,0,1,1-1.518.178h0l-.214-1.85a.763.763,0,0,1,1.516-.175Z" transform="translate(-223.335 -246.161)" fill="#fff"/><path d="M226.808,366l.315,1.81,0,.012a.768.768,0,0,1-1.513.264h0l-.317-1.836a.767.767,0,0,1,1.511-.261Z" transform="translate(-223.849 -249.956)" fill="#fff"/><path d="M228.7,375.773l.415,1.79,0,.013a.772.772,0,0,1-1.5.348h0l-.419-1.816a.771.771,0,1,1,1.5-.347Z" transform="translate(-224.575 -253.718)" fill="#fff"/><path d="M231.133,385.43l.513,1.765,0,.012a.776.776,0,1,1-1.49.434h0l-.518-1.791a.775.775,0,1,1,1.489-.431Z" transform="translate(-225.508 -257.434)" fill="#fff"/><path d="M234.093,394.936l.61,1.735,0,.012a.78.78,0,1,1-1.472.517h0l-.616-1.76a.779.779,0,0,1,1.471-.515Z" transform="translate(-226.644 -261.093)" fill="#fff"/><path d="M237.57,404.264l.7,1.7,0,.012a.784.784,0,0,1-1.449.6h0l-.712-1.724a.783.783,0,0,1,1.448-.6Z" transform="translate(-227.98 -264.684)" fill="#fff"/><path d="M241.557,413.386l.8,1.656.006.012a.789.789,0,0,1-1.421.683h0l-.806-1.681a.787.787,0,1,1,1.42-.681Z" transform="translate(-229.512 -268.195)" fill="#fff"/><path d="M246.042,422.276l.887,1.608.007.012a.793.793,0,0,1-1.388.766h0l-.9-1.633a.791.791,0,0,1,1.387-.762Z" transform="translate(-231.236 -271.617)" fill="#fff"/><path d="M251.016,430.9l.976,1.556.007.012a.8.8,0,1,1-1.349.847h0l-.988-1.58a.8.8,0,0,1,1.349-.844Z" transform="translate(-233.149 -274.937)" fill="#fff"/><path d="M256.468,439.221l1.063,1.5.008.012a.8.8,0,1,1-1.305.927h0l-1.077-1.521a.8.8,0,1,1,1.3-.924Z" transform="translate(-235.245 -278.141)" fill="#fff"/><path d="M262.385,447.214l1.147,1.432.009.011a.8.8,0,0,1-1.256,1.006h0l-1.163-1.455a.8.8,0,0,1,1.256-1Z" transform="translate(-237.521 -281.22)" fill="#fff"/><path d="M268.757,454.846l1.229,1.362.01.011a.809.809,0,1,1-1.2,1.083h0l-1.247-1.385a.807.807,0,0,1,1.2-1.08Z" transform="translate(-239.972 -284.159)" fill="#fff"/><path d="M275.572,462.086l1.309,1.285.01.01a.813.813,0,1,1-1.138,1.16h0l-1.328-1.308a.811.811,0,1,1,1.138-1.157Z" transform="translate(-242.595 -286.947)" fill="#fff"/><path d="M282.813,468.9l1.383,1.2.01.01a.816.816,0,1,1-1.072,1.231h0l-1.4-1.225a.815.815,0,0,1,1.072-1.228Z" transform="translate(-245.382 -289.573)" fill="#fff"/><path d="M290.441,475.283l1.451,1.125.011.009a.821.821,0,0,1-1.006,1.3h0l-1.472-1.144a.819.819,0,1,1,1.006-1.294Z" transform="translate(-248.317 -292.03)" fill="#fff"/><path d="M298.422,481.226l1.512,1.042.011.008a.825.825,0,1,1-.937,1.358h0l-1.533-1.06a.824.824,0,0,1,.937-1.355Z" transform="translate(-251.388 -294.319)" fill="#fff"/><path d="M306.718,486.72l1.566.96.011.007a.829.829,0,1,1-.866,1.413h0l-1.587-.976a.828.828,0,1,1,.867-1.41Z" transform="translate(-254.58 -296.434)" fill="#fff"/><path d="M315.3,491.765l1.614.877.011.006a.833.833,0,0,1-.795,1.464h0l-1.635-.892a.831.831,0,0,1,.8-1.46Z" transform="translate(-257.881 -298.377)" fill="#fff"/><path d="M324.125,496.362l1.657.794.011.006a.837.837,0,0,1-.723,1.509h0l-1.678-.807a.836.836,0,1,1,.725-1.506Z" transform="translate(-261.278 -300.146)" fill="#fff"/><path d="M333.174,500.511l1.694.712.012,0a.841.841,0,0,1-.652,1.55h0l-1.716-.724a.84.84,0,0,1,.653-1.548Z" transform="translate(-264.759 -301.743)" fill="#fff"/><path d="M342.414,504.217l1.726.631.011,0a.845.845,0,1,1-.58,1.587h0l-1.748-.641a.844.844,0,1,1,.582-1.584Z" transform="translate(-268.313 -303.17)" fill="#fff"/><path d="M351.819,507.487l1.752.551.01,0a.849.849,0,1,1-.509,1.62h0l-1.773-.56a.848.848,0,0,1,.511-1.617Z" transform="translate(-271.931 -304.428)" fill="#fff"/><path d="M361.361,510.322l1.777.472.01,0a.853.853,0,1,1-.438,1.649h0l-1.8-.48a.852.852,0,0,1,.44-1.646Z" transform="translate(-275.601 -305.52)" fill="#fff"/><path d="M371.026,512.733l1.8.394.011,0a.857.857,0,1,1-.368,1.674h0l-1.819-.4a.856.856,0,1,1,.369-1.672Z" transform="translate(-279.318 -306.447)" fill="#fff"/><path d="M380.787,514.722l1.814.317.01,0a.861.861,0,1,1-.3,1.7h0l-1.835-.324a.86.86,0,1,1,.3-1.693Z" transform="translate(-283.072 -307.213)" fill="#fff"/><path d="M390.626,516.295l1.827.241h.01a.865.865,0,1,1-.226,1.716h0l-1.847-.246a.864.864,0,0,1,.228-1.713Z" transform="translate(-286.856 -307.818)" fill="#fff"/><path d="M400.524,517.454l1.834.165h.01a.869.869,0,1,1-.155,1.731h0l-1.855-.169a.868.868,0,1,1,.158-1.728Z" transform="translate(-290.662 -308.264)" fill="#fff"/><path d="M410.466,518.2l1.838.089h.01a.873.873,0,0,1-.084,1.745h0l-1.859-.093a.872.872,0,1,1,.087-1.741Z" transform="translate(-294.486 -308.553)" fill="#fff"/><path d="M420.422,518.545l1.838.017h.01a.877.877,0,1,1-.016,1.754h0L420.4,520.3a.876.876,0,0,1,.018-1.752Z" transform="translate(-298.314 -308.684)" fill="#fff"/><path d="M430.383,518.47l1.839-.052h.01a.881.881,0,0,1,.05,1.762h0l-1.859.051a.88.88,0,0,1-.048-1.76Z" transform="translate(-302.144 -308.635)" fill="#fff"/><path d="M440.34,518.019l1.837-.118h.009a.886.886,0,1,1,.114,1.767h0l-1.856.118a.884.884,0,0,1-.112-1.765Z" transform="translate(-305.972 -308.436)" fill="#fff"/><path d="M450.278,517.216l1.831-.183h.009a.889.889,0,1,1,.176,1.77h0l-1.85.181a.888.888,0,1,1-.173-1.768Z" transform="translate(-309.792 -308.103)" fill="#fff"/><path d="M460.184,516.074l1.825-.243h.009a.894.894,0,1,1,.236,1.772h0l-1.843.243a.892.892,0,1,1-.233-1.769Z" transform="translate(-313.6 -307.64)" fill="#fff"/><path d="M470.05,514.61l1.817-.3h.009a.9.9,0,1,1,.294,1.77h0l-1.833.3a.9.9,0,1,1-.292-1.769Z" transform="translate(-317.392 -307.055)" fill="#fff"/><path d="M479.867,512.837l1.807-.356.008,0a.9.9,0,0,1,.349,1.769h0l-1.823.358a.9.9,0,0,1-.347-1.767Z" transform="translate(-321.164 -306.352)" fill="#fff"/><path d="M489.629,510.77l1.793-.409.007,0a.906.906,0,1,1,.4,1.767h0l-1.809.41a.9.9,0,0,1-.4-1.764Z" transform="translate(-324.915 -305.537)" fill="#fff"/><path d="M499.325,508.425l1.783-.459.007,0a.91.91,0,0,1,.454,1.762h0l-1.8.461a.908.908,0,1,1-.451-1.76Z" transform="translate(-328.641 -304.617)" fill="#fff"/><path d="M508.953,505.817l1.771-.507.007,0a.914.914,0,1,1,.5,1.757h0l-1.786.509a.912.912,0,0,1-.5-1.755Z" transform="translate(-332.34 -303.596)" fill="#fff"/><path d="M518.518,502.955l1.759-.552.006,0a.918.918,0,0,1,.551,1.751h0l-1.773.554a.916.916,0,1,1-.547-1.749Z" transform="translate(-336.014 -302.479)" fill="#fff"/><path d="M528.014,499.855l1.746-.6.006,0a.922.922,0,1,1,.6,1.744h0l-1.759.6a.92.92,0,1,1-.592-1.743Z" transform="translate(-339.662 -301.271)" fill="#fff"/><path d="M537.433,496.53l1.732-.636.006,0a.926.926,0,1,1,.638,1.738h0l-1.745.638a.925.925,0,1,1-.635-1.737Z" transform="translate(-343.279 -299.978)" fill="#fff"/><path d="M546.775,492.992l1.718-.674.005,0a.93.93,0,0,1,.68,1.731h0l-1.73.676a.929.929,0,1,1-.676-1.73Z" transform="translate(-346.867 -298.604)" fill="#fff"/><path d="M556.042,489.253l1.7-.71,0,0a.934.934,0,1,1,.719,1.724h0l-1.714.712a.932.932,0,1,1-.715-1.722Z" transform="translate(-350.426 -297.154)" fill="#fff"/><path d="M565.226,485.326l1.688-.743,0,0a.938.938,0,1,1,.755,1.717h0l-1.7.745a.937.937,0,0,1-.752-1.716Z" transform="translate(-353.952 -295.633)" fill="#fff"/><path d="M574.338,481.234l1.677-.771,0,0a.942.942,0,1,1,.787,1.711h0l-1.685.773a.941.941,0,1,1-.784-1.711Z" transform="translate(-357.45 -294.051)" fill="#fff"/><path d="M583.389,477l1.667-.795h0a.946.946,0,1,1,.815,1.708h0l-1.674.795a.945.945,0,1,1-.811-1.707Z" transform="translate(-360.924 -292.418)" fill="#fff"/><path d="M592.39,472.654l1.659-.813a.95.95,0,1,1,.841,1.7l0,0-1.665.813a.949.949,0,1,1-.832-1.706Z" transform="translate(-364.378 -290.742)" fill="#fff"/><path d="M601.353,468.218l1.654-.828a.954.954,0,1,1,.857,1.7h0l-1.659.827a.953.953,0,1,1-.85-1.706Z" transform="translate(-367.816 -289.035)" fill="#fff"/><path d="M610.282,463.72l1.65-.837a.958.958,0,1,1,.869,1.708h0l-1.654.836a.957.957,0,0,1-.863-1.709Z" transform="translate(-371.24 -287.306)" fill="#fff"/><path d="M619.195,459.184l1.649-.842a.962.962,0,0,1,.875,1.714h0l-1.651.84a.961.961,0,0,1-.873-1.713Z" transform="translate(-374.657 -285.565)" fill="#fff"/><path d="M628.1,454.635l1.65-.842a.966.966,0,0,1,.879,1.721h0l-1.651.839a.965.965,0,0,1-.876-1.72Z" transform="translate(-378.071 -283.82)" fill="#fff"/><path d="M637.018,450.1l1.653-.837a.97.97,0,1,1,.877,1.731h0l-1.653.834a.969.969,0,1,1-.876-1.729Z" transform="translate(-381.487 -282.083)" fill="#fff"/><path d="M645.952,445.6l1.659-.828a.974.974,0,1,1,.871,1.743h0l-1.656.824a.973.973,0,1,1-.871-1.741Z" transform="translate(-384.909 -280.362)" fill="#fff"/><path d="M654.919,441.157l1.666-.814a.978.978,0,0,1,.858,1.757l0,0-1.661.81a.977.977,0,1,1-.86-1.755Z" transform="translate(-388.343 -278.667)" fill="#fff"/><path d="M663.941,436.821l1.677-.792a.969.969,0,0,1,.828,1.752h0l-1.668.794h0a.971.971,0,1,1-.835-1.754Z" transform="translate(-391.798 -277.015)" fill="#fff"/><path d="M673.02,432.6l1.688-.768a.96.96,0,0,1,.8,1.747h0l-1.677.77,0,0a.962.962,0,1,1-.8-1.749Z" transform="translate(-395.276 -275.409)" fill="#fff"/><path d="M682.161,428.522l1.7-.74a.951.951,0,1,1,.758,1.743h0l-1.689.741,0,0a.953.953,0,1,1-.766-1.746Z" transform="translate(-398.776 -273.859)" fill="#fff"/><path d="M691.374,424.608l1.715-.707a.942.942,0,1,1,.717,1.741h0l-1.7.707-.005,0a.944.944,0,1,1-.725-1.744Z" transform="translate(-402.304 -272.375)" fill="#fff"/><path d="M700.669,420.888l1.732-.669a.933.933,0,0,1,.672,1.74h0l-1.717.668-.006,0a.935.935,0,1,1-.679-1.743Z" transform="translate(-405.862 -270.967)" fill="#fff"/><path d="M710.057,417.393l1.751-.622a.924.924,0,1,1,.618,1.741l0,0-1.734.622-.007,0a.926.926,0,1,1-.625-1.744Z" transform="translate(-409.454 -269.648)" fill="#fff"/><path d="M719.544,414.171l1.769-.569a.915.915,0,0,1,.56,1.741l-.006,0-1.751.569-.008,0a.917.917,0,1,1-.567-1.745Z" transform="translate(-413.083 -268.436)" fill="#fff"/><path d="M729.127,411.24l1.786-.514a.906.906,0,0,1,.5,1.741l-.006,0-1.769.513-.008,0a.908.908,0,1,1-.507-1.744Z" transform="translate(-416.749 -267.338)" fill="#fff"/><path d="M738.8,408.62l1.8-.453a.9.9,0,1,1,.437,1.739l-.006,0-1.784.454-.009,0a.9.9,0,1,1-.444-1.743Z" transform="translate(-420.449 -266.36)" fill="#fff"/><path d="M748.564,406.334l1.818-.389a.888.888,0,0,1,.372,1.736h-.007l-1.8.39-.009,0a.891.891,0,1,1-.378-1.741Z" transform="translate(-424.182 -265.51)" fill="#fff"/><path d="M758.405,404.4l1.833-.321a.879.879,0,0,1,.3,1.731h-.008l-1.811.322-.01,0a.882.882,0,1,1-.309-1.736Z" transform="translate(-427.946 -264.799)" fill="#fff"/><path d="M768.318,402.858l1.844-.247a.87.87,0,0,1,.231,1.724h-.008l-1.822.249h-.011a.872.872,0,0,1-.236-1.728Z" transform="translate(-431.735 -264.237)" fill="#fff"/><path d="M778.289,401.725l1.854-.167a.861.861,0,1,1,.155,1.714h-.009l-1.83.17h-.012a.863.863,0,1,1-.16-1.719Z" transform="translate(-435.547 -263.835)" fill="#fff"/><path d="M788.305,401.036l1.86-.081a.851.851,0,1,1,.075,1.7h-.01l-1.836.086h-.012a.854.854,0,0,1-.08-1.707Z" transform="translate(-439.375 -263.605)" fill="#fff"/><path d="M798.348,400.817l1.863.01a.843.843,0,0,1-.009,1.686h-.01l-1.837,0h-.013a.845.845,0,0,1,0-1.691Z" transform="translate(-443.212 -263.552)" fill="#fff"/><path d="M808.394,401.054l1.862.108a.834.834,0,0,1-.1,1.665h-.011l-1.835-.1H808.3a.836.836,0,0,1,.093-1.67Z" transform="translate(-447.049 -263.643)" fill="#fff"/><path d="M818.417,401.831l1.852.212a.825.825,0,1,1-.187,1.639h-.012l-1.824-.2h-.014a.827.827,0,1,1,.184-1.645Z" transform="translate(-450.878 -263.939)" fill="#fff"/><path d="M828.379,403.179l1.837.322a.815.815,0,1,1-.282,1.606l-.012,0-1.809-.311-.014,0a.819.819,0,0,1,.278-1.614Z" transform="translate(-454.682 -264.453)" fill="#fff"/><path d="M838.245,405.129l1.814.436a.807.807,0,0,1-.377,1.569l-.013,0-1.785-.424-.015,0a.809.809,0,1,1,.374-1.575Z" transform="translate(-458.449 -265.197)" fill="#fff"/><path d="M847.968,407.7l1.782.554a.8.8,0,0,1-.474,1.524l-.013,0-1.752-.54-.016,0a.8.8,0,0,1,.471-1.531Z" transform="translate(-462.162 -266.177)" fill="#fff"/><path d="M857.5,410.912l1.74.673a.789.789,0,1,1-.569,1.471l-.013,0-1.712-.657-.015-.006a.792.792,0,0,1,.567-1.478Z" transform="translate(-465.802 -267.402)" fill="#fff"/><path d="M866.791,414.787l1.685.81A.78.78,0,0,1,867.8,417l-.016-.008-1.651-.787-.018-.009a.783.783,0,0,1,.673-1.413Z" transform="translate(-469.345 -268.878)" fill="#fff"/><path d="M875.734,419.422l1.608.959a.771.771,0,0,1-.79,1.324l-.017-.01-1.572-.932-.019-.011a.774.774,0,0,1,.789-1.331Z" transform="translate(-472.755 -270.643)" fill="#fff"/><path d="M884.21,424.881l1.5,1.12a.762.762,0,1,1-.911,1.222l-.018-.014-1.466-1.086-.02-.015a.764.764,0,1,1,.91-1.228Z" transform="translate(-475.985 -272.719)" fill="#fff"/><path d="M892.055,431.23l1.362,1.3a.753.753,0,0,1-1.038,1.091l-.02-.019-1.323-1.251-.022-.02a.756.756,0,0,1,1.038-1.1Z" transform="translate(-478.972 -275.132)" fill="#fff"/><path d="M899.045,438.539l1.167,1.478a.728.728,0,0,1-1.14.908l-.021-.026-1.138-1.416-.021-.025a.736.736,0,1,1,1.148-.923Z" transform="translate(-481.636 -277.906)" fill="#fff"/><path d="M904.9,446.8l.92,1.646a.7.7,0,0,1-1.224.69l-.018-.031-.9-1.577-.017-.031a.71.71,0,1,1,1.234-.7Z" transform="translate(-483.874 -281.042)" fill="#fff"/><path d="M909.306,455.928l.6,1.8a.676.676,0,0,1-1.281.431l-.014-.041-.582-1.711-.014-.041a.684.684,0,0,1,1.295-.441Z" transform="translate(-485.563 -284.5)" fill="#fff"/><path d="M911.828,465.752l.223,1.875a.65.65,0,0,1-1.291.16l0-.038-.23-1.8,0-.038a.658.658,0,0,1,1.305-.166Z" transform="translate(-486.538 -288.223)" fill="#fff"/><path d="M912.3,475.866l-.142,1.881a.624.624,0,0,1-1.245-.088l0-.037.121-1.809,0-.036a.632.632,0,0,1,1.262.084Z" transform="translate(-486.689 -292.062)" fill="#fff"/><path d="M910.639,485.889l-.518,1.816a.6.6,0,0,1-1.151-.323l.01-.037.482-1.746.01-.037a.606.606,0,1,1,1.168.322Z" transform="translate(-485.937 -295.869)" fill="#fff"/><path d="M906.91,495.394l-.916,1.656a.572.572,0,0,1-1-.549l.02-.038.861-1.589.02-.037a.58.58,0,1,1,1.019.552Z" transform="translate(-484.393 -299.479)" fill="#fff"/><path d="M901.022,503.8l-1.318,1.363a.545.545,0,0,1-.787-.755l.032-.035,1.243-1.306.032-.034a.554.554,0,1,1,.8.763Z" transform="translate(-482.033 -302.673)" fill="#fff"/><path d="M893.824,510.371l-.471.284a.526.526,0,0,1-.546-.9l.012-.007.445-.273.012-.007a.528.528,0,0,1,.552.9Z" transform="translate(-479.653 -305.175)" fill="#fff"/></g><g transform="translate(66.703)"><path d="M343.066,160.164l-.322,9.051,6.268-3.673Z" transform="translate(-335.581 -149.036)" fill="url(#bc)"/><path d="M379.5,149.5l-25.206,20.571a2.293,2.293,0,0,1-3.279-.394l-19.7-26.085a.919.919,0,0,1,.875-1.461Z" transform="translate(-331.128 -142.117)" fill="url(#bd)"/><path d="M343.27,157.835l40.884-3.749-37.717,7.969-.2,2.506Z" transform="translate(-335.783 -146.705)" fill="url(#be)"/><path d="M348.131,169.5l-5.387,2.343,3.491-4.831Z" transform="translate(-335.581 -151.66)" fill="url(#bf)"/></g></g><g transform="translate(117.124 275.539)"><path d="M224.224,403.425c6.039,4.026,11.575,13.085.5,27.681C214.8,444.2,204.6,452.746,206.105,460.8s-10.263,28.353-34.222,15.1c-23.654-13.085-19.125-38.249,9.562-47.811C198.238,422.488,202.113,388.685,224.224,403.425Z" transform="translate(-156.682 -399.735)" fill="url(#bg)"/><path d="M283.414,487.323s-9.371,11.222-18.807,2.108l-3.646,8.455s13.78,10.67,24.232-6.118Z" transform="translate(-196.658 -433.312)" fill="url(#bh)"/><path d="M248.139,453.1a17.757,17.757,0,0,0-17.38,4.428,4.462,4.462,0,0,0-1.285,4.445c1.935,7.124,7.04,28.171,2.564,37.277,0,0,7.889,8.7,16.495,1.687,0,0,3.861-16.829,8.919-24.217,3.491-5.1-5.568-19.153-7.86-22.548A2.681,2.681,0,0,0,248.139,453.1Z" transform="translate(-184.528 -419.928)" fill="url(#bi)"/><path d="M249.47,431.514s-5.249,10.279-6.17,15a8.229,8.229,0,0,0,8.362-.228s1.851-10.718,2.71-12.568Z" transform="translate(-189.887 -411.917)" fill="url(#bj)"/><g transform="translate(54.329 6.033)"><path d="M263.517,420.054s.978,17.28-6.292,17.522-7.976-12.044-7.976-12.044,2.147-7.762,5.607-8.667S263.517,420.054,263.517,420.054Z" transform="translate(-246.497 -412.285)" fill="url(#bk)"/><path d="M261.1,411.955s3.321,3.4,2.751,5.51-7.7-.1-9.452-1.1l-5.885,6.264s.181-9.28,4.241-12.137S261.1,411.955,261.1,411.955Z" transform="translate(-246.214 -409.519)" fill="url(#bl)"/><path d="M249.741,428.439s-.886-5.927-3.783-4.26.213,6.26,2.476,5.973Z" transform="translate(-244.786 -415.025)" fill="url(#bm)"/></g><path d="M257.511,588.416c-.029.764,1.312,6.824,2.042,10.057a5.325,5.325,0,0,1-.573,3.819L233.7,644.843a5.815,5.815,0,0,0-.664,1.656,36.525,36.525,0,0,0-.923,11.343l1.308,2.716-5.656-1.284-1.23-15.19,1.6-.977a7.612,7.612,0,0,0,3.078-3.6c2.286-5.553,7.963-19.689,9.427-26.577C242.3,605.1,251,598.738,251,598.738l-1.527-3.611Z" transform="translate(-183.46 -472.067)" fill="url(#bn)"/><path d="M218.334,687.932s3.054-4.843,3.414-6.728,1.36-5.214,3.243-4.212c0,0,.887,9.157.581,12.735s4.045,3.463,4.045,3.463a4.064,4.064,0,0,1,2.077,1.046,1.019,1.019,0,0,1-.683,1.713,24.483,24.483,0,0,1-6.06-.343,1.854,1.854,0,0,1-1.5-1.711l-.627-10.539-3.853,4.865Z" transform="translate(-180.317 -505.952)" fill="url(#bo)"/><path d="M244.467,598.771s-.892,38.062-1.012,43.467.853,17.386,6.272,20.966l-2.358,1.746a31.515,31.515,0,0,1-5.826-7.325c-3.234-5.415-4.212-6.4-4.212-6.4l1.073-2.2a4.832,4.832,0,0,0,.392-3.1c-1.169-5.668-5.076-24.52-6.142-28.58-1.258-4.792-1.347-11.192,3.029-16.549S244.467,598.771,244.467,598.771Z" transform="translate(-185.519 -475.644)" fill="url(#bp)"/><path d="M242.059,699.344a.332.332,0,0,1-.335-.285c-.181-1.268-.931-6.356-1.545-7.674-.7-1.508-3-7.858,0-8.4,0,0,7.467,10.91,8.9,12.381a2.81,2.81,0,0,0,3.242.513,5.4,5.4,0,0,1,2.45,1.759.989.989,0,0,1-.779,1.589l-5.03.048a3.538,3.538,0,0,1-3.318-2.23c-.886-2.211-2.406-5.455-4.178-6.893l.921,8.819a.335.335,0,0,1-.33.37Z" transform="translate(-188.114 -508.322)" fill="url(#bq)"/><path d="M246.162,523.821s-1.133,3.613.608,9.563l10.8,37.72a1.168,1.168,0,0,1-.73,1.421,72.054,72.054,0,0,1-28.351,3.438,1.647,1.647,0,0,1-1.5-1.281c-.955-4.3-4.215-18.972-4.886-21.987-2.557-11.487-5.034-22.411,7.528-29.9C235.42,525.273,240.441,525.271,246.162,523.821Z" transform="translate(-180.966 -446.91)" fill="url(#br)"/><path d="M235.787,466.814s-2.174,31.073,17.9,15.466c0,0,2.965-2.8,5.105-3.142,1.153-.183,2.454-.306,3.409-.38a.43.43,0,0,1,.282.78,5.683,5.683,0,0,1-2.377,1.088c-1.514.157.1,1.267-1.549,4.167s-4.005,1.806-4.005,1.806-23,23.557-27.6-17.527C226.8,461.429,234.15,461.836,235.787,466.814Z" transform="translate(-183.621 -424.059)" fill="url(#bs)"/><g transform="translate(79.047 45.364)"><path d="M298.74,474.224l-6.83-.9a2.163,2.163,0,0,0-2.158,1.225l-4.493,9.93c-.845,1.484-.244,3.453,1.125,3.68l5.484.7a1.343,1.343,0,0,0,1.36-.835l6.076-12.128C299.656,475.2,299.363,474.327,298.74,474.224Z" transform="translate(-284.87 -473.301)" fill="url(#bt)"/></g><path d="M298.164,490.43s4.592-6.683,4.058-7.506-4.559-2-5.5-2.279S293.994,486.428,298.164,490.43Z" transform="translate(-209.907 -430.749)" fill="url(#bu)"/><path d="M179.54,483a.251.251,0,0,0,.092-.485,16.7,16.7,0,0,1-8.391-23.683c3.266-5.822,9.527-9.076,15.581-12.222l.729-.379c6.546-3.409,12.925-7.469,15.267-14.042a.252.252,0,1,0-.474-.169c-2.283,6.408-8.571,10.4-15.026,13.764l-.729.379c-6.12,3.181-12.448,6.469-15.788,12.423a17.2,17.2,0,0,0,8.644,24.4A.262.262,0,0,0,179.54,483Z" transform="translate(-161.26 -412.047)" fill="#fff" opacity="0.75"/><path d="M189.119,496.765a.251.251,0,0,0,.062-.5c-5.092-1.288-9.345-4.473-11.376-8.519-2.289-4.561-1.563-10.244,1.727-13.513a.251.251,0,1,0-.355-.356c-3.44,3.417-4.206,9.345-1.822,14.095,2.1,4.175,6.47,7.458,11.7,8.78A.235.235,0,0,0,189.119,496.765Z" transform="translate(-164.078 -428.132)" fill="#fff" opacity="0.75"/></g><g transform="translate(466.243 84.446)"><path d="M761.878,91.624l-34.1-1.774a4.633,4.633,0,0,0-4.929,4.833l.882,31.364a4.6,4.6,0,0,0,4.921,4.391l32.384-1.6a4.455,4.455,0,0,0,4.073-4.362l.789-28.094A4.484,4.484,0,0,0,761.878,91.624Z" transform="translate(-722.843 -89.843)" fill="url(#bv)"/><g transform="translate(8.11 7.342)"><path d="M748.839,127.441A12.846,12.846,0,1,1,761.685,114.6,12.86,12.86,0,0,1,748.839,127.441Zm0-23.539A10.693,10.693,0,1,0,759.532,114.6,10.705,10.705,0,0,0,748.839,103.9Z" transform="translate(-735.994 -101.75)" fill="#fff"/><path d="M750.3,124.07v-9.235a1.273,1.273,0,0,1,1.923-1.1L760,118.357a1.273,1.273,0,0,1,0,2.19l-7.782,4.617A1.273,1.273,0,0,1,750.3,124.07Z" transform="translate(-741.478 -106.277)" fill="#fff" fill-rule="evenodd"/></g></g><g transform="translate(128.834 126.944)"><path d="M214.708,160.542l-34.1-1.774a4.633,4.633,0,0,0-4.929,4.833l.882,31.364a4.6,4.6,0,0,0,4.921,4.391l32.384-1.6a4.455,4.455,0,0,0,4.073-4.362l.79-28.094A4.484,4.484,0,0,0,214.708,160.542Z" transform="translate(-175.673 -158.761)" fill="url(#bw)"/><g transform="translate(1.552 8.165)"><path d="M209.531,194.2h-18.19a1.543,1.543,0,0,1-1.478-1.1l-5.143-17.347-5.188-.677a1.541,1.541,0,1,1,.4-3.057l6.182.806a1.541,1.541,0,0,1,1.278,1.091l5.1,17.2h15.761l2.331-12.315a1.542,1.542,0,0,1,3.03.573l-2.568,13.57A1.542,1.542,0,0,1,209.531,194.2Z" transform="translate(-178.19 -172.002)" fill="#fff"/><path d="M216.091,183.083H192.042a1.542,1.542,0,0,1,0-3.083h24.049a1.542,1.542,0,1,1,0,3.083Z" transform="translate(-182.909 -175.068)" fill="#fff"/><g transform="translate(15.916 5.24)"><path d="M205.542,195.916A1.541,1.541,0,0,1,204,194.374V182.042a1.542,1.542,0,0,1,3.083,0v12.333A1.541,1.541,0,0,1,205.542,195.916Z" transform="translate(-204 -180.5)" fill="#fff"/><path d="M219.542,195.916A1.541,1.541,0,0,1,218,194.374V182.042a1.542,1.542,0,1,1,3.083,0v12.333A1.541,1.541,0,0,1,219.542,195.916Z" transform="translate(-209.367 -180.5)" fill="#fff"/></g><path d="M216.008,194.083H195.042a1.542,1.542,0,0,1,0-3.083h20.966a1.542,1.542,0,1,1,0,3.083Z" transform="translate(-184.059 -179.285)" fill="#fff"/><g transform="translate(13.954 23.691)"><path d="M205.118,212.571a2.15,2.15,0,1,1-2.15-2.15A2.15,2.15,0,0,1,205.118,212.571Z" transform="translate(-200.818 -210.421)" fill="#fff"/><path d="M226.37,212.571a2.15,2.15,0,1,1-2.15-2.15A2.15,2.15,0,0,1,226.37,212.571Z" transform="translate(-208.965 -210.421)" fill="#fff"/></g></g></g><g transform="translate(573.347 209.163)"><path d="M935.567,293.876l-34.1-1.774a4.633,4.633,0,0,0-4.929,4.833l.881,31.364a4.6,4.6,0,0,0,4.922,4.391l32.384-1.6a4.455,4.455,0,0,0,4.073-4.361l.789-28.094A4.484,4.484,0,0,0,935.567,293.876Z" transform="translate(-896.532 -292.095)" fill="url(#bx)"/><g transform="translate(5.839 7.341)"><path d="M933.73,328.666H909.719A3.724,3.724,0,0,1,906,324.947V307.719A3.724,3.724,0,0,1,909.719,304H933.73a3.724,3.724,0,0,1,3.719,3.719v17.228A3.724,3.724,0,0,1,933.73,328.666Zm-24.011-21.582a.636.636,0,0,0-.636.636v17.228a.636.636,0,0,0,.636.636H933.73a.637.637,0,0,0,.636-.636V307.719a.637.637,0,0,0-.636-.636Z" transform="translate(-906 -304)" fill="#fff"/><path d="M921.851,318.886a1.536,1.536,0,0,1-.892-.284l-13.389-9.494a1.542,1.542,0,1,1,1.784-2.515l12.5,8.862,12.33-8.758a1.542,1.542,0,0,1,1.786,2.513L922.744,318.6A1.539,1.539,0,0,1,921.851,318.886Z" transform="translate(-906.353 -304.885)" fill="#fff"/><path d="M908.866,333.385l-.479-3.045.227,1.524-1.3-.831c.276-.447,5.087-8.862,8.254-14.41a1.542,1.542,0,0,1,2.677,1.529s-2.066,3.618-4.135,7.237c-1.035,1.81-2.071,3.62-2.851,4.978C909.6,333.264,909.6,333.264,908.866,333.385Z" transform="translate(-906.505 -308.541)" fill="#fff"/><path d="M946.355,333.387c-.736-.119-.736-.119-2.4-3.018-.779-1.358-1.816-3.168-2.851-4.978-2.07-3.618-4.135-7.237-4.135-7.237a1.541,1.541,0,1,1,2.677-1.529c3.168,5.548,7.979,13.964,8.254,14.41l-1.3.83Z" transform="translate(-917.794 -308.542)" fill="#fff"/></g></g><g transform="translate(90.384 250.751)"><path d="M152.353,361.318l-34.1-1.774a4.633,4.633,0,0,0-4.929,4.833l.882,31.364a4.6,4.6,0,0,0,4.922,4.391l32.384-1.6a4.454,4.454,0,0,0,4.072-4.362l.79-28.094A4.484,4.484,0,0,0,152.353,361.318Z" transform="translate(-113.318 -359.537)" fill="url(#bx)"/><path d="M144.5,371.925a.872.872,0,0,0-1.161.825V388.4a7.377,7.377,0,0,0-4.678-1.585c-3.606,0-6.528,2.338-6.528,5.223s2.923,5.223,6.528,5.223,6.528-2.338,6.528-5.223c0-.025,0-.049,0-.074h0V376.406a8.144,8.144,0,0,1,5.372,3.959.774.774,0,0,0,1.425-.466C151.726,375.051,146.795,372.741,144.5,371.925Z" transform="translate(-120.529 -364.266)" fill="#fff"/></g><g transform="translate(636.538 289.243)"><path d="M1038.042,423.74l-34.1-1.774a4.633,4.633,0,0,0-4.929,4.833l.882,31.364a4.6,4.6,0,0,0,4.921,4.391l32.385-1.6a4.455,4.455,0,0,0,4.072-4.362l.79-28.094A4.484,4.484,0,0,0,1038.042,423.74Z" transform="translate(-999.007 -421.959)" fill="url(#bv)"/><g transform="translate(9.961 6.916)"><path d="M1019.094,471.693a3.934,3.934,0,1,1,3.934-3.934A3.938,3.938,0,0,1,1019.094,471.693Zm0-6.306a2.373,2.373,0,1,0,2.372,2.372A2.375,2.375,0,0,0,1019.094,465.386Z" transform="translate(-1015.16 -444.925)" fill="#fff"/><g transform="translate(0.075)"><path d="M1020.4,455.139a8.4,8.4,0,0,1,8.392,8.392,7.994,7.994,0,0,1-.045.849.573.573,0,0,0,.65.635l1.222-.182a.576.576,0,0,0,.487-.53q.029-.382.029-.771A10.746,10.746,0,0,0,1020.4,452.8a10.547,10.547,0,0,0-1.324.084.574.574,0,0,0-.5.665l.2,1.187a.569.569,0,0,0,.631.469A7.9,7.9,0,0,1,1020.4,455.139Z" transform="translate(-1016.544 -440.697)" fill="#fff"/><path d="M1019.771,445.328a14.458,14.458,0,0,1,14.442,14.442v.007a.567.567,0,0,0,.649.567l1.2-.179.495-.572a16.8,16.8,0,0,0-16.783-16.606,16.6,16.6,0,0,0-2.364.171.567.567,0,0,0-.472.659l.2,1.184a.566.566,0,0,0,.634.47A14.364,14.364,0,0,1,1019.771,445.328Z" transform="translate(-1015.912 -436.936)" fill="#fff"/><path d="M1019.14,435.517a20.514,20.514,0,0,1,20.469,19.615.574.574,0,0,0,.654.549l1.189-.178a.572.572,0,0,0,.488-.589,22.8,22.8,0,0,0-26.179-21.484.57.57,0,0,0-.472.662l.2,1.183a.571.571,0,0,0,.652.466A20.363,20.363,0,0,1,1019.14,435.517Z" transform="translate(-1015.282 -433.175)" fill="#fff"/></g></g></g><g transform="translate(628.626 152.965)"><path d="M1018.038,202.412,990.2,200.965a3.782,3.782,0,0,0-4.023,3.945l.72,25.6a3.755,3.755,0,0,0,4.017,3.584l26.433-1.305a3.636,3.636,0,0,0,3.324-3.56l.645-22.932A3.661,3.661,0,0,0,1018.038,202.412Z" transform="translate(-986.176 -200.959)" fill="url(#bw)"/><path d="M1017.007,208h-19.68c-1.823,0-4.327,1.357-4.327,3.238v10.945c0,1.8,2.523,3.083,4.327,3.083h13.537c.466,0,.635,1.08.635,1.547v1.617c0,.666.705.913,1.034,1.022a1.4,1.4,0,0,0,.773.275.97.97,0,0,0,.727-.321l2.9-3.438c1.839-.04,2.578-1.98,2.578-3.784V211.238C1019.516,209.447,1018.8,208,1017.007,208Zm.659,14.183c0,.847.024,1.849-.659,1.849h-.736l-3.538,3.41v-2.377c0-.466.345-1.033-.122-1.033H997.327c-.838,0-2.477-1.011-2.477-1.849V211.689c0-1.223,1.631-1.222,2.477-1.222h19.68c.832,0,.659-.062.659.771Z" transform="translate(-988.792 -203.658)" fill="#fff"/><path d="M1018.116,216.617a.617.617,0,0,1-.617.617H999.617a.617.617,0,0,1-.617-.617h0a.617.617,0,0,1,.617-.617H1017.5a.617.617,0,0,1,.617.617Z" transform="translate(-991.092 -206.725)" fill="#fff"/><path d="M1018.116,221.617a.617.617,0,0,1-.617.617H999.617a.617.617,0,0,1-.617-.617h0a.617.617,0,0,1,.617-.617H1017.5a.617.617,0,0,1,.617.617Z" transform="translate(-991.092 -208.642)" fill="#fff"/><path d="M1018.116,228.617a.617.617,0,0,1-.617.617H999.617a.617.617,0,0,1-.617-.617h0a.617.617,0,0,1,.617-.617H1017.5a.617.617,0,0,1,.617.617Z" transform="translate(-991.092 -211.325)" fill="#fff"/></g><g transform="translate(563.619 137.001)"><path d="M898,215.357l-15.066-.784a2.048,2.048,0,0,0-2.177,2.135l.39,13.855a2.033,2.033,0,0,0,2.174,1.94l14.306-.707a1.968,1.968,0,0,0,1.8-1.927l.349-12.411A1.982,1.982,0,0,0,898,215.357Z" transform="translate(-880.755 -190.213)" fill="#fff"/><path d="M940.75,175.618l-10.48-.545a1.424,1.424,0,0,0-1.514,1.485l.271,9.638a1.414,1.414,0,0,0,1.513,1.349l9.951-.491a1.369,1.369,0,0,0,1.252-1.341l.242-8.633A1.378,1.378,0,0,0,940.75,175.618Z" transform="translate(-899.156 -175.071)" fill="#fff"/></g><g transform="translate(631.45 252.005)"><path d="M1004.826,362.213l-12.293-.64a1.67,1.67,0,0,0-1.777,1.742l.318,11.306a1.658,1.658,0,0,0,1.774,1.582l11.673-.577a1.6,1.6,0,0,0,1.468-1.572l.285-10.127A1.616,1.616,0,0,0,1004.826,362.213Z" transform="translate(-990.755 -361.57)" fill="#fff"/><path d="M1068.718,398.877l-6.083-.316a.826.826,0,0,0-.879.862l.157,5.594a.82.82,0,0,0,.877.783l5.777-.286a.794.794,0,0,0,.726-.778l.141-5.011A.8.8,0,0,0,1068.718,398.877Z" transform="translate(-1017.973 -375.75)" fill="#fff"/></g><g transform="translate(86.337 110.893)"><path d="M120.825,266.213l-12.293-.64a1.67,1.67,0,0,0-1.777,1.742l.318,11.306a1.658,1.658,0,0,0,1.773,1.582l11.673-.577a1.605,1.605,0,0,0,1.468-1.572l.285-10.127A1.616,1.616,0,0,0,120.825,266.213Z" transform="translate(-106.755 -183.656)" fill="#fff"/><path d="M184.718,302.877l-6.083-.316a.826.826,0,0,0-.879.862l.157,5.594a.82.82,0,0,0,.877.783l5.777-.285a.794.794,0,0,0,.726-.778l.141-5.011A.8.8,0,0,0,184.718,302.877Z" transform="translate(-133.973 -197.836)" fill="#fff"/><path d="M290.531,133.224l-9.435-.491a1.281,1.281,0,0,0-1.363,1.337l.244,8.677a1.273,1.273,0,0,0,1.362,1.215l8.959-.443a1.231,1.231,0,0,0,1.127-1.206l.218-7.772A1.241,1.241,0,0,0,290.531,133.224Z" transform="translate(-173.067 -132.731)" fill="#fff"/></g><g transform="translate(302.629 387.569)"><path d="M476.164,632.38a1.3,1.3,0,0,1-.5-.1l-5.335-2.2a1.321,1.321,0,0,1-.816-1.3l.253-4.3a21.83,21.83,0,0,1-4.3-4.285l-4.3.27a1.307,1.307,0,0,1-1.3-.81l-2.219-5.327a1.323,1.323,0,0,1,.342-1.5l3.217-2.86a21.82,21.82,0,0,1-.01-6.073l-3.231-2.85a1.319,1.319,0,0,1-.347-1.494l2.2-5.336a1.3,1.3,0,0,1,1.3-.815l4.3.253a21.847,21.847,0,0,1,4.284-4.3l-.269-4.3a1.319,1.319,0,0,1,.811-1.3l5.326-2.219a1.322,1.322,0,0,1,1.493.34l2.861,3.219a21.868,21.868,0,0,1,6.073-.01l2.849-3.231a1.324,1.324,0,0,1,1.494-.348l5.336,2.2a1.321,1.321,0,0,1,.815,1.3l-.252,4.3a21.828,21.828,0,0,1,4.3,4.284l4.3-.269a1.32,1.32,0,0,1,1.3.81l2.219,5.328a1.321,1.321,0,0,1-.342,1.495l-3.217,2.86a21.847,21.847,0,0,1,.01,6.073l3.231,2.85a1.321,1.321,0,0,1,.348,1.492l-2.2,5.337a1.3,1.3,0,0,1-1.3.815l-4.3-.252a21.807,21.807,0,0,1-4.284,4.3l.269,4.3a1.32,1.32,0,0,1-.809,1.3l-5.329,2.219a1.319,1.319,0,0,1-1.493-.34l-2.861-3.218a21.8,21.8,0,0,1-6.073.01l-2.85,3.231A1.319,1.319,0,0,1,476.164,632.38Zm.2-1.811h0Zm13.357-.026h0Zm-18.342-2.028,4.638,1.91,3.271-3.708.5.082a20.058,20.058,0,0,0,6.491-.01l.5-.084,3.283,3.693,4.631-1.928-.31-4.932.414-.3a19.975,19.975,0,0,0,4.579-4.6l.3-.415,4.936.29,1.911-4.638-3.708-3.271.082-.5a20,20,0,0,0-.011-6.49l-.083-.5,3.693-3.283-1.929-4.631-4.932.31-.3-.414a20.014,20.014,0,0,0-4.6-4.579l-.416-.3.29-4.936-4.638-1.91-3.271,3.708-.5-.082a19.986,19.986,0,0,0-6.491.01l-.5.083-3.282-3.692-4.631,1.929.309,4.931-.414.3a20,20,0,0,0-4.579,4.6l-.3.416-4.936-.291-1.91,4.638,3.708,3.271-.082.5a20,20,0,0,0,.01,6.49l.084.5-3.693,3.283,1.929,4.631,4.932-.31.3.414a20.017,20.017,0,0,0,4.6,4.579l.415.3Zm23.344.331v0Zm10.268-10.312h0Zm-34.044-33.069h0Zm5.327-2.219h0Zm-.356-.853h0Zm7.208,39.408a14.856,14.856,0,0,1-14.718-16.992.925.925,0,0,1,1.831.269,12.974,12.974,0,1,0,5.439-8.8.925.925,0,0,1-1.055-1.519,14.852,14.852,0,1,1,14.194,25.9A14.787,14.787,0,0,1,483.125,621.8Z" transform="translate(-457.512 -581.413)" fill="#fff"/><path d="M495.065,625.027a6.05,6.05,0,0,1-.876-12.035h0a6.049,6.049,0,1,1,.876,12.035Zm-.6-10.205a4.2,4.2,0,1,0,3.118.781,4.206,4.206,0,0,0-3.118-.781Z" transform="translate(-469.594 -593.493)" fill="#fff"/><g transform="translate(51.317 33.867)"><path d="M553.741,662.716a1.116,1.116,0,0,1-1.014-.647l-.762-1.65a11.016,11.016,0,0,1-2.43-.734l-1.547.956a1.121,1.121,0,0,1-1.29-.084l-2.151-1.759a1.118,1.118,0,0,1-.34-1.25l.629-1.705a11.017,11.017,0,0,1-1.2-2.237l-1.768-.418a1.118,1.118,0,0,1-.853-.973l-.277-2.763a1.114,1.114,0,0,1,.646-1.125l1.647-.759a10.986,10.986,0,0,1,.734-2.431l-.955-1.547a1.111,1.111,0,0,1,.087-1.293l1.756-2.148a1.114,1.114,0,0,1,1.251-.339l1.7.628a11.01,11.01,0,0,1,2.237-1.2l.418-1.767a1.117,1.117,0,0,1,.97-.853l2.764-.276a1.1,1.1,0,0,1,1.127.644l.76,1.648a11.044,11.044,0,0,1,2.431.734l1.546-.955a1.119,1.119,0,0,1,1.29.084l2.151,1.759a1.117,1.117,0,0,1,.341,1.247l-.63,1.707a11,11,0,0,1,1.2,2.237l1.767.417a1.117,1.117,0,0,1,.853.974l.277,2.763a1.117,1.117,0,0,1-.639,1.123l-1.653.761a10.993,10.993,0,0,1-.734,2.431l.955,1.547a1.114,1.114,0,0,1-.087,1.293l-1.756,2.147a1.112,1.112,0,0,1-1.246.342l-1.709-.63a10.952,10.952,0,0,1-2.236,1.2l-.418,1.768a1.115,1.115,0,0,1-.977.853l-2.759.276A1.087,1.087,0,0,1,553.741,662.716Zm-4.321-5.135.458.225a9.131,9.131,0,0,0,2.84.857l.506.066.963,2.089,1.72-.173.528-2.238.483-.165a9.154,9.154,0,0,0,2.613-1.4l.4-.311,2.158.8,1.094-1.338-1.209-1.957.225-.459a9.152,9.152,0,0,0,.857-2.84l.066-.506,2.088-.963-.172-1.719-2.238-.529-.165-.483a9.152,9.152,0,0,0-1.4-2.613l-.311-.4.8-2.159-1.338-1.094-1.958,1.209-.458-.224a9.154,9.154,0,0,0-2.84-.858l-.506-.066-.963-2.088-1.719.172-.529,2.237-.483.166a9.149,9.149,0,0,0-2.613,1.4l-.4.311-2.159-.8-1.093,1.337,1.209,1.958-.224.458a9.145,9.145,0,0,0-.857,2.84l-.067.506-2.088.963.173,1.719,2.238.53.165.483a9.137,9.137,0,0,0,1.4,2.613l.311.405-.8,2.159,1.337,1.093Zm7.007,3.012h0Zm5.337-2.867-.005.006Zm1.756-2.146,0,0Zm-21.362-5.574,0,0Zm2.17-6.54,0,0Zm.052-.852,0,0Zm17.746-.931,0,0Zm-16.866-.139h0Zm15.572-1.562,0,0Zm-7.392-2.226h0Zm.649-.5h0Zm-.137,19.929a7.625,7.625,0,0,1-6.885-10.867.925.925,0,1,1,1.673.789,5.773,5.773,0,1,0,4.65-3.29,5.843,5.843,0,0,0-1.2.251.925.925,0,1,1-.569-1.76,7.665,7.665,0,0,1,1.588-.332,7.623,7.623,0,1,1,.747,15.208Z" transform="translate(-540.731 -636.334)" fill="#fff"/></g></g></g></svg>