<svg xmlns="http://www.w3.org/2000/svg" width="46.023" height="56.459" viewBox="0 0 46.023 56.459">
  <g id="Group_3465" data-name="Group 3465" transform="translate(1472.437 -4377.5)">
    <path id="Path_6449" data-name="Path 6449" d="M-1427.957,4396.744c-4.049,2.787-6.359,6.516-6.031,11.527s3.049,8.436,7.574,10.685c-.447,1.113-.847,2.243-1.345,3.327a32.933,32.933,0,0,1-6.142,9.163,7.252,7.252,0,0,1-8.545,1.779c-.669-.265-1.32-.577-1.991-.837a11.254,11.254,0,0,0-8.68.288,18.533,18.533,0,0,1-3.763,1.194,6.16,6.16,0,0,1-5.537-2.044,33.231,33.231,0,0,1-7.333-11.086,31.476,31.476,0,0,1-2.594-14.751c.391-4.7,2.046-8.839,5.886-11.8s8.093-3.793,12.712-1.938c.711.285,1.438.535,2.136.847a6.1,6.1,0,0,0,5.049-.01,24.429,24.429,0,0,1,5.348-1.738c5.236-.808,9.679.742,13.013,5.014C-1428.116,4396.469-1428.053,4396.592-1427.957,4396.744Z" fill="#d6d6d6"/>
    <path id="Path_6450" data-name="Path 6450" d="M-1438.226,4377.5a9.891,9.891,0,0,1-.541,4.787c-1.5,4.117-4.164,7.11-8.567,8.061-2.567.555-2.476.5-2.194-1.986a12.689,12.689,0,0,1,10.1-10.732C-1439.048,4377.557-1438.657,4377.545-1438.226,4377.5Z" fill="#d6d6d6"/>
  </g>
</svg>
