<svg xmlns="http://www.w3.org/2000/svg" xmlns:xlink="http://www.w3.org/1999/xlink" width="535.5" height="379.168" viewBox="0 0 535.5 379.168">
  <defs>
    <linearGradient id="linear-gradient" x1="0.5" y1="0.196" x2="0.5" y2="0.949" gradientUnits="objectBoundingBox">
      <stop offset="0" stop-color="#26e6ff"/>
      <stop offset="0.486" stop-color="#4188ff"/>
      <stop offset="0.834" stop-color="#534cff"/>
      <stop offset="1" stop-color="#5a35ff"/>
    </linearGradient>
    <linearGradient id="linear-gradient-2" x1="0.5" x2="0.5" y2="1" gradientUnits="objectBoundingBox">
      <stop offset="0" stop-color="#949aff"/>
      <stop offset="0.999" stop-color="#a600ff"/>
    </linearGradient>
    <linearGradient id="linear-gradient-5" x1="0.527" y1="-0.007" x2="0.527" y2="1.001" xlink:href="#linear-gradient-2"/>
    <linearGradient id="linear-gradient-7" x1="0.5" y1="1" x2="0.5" gradientUnits="objectBoundingBox">
      <stop offset="0" stop-color="#f9fbfc"/>
      <stop offset="1" stop-color="#bee1f4"/>
    </linearGradient>
    <linearGradient id="linear-gradient-9" x1="0.202" y1="0.233" x2="0.928" y2="0.912" xlink:href="#linear-gradient"/>
    <linearGradient id="linear-gradient-10" x1="-0.62" y1="0.154" x2="1.573" y2="0.932" xlink:href="#linear-gradient"/>
    <linearGradient id="linear-gradient-11" x1="-0.891" y1="0.139" x2="1.526" y2="0.942" xlink:href="#linear-gradient"/>
    <linearGradient id="linear-gradient-12" x1="-0.437" y1="0.108" x2="0.951" y2="1.011" xlink:href="#linear-gradient"/>
    <linearGradient id="linear-gradient-13" x1="0.106" y1="0.214" x2="0.997" y2="0.87" xlink:href="#linear-gradient"/>
    <linearGradient id="linear-gradient-15" x1="-0.62" y1="0.154" x2="1.573" y2="0.932" xlink:href="#linear-gradient"/>
    <linearGradient id="linear-gradient-18" x1="0.106" y1="0.214" x2="0.997" y2="0.87" xlink:href="#linear-gradient"/>
    <linearGradient id="linear-gradient-19" x1="0.5" x2="0.5" y2="1" gradientUnits="objectBoundingBox">
      <stop offset="0" stop-color="#ff697d"/>
      <stop offset="1" stop-color="#de2276"/>
    </linearGradient>
    <linearGradient id="linear-gradient-20" x1="0.5" x2="0.5" y2="1" gradientUnits="objectBoundingBox">
      <stop offset="0" stop-color="#435df1"/>
      <stop offset="0.327" stop-color="#4333f1"/>
      <stop offset="1" stop-color="#4c008c"/>
    </linearGradient>
    <linearGradient id="linear-gradient-21" x1="0.5" x2="0.5" y2="1" gradientUnits="objectBoundingBox">
      <stop offset="0" stop-color="#69479b"/>
      <stop offset="1" stop-color="#4c008c"/>
    </linearGradient>
    <linearGradient id="linear-gradient-22" x1="0.311" y1="0.048" x2="0.689" y2="1.315" xlink:href="#linear-gradient-21"/>
    <linearGradient id="linear-gradient-23" x1="0.872" y1="0.434" x2="0.186" y2="0.556" xlink:href="#linear-gradient-21"/>
    <linearGradient id="linear-gradient-25" x1="0" y1="0.5" x2="1" y2="0.5" xlink:href="#linear-gradient-19"/>
    <linearGradient id="linear-gradient-26" x1="0" y1="0.5" x2="1" y2="0.5" xlink:href="#linear-gradient-19"/>
    <linearGradient id="linear-gradient-27" x1="0.5" y1="-0.119" x2="0.5" y2="0.958" xlink:href="#linear-gradient-21"/>
    <linearGradient id="linear-gradient-28" x1="0.5" y1="-0.072" x2="0.5" y2="1.07" xlink:href="#linear-gradient-20"/>
    <linearGradient id="linear-gradient-29" x1="0.5" y1="-0.082" x2="0.5" y2="1.049" xlink:href="#linear-gradient-20"/>
    <linearGradient id="linear-gradient-30" x1="0" y1="0.5" x2="1" y2="0.5" xlink:href="#linear-gradient-19"/>
    <linearGradient id="linear-gradient-31" x1="0.5" x2="0.5" y2="1" gradientUnits="objectBoundingBox">
      <stop offset="0" stop-color="#435df1"/>
      <stop offset="1" stop-color="#4333f1"/>
    </linearGradient>
  </defs>
  <g id="Group_3467" data-name="Group 3467" transform="translate(-23.063 -89.012)">
    <g id="Group_2924" data-name="Group 2924" transform="translate(23.063 111.973)">
      <g id="Group_2917" data-name="Group 2917" transform="translate(4.65 0)">
        <path id="Path_6287" data-name="Path 6287" d="M539.04,424.284H42.188c-27.181-45.422-16.337-101.7,20.325-129.291,28.433-21.4,69.252-23.173,103.432-4.618a30.846,30.846,0,0,1,51.716-26.781c2.1-4.748,15.285-33.366,47.1-43.4,28.839-9.1,61.509.689,83.115,24.935a53.9,53.9,0,0,1,84.963,40.634c33.036-13.882,70.16-9.9,95.12,11.082C561.7,325.2,568.939,381.016,539.04,424.284Z" transform="translate(-27.005 -88.984)" fill="#d4ebf8"/>
        <circle id="Ellipse_396" data-name="Ellipse 396" cx="81.873" cy="81.873" r="81.873" transform="translate(13.288 92.782)" fill="#d4ebf8"/>
        <circle id="Ellipse_397" data-name="Ellipse 397" cx="81.873" cy="81.873" r="81.873" transform="translate(123.776 115.786) rotate(-45)" fill="#d4ebf8"/>
        <circle id="Ellipse_398" data-name="Ellipse 398" cx="26.187" cy="26.187" r="26.187" transform="translate(118.161 130.384) rotate(-80.016)" fill="#d4ebf8"/>
      </g>
      <circle id="Ellipse_399" data-name="Ellipse 399" cx="41.669" cy="41.669" r="41.669" transform="matrix(0.23, -0.973, 0.973, 0.23, 184.794, 304.69)" fill="#c0dfed"/>
      <path id="Path_6288" data-name="Path 6288" d="M496.732,325.652a41.938,41.938,0,0,0-6.211.464,25.885,25.885,0,0,0-41.329-11.428,62.876,62.876,0,0,0-79.858-14.242,62.887,62.887,0,0,0-73.7-32.065,41.671,41.671,0,0,0-80.31-5.045,74.663,74.663,0,0,0-37.452-1.094,59.595,59.595,0,0,0-93.69,68.3,38.683,38.683,0,0,0-20.9,30,25.89,25.89,0,1,0,24.573,40.581,38.657,38.657,0,0,0,48.456-18.945,74.78,74.78,0,0,0,126.25-16.048,62.875,62.875,0,0,0,82.105,17.11,62.906,62.906,0,0,0,113-1.391,41.671,41.671,0,1,0,39.063-56.189Z" transform="translate(-19.872 -85.715)" fill="url(#linear-gradient)"/>
      <g id="Group_2918" data-name="Group 2918" transform="translate(461.98 219.073)">
        <path id="Path_6289" data-name="Path 6289" d="M445.336,344.689a22.351,22.351,0,0,0-6.224-10.978,20.038,20.038,0,0,0-10.089-5.449,37.157,37.157,0,0,0,6.86,9.662A27.2,27.2,0,0,0,445.336,344.689ZM425.7,374.315a20.148,20.148,0,0,0-6.933-9.258,38.334,38.334,0,0,0,2.18,11.754,27.561,27.561,0,0,0,5.746,10.249A22.406,22.406,0,0,0,425.7,374.315Zm20.077-18.132a18.535,18.535,0,0,0,11.7-2.867,31.379,31.379,0,0,0,9.972-10.442,24.48,24.48,0,0,0-11.436,4.387A47.5,47.5,0,0,0,445.776,356.183Zm-15.137,9.369a20.024,20.024,0,0,0-7.76-8.437,37.565,37.565,0,0,0,3.329,11.369,27.255,27.255,0,0,0,6.711,9.507A22.269,22.269,0,0,0,430.639,365.552Zm3.007-18.1a27.592,27.592,0,0,0,8.8,7.735,22.373,22.373,0,0,0-5.139-11.608,20.247,20.247,0,0,0-9.582-6.458A37.563,37.563,0,0,0,433.646,347.448Zm7.079,22.262a18.541,18.541,0,0,0,11.979-1.325,31.432,31.432,0,0,0,11.245-9.049,24.459,24.459,0,0,0-11.907,2.852A47.361,47.361,0,0,0,440.725,369.71Zm-10.884-10.254a27.614,27.614,0,0,0,7.716,8.828,22.355,22.355,0,0,0-3.577-12.193,20.242,20.242,0,0,0-8.659-7.649A37.7,37.7,0,0,0,429.841,359.456Zm18.324-14.222a18.388,18.388,0,0,0,11.25-3.99,27.911,27.911,0,0,0,8.789-11.285,24.273,24.273,0,0,0-10.839,5.466A47.1,47.1,0,0,0,448.165,345.234Zm1.281-10.266c3.508-.855,6.2-3.313,8.457-5.741a23.259,23.259,0,0,0,5.319-10.892c-3.222,1.523-5.7,4.232-7.9,6.81A36.149,36.149,0,0,0,449.447,334.969Zm9.9,36.559a24.183,24.183,0,0,0-12.023,1.61,46.7,46.7,0,0,0-11.913,6.294,18.4,18.4,0,0,0,11.947-.119A28.057,28.057,0,0,0,459.351,371.527ZM442.1,325.061a16.6,16.6,0,0,0-8.159-5.281,30.334,30.334,0,0,0,5.4,8.688,23.669,23.669,0,0,0,7.631,6.261A20.019,20.019,0,0,0,442.1,325.061Zm-12.6,64.035a18.519,18.519,0,0,0,12.038,1.065,31.752,31.752,0,0,0,12.879-6.68,24.374,24.374,0,0,0-12.255.437A47.744,47.744,0,0,0,429.506,389.1Zm13.7-73.8a14.577,14.577,0,0,0-6.972-3.8,24.831,24.831,0,0,0,5.026,6.83,18.71,18.71,0,0,0,6.68,4.468A17.854,17.854,0,0,0,443.21,315.292Zm1.2-21.139a42.851,42.851,0,0,0,.743,11.44,48.128,48.128,0,0,0,3.149,10.591c.04.087.078.173.119.258.03-.09.054-.181.08-.273a27.169,27.169,0,0,0-4.092-22.017ZM459.256,308.4a19.4,19.4,0,0,0-5.879,5.995,28.59,28.59,0,0,0-3.915,8.373,14.632,14.632,0,0,0,6.313-5.319A20.32,20.32,0,0,0,459.256,308.4Z" transform="translate(-413.879 -294.153)" fill="url(#linear-gradient-2)"/>
        <path id="Path_6290" data-name="Path 6290" d="M446.547,353.91c.151-.032.295-.07.444-.1l0,0h0c.473-.1.944-.2,1.415-.347a26.976,26.976,0,0,0,7.3-3.226,21.934,21.934,0,0,0,3.412-2.624,21.336,21.336,0,0,1-3.45,2.468,25.362,25.362,0,0,1-3.61,1.751,29.917,29.917,0,0,1-3.676,1.146c-.48.117-.978.214-1.461.3-.129.022-.257.047-.382.07-.386.072-.786.114-1.178.162.919-3.393,1.714-6.738,2.421-10.182.492-.14.984-.278,1.473-.441.068-.026.136-.048.2-.07l0,0c.532-.185,1.072-.359,1.6-.588a27.552,27.552,0,0,0,3.545-1.7,27.237,27.237,0,0,0,3.394-2.281,21.888,21.888,0,0,0,3.131-2.959,21.143,21.143,0,0,1-3.188,2.8,26.16,26.16,0,0,1-3.414,2.121,31.4,31.4,0,0,1-3.543,1.539c-.569.209-1.16.381-1.741.566l-.057.016c-.427.122-.853.225-1.28.33.579-3.122,1.015-6.317,1.29-9.48.4-.221.789-.448,1.182-.685l0,0c.46-.278.919-.582,1.367-.9a29.706,29.706,0,0,0,2.6-2.058,27.77,27.77,0,0,0,2.421-2.436,23.859,23.859,0,0,0,2.178-2.84,22.854,22.854,0,0,1-2.254,2.7,26.994,26.994,0,0,1-2.477,2.284,29.353,29.353,0,0,1-2.633,1.9c-.363.231-.733.458-1.1.665-.4.227-.814.445-1.223.651a108.805,108.805,0,0,0,.362-11.866c.221-.177.442-.361.658-.55a24.473,24.473,0,0,0,3.069-3.188,52.618,52.618,0,0,0,3.094-4.841,51.894,51.894,0,0,1-3.181,4.716,23.775,23.775,0,0,1-2.835,2.829q-.4.34-.816.658c-.071-2.59-.145-3.888-.372-6.479-.215-2.455-.358-3.683-.714-6.134.126,1.031.183,1.546.283,2.576-.124-1.028-.192-1.541-.341-2.567.3,2.456.414,3.686.572,6.14.168,2.592.212,3.888.225,6.47q-.425-.3-.841-.619c-1.032-.781-2.043-1.618-3.018-2.507-1.3-1.19-3.748-3.807-3.748-3.807s2.389,2.692,3.672,3.931c1.047,1.011,2.146,1.967,3.26,2.853.223.177.449.353.675.524a108.019,108.019,0,0,1-.63,11.8c-.362-.28-.726-.566-1.083-.854-.329-.264-.655-.542-.977-.818-.786-.676-1.57-1.4-2.336-2.128s-1.509-1.495-2.232-2.275-1.434-1.586-2.094-2.439c.63.887,1.311,1.728,2.007,2.551s1.413,1.631,2.153,2.408,1.5,1.546,2.27,2.272c.388.369.786.739,1.187,1.09l0,0c.34.3.68.6,1.024.893-.347,3.134-.853,6.3-1.5,9.381-.359-.255-.717-.505-1.071-.767l-.047-.035c-.478-.375-.971-.733-1.435-1.109-.954-.775-1.943-1.6-2.867-2.441s-1.833-1.744-2.7-2.669a31.122,31.122,0,0,1-2.478-2.917,32.406,32.406,0,0,0,2.384,3.029c.84.963,1.727,1.908,2.628,2.8s1.838,1.771,2.8,2.594c.414.382.858.726,1.285,1.085l0,0c.054.044.109.087.163.136.4.324.8.635,1.2.951-.779,3.395-1.642,6.69-2.631,10.03-.3-.254-.612-.506-.9-.772-.093-.086-.189-.175-.284-.261-.362-.326-.734-.664-1.082-1.005-.872-.854-1.773-1.778-2.605-2.7s-1.648-1.917-2.412-2.925a31.566,31.566,0,0,1-2.151-3.158,32.259,32.259,0,0,0,2.051,3.256c.733,1.045,1.513,2.074,2.321,3.049s1.642,1.949,2.526,2.854c.323.36.667.69,1.008,1.026h0v0c.111.1.211.211.319.319.324.323.666.631,1,.945-1.464,4.413-3.1,8.678-4.974,12.933-.183-.281-.367-.563-.545-.847-.224-.356-.442-.726-.656-1.091-.524-.894-1.029-1.832-1.515-2.77s-.939-1.9-1.37-2.874-.84-1.961-1.186-2.978c.307,1.039.676,2.054,1.068,3.056s.8,2,1.251,2.972.917,1.949,1.4,2.886c.248.475.5.954.767,1.418v0c.162.287.327.569.49.852-1.338,2.9-2.842,5.771-4.46,8.521-.205-.288-.412-.573-.612-.867l-.033-.048c-.327-.512-.676-1.013-.99-1.522-.647-1.046-1.311-2.154-1.907-3.253s-1.161-2.252-1.678-3.412a31.654,31.654,0,0,1-1.387-3.57,32.765,32.765,0,0,0,1.264,3.646c.478,1.186,1.006,2.371,1.564,3.51s1.155,2.282,1.795,3.378c.264.5.571.97.857,1.451v0c.037.06.073.119.109.183.221.363.453.716.682,1.074-1.846,3.013-3.745,5.9-5.779,8.788-.172-.293-.353-.586-.509-.884-.059-.113-.119-.228-.182-.342-.234-.428-.472-.873-.687-1.312-.538-1.1-1.082-2.275-1.561-3.43s-.918-2.367-1.3-3.575a32.185,32.185,0,0,1-.986-3.711,33.112,33.112,0,0,0,.859,3.772c.345,1.235.739,2.471,1.178,3.663s.9,2.4,1.436,3.548c.185.448.4.875.609,1.307l0,0v0c.07.133.127.27.194.408.175.365.369.722.557,1.082a131.25,131.25,0,0,1-13.237,14.819l1.09,1.162a133.125,133.125,0,0,0,13.3-15.133c.4.068.8.142,1.208.189.153.018.3.028.453.051h.007c.483.057.963.112,1.457.127a27.1,27.1,0,0,0,7.992-.706,22.173,22.173,0,0,0,4.1-1.39,21.5,21.5,0,0,1-4.083,1.228,25.533,25.533,0,0,1-4,.5,29.913,29.913,0,0,1-3.865-.1c-.494-.044-1-.113-1.484-.19-.129-.02-.258-.039-.386-.057-.334-.049-.671-.125-1-.195,2.038-2.944,3.936-5.88,5.782-8.947.425.022.849.045,1.278.05.073,0,.144,0,.215,0l0,0c.565,0,1.134.009,1.707-.037a27.968,27.968,0,0,0,3.912-.459,27.409,27.409,0,0,0,3.956-1.056,22.069,22.069,0,0,0,3.929-1.778,21.3,21.3,0,0,1-3.93,1.612,26.437,26.437,0,0,1-3.924.9,31.342,31.342,0,0,1-3.857.3c-.605.014-1.221-.015-1.832-.03l-.06,0c-.356-.019-.709-.051-1.062-.083,1.615-2.8,3.114-5.716,4.445-8.659.323-.06.647-.121.97-.192h0c.526-.112,1.059-.249,1.586-.4a29.6,29.6,0,0,0,3.128-1.091,27.883,27.883,0,0,0,3.082-1.5,24.008,24.008,0,0,0,2.98-1.958,22.907,22.907,0,0,1-3.009,1.805,27.02,27.02,0,0,1-3.083,1.341,29.509,29.509,0,0,1-3.108.934c-.42.1-.844.194-1.261.269-.333.059-.668.11-1,.158,1.856-4.318,3.479-8.644,4.922-13.116C445.641,354.076,446.1,354.006,446.547,353.91Z" transform="translate(-414.624 -291.732)" fill="#56548c"/>
      </g>
      <g id="Group_2919" data-name="Group 2919" transform="translate(350.877 190.664)">
        <path id="Path_6291" data-name="Path 6291" d="M351.168,320.61a22.351,22.351,0,0,0-6.224-10.978,20.041,20.041,0,0,0-10.089-5.448,37.159,37.159,0,0,0,6.86,9.662A27.22,27.22,0,0,0,351.168,320.61Zm-19.637,29.626a20.145,20.145,0,0,0-6.932-9.258,38.266,38.266,0,0,0,2.18,11.754,27.542,27.542,0,0,0,5.745,10.249A22.4,22.4,0,0,0,331.531,350.236ZM351.609,332.1a18.53,18.53,0,0,0,11.7-2.867,31.369,31.369,0,0,0,9.972-10.442,24.471,24.471,0,0,0-11.435,4.387A47.452,47.452,0,0,0,351.609,332.1Zm-15.139,9.369a20.024,20.024,0,0,0-7.76-8.437,37.565,37.565,0,0,0,3.329,11.369,27.269,27.269,0,0,0,6.711,9.507A22.269,22.269,0,0,0,336.471,341.473Zm3.007-18.1a27.6,27.6,0,0,0,8.8,7.735,22.373,22.373,0,0,0-5.139-11.608,20.244,20.244,0,0,0-9.58-6.458A37.528,37.528,0,0,0,339.478,323.369Zm7.079,22.262a18.54,18.54,0,0,0,11.979-1.325,31.436,31.436,0,0,0,11.246-9.049,24.461,24.461,0,0,0-11.908,2.852A47.385,47.385,0,0,0,346.557,345.631Zm-10.884-10.254a27.628,27.628,0,0,0,7.716,8.828,22.355,22.355,0,0,0-3.577-12.193,20.245,20.245,0,0,0-8.658-7.649A37.7,37.7,0,0,0,335.673,335.377ZM354,321.155a18.387,18.387,0,0,0,11.249-3.99,27.91,27.91,0,0,0,8.789-11.285,24.263,24.263,0,0,0-10.838,5.466A47.074,47.074,0,0,0,354,321.155Zm1.28-10.266c3.508-.855,6.2-3.313,8.457-5.741a23.261,23.261,0,0,0,5.32-10.892c-3.222,1.523-5.7,4.232-7.9,6.81A36.177,36.177,0,0,0,355.278,310.89Zm9.9,36.559a24.183,24.183,0,0,0-12.023,1.611,46.742,46.742,0,0,0-11.913,6.294,18.4,18.4,0,0,0,11.947-.119A28.042,28.042,0,0,0,365.183,347.448Zm-17.248-46.466a16.6,16.6,0,0,0-8.159-5.281,30.362,30.362,0,0,0,5.4,8.688,23.68,23.68,0,0,0,7.631,6.261A20.019,20.019,0,0,0,347.935,300.982Zm-12.6,64.035a18.521,18.521,0,0,0,12.038,1.065,31.764,31.764,0,0,0,12.879-6.679,24.36,24.36,0,0,0-12.255.435A47.743,47.743,0,0,0,335.338,365.017Zm13.7-73.8a14.577,14.577,0,0,0-6.972-3.8,24.84,24.84,0,0,0,5.026,6.83,18.711,18.711,0,0,0,6.68,4.468A17.854,17.854,0,0,0,349.042,291.213Zm1.2-21.139a42.8,42.8,0,0,0,.743,11.44,48.04,48.04,0,0,0,3.148,10.592c.04.087.078.173.12.258.028-.09.053-.181.079-.273a27.162,27.162,0,0,0-4.09-22.017Zm14.845,14.245a19.394,19.394,0,0,0-5.88,5.994,28.61,28.61,0,0,0-3.915,8.375,14.632,14.632,0,0,0,6.313-5.319A20.336,20.336,0,0,0,365.089,284.319Z" transform="translate(-319.711 -270.074)" fill="url(#linear-gradient-2)"/>
        <path id="Path_6292" data-name="Path 6292" d="M352.38,329.83c.15-.032.294-.07.442-.1l0,0h0c.473-.1.944-.2,1.415-.347a26.974,26.974,0,0,0,7.3-3.226,21.855,21.855,0,0,0,3.412-2.624A21.371,21.371,0,0,1,361.511,326a25.488,25.488,0,0,1-3.61,1.751,30,30,0,0,1-3.678,1.146c-.479.117-.978.214-1.461.3l-.382.07c-.386.072-.786.114-1.177.162.92-3.393,1.716-6.738,2.421-10.182.492-.14.984-.279,1.474-.441.067-.026.135-.047.2-.07l0,0c.532-.185,1.073-.357,1.6-.588a27.646,27.646,0,0,0,3.547-1.7,27.223,27.223,0,0,0,3.393-2.281,21.885,21.885,0,0,0,3.131-2.959,21.19,21.19,0,0,1-3.187,2.8,26.26,26.26,0,0,1-3.416,2.121,31.406,31.406,0,0,1-3.543,1.538c-.567.209-1.159.381-1.741.566l-.057.017c-.426.122-.853.225-1.28.33.58-3.122,1.015-6.317,1.29-9.48.4-.221.791-.448,1.182-.687l0,0c.46-.278.92-.582,1.369-.9a29.521,29.521,0,0,0,2.6-2.058,27.782,27.782,0,0,0,2.422-2.436,23.992,23.992,0,0,0,2.177-2.84,22.853,22.853,0,0,1-2.254,2.7,26.976,26.976,0,0,1-2.476,2.284,29.332,29.332,0,0,1-2.632,1.9c-.365.231-.734.458-1.105.665-.4.227-.814.445-1.223.651a108.822,108.822,0,0,0,.362-11.866c.222-.177.442-.361.66-.55a24.638,24.638,0,0,0,3.069-3.188,52.885,52.885,0,0,0,3.094-4.841,52.256,52.256,0,0,1-3.182,4.716,23.765,23.765,0,0,1-2.834,2.829q-.4.34-.816.658c-.072-2.59-.146-3.888-.373-6.478-.215-2.455-.357-3.684-.714-6.133.126,1.03.183,1.544.284,2.574-.125-1.028-.194-1.541-.342-2.567.3,2.456.414,3.686.572,6.14.168,2.592.212,3.888.225,6.47q-.425-.3-.841-.619c-1.032-.781-2.043-1.618-3.018-2.507-1.3-1.19-3.748-3.808-3.748-3.808s2.39,2.694,3.672,3.932c1.047,1.011,2.147,1.967,3.26,2.853.224.177.449.353.676.524a108.318,108.318,0,0,1-.631,11.8c-.362-.28-.724-.566-1.083-.854-.328-.264-.655-.542-.976-.818-.787-.676-1.57-1.4-2.337-2.128s-1.508-1.495-2.232-2.275-1.434-1.586-2.093-2.439c.629.887,1.31,1.728,2.006,2.551s1.413,1.631,2.153,2.408,1.5,1.546,2.27,2.272c.388.369.787.739,1.187,1.09l0,0c.34.3.68.6,1.024.893-.346,3.134-.852,6.3-1.5,9.381-.358-.255-.717-.5-1.071-.767l-.047-.035c-.477-.375-.971-.733-1.434-1.109-.956-.774-1.944-1.6-2.867-2.441s-1.835-1.744-2.7-2.669a31.122,31.122,0,0,1-2.478-2.917,32.2,32.2,0,0,0,2.386,3.029c.839.963,1.726,1.908,2.626,2.8s1.838,1.771,2.8,2.594c.414.382.858.726,1.286,1.085v0c.055.044.109.087.163.136.4.324.8.635,1.2.951-.779,3.394-1.642,6.69-2.631,10.03-.3-.254-.612-.506-.9-.772-.093-.086-.189-.175-.284-.261-.362-.326-.734-.664-1.082-1.005-.871-.854-1.772-1.778-2.605-2.7s-1.647-1.917-2.412-2.925a31.574,31.574,0,0,1-2.151-3.158,32.06,32.06,0,0,0,2.052,3.256c.732,1.045,1.511,2.074,2.32,3.049s1.644,1.949,2.526,2.854c.324.36.668.69,1.009,1.026h0l0,0c.11.1.21.211.319.319.323.323.664.631,1,.945-1.464,4.413-3.1,8.678-4.974,12.933-.183-.281-.367-.563-.545-.847-.224-.356-.442-.726-.656-1.091-.523-.894-1.029-1.832-1.515-2.77s-.939-1.9-1.37-2.874-.839-1.961-1.186-2.978c.307,1.039.676,2.054,1.068,3.056s.8,2,1.252,2.972.917,1.949,1.4,2.886c.247.475.5.954.766,1.418v0c.162.287.327.569.491.852-1.339,2.9-2.843,5.771-4.461,8.521-.2-.288-.412-.573-.611-.867l-.033-.048c-.328-.512-.676-1.013-.99-1.522-.648-1.047-1.312-2.154-1.908-3.253s-1.16-2.252-1.678-3.412a31.821,31.821,0,0,1-1.388-3.57,32.772,32.772,0,0,0,1.264,3.646c.478,1.186,1.006,2.371,1.565,3.51s1.155,2.282,1.795,3.378c.265.5.571.97.857,1.451v0c.037.06.073.12.109.183.222.363.453.717.682,1.074-1.846,3.013-3.744,5.9-5.779,8.787-.171-.293-.352-.586-.508-.884-.059-.113-.119-.229-.181-.342-.235-.428-.473-.873-.687-1.312-.539-1.1-1.083-2.275-1.561-3.43s-.919-2.367-1.306-3.575a32.432,32.432,0,0,1-.986-3.711,33.116,33.116,0,0,0,.859,3.772c.345,1.235.739,2.471,1.179,3.663s.9,2.4,1.435,3.548c.185.448.4.875.61,1.308h0v0c.071.133.129.27.195.408.173.365.368.722.556,1.082a131.131,131.131,0,0,1-13.237,14.819l1.09,1.162a133.12,133.12,0,0,0,13.3-15.133c.4.07.8.142,1.209.189.153.018.3.028.453.051h.007c.481.057.962.112,1.456.127a27.09,27.09,0,0,0,7.992-.706,22.176,22.176,0,0,0,4.1-1.39,21.476,21.476,0,0,1-4.082,1.228,25.527,25.527,0,0,1-4,.5,29.924,29.924,0,0,1-3.865-.1c-.494-.044-1-.113-1.484-.19-.129-.02-.258-.039-.385-.057-.335-.049-.673-.125-1.005-.2,2.039-2.943,3.937-5.879,5.782-8.946.425.022.85.045,1.279.049.072,0,.143,0,.214,0l0,0c.565,0,1.133.009,1.706-.037a27.965,27.965,0,0,0,3.912-.459,27.416,27.416,0,0,0,3.956-1.056,22.031,22.031,0,0,0,3.929-1.778,21.255,21.255,0,0,1-3.93,1.612,26.4,26.4,0,0,1-3.924.9,31.31,31.31,0,0,1-3.856.3c-.606.014-1.222-.015-1.833-.029l-.059,0c-.357-.019-.709-.051-1.062-.083,1.614-2.8,3.112-5.716,4.443-8.659.323-.06.647-.121.971-.192h0c.526-.112,1.059-.249,1.586-.4a29.61,29.61,0,0,0,3.128-1.091,27.875,27.875,0,0,0,3.082-1.5,23.834,23.834,0,0,0,2.98-1.959,22.915,22.915,0,0,1-3.009,1.805,27.028,27.028,0,0,1-3.083,1.341,29.248,29.248,0,0,1-3.108.934c-.419.1-.842.194-1.261.269-.333.059-.667.11-1,.158,1.856-4.318,3.479-8.643,4.922-13.116C351.473,330,351.929,329.927,352.38,329.83Z" transform="translate(-320.456 -267.653)" fill="#56548c"/>
      </g>
      <g id="Group_2920" data-name="Group 2920" transform="translate(14.252 214.709)">
        <path id="Path_6293" data-name="Path 6293" d="M67.464,334.226a37.2,37.2,0,0,0,6.86-9.662,20.032,20.032,0,0,0-10.09,5.448,22.341,22.341,0,0,0-6.224,10.978A27.224,27.224,0,0,0,67.464,334.226Zm9.191,49.135A27.58,27.58,0,0,0,82.4,373.113a38.271,38.271,0,0,0,2.18-11.754,20.143,20.143,0,0,0-6.932,9.257A22.4,22.4,0,0,0,76.655,383.361Zm-29.323-39.8A24.49,24.49,0,0,0,35.9,339.176a31.384,31.384,0,0,0,9.972,10.443,18.543,18.543,0,0,0,11.7,2.866A47.534,47.534,0,0,0,47.332,343.563Zm23.094,30.729a27.235,27.235,0,0,0,6.711-9.506,37.541,37.541,0,0,0,3.33-11.369,20.018,20.018,0,0,0-7.759,8.436A22.271,22.271,0,0,0,70.426,374.292Zm5.19-40.874a20.232,20.232,0,0,0-9.58,6.457A22.384,22.384,0,0,0,60.9,351.484a27.609,27.609,0,0,0,8.805-7.735A37.57,37.57,0,0,0,75.616,333.418ZM51.3,358.49A24.446,24.446,0,0,0,39.4,355.638a31.435,31.435,0,0,0,11.246,9.048,18.539,18.539,0,0,0,11.979,1.325A47.4,47.4,0,0,0,51.3,358.49Zm26.721-13.745a20.224,20.224,0,0,0-8.658,7.649,22.348,22.348,0,0,0-3.578,12.191,27.6,27.6,0,0,0,7.716-8.828A37.678,37.678,0,0,0,78.024,344.744ZM45.981,331.726a24.281,24.281,0,0,0-10.838-5.466,27.9,27.9,0,0,0,8.789,11.285,18.389,18.389,0,0,0,11.249,3.991A47.077,47.077,0,0,0,45.981,331.726Zm2.041-10.279c-2.2-2.579-4.677-5.288-7.9-6.81a23.266,23.266,0,0,0,5.319,10.891c2.255,2.428,4.949,4.886,8.458,5.742A36.162,36.162,0,0,0,48.022,321.447Zm7.96,54.168a18.4,18.4,0,0,0,11.948.119,46.774,46.774,0,0,0-11.914-6.3A24.193,24.193,0,0,0,44,367.828,28.05,28.05,0,0,0,55.983,375.615Zm.386-44.584A23.683,23.683,0,0,0,64,324.77a30.351,30.351,0,0,0,5.4-8.687,16.618,16.618,0,0,0-8.159,5.28A20.04,20.04,0,0,0,56.368,331.031Zm4.81,49.188a24.392,24.392,0,0,0-12.256-.435,31.768,31.768,0,0,0,12.88,6.679A18.516,18.516,0,0,0,73.839,385.4,47.735,47.735,0,0,0,61.179,380.219ZM55.4,319.091a18.714,18.714,0,0,0,6.681-4.468,24.82,24.82,0,0,0,5.026-6.83,14.606,14.606,0,0,0-6.973,3.8A17.853,17.853,0,0,0,55.4,319.091Zm-.924-17.863a25.606,25.606,0,0,0,.366,11.243c.026.093.052.183.08.273.041-.085.079-.17.119-.257a48.068,48.068,0,0,0,3.149-10.593,42.8,42.8,0,0,0,.743-11.44A25.678,25.678,0,0,0,54.477,301.228Zm-6.906,12.52a14.641,14.641,0,0,0,6.312,5.32,28.623,28.623,0,0,0-3.914-8.375,19.413,19.413,0,0,0-5.88-5.995A20.316,20.316,0,0,0,47.571,313.749Z" transform="translate(-35.143 -290.454)" fill="url(#linear-gradient-2)"/>
        <path id="Path_6294" data-name="Path 6294" d="M56.353,350.212c-.15-.032-.295-.071-.444-.1l0,0h0c-.472-.1-.944-.2-1.415-.347a25.983,25.983,0,0,1-3.7-1.31,25.634,25.634,0,0,1-3.6-1.916,21.9,21.9,0,0,1-3.411-2.623,21.388,21.388,0,0,0,3.449,2.467,25.429,25.429,0,0,0,3.61,1.752,30.13,30.13,0,0,0,3.676,1.144c.48.118.979.214,1.462.3.129.022.257.047.382.071.386.071.785.114,1.176.162-.919-3.394-1.714-6.738-2.42-10.183-.493-.139-.984-.278-1.474-.441-.067-.026-.134-.047-.2-.07l0,0c-.532-.185-1.074-.358-1.6-.588a27.552,27.552,0,0,1-3.545-1.7,26.881,26.881,0,0,1-3.393-2.281,21.949,21.949,0,0,1-3.132-2.958,21.25,21.25,0,0,0,3.188,2.8,26.244,26.244,0,0,0,3.414,2.121,31.177,31.177,0,0,0,3.543,1.538c.569.21,1.16.381,1.741.566l.058.017c.426.122.852.225,1.28.33-.58-3.121-1.016-6.317-1.291-9.479-.4-.221-.789-.448-1.181-.687l0,0c-.461-.277-.92-.582-1.369-.9a29.273,29.273,0,0,1-2.6-2.058,27.946,27.946,0,0,1-2.421-2.436,23.906,23.906,0,0,1-2.178-2.84,22.861,22.861,0,0,0,2.255,2.7,26.513,26.513,0,0,0,2.476,2.283,29.116,29.116,0,0,0,2.632,1.9c.363.231.734.458,1.1.667.4.225.814.445,1.223.651a109.133,109.133,0,0,1-.362-11.867c-.221-.176-.441-.36-.658-.549a24.494,24.494,0,0,1-3.069-3.189,52.617,52.617,0,0,1-3.094-4.841,52,52,0,0,0,3.182,4.716,23.685,23.685,0,0,0,2.834,2.83q.4.338.816.658c.071-2.591.145-3.888.372-6.48.216-2.455.359-3.682.714-6.133-.125,1.03-.182,1.546-.283,2.576.124-1.028.192-1.542.342-2.569-.3,2.456-.414,3.686-.573,6.141-.168,2.591-.212,3.886-.224,6.47q.423-.3.84-.621c1.034-.78,2.043-1.616,3.018-2.507,1.3-1.19,3.748-3.807,3.748-3.807s-2.389,2.692-3.672,3.931c-1.047,1.011-2.146,1.967-3.26,2.853-.223.178-.45.354-.675.525a108.289,108.289,0,0,0,.63,11.8c.362-.28.726-.566,1.083-.853.329-.264.655-.543.977-.819.787-.675,1.57-1.4,2.336-2.127s1.509-1.495,2.232-2.276,1.435-1.586,2.094-2.439c-.63.887-1.311,1.73-2.007,2.552s-1.412,1.629-2.153,2.407-1.5,1.546-2.269,2.274c-.389.368-.787.737-1.187,1.089l0,0c-.341.3-.681.6-1.025.892.347,3.134.853,6.3,1.5,9.382.357-.256.716-.506,1.071-.768l.047-.035c.477-.374.971-.733,1.434-1.108.954-.775,1.944-1.6,2.867-2.442s1.833-1.744,2.7-2.669a31.627,31.627,0,0,0,2.478-2.915,32.6,32.6,0,0,1-2.386,3.027c-.839.963-1.727,1.908-2.628,2.8s-1.837,1.772-2.8,2.594c-.413.382-.857.727-1.285,1.085l0,0c-.054.045-.109.089-.162.137-.4.323-.8.634-1.2.95.779,3.4,1.644,6.691,2.631,10.031.3-.255.612-.507.9-.772.092-.087.188-.175.284-.262.362-.326.734-.663,1.081-1,.872-.855,1.773-1.778,2.606-2.705s1.647-1.917,2.41-2.925a31.585,31.585,0,0,0,2.152-3.158,32.219,32.219,0,0,1-2.052,3.258c-.733,1.045-1.511,2.074-2.32,3.049s-1.644,1.949-2.527,2.854c-.323.359-.667.689-1.008,1.025h0l0,0c-.111.1-.21.21-.319.319-.323.322-.665.63-1,.945,1.463,4.413,3.1,8.677,4.973,12.932.183-.281.367-.563.545-.846.225-.358.442-.726.656-1.091.524-.9,1.029-1.833,1.516-2.772s.939-1.9,1.369-2.873.84-1.961,1.186-2.978c-.307,1.038-.676,2.054-1.067,3.055s-.8,2-1.252,2.972-.917,1.95-1.4,2.886c-.248.475-.5.956-.766,1.418v0c-.162.286-.327.568-.491.852,1.339,2.9,2.842,5.769,4.46,8.521.205-.289.412-.575.612-.867l.033-.048c.327-.513.676-1.015.99-1.522.647-1.048,1.311-2.154,1.907-3.254s1.161-2.252,1.678-3.412a31.577,31.577,0,0,0,1.387-3.57,32.754,32.754,0,0,1-1.264,3.646c-.477,1.187-1.005,2.373-1.564,3.511s-1.154,2.281-1.793,3.378c-.265.5-.571.97-.858,1.451v0c-.038.059-.074.119-.109.182-.222.363-.454.717-.683,1.075,1.848,3.012,3.745,5.9,5.78,8.786.171-.293.352-.586.507-.884.059-.112.119-.228.182-.342.234-.428.472-.873.687-1.311.539-1.1,1.083-2.275,1.561-3.431s.918-2.366,1.3-3.575a32.16,32.16,0,0,0,.986-3.709,32.776,32.776,0,0,1-.859,3.771c-.345,1.235-.739,2.472-1.177,3.665s-.9,2.4-1.435,3.547c-.186.45-.4.877-.61,1.309l0,0v0c-.071.134-.129.27-.195.408-.175.365-.368.723-.557,1.083a131.356,131.356,0,0,0,13.238,14.819c-.437.465-.655.7-1.09,1.161a132.907,132.907,0,0,1-13.3-15.133c-.4.07-.8.142-1.208.189-.153.019-.3.028-.453.051h0l0,0c-.481.055-.963.112-1.457.126a27.1,27.1,0,0,1-7.992-.706,22.144,22.144,0,0,1-4.1-1.39,21.513,21.513,0,0,0,4.083,1.229,25.53,25.53,0,0,0,4,.5,30.1,30.1,0,0,0,3.864-.1c.494-.044,1-.113,1.484-.19l.386-.058c.334-.048.671-.125,1-.195-2.038-2.943-3.936-5.879-5.782-8.947-.425.022-.849.045-1.278.05-.073,0-.143,0-.214,0l0,0c-.565,0-1.133.009-1.707-.038A27.629,27.629,0,0,1,60.591,373a27.332,27.332,0,0,1-3.956-1.056,21.984,21.984,0,0,1-3.929-1.778,21.3,21.3,0,0,0,3.93,1.613,26.463,26.463,0,0,0,3.924.9,31.592,31.592,0,0,0,3.857.306c.606.013,1.221-.017,1.832-.03l.06,0c.356-.019.709-.051,1.062-.081-1.614-2.8-3.112-5.718-4.444-8.66-.323-.06-.645-.121-.97-.191l0,0c-.525-.112-1.058-.249-1.585-.4a29.608,29.608,0,0,1-3.129-1.09,27.974,27.974,0,0,1-3.081-1.5,23.963,23.963,0,0,1-2.98-1.957,23.089,23.089,0,0,0,3.007,1.805,26.832,26.832,0,0,0,3.084,1.34,29.267,29.267,0,0,0,3.108.936c.419.1.842.192,1.261.268.333.059.667.11,1,.159-1.856-4.318-3.478-8.644-4.922-13.116C57.261,350.377,56.8,350.308,56.353,350.212Z" transform="translate(-33.953 -288.033)" fill="#56548c"/>
      </g>
      <g id="Group_2921" data-name="Group 2921" transform="translate(76.82 180.844)">
        <path id="Path_6295" data-name="Path 6295" d="M127.031,314.672a44.221,44.221,0,0,0,10.864-8.981,23.825,23.825,0,0,0-13.273,3.143,26.576,26.576,0,0,0-10.541,10.691A32.387,32.387,0,0,0,127.031,314.672Zm-4.618,59.287a32.767,32.767,0,0,0,9.766-10,45.527,45.527,0,0,0,6.135-12.828,23.963,23.963,0,0,0-10.823,8.494A26.653,26.653,0,0,0,122.413,373.959Zm-21.394-54.778c-3.134-3.6-7.152-6.941-11.783-8.572a37.326,37.326,0,0,0,8.231,15.075,22.054,22.054,0,0,0,12.558,6.908A56.5,56.5,0,0,0,101.019,319.181Zm17.04,42.437a32.437,32.437,0,0,0,10.647-8.849,44.739,44.739,0,0,0,7.336-12.032,23.806,23.806,0,0,0-11.52,7.295A26.491,26.491,0,0,0,118.06,361.618Zm18.587-45.355a24.076,24.076,0,0,0-13,4.46,26.615,26.615,0,0,0-9.489,11.749,32.845,32.845,0,0,0,12.5-6.168A44.655,44.655,0,0,0,136.647,316.262Zm-35.675,21.293c-3.575-3.154-8-5.943-12.8-6.953A37.407,37.407,0,0,0,98.3,344.471a22.055,22.055,0,0,0,13.352,5.222A56.379,56.379,0,0,0,100.972,337.555Zm34.943-7.537a24.069,24.069,0,0,0-12.309,6.113,26.593,26.593,0,0,0-7.877,12.9,32.849,32.849,0,0,0,11.592-7.757A44.85,44.85,0,0,0,135.915,330.018Zm-32.793-24.852c-2.731-3.857-6.359-7.558-10.764-9.628a33.207,33.207,0,0,0,6.612,15.679,21.877,21.877,0,0,0,11.69,8.059A55.951,55.951,0,0,0,103.123,305.166Zm5.52-11.179c-1.733-3.642-3.74-7.519-6.972-10.263a27.678,27.678,0,0,0,2.747,14.156c1.841,3.485,4.177,7.142,7.943,9.207A42.99,42.99,0,0,0,108.643,293.987Zm-7.585,64.688a21.882,21.882,0,0,0,13.689,3.826A55.623,55.623,0,0,0,103,351.59c-3.839-2.75-8.478-5.052-13.313-5.563A33.366,33.366,0,0,0,101.058,358.675Zm14.214-51.1a28.16,28.16,0,0,0,10.7-4.837,36.066,36.066,0,0,0,8.888-8.312,19.748,19.748,0,0,0-11,3.547A23.814,23.814,0,0,0,115.272,307.576Zm-9.666,57.993c-4.133-2.39-9.029-4.254-13.946-4.285a37.774,37.774,0,0,0,12.734,11.651,22.03,22.03,0,0,0,14.158,2.494A56.826,56.826,0,0,0,105.605,365.569Zm12.242-72.009a22.26,22.26,0,0,0,9.055-3.07,29.52,29.52,0,0,0,7.884-6.294,17.347,17.347,0,0,0-9.183,2.213A21.244,21.244,0,0,0,117.847,293.56Zm4.456-20.807a30.455,30.455,0,0,0-3.052,13.029c0,.114,0,.225.008.337.073-.084.144-.171.216-.26a57.136,57.136,0,0,0,6.889-11.2,50.919,50.919,0,0,0,4.388-12.913A30.53,30.53,0,0,0,122.3,272.753ZM110.5,285a17.4,17.4,0,0,0,5.609,8.06,34.029,34.029,0,0,0-1.91-10.83,23.085,23.085,0,0,0-4.9-8.7A24.179,24.179,0,0,0,110.5,285Z" transform="translate(-88.173 -261.751)" fill="url(#linear-gradient-5)"/>
        <path id="Path_6296" data-name="Path 6296" d="M108.537,330.132c-.163-.084-.316-.172-.479-.25l0,0h0c-.511-.263-1.021-.525-1.517-.837a32.048,32.048,0,0,1-7.394-5.961,26.063,26.063,0,0,1-3.109-4.068,25.45,25.45,0,0,0,3.2,3.9,30.328,30.328,0,0,0,3.607,3.127,35.663,35.663,0,0,0,3.871,2.451c.514.284,1.057.549,1.586.794.14.065.281.133.418.2.421.2.867.374,1.3.55-.008-4.184.111-8.271.365-12.446-.523-.313-1.044-.624-1.556-.962-.07-.051-.14-.1-.211-.143l0,0c-.555-.378-1.122-.743-1.657-1.169a32.915,32.915,0,0,1-3.548-3.05,32.27,32.27,0,0,1-3.194-3.668,25.982,25.982,0,0,1-2.684-4.367,25.165,25.165,0,0,0,2.8,4.2,31.129,31.129,0,0,0,3.268,3.491,37.123,37.123,0,0,0,3.595,2.862c.588.417,1.214.8,1.825,1.188l.06.037c.453.271.911.523,1.369.775.3-3.765.786-7.57,1.446-11.289-.389-.376-.769-.759-1.146-1.154l0,0c-.442-.461-.877-.952-1.3-1.451a35.039,35.039,0,0,1-2.353-3.167,33.238,33.238,0,0,1-2.029-3.547,28.57,28.57,0,0,1-1.625-3.936,27.274,27.274,0,0,0,1.754,3.8,31.86,31.86,0,0,0,2.14,3.39,34.709,34.709,0,0,0,2.436,3c.346.378.7.753,1.063,1.107.394.385.8.762,1.2,1.126a129.52,129.52,0,0,1,3.249-13.744c-.2-.271-.4-.551-.588-.834a29.089,29.089,0,0,1-2.54-4.611,62.65,62.65,0,0,1-2.059-6.517,61.891,61.891,0,0,0,2.2,6.4,28.214,28.214,0,0,0,2.382,4.126q.357.515.735,1.009c.881-2.954,1.367-4.421,2.428-7.328,1.006-2.755,1.549-4.12,2.715-6.825-.463,1.144-.687,1.719-1.121,2.871.459-1.142.7-1.711,1.186-2.845-1.1,2.73-1.615,4.107-2.556,6.877-.992,2.926-1.444,4.4-2.256,7.365q.581-.219,1.157-.453c1.426-.577,2.847-1.226,4.24-1.948,1.864-.965,5.483-3.217,5.483-3.217s-3.577,2.356-5.432,3.384c-1.515.838-3.074,1.6-4.626,2.27-.311.136-.625.267-.938.394a128.9,128.9,0,0,0-2.92,13.751c.5-.209,1.008-.426,1.508-.647.459-.2.92-.42,1.375-.637,1.113-.533,2.236-1.122,3.341-1.724s2.194-1.252,3.267-1.924,2.138-1.379,3.16-2.156c-1,.825-2.04,1.582-3.094,2.311s-2.127,1.437-3.217,2.1-2.2,1.311-3.309,1.91c-.56.3-1.131.605-1.7.885l0,0c-.484.242-.966.477-1.454.71-.57,3.707-.965,7.5-1.173,11.242.491-.184.98-.36,1.468-.551l.066-.026c.663-.283,1.341-.543,1.989-.831,1.336-.6,2.728-1.239,4.048-1.921s2.645-1.436,3.928-2.231a37.188,37.188,0,0,0,3.747-2.585,38.41,38.41,0,0,1-3.676,2.742c-1.261.847-2.572,1.659-3.882,2.4s-2.658,1.467-4.019,2.115c-.593.311-1.209.569-1.812.849l0,0c-.077.034-.152.067-.229.106-.555.25-1.114.483-1.672.721-.155,4.141-.179,8.194-.076,12.336.424-.2.86-.393,1.27-.609.133-.071.27-.143.407-.212.517-.262,1.049-.536,1.554-.82,1.265-.713,2.585-1.495,3.829-2.3s2.485-1.694,3.673-2.616a37.631,37.631,0,0,0,3.447-2.964,38.477,38.477,0,0,1-3.363,3.109c-1.165.975-2.377,1.915-3.607,2.786s-2.491,1.731-3.785,2.5c-.483.313-.979.586-1.475.867h0l0,0c-.159.084-.308.177-.465.268-.472.27-.959.519-1.443.776.319,5.522.885,10.927,1.719,16.394.3-.267.6-.533.888-.8.368-.341.732-.7,1.09-1.052.878-.866,1.747-1.787,2.6-2.715s1.666-1.9,2.46-2.878,1.57-1.994,2.283-3.056c-.674,1.1-1.411,2.151-2.17,3.181s-1.542,2.046-2.356,3.027-1.655,1.956-2.5,2.882c-.431.47-.872.941-1.318,1.392l0,0c-.274.278-.551.551-.827.827.643,3.741,1.484,7.506,2.493,11.166.324-.268.65-.532.97-.807l.053-.046c.534-.487,1.09-.956,1.608-1.442,1.067-1,2.171-2.071,3.195-3.149s2.029-2.23,2.981-3.4a37.873,37.873,0,0,0,2.7-3.673,39.247,39.247,0,0,1-2.578,3.8c-.914,1.215-1.889,2.414-2.881,3.55s-2.032,2.264-3.105,3.326c-.458.491-.956.938-1.432,1.4l0,0c-.06.057-.122.114-.181.176-.367.349-.743.684-1.116,1.024,1.192,4.032,2.48,7.931,3.925,11.879.288-.283.585-.564.857-.858.1-.112.208-.225.314-.336.4-.421.812-.858,1.194-1.3.959-1.1,1.947-2.278,2.853-3.458s1.786-2.435,2.6-3.7a38.41,38.41,0,0,0,2.279-3.957,39.4,39.4,0,0,1-2.152,4.068c-.778,1.312-1.612,2.61-2.485,3.845s-1.777,2.473-2.744,3.632c-.352.458-.73.884-1.1,1.314h0l0,.006c-.122.131-.23.27-.349.408-.313.366-.645.716-.973,1.072a156.334,156.334,0,0,0,10.63,21.112l-1.61,1a158.152,158.152,0,0,1-10.609-21.492c-.483-.045-.969-.086-1.448-.157-.182-.027-.356-.061-.536-.083l0,0h0c-.571-.084-1.14-.169-1.713-.3a31.234,31.234,0,0,1-4.514-1.274,30.851,30.851,0,0,1-4.449-2.006,26.291,26.291,0,0,1-4.28-2.862,25.71,25.71,0,0,0,4.31,2.672,30.448,30.448,0,0,0,4.444,1.808,35.573,35.573,0,0,0,4.47,1.077c.582.1,1.182.178,1.764.241.155.017.309.035.46.053.4.047.811.064,1.215.086-1.432-4.01-2.707-7.971-3.881-12.064-.494-.105-.99-.211-1.483-.339-.083-.025-.164-.046-.247-.066l0,0c-.649-.178-1.3-.34-1.949-.571a33.2,33.2,0,0,1-8.572-4.17,26.244,26.244,0,0,1-3.964-3.256,25.355,25.355,0,0,0,4.016,3.066,31.575,31.575,0,0,0,4.231,2.243,37.294,37.294,0,0,0,4.337,1.541c.691.2,1.408.36,2.114.532l.07.015c.415.088.829.16,1.245.234-.99-3.712-1.81-7.53-2.43-11.321-.353-.17-.7-.34-1.056-.52l0,0c-.57-.29-1.14-.612-1.7-.947a35.37,35.37,0,0,1-3.256-2.219,33.213,33.213,0,0,1-3.076-2.679,28.5,28.5,0,0,1-2.819-3.17,27.4,27.4,0,0,0,2.9,3,32.068,32.068,0,0,0,3.128,2.493,35.1,35.1,0,0,0,3.281,2.034c.451.243.908.481,1.366.7.363.171.733.332,1.1.491-.8-5.533-1.327-11-1.6-16.589C109.528,330.6,109.024,330.381,108.537,330.132Z" transform="translate(-86.76 -259.128)" fill="#56548c"/>
      </g>
      <g id="Group_2922" data-name="Group 2922" transform="translate(404.31 221.263)">
        <path id="Path_6297" data-name="Path 6297" d="M384.128,336.6a18.323,18.323,0,0,0-6.65-7.923,16.42,16.42,0,0,0-8.942-2.889,30.476,30.476,0,0,0,6.966,6.765A22.3,22.3,0,0,0,384.128,336.6Zm-11.42,26.8a16.51,16.51,0,0,0-6.965-6.43,31.365,31.365,0,0,0,3.507,9.148,22.591,22.591,0,0,0,6.155,7.406A18.363,18.363,0,0,0,372.709,363.4Zm13.484-17.6a15.193,15.193,0,0,0,9-4.05,25.731,25.731,0,0,0,6.483-9.9,20.054,20.054,0,0,0-8.564,5.236A38.921,38.921,0,0,0,386.193,345.8Zm-10.807,9.8a16.4,16.4,0,0,0-7.509-5.646,30.807,30.807,0,0,0,4.375,8.667,22.347,22.347,0,0,0,6.823,6.664A18.232,18.232,0,0,0,375.386,355.6Zm-.269-15.039a22.636,22.636,0,0,0,8.246,4.925,18.333,18.333,0,0,0-5.869-8.592,16.586,16.586,0,0,0-8.683-3.779A30.748,30.748,0,0,0,375.117,340.563Zm9.018,16.888a15.189,15.189,0,0,0,9.456-2.849,25.78,25.78,0,0,0,7.719-8.966,20.034,20.034,0,0,0-9.173,4.069A38.9,38.9,0,0,0,384.134,357.452Zm-10.3-6.644a22.643,22.643,0,0,0,7.532,5.966,18.315,18.315,0,0,0-4.7-9.294,16.576,16.576,0,0,0-8.116-4.876A30.933,30.933,0,0,0,373.837,350.808Zm12.653-14.189a15.063,15.063,0,0,0,8.472-4.889,22.872,22.872,0,0,0,5.4-10.4,19.89,19.89,0,0,0-7.923,6.018A38.583,38.583,0,0,0,386.489,336.619Zm-.494-8.464c2.7-1.212,4.506-3.593,5.962-5.885a19.062,19.062,0,0,0,2.667-9.57c-2.37,1.707-3.963,4.258-5.354,6.664A29.628,29.628,0,0,0,385.995,328.155Zm13.421,27.991a19.829,19.829,0,0,0-9.449,3.086,38.337,38.337,0,0,0-8.665,6.845,15.075,15.075,0,0,0,9.611-1.872A22.985,22.985,0,0,0,399.416,356.146ZM378.6,321.262a13.621,13.621,0,0,0-7.361-3.042,24.89,24.89,0,0,0,5.646,6.2,19.416,19.416,0,0,0,7.083,3.911A16.409,16.409,0,0,0,378.6,321.262Zm-.625,53.483a15.175,15.175,0,0,0,9.86-.932,26.038,26.038,0,0,0,9.387-7.3,19.984,19.984,0,0,0-9.813,2.174A39.11,39.11,0,0,0,377.977,374.746Zm.064-61.521a11.95,11.95,0,0,0-6.184-2.026,20.32,20.32,0,0,0,5.066,4.756,15.322,15.322,0,0,0,6.049,2.607A14.633,14.633,0,0,0,378.04,313.225Zm-2.176-17.216a35.027,35.027,0,0,0,2.3,9.108,39.391,39.391,0,0,0,4.113,8.069c.046.065.089.127.135.19.011-.077.018-.153.024-.231a22.264,22.264,0,0,0-6.572-17.136Zm14.083,9.272a15.907,15.907,0,0,0-3.846,5.706,23.437,23.437,0,0,0-1.909,7.332,11.988,11.988,0,0,0,4.3-5.226A16.65,16.65,0,0,0,389.947,305.281Z" transform="translate(-365.744 -296.009)" fill="url(#linear-gradient-2)"/>
        <path id="Path_6298" data-name="Path 6298" d="M385.975,344.039c.117-.048.228-.1.343-.144l0,0h0c.366-.153.73-.3,1.089-.491a22.128,22.128,0,0,0,5.406-3.686,18.034,18.034,0,0,0,2.36-2.622,17.572,17.572,0,0,1-2.413,2.5,20.8,20.8,0,0,1-2.65,1.949,24.374,24.374,0,0,1-2.793,1.469c-.369.166-.756.319-1.133.458l-.3.113c-.3.114-.616.209-.924.306.236-2.872.379-5.686.435-8.567.376-.186.752-.372,1.122-.575.051-.031.1-.059.152-.086l0,0c.4-.229.812-.448,1.2-.711a22.713,22.713,0,0,0,2.6-1.9,22.384,22.384,0,0,0,2.4-2.343,18.009,18.009,0,0,0,2.084-2.851,17.4,17.4,0,0,1-2.152,2.733,21.549,21.549,0,0,1-2.436,2.218,25.65,25.65,0,0,1-2.628,1.767c-.426.253-.878.479-1.319.715l-.042.022c-.327.162-.655.308-.983.457,0-2.6-.123-5.242-.37-7.832.288-.237.57-.479.849-.729l0,0c.33-.293.655-.605.97-.925a24.133,24.133,0,0,0,1.79-2.045,22.747,22.747,0,0,0,1.589-2.324,19.658,19.658,0,0,0,1.333-2.613,18.781,18.781,0,0,1-1.415,2.514,22.01,22.01,0,0,1-1.656,2.21,23.8,23.8,0,0,1-1.838,1.926c-.258.241-.523.478-.792.7-.291.243-.59.48-.89.708a89.106,89.106,0,0,0-1.472-9.618c.151-.175.3-.356.448-.54a20.181,20.181,0,0,0,2-3.026,43.2,43.2,0,0,0,1.772-4.362,42.589,42.589,0,0,1-1.862,4.275,19.5,19.5,0,0,1-1.864,2.7c-.182.222-.369.44-.559.652-.444-2.078-.7-3.112-1.265-5.166-.538-1.947-.835-2.915-1.487-4.837.254.812.376,1.219.611,2.034-.252-.811-.385-1.214-.657-2.019.606,1.935.883,2.908,1.375,4.863.521,2.064.749,3.1,1.144,5.181q-.388-.182-.77-.374c-.949-.475-1.888-1-2.8-1.572-1.227-.766-3.588-2.511-3.588-2.511s2.327,1.815,3.544,2.622c.993.66,2.022,1.266,3.051,1.815.206.11.415.218.622.322a88.53,88.53,0,0,1,1.248,9.6c-.334-.171-.669-.348-1-.526-.3-.164-.609-.34-.91-.514-.734-.427-1.474-.893-2.2-1.367s-1.438-.98-2.138-1.5-1.391-1.064-2.051-1.654c.639.622,1.314,1.2,2,1.758s1.382,1.1,2.093,1.62,1.442,1.022,2.167,1.495c.368.238.743.478,1.119.7l0,0c.32.191.637.38.959.566.186,2.578.249,5.2.185,7.785-.326-.152-.652-.3-.977-.459l-.044-.021c-.44-.231-.892-.447-1.32-.681-.885-.483-1.805-1-2.673-1.541s-1.738-1.133-2.574-1.749a25.66,25.66,0,0,1-2.432-1.982,26.569,26.569,0,0,0,2.374,2.086c.819.651,1.675,1.28,2.533,1.864s1.745,1.154,2.643,1.673c.39.248.8.458,1.2.684l0,0c.051.027.1.054.151.085.367.2.739.393,1.109.588-.122,2.853-.328,5.636-.628,8.476-.281-.16-.57-.317-.839-.488-.089-.057-.178-.113-.268-.169-.341-.208-.69-.426-1.022-.649-.829-.558-1.693-1.169-2.5-1.792s-1.613-1.3-2.379-2a25.815,25.815,0,0,1-2.2-2.225,26.1,26.1,0,0,0,2.138,2.32c.746.734,1.527,1.448,2.323,2.112s1.614,1.327,2.46,1.924c.315.242.641.457.965.677h0l0,0c.105.066.2.138.3.209.309.212.63.411.949.614-.524,3.773-1.211,7.454-2.085,11.162-.189-.2-.38-.4-.565-.6-.235-.255-.465-.519-.691-.782-.555-.643-1.1-1.325-1.633-2.008s-1.041-1.393-1.531-2.112-.969-1.456-1.4-2.224c.4.792.851,1.555,1.315,2.3s.945,1.49,1.45,2.209,1.029,1.435,1.561,2.118c.27.346.547.695.828,1.028l0,0c.172.206.347.409.521.614-.648,2.534-1.432,5.073-2.327,7.531-.209-.2-.418-.4-.622-.608l-.034-.034c-.34-.365-.7-.716-1.024-1.08-.677-.747-1.377-1.541-2.021-2.338s-1.271-1.642-1.859-2.5a25.989,25.989,0,0,1-1.651-2.671,27.235,27.235,0,0,0,1.561,2.751c.562.885,1.164,1.761,1.784,2.6s1.27,1.667,1.948,2.455c.288.362.605.7.907,1.043v0c.039.043.077.085.114.131.232.26.472.51.71.763-1.041,2.7-2.141,5.31-3.351,7.941-.182-.21-.372-.42-.542-.636-.064-.083-.13-.166-.2-.249-.252-.31-.51-.634-.748-.954-.6-.806-1.212-1.673-1.769-2.533s-1.093-1.77-1.585-2.687a26.694,26.694,0,0,1-1.346-2.843,26.913,26.913,0,0,0,1.253,2.912c.461.944.963,1.882,1.495,2.777s1.083,1.8,1.684,2.645c.217.334.453.648.687.964h0v0c.075.1.143.2.217.3.195.267.4.526.609.789a107.607,107.607,0,0,1-8.463,13.911c.42.31.63.465,1.051.774a109.057,109.057,0,0,0,8.47-14.175c.334,0,.669-.006,1-.028.126-.007.249-.021.373-.026l0,0h0c.4-.026.793-.052,1.193-.113a22.291,22.291,0,0,0,6.337-1.758,18.148,18.148,0,0,0,3.1-1.731,17.69,17.69,0,0,1-3.108,1.6,21.087,21.087,0,0,1-3.151,1,24.426,24.426,0,0,1-3.13.493c-.4.039-.821.058-1.224.068-.107,0-.215.007-.32.011-.276.011-.559,0-.838-.007,1.2-2.676,2.3-5.325,3.328-8.071.346-.045.691-.091,1.037-.15.059-.013.116-.022.173-.033l0,0c.455-.086.916-.16,1.37-.284a22.714,22.714,0,0,0,3.085-.951,22.468,22.468,0,0,0,3.031-1.439,18.109,18.109,0,0,0,2.9-2.018,17.391,17.391,0,0,1-2.927,1.883,21.413,21.413,0,0,1-3.03,1.307,25.6,25.6,0,0,1-3.063.82c-.486.1-.986.169-1.481.249l-.048.007c-.29.038-.579.064-.868.091.885-2.494,1.658-5.071,2.294-7.641.251-.1.5-.194.753-.3l0,0c.407-.168.816-.357,1.218-.557a24.054,24.054,0,0,0,2.36-1.344,22.991,22.991,0,0,0,2.259-1.671,19.72,19.72,0,0,0,2.111-2.021,18.877,18.877,0,0,1-2.156,1.9,21.961,21.961,0,0,1-2.285,1.54,24.277,24.277,0,0,1-2.366,1.216c-.323.142-.651.28-.977.4-.26.1-.521.188-.782.276.853-3.755,1.517-7.484,2.015-11.3C385.269,344.308,385.627,344.184,385.975,344.039Z" transform="translate(-365.483 -294.134)" fill="#56548c"/>
      </g>
      <g id="Group_2923" data-name="Group 2923" transform="translate(0 253.861)">
        <path id="Path_6299" data-name="Path 6299" d="M44.085,386.433c13.763-2.622,23.694,7.714,24.35,8.369.605-2.118,6.6-21.628,26.064-28.533a41.359,41.359,0,0,1,26.871,0,19.2,19.2,0,0,1,23.544-25.207,37.963,37.963,0,0,1,68.865,11.746,19.089,19.089,0,0,1,34.483,5.04,35.182,35.182,0,0,1,59.333,14.874,35.833,35.833,0,0,1,32.844-6.342c17.094,5.381,27.858,23.523,24.135,41.882H23.063C25.129,397.121,33.6,388.4,44.085,386.433Z" transform="translate(-23.063 -323.638)" fill="url(#linear-gradient-7)"/>
        <path id="Path_6300" data-name="Path 6300" d="M207.88,390.414c13.763-2.622,23.695,7.713,24.351,8.367.6-2.117,6.6-21.628,26.064-28.533a41.369,41.369,0,0,1,26.871,0,19.2,19.2,0,0,1,23.543-25.207,37.964,37.964,0,0,1,68.866,11.747,19.089,19.089,0,0,1,34.483,5.041A35.18,35.18,0,0,1,471.39,376.7a35.829,35.829,0,0,1,32.844-6.341c17.094,5.38,27.858,23.523,24.135,41.881H186.858C188.925,401.1,197.4,392.38,207.88,390.414Z" transform="translate(6.394 -322.922)" fill="url(#linear-gradient-7)"/>
      </g>
    </g>
    <circle id="Ellipse_400" data-name="Ellipse 400" cx="6.911" cy="6.911" r="6.911" transform="translate(63.889 326.395)" fill="#f9fbfc"/>
    <circle id="Ellipse_401" data-name="Ellipse 401" cx="19.012" cy="19.012" r="19.012" transform="translate(74.408 203.375)" fill="#f9fbfc"/>
    <g id="Group_2930" data-name="Group 2930" transform="translate(352.126 291.614)">
      <g id="Group_2925" data-name="Group 2925" transform="translate(75.988 78.529)">
        <path id="Path_6301" data-name="Path 6301" d="M405.161,327.344q5.642,1.947-12.841,74.139H379q10.123-27.851,19.117-56.11c.327-1.028-.286-1.208-.658-.23q-10.686,27.936-20.2,56.34H366.372Q399.2,325.295,405.161,327.344Z" transform="translate(-366.372 -327.29)" fill="url(#linear-gradient-9)"/>
        <path id="Path_6302" data-name="Path 6302" d="M395.8,342.52c.373-.978.985-.8.658.23q-9.056,28.228-19.117,56.11h-1.737Q385.089,370.475,395.8,342.52Z" transform="translate(-364.712 -324.668)" fill="#4f5aff"/>
      </g>
      <g id="Group_2926" data-name="Group 2926" transform="translate(36.248)">
        <path id="Path_6303" data-name="Path 6303" d="M363.968,413.453H349.789l.12-5.277.249-9.279q.57-18.558,1.14-37.119,1.163-37.131,2.324-74.271c.06-1.975-.583-1.944-.7-.034q-2.239,37.066-3.495,74.23-.614,18.575-.88,37.157l-.086,9.291-.007,5.3H332.69c10.182-113.218,16.984-152.9,21.591-152.721S362.568,300.72,363.968,413.453Z" transform="translate(-332.69 -260.731)" fill="url(#linear-gradient-10)"/>
        <path id="Path_6304" data-name="Path 6304" d="M350.52,283.615c.117-1.91.76-1.941.7.034q-1.163,37.132-2.324,74.271-.57,18.563-1.14,37.119l-.249,9.279-.12,5.277h-1.334l.007-5.3.086-9.291q.26-18.579.88-37.157Q348.255,320.7,350.52,283.615Z" transform="translate(-330.287 -256.875)" fill="#4f5aff"/>
      </g>
      <g id="Group_2927" data-name="Group 2927" transform="translate(21.261 47.869)">
        <path id="Path_6305" data-name="Path 6305" d="M340.089,406.157h-8.178c-.328-27.12-1.452-54.252-3.081-81.35-.068-1.151-.708-1.091-.7.026q.361,40.669,2.768,81.324H319.987C321,343.3,324.486,301.4,327.435,301.3Q332.113,301.157,340.089,406.157Z" transform="translate(-319.987 -301.304)" fill="url(#linear-gradient-11)"/>
        <path id="Path_6306" data-name="Path 6306" d="M330.67,402.7h-1.009q-2.442-40.6-2.768-81.324c-.012-1.117.628-1.178.7-.026C329.217,348.45,330.342,375.582,330.67,402.7Z" transform="translate(-318.745 -297.849)" fill="#4f5aff"/>
      </g>
      <g id="Group_2928" data-name="Group 2928" transform="translate(0 82.808)">
        <path id="Path_6307" data-name="Path 6307" d="M328.22,400.831h-7.9c-3.721-18.086-8.062-36.047-12.8-53.906-.222-.842-.838-.67-.681.158q5.237,27.037,12.093,53.748H307.877q-9.051-68.915-4.239-69.9Q308.591,329.921,328.22,400.831Z" transform="translate(-301.967 -330.917)" fill="url(#linear-gradient-12)"/>
        <path id="Path_6308" data-name="Path 6308" d="M319.581,398.475H318.2q-6.877-26.67-12.093-53.748c-.157-.828.459-1,.681-.158C311.52,362.429,315.86,380.389,319.581,398.475Z" transform="translate(-301.228 -328.561)" fill="#4f5aff"/>
      </g>
      <g id="Group_2929" data-name="Group 2929" transform="translate(57.186 38.95)">
        <path id="Path_6309" data-name="Path 6309" d="M398.079,293.768q5.077,1.614-24.957,113.749H361.058q15.662-45.256,29.949-91.018c.478-1.52-.143-1.677-.662-.222q-16.119,45.348-30.848,91.24h-9.061Q392.854,292.115,398.079,293.768Z" transform="translate(-350.436 -293.744)" fill="url(#linear-gradient-13)"/>
        <path id="Path_6310" data-name="Path 6310" d="M388.964,313c.519-1.455,1.14-1.3.662.222q-14.371,45.709-29.949,91.018h-1.561Q372.8,358.381,388.964,313Z" transform="translate(-349.055 -290.463)" fill="#4f5aff"/>
      </g>
    </g>
    <g id="Group_2936" data-name="Group 2936" transform="translate(72.653 291.614)">
      <g id="Group_2931" data-name="Group 2931" transform="translate(75.987 78.529)">
        <path id="Path_6311" data-name="Path 6311" d="M168.286,327.344q5.644,1.947-12.841,74.139H142.129c6.749-18.567,13.079-37.291,19.116-56.11.327-1.028-.286-1.208-.658-.23q-10.686,27.936-20.2,56.34H129.5Q162.331,325.295,168.286,327.344Z" transform="translate(-129.498 -327.29)" fill="url(#linear-gradient-9)"/>
        <path id="Path_6312" data-name="Path 6312" d="M158.926,342.52c.373-.978.985-.8.658.23-6.037,18.818-12.367,37.543-19.116,56.11h-1.738Q148.215,370.475,158.926,342.52Z" transform="translate(-127.838 -324.668)" fill="#4f5aff"/>
      </g>
      <g id="Group_2932" data-name="Group 2932" transform="translate(36.248)">
        <path id="Path_6313" data-name="Path 6313" d="M127.094,413.453H112.917l.12-5.277.248-9.279q.57-18.558,1.14-37.119,1.163-37.131,2.324-74.271c.061-1.975-.583-1.944-.7-.034q-2.239,37.066-3.494,74.23-.616,18.575-.88,37.157l-.087,9.291-.007,5.3H95.816C106,300.236,112.8,260.55,117.407,260.732S125.694,300.72,127.094,413.453Z" transform="translate(-95.816 -260.731)" fill="url(#linear-gradient-15)"/>
        <path id="Path_6314" data-name="Path 6314" d="M113.646,283.615c.117-1.91.761-1.941.7.034q-1.161,37.132-2.324,74.271-.57,18.563-1.14,37.119l-.248,9.279-.12,5.277h-1.336l.007-5.3.087-9.291q.258-18.579.88-37.157Q111.383,320.7,113.646,283.615Z" transform="translate(-93.413 -256.875)" fill="#4f5aff"/>
      </g>
      <g id="Group_2933" data-name="Group 2933" transform="translate(21.26 47.869)">
        <path id="Path_6315" data-name="Path 6315" d="M103.215,406.157H95.038c-.327-27.12-1.452-54.252-3.081-81.35-.068-1.151-.708-1.091-.7.026q.361,40.669,2.768,81.324H83.113C84.125,343.3,87.612,301.4,90.561,301.3Q95.239,301.157,103.215,406.157Z" transform="translate(-83.113 -301.304)" fill="url(#linear-gradient-11)"/>
        <path id="Path_6316" data-name="Path 6316" d="M93.8,402.7H92.787q-2.442-40.6-2.768-81.324c-.012-1.117.628-1.178.7-.026C92.343,348.45,93.469,375.582,93.8,402.7Z" transform="translate(-81.871 -297.849)" fill="#4f5aff"/>
      </g>
      <g id="Group_2934" data-name="Group 2934" transform="translate(0 82.808)">
        <path id="Path_6317" data-name="Path 6317" d="M91.346,400.831h-7.9c-3.72-18.086-8.062-36.047-12.8-53.906-.223-.842-.839-.67-.681.158Q75.2,374.12,82.061,400.831H71q-9.049-68.915-4.239-69.9Q71.717,329.921,91.346,400.831Z" transform="translate(-65.094 -330.917)" fill="url(#linear-gradient-12)"/>
        <path id="Path_6318" data-name="Path 6318" d="M82.707,398.475H81.322Q74.445,371.8,69.23,344.727c-.158-.828.458-1,.681-.158C74.645,362.429,78.987,380.389,82.707,398.475Z" transform="translate(-64.354 -328.561)" fill="#4f5aff"/>
      </g>
      <g id="Group_2935" data-name="Group 2935" transform="translate(57.185 38.95)">
        <path id="Path_6319" data-name="Path 6319" d="M161.205,293.768q5.079,1.614-24.957,113.749H124.184q15.664-45.256,29.95-91.018c.477-1.52-.144-1.677-.662-.222q-16.121,45.348-30.849,91.24h-9.061Q155.98,292.115,161.205,293.768Z" transform="translate(-113.562 -293.744)" fill="url(#linear-gradient-18)"/>
        <path id="Path_6320" data-name="Path 6320" d="M152.091,313c.518-1.455,1.139-1.3.662.222q-14.372,45.709-29.95,91.018h-1.561Q135.929,358.381,152.091,313Z" transform="translate(-112.181 -290.463)" fill="#4f5aff"/>
      </g>
    </g>
    <g id="Group_2940" data-name="Group 2940" transform="translate(351.736 139.021)">
      <path id="Path_6321" data-name="Path 6321" d="M447.2,133.043V225.78a1.633,1.633,0,0,1-1.634,1.635H303.272a1.634,1.634,0,0,1-1.635-1.635V133.043a1.642,1.642,0,0,1,1.635-1.645H445.567A1.642,1.642,0,0,1,447.2,133.043Z" transform="translate(-301.637 -131.398)" fill="#bee1f4"/>
      <path id="Path_6322" data-name="Path 6322" d="M447.2,133.043v10.071H301.637V133.043a1.642,1.642,0,0,1,1.635-1.645H445.567A1.642,1.642,0,0,1,447.2,133.043Z" transform="translate(-301.637 -131.398)" fill="#606bf1"/>
      <path id="Path_6323" data-name="Path 6323" d="M310.984,136.755a2.422,2.422,0,1,1-2.422-2.422A2.422,2.422,0,0,1,310.984,136.755Z" transform="translate(-300.827 -130.87)" fill="#ec827d"/>
      <path id="Path_6324" data-name="Path 6324" d="M319.889,136.755a2.422,2.422,0,1,1-2.422-2.422A2.422,2.422,0,0,1,319.889,136.755Z" transform="translate(-299.226 -130.87)" fill="#fbd15b"/>
      <path id="Path_6325" data-name="Path 6325" d="M328.795,136.755a2.423,2.423,0,1,1-2.422-2.422A2.422,2.422,0,0,1,328.795,136.755Z" transform="translate(-297.624 -130.87)" fill="#b1b2f3"/>
      <rect id="Rectangle_778" data-name="Rectangle 778" width="78.363" height="70.756" transform="translate(58.716 17.886)" fill="#fff"/>
      <g id="Group_2937" data-name="Group 2937" transform="translate(11.284 27.291)">
        <rect id="Rectangle_779" data-name="Rectangle 779" width="27.683" height="1.807" fill="#fff"/>
        <rect id="Rectangle_780" data-name="Rectangle 780" width="41.44" height="1.807" transform="translate(0 9.009)" fill="#fff"/>
        <rect id="Rectangle_781" data-name="Rectangle 781" width="41.44" height="1.807" transform="translate(0 14.885)" fill="#fff"/>
        <rect id="Rectangle_782" data-name="Rectangle 782" width="41.44" height="1.807" transform="translate(0 20.76)" fill="#fff"/>
        <rect id="Rectangle_783" data-name="Rectangle 783" width="41.44" height="1.807" transform="translate(0 26.636)" fill="#fff"/>
        <rect id="Rectangle_784" data-name="Rectangle 784" width="41.44" height="1.807" transform="translate(0 32.511)" fill="#fff"/>
        <rect id="Rectangle_785" data-name="Rectangle 785" width="41.44" height="1.807" transform="translate(0 38.387)" fill="#fff"/>
        <rect id="Rectangle_786" data-name="Rectangle 786" width="41.44" height="1.807" transform="translate(0 44.263)" fill="#fff"/>
        <rect id="Rectangle_787" data-name="Rectangle 787" width="27.254" height="1.807" transform="translate(0 50.138)" fill="#fff"/>
      </g>
      <g id="Group_2938" data-name="Group 2938" transform="translate(65.555 26.563)">
        <rect id="Rectangle_788" data-name="Rectangle 788" width="9.732" height="53.403" fill="#bee1f4"/>
        <rect id="Rectangle_789" data-name="Rectangle 789" width="9.732" height="53.403" transform="translate(18.317)" fill="#bee1f4"/>
        <rect id="Rectangle_790" data-name="Rectangle 790" width="9.732" height="53.403" transform="translate(36.634)" fill="#bee1f4"/>
        <rect id="Rectangle_791" data-name="Rectangle 791" width="9.732" height="53.403" transform="translate(54.952)" fill="#bee1f4"/>
      </g>
      <g id="Group_2939" data-name="Group 2939" transform="translate(65.555 40.453)">
        <rect id="Rectangle_792" data-name="Rectangle 792" width="9.732" height="14.399" transform="translate(0 25.113)" fill="url(#linear-gradient-19)"/>
        <rect id="Rectangle_793" data-name="Rectangle 793" width="9.732" height="21.885" transform="translate(18.317 17.627)" fill="url(#linear-gradient-20)"/>
        <rect id="Rectangle_794" data-name="Rectangle 794" width="9.732" height="39.512" transform="translate(36.634)" fill="url(#linear-gradient-21)"/>
        <rect id="Rectangle_795" data-name="Rectangle 795" width="9.732" height="31.433" transform="translate(54.952 8.079)" fill="#fbd15b"/>
      </g>
    </g>
    <path id="Path_6326" data-name="Path 6326" d="M384.926,258.984l-.352,151.743a8.659,8.659,0,0,1-8.659,8.619l-254.29-.59a8.673,8.673,0,0,1-8.619-8.659l.42-181.009a8.659,8.659,0,0,1,8.659-8.619l74.273.172a23.963,23.963,0,0,1,14.72,6.146L228.1,243.871a24.033,24.033,0,0,0,14.735,6.145l133.472.309A8.662,8.662,0,0,1,384.926,258.984Z" transform="translate(16.176 23.642)" fill="#f4c44e"/>
    <g id="Group_2951" data-name="Group 2951" transform="translate(187.983 125.683)">
      <rect id="Rectangle_796" data-name="Rectangle 796" width="177.838" height="234.812" rx="7.008" transform="translate(0 23.686)" fill="#878cf0"/>
      <rect id="Rectangle_797" data-name="Rectangle 797" width="148.835" height="187.56" transform="translate(14.502 35.582)" fill="#fff"/>
      <g id="Group_2948" data-name="Group 2948" transform="translate(34.044 59.593)">
        <g id="Group_2941" data-name="Group 2941" transform="translate(0 18.769)">
          <path id="Path_6327" data-name="Path 6327" d="M299.091,191.229H194.059a2.36,2.36,0,0,1,0-4.719H299.091a2.36,2.36,0,0,1,0,4.719Z" transform="translate(-191.699 -186.51)" fill="#bee1f4"/>
        </g>
        <g id="Group_2942" data-name="Group 2942">
          <path id="Path_6328" data-name="Path 6328" d="M299.091,175.321H194.059a2.36,2.36,0,1,1,0-4.719H299.091a2.36,2.36,0,1,1,0,4.719Z" transform="translate(-191.699 -170.602)" fill="#bee1f4"/>
        </g>
        <g id="Group_2943" data-name="Group 2943" transform="translate(0 37.538)">
          <path id="Path_6329" data-name="Path 6329" d="M299.091,207.137H194.059a2.36,2.36,0,0,1,0-4.719H299.091a2.36,2.36,0,1,1,0,4.719Z" transform="translate(-191.699 -202.418)" fill="#bee1f4"/>
        </g>
        <g id="Group_2944" data-name="Group 2944" transform="translate(0 56.307)">
          <path id="Path_6330" data-name="Path 6330" d="M299.091,223.045H194.059a2.36,2.36,0,1,1,0-4.719H299.091a2.36,2.36,0,1,1,0,4.719Z" transform="translate(-191.699 -218.326)" fill="#bee1f4"/>
        </g>
        <g id="Group_2945" data-name="Group 2945" transform="translate(0 75.076)">
          <path id="Path_6331" data-name="Path 6331" d="M299.091,238.953H194.059a2.36,2.36,0,0,1,0-4.719H299.091a2.36,2.36,0,0,1,0,4.719Z" transform="translate(-191.699 -234.234)" fill="#bee1f4"/>
        </g>
        <g id="Group_2946" data-name="Group 2946" transform="translate(0 93.845)">
          <path id="Path_6332" data-name="Path 6332" d="M299.091,254.861H194.059a2.36,2.36,0,0,1,0-4.719H299.091a2.36,2.36,0,0,1,0,4.719Z" transform="translate(-191.699 -250.142)" fill="#bee1f4"/>
        </g>
        <g id="Group_2947" data-name="Group 2947" transform="translate(0 112.612)">
          <path id="Path_6333" data-name="Path 6333" d="M252.225,270.768H194.059a2.36,2.36,0,1,1,0-4.719h58.166a2.36,2.36,0,1,1,0,4.719Z" transform="translate(-191.699 -266.049)" fill="#bee1f4"/>
        </g>
      </g>
      <g id="Group_2950" data-name="Group 2950" transform="translate(48.723)">
        <path id="Path_6334" data-name="Path 6334" d="M281.431,135.181H259.424a15.087,15.087,0,1,0-30.174,0H207.243a3.1,3.1,0,0,0-3.1,3.1v20.3a3.1,3.1,0,0,0,3.1,3.1h74.188a3.1,3.1,0,0,0,3.1-3.1v-20.3A3.1,3.1,0,0,0,281.431,135.181Zm-37.1,6.63a6.63,6.63,0,1,1,6.631-6.631A6.637,6.637,0,0,1,244.336,141.81Z" transform="translate(-204.141 -120.093)" fill="url(#linear-gradient-22)"/>
        <g id="Group_2949" data-name="Group 2949" transform="translate(0 31.748)" style="mix-blend-mode: multiply;isolation: isolate">
          <path id="Path_6335" data-name="Path 6335" d="M281.431,150.105H207.243a3.1,3.1,0,0,1-3.1-3.1v6.74a3.1,3.1,0,0,0,3.1,3.1h74.188a3.1,3.1,0,0,0,3.1-3.1V147A3.1,3.1,0,0,1,281.431,150.105Z" transform="translate(-204.141 -147.002)" fill="#d1d3d4"/>
        </g>
      </g>
    </g>
    <path id="Path_6336" data-name="Path 6336" d="M384.926,269.7l-.352,151.742a8.659,8.659,0,0,1-8.659,8.619l-254.29-.59a8.671,8.671,0,0,1-8.619-8.659l.42-181.008a8.659,8.659,0,0,1,8.659-8.619l74.273.172a23.955,23.955,0,0,1,14.72,6.145L228.1,254.588a24.032,24.032,0,0,0,14.735,6.145l133.472.31A8.66,8.66,0,0,1,384.926,269.7Z" transform="translate(16.176 25.569)" fill="#f1f2f2" style="mix-blend-mode: multiply;isolation: isolate"/>
    <path id="Path_6337" data-name="Path 6337" d="M532.828,412.294H59.768a6.285,6.285,0,0,1-6.267-6.267h0a6.286,6.286,0,0,1,6.267-6.269h473.06a6.287,6.287,0,0,1,6.268,6.269h0A6.286,6.286,0,0,1,532.828,412.294Z" transform="translate(5.474 55.885)" fill="#e6f3f9"/>
    <path id="Path_6338" data-name="Path 6338" d="M460.155,397.4H59.768a6.286,6.286,0,0,1-6.267-6.269h0a6.285,6.285,0,0,1,6.267-6.267H460.155a6.285,6.285,0,0,1,6.267,6.267h0A6.286,6.286,0,0,1,460.155,397.4Z" transform="translate(5.474 53.206)" fill="#e6f3f9" style="mix-blend-mode: multiply;isolation: isolate"/>
    <path id="Path_6339" data-name="Path 6339" d="M384.926,276.119l-.352,151.742a8.659,8.659,0,0,1-8.659,8.619l-254.29-.59a8.671,8.671,0,0,1-8.619-8.659l.42-181.008a8.657,8.657,0,0,1,8.659-8.619l74.273.172a23.955,23.955,0,0,1,14.72,6.145L228.1,261.005a24.032,24.032,0,0,0,14.735,6.145l133.472.31A8.661,8.661,0,0,1,384.926,276.119Z" transform="translate(16.176 26.723)" fill="#fbd15b"/>
    <path id="Path_6340" data-name="Path 6340" d="M380.61,377.96l-.047,22.334a8.439,8.439,0,0,1-8.436,8.389l-247.767-.566a8.465,8.465,0,0,1-8.4-8.436l.047-21.721Z" transform="translate(16.707 51.965)" fill="#fbd15b"/>
    <path id="Path_6341" data-name="Path 6341" d="M113.427,257.672a8.657,8.657,0,0,1,8.659-8.618l74.273.172a23.954,23.954,0,0,1,14.72,6.145L228.1,272.455a24.032,24.032,0,0,0,14.735,6.145l133.472.31a8.656,8.656,0,0,1,8.594,8.135l.025-10.927a8.661,8.661,0,0,0-8.619-8.659l-133.472-.31a24.032,24.032,0,0,1-14.735-6.145l-17.022-17.084a23.954,23.954,0,0,0-14.72-6.145l-74.273-.172a8.657,8.657,0,0,0-8.659,8.619l-.42,104.661C113.007,271.876,113.427,257.672,113.427,257.672Z" transform="translate(16.176 26.723)" fill="#f7d98d"/>
    <g id="Group_2952" data-name="Group 2952" transform="translate(295.952 176.664)">
      <path id="Rectangle_798" data-name="Rectangle 798" d="M0,0H19.753a0,0,0,0,1,0,0V105.527a5.579,5.579,0,0,1-5.579,5.579h-8.6A5.579,5.579,0,0,1,0,105.527V0A0,0,0,0,1,0,0Z" transform="translate(105.267 119.234) rotate(-45)" fill="url(#linear-gradient-23)"/>
      <rect id="Rectangle_799" data-name="Rectangle 799" width="9.937" height="33.795" transform="translate(84.841 91.867) rotate(-45)" fill="#a5b7c6"/>
      <path id="Path_6342" data-name="Path 6342" d="M306.324,170.14a45.132,45.132,0,1,1-31.912,13.219,44.837,44.837,0,0,1,31.912-13.219m0-2.36a47.491,47.491,0,1,0,33.582,13.909,47.345,47.345,0,0,0-33.582-13.909Z" transform="translate(-253.551 -162.498)" fill="#fff"/>
      <circle id="Ellipse_402" data-name="Ellipse 402" cx="44.062" cy="44.062" r="44.062" transform="translate(8.712 8.711)" fill="#fff" style="mix-blend-mode: multiply;isolation: isolate"/>
      <path id="Path_6343" data-name="Path 6343" d="M269.813,178.76a52.773,52.773,0,1,0,74.633,0A52.772,52.772,0,0,0,269.813,178.76Zm70.9,70.9a47.492,47.492,0,1,1,0-67.164A47.492,47.492,0,0,1,340.711,249.658Z" transform="translate(-254.356 -163.303)" fill="url(#linear-gradient-21)"/>
      <path id="Path_6344" data-name="Path 6344" d="M338.292,184.994l-62.244,62.244a43.927,43.927,0,0,0,6.89,5.176l60.529-60.529A44.114,44.114,0,0,0,338.292,184.994Zm-34.633-14.255-41.867,41.867a44,44,0,0,0,7.5,26.8l61.171-61.172A44,44,0,0,0,303.659,170.739Z" transform="translate(-253.028 -161.975)" fill="#8382ab" style="mix-blend-mode: screen;isolation: isolate"/>
    </g>
    <g id="Group_2954" data-name="Group 2954" transform="translate(422.459 278.108)">
      <path id="Path_6345" data-name="Path 6345" d="M432.959,409.847c-3.465.47-17.318.316-16.934-1.378.175-.765,2.11-1.771,4.165-2.613,2.439-1.005,5.03-1.815,5.03-1.815l-5.378-12.959,7.467-4.318,5.1,20.372Z" transform="translate(-351.789 -224.559)" fill="#ffc8af"/>
      <path id="Path_6346" data-name="Path 6346" d="M432.959,406.936c-3.465.47-17.318.316-16.934-1.378.175-.765,2.11-1.771,4.165-2.613-.011,1.214.94,1.859,4.023,1.99a53.956,53.956,0,0,0,8.2-.71Z" transform="translate(-351.789 -221.649)" fill="url(#linear-gradient-25)"/>
      <path id="Path_6347" data-name="Path 6347" d="M414.017,413.957c-3.74.507-18.689.342-18.276-1.487.189-.826,2.277-1.911,4.5-2.82,2.631-1.085,5.427-1.959,5.427-1.959l-4.767-13.9,8.058-4.66,4.472,21.9Z" transform="translate(-355.437 -224.133)" fill="#ffc8af"/>
      <path id="Path_6348" data-name="Path 6348" d="M411.839,375.26c-4.448-.374-4.765-25.265-4.08-35.832s3.2-18.763,8.631-18.306,6.541,8.956,5.453,19.49S416.286,375.634,411.839,375.26Z" transform="translate(-353.324 -236.368)" fill="#ffc8af"/>
      <g id="Group_2953" data-name="Group 2953" transform="translate(41.557 32.814)">
        <path id="Path_6349" data-name="Path 6349" d="M431.994,315.172c-2.97,1.234-11.742-15.349-14.941-22.662s-4.415-13.65-.79-15.157,7.262,3.819,10.193,11.246S434.963,313.937,431.994,315.172Z" transform="translate(-393.702 -277.096)" fill="#ffc8af"/>
        <path id="Path_6350" data-name="Path 6350" d="M396.8,310.565c-.157-2.847,20.752-4.788,26.668-5.116s12.185-.236,12.361,2.956-6.043,3.975-11.96,4.3S396.961,313.412,396.8,310.565Z" transform="translate(-396.802 -272.019)" fill="#ffc8af"/>
      </g>
      <path id="Path_6351" data-name="Path 6351" d="M393.533,376.236c-4.361-.952-1.425-25.671.635-36.058s5.623-18.184,10.947-17.023,5.316,9.735,2.862,20.035S397.894,377.187,393.533,376.236Z" transform="translate(-356.239 -236.019)" fill="#ffc8af"/>
      <path id="Path_6352" data-name="Path 6352" d="M366.7,289.256c1.865-2.125,18.021,11.013,22.437,14.886s8.793,8.291,6.7,10.674-7.039-1.38-11.455-5.255S364.834,291.382,366.7,289.256Z" transform="translate(-360.687 -242.137)" fill="#ffc8af"/>
      <path id="Path_6353" data-name="Path 6353" d="M424.151,339.449,396.463,338.3l-1.213-47.371,1.913-11.9,12.79-4.7,8.236,1.572a9.663,9.663,0,0,1,7.846,9.83l-3,33.526Z" transform="translate(-355.524 -244.78)" fill="#ffc8af"/>
      <path id="Path_6354" data-name="Path 6354" d="M411.825,269.383V278.9s-2.012,1.2-6.718,1.2c-2.538,0-3.108-1.2-3.108-1.2v-3.518Z" transform="translate(-354.31 -245.669)" fill="#ffc8af"/>
      <path id="Path_6355" data-name="Path 6355" d="M408.644,263.6c.012.261.031.505.039.741.009.084.027.168.038.26.645,4.237-1.582,9.1-5.628,10.17,0,0-.033.012-.091.027-.033,0-.083.018-.14.024-.868.206-4.023.818-5.329-.335a10.9,10.9,0,0,1-3.261-5.877,24.24,24.24,0,0,1,0-3.136c-.065-.595-.591-2.421-.686-3.229-.447-3.794,1.693-7.846,6.234-8.347C406.632,253.141,408.331,259,408.644,263.6Z" transform="translate(-355.834 -248.467)" fill="#ffc8af"/>
      <path id="Path_6356" data-name="Path 6356" d="M402,277.177" transform="translate(-354.31 -244.267)" fill="#25bcaf"/>
      <path id="Path_6357" data-name="Path 6357" d="M396.783,278.568c-1.924,1.785-3.42,4.909-3.783,11.3-.1,1.785-1.424,6.686.971,12.66,4.221,10.528,1.635,23.589,1.635,23.589l28.688,1.057s.6-19.233,1.585-25.368c2.958-18.514-.022-24.472-5.182-25.919C412.97,273.717,398.707,276.783,396.783,278.568Z" transform="translate(-356.011 -244.634)" fill="url(#linear-gradient-26)"/>
      <path id="Path_6358" data-name="Path 6358" d="M390.326,317.484c-3.088-.8-.124-19.162,1.713-26.863s4.66-13.44,8.43-12.469,3.465,7.362,1.349,14.991S393.415,318.28,390.326,317.484Z" transform="translate(-356.651 -244.111)" fill="#ffc8af"/>
      <path id="Path_6359" data-name="Path 6359" d="M361.852,283.794c.742-.828,4.776,3.136,6.074,4.16.2.155.334.247.383.24s.047-.076.014-.177c-.21-.634-1.8-2.853-1.029-3.553.849-.768,4.024,2.245,5.1,4.171.059.106.139.223.185.321.873,1.888,1.058,3.152-.116,4.886-1.872,2.767-6.377-1.089-7.865-2.461a10.4,10.4,0,0,1-2.643-4.424C361.511,285.521,361.441,284.254,361.852,283.794Z" transform="translate(-361.579 -243.098)" fill="#ffc8af"/>
      <path id="Path_6360" data-name="Path 6360" d="M393.262,258.81a8.828,8.828,0,0,0,.175.912c.622,2.527,2.6,4,2.4,6.753a11.523,11.523,0,0,0,1.556,7.139c3.049,5.168-1.165,4.022-.317,11.953.415,3.9,4.114,5.5,11.419,5.394s15.343-.211,15.132-5.713a10.093,10.093,0,0,0-2.01-5.465c-1.4-2.125-2.605-3.906-1.842-6.525a15.247,15.247,0,0,0,.839-3.285c.166-2.763-1.816-3.652-3.353-5.444-1.651-1.923-.683-5.175-1.236-7.493-1.8-7.534-9.465-8.95-15.807-6.909C396.333,251.378,392.664,254.36,393.262,258.81Z" transform="translate(-355.893 -249.284)" fill="url(#linear-gradient-27)"/>
      <path id="Path_6361" data-name="Path 6361" d="M422,312.879c-.241,6.02,4.3,13.914,5,19.909,1.408,12.012-6.9,34.51-6.9,35.964s7.775,20.971,10.79,32.87c0,0-1.692,2.433-9.837,3.915,0,0-12.492-27.186-13.651-33.321S407.66,314,407.66,314Z" transform="translate(-353.421 -237.847)" fill="url(#linear-gradient-28)"/>
      <path id="Path_6362" data-name="Path 6362" d="M412.555,313.717h-15.71a294.412,294.412,0,0,0-5.942,33.49c-2.327,19.253-1.587,24.964-1.163,28.032s11.036,32.05,11.036,32.05a18.51,18.51,0,0,0,10.942-2.538s-3.573-16.5-6.64-24.118-3.4-9.308-3.4-9.308S414.8,348.7,417.006,335.269,412.555,313.717,412.555,313.717Z" transform="translate(-356.597 -237.696)" fill="url(#linear-gradient-29)"/>
      <path id="Path_6363" data-name="Path 6363" d="M414.017,410.829c-3.74.507-18.689.342-18.276-1.487.189-.826,2.277-1.911,4.5-2.82-.012,1.31,1.015,2.006,4.342,2.147a58.128,58.128,0,0,0,8.849-.767Z" transform="translate(-355.437 -221.006)" fill="url(#linear-gradient-30)"/>
      <path id="Path_6364" data-name="Path 6364" d="M406.943,351.654s4.813-10.967,6.887-19.67c0,0,.57,18.033-6.678,34.2Z" transform="translate(-353.421 -234.411)" fill="#d1d3d4" style="mix-blend-mode: multiply;isolation: isolate"/>
    </g>
    <g id="Group_2955" data-name="Group 2955" transform="translate(99.781 183.191)">
      <rect id="Rectangle_800" data-name="Rectangle 800" width="68.878" height="39.196" fill="#878cf0"/>
      <path id="Path_6365" data-name="Path 6365" d="M88.087,206.118l34.439-26.642,34.439,26.642Z" transform="translate(-88.087 -166.922)" fill="#737ee5"/>
      <path id="Path_6366" data-name="Path 6366" d="M156.965,168.836l-34.439,26.81-34.439-26.81Z" transform="translate(-88.087 -168.836)" fill="#929cf7"/>
    </g>
    <g id="Group_2962" data-name="Group 2962" transform="translate(91.038 114.064)">
      <g id="Group_2958" data-name="Group 2958">
        <g id="Group_2956" data-name="Group 2956">
          <path id="Path_6367" data-name="Path 6367" d="M107.471,163.658H82.447a1.77,1.77,0,0,1-1.77-1.77V112.015a1.77,1.77,0,0,1,1.77-1.77h38.144a1.77,1.77,0,0,1,1.77,1.77v33.308a1.774,1.774,0,0,1-.382,1.1l-13.12,16.565A1.771,1.771,0,0,1,107.471,163.658Zm-23.255-3.54h22.4l12.207-15.412V113.785h-34.6Z" transform="translate(-80.677 -110.245)" fill="#d4ebf8"/>
        </g>
        <g id="Group_2957" data-name="Group 2957" transform="translate(25.024 33.308)">
          <path id="Path_6368" data-name="Path 6368" d="M103.656,158.581a1.768,1.768,0,0,1-1.769-1.77V140.246a1.77,1.77,0,0,1,1.77-1.77h13.12a1.77,1.77,0,0,1,1.387,2.869l-13.12,16.565A1.771,1.771,0,0,1,103.656,158.581Zm1.771-16.565v9.71l7.69-9.71Z" transform="translate(-101.887 -138.476)" fill="#d4ebf8"/>
        </g>
      </g>
      <g id="Group_2959" data-name="Group 2959" transform="translate(8.743 8.914)">
        <rect id="Rectangle_801" data-name="Rectangle 801" width="24.611" height="3.54" fill="#d4ebf8"/>
      </g>
      <g id="Group_2960" data-name="Group 2960" transform="translate(8.743 15.66)">
        <rect id="Rectangle_802" data-name="Rectangle 802" width="24.611" height="3.54" fill="#d4ebf8"/>
      </g>
      <g id="Group_2961" data-name="Group 2961" transform="translate(8.743 22.407)">
        <rect id="Rectangle_803" data-name="Rectangle 803" width="19.499" height="3.54" fill="#d4ebf8"/>
      </g>
    </g>
    <g id="Group_2969" data-name="Group 2969" transform="translate(147.291 91.933)">
      <g id="Group_2965" data-name="Group 2965">
        <g id="Group_2963" data-name="Group 2963">
          <path id="Path_6369" data-name="Path 6369" d="M155.149,144.9H130.125a1.77,1.77,0,0,1-1.77-1.77V93.258a1.77,1.77,0,0,1,1.77-1.77h38.144a1.77,1.77,0,0,1,1.77,1.77v33.308a1.768,1.768,0,0,1-.382,1.1l-13.12,16.566A1.771,1.771,0,0,1,155.149,144.9Zm-23.255-3.54h22.4L166.5,125.949V95.028h-34.6Z" transform="translate(-128.355 -91.488)" fill="#d4ebf8"/>
        </g>
        <g id="Group_2964" data-name="Group 2964" transform="translate(25.024 33.308)">
          <path id="Path_6370" data-name="Path 6370" d="M151.335,139.824a1.768,1.768,0,0,1-1.77-1.77V121.489a1.77,1.77,0,0,1,1.77-1.77h13.12a1.769,1.769,0,0,1,1.388,2.868l-13.12,16.566A1.77,1.77,0,0,1,151.335,139.824Zm1.77-16.565v9.71l7.691-9.71Z" transform="translate(-149.565 -119.719)" fill="#d4ebf8"/>
        </g>
      </g>
      <g id="Group_2966" data-name="Group 2966" transform="translate(8.743 8.914)">
        <rect id="Rectangle_804" data-name="Rectangle 804" width="24.611" height="3.54" fill="#d4ebf8"/>
      </g>
      <g id="Group_2967" data-name="Group 2967" transform="translate(8.743 15.66)">
        <rect id="Rectangle_805" data-name="Rectangle 805" width="24.611" height="3.54" fill="#d4ebf8"/>
      </g>
      <g id="Group_2968" data-name="Group 2968" transform="translate(8.743 22.407)">
        <rect id="Rectangle_806" data-name="Rectangle 806" width="19.499" height="3.54" fill="#d4ebf8"/>
      </g>
    </g>
    <g id="Group_2976" data-name="Group 2976" transform="translate(203.545 91.933)">
      <g id="Group_2972" data-name="Group 2972">
        <g id="Group_2970" data-name="Group 2970">
          <path id="Path_6371" data-name="Path 6371" d="M202.828,144.9H177.8a1.77,1.77,0,0,1-1.77-1.77V93.258a1.77,1.77,0,0,1,1.77-1.77h38.144a1.77,1.77,0,0,1,1.77,1.77v33.308a1.775,1.775,0,0,1-.382,1.1L204.215,144.23A1.767,1.767,0,0,1,202.828,144.9Zm-23.255-3.54h22.4l12.207-15.412V95.028h-34.6Z" transform="translate(-176.034 -91.488)" fill="#d4ebf8"/>
        </g>
        <g id="Group_2971" data-name="Group 2971" transform="translate(25.024 33.308)">
          <path id="Path_6372" data-name="Path 6372" d="M199.013,139.824a1.767,1.767,0,0,1-1.769-1.77V121.489a1.77,1.77,0,0,1,1.77-1.77h13.12a1.77,1.77,0,0,1,1.387,2.868L200.4,139.153A1.769,1.769,0,0,1,199.013,139.824Zm1.771-16.565v9.71l7.69-9.71Z" transform="translate(-197.244 -119.719)" fill="#d4ebf8"/>
        </g>
      </g>
      <g id="Group_2973" data-name="Group 2973" transform="translate(8.742 8.914)">
        <rect id="Rectangle_807" data-name="Rectangle 807" width="24.611" height="3.54" fill="#d4ebf8"/>
      </g>
      <g id="Group_2974" data-name="Group 2974" transform="translate(8.742 15.66)">
        <rect id="Rectangle_808" data-name="Rectangle 808" width="24.611" height="3.54" fill="#d4ebf8"/>
      </g>
      <g id="Group_2975" data-name="Group 2975" transform="translate(8.742 22.407)">
        <rect id="Rectangle_809" data-name="Rectangle 809" width="19.499" height="3.54" fill="#d4ebf8"/>
      </g>
    </g>
    <path id="Path_6373" data-name="Path 6373" d="M380.61,377.96l-.047,22.334a8.439,8.439,0,0,1-8.436,8.389l-247.767-.566a8.465,8.465,0,0,1-8.4-8.436l.047-21.721Z" transform="translate(16.707 51.965)" fill="#f4c44e"/>
    <rect id="Rectangle_810" data-name="Rectangle 810" width="264.586" height="8.309" transform="translate(132.714 414.977)" fill="#f4c44e"/>
    <g id="Group_2977" data-name="Group 2977" transform="translate(439.047 243.942)">
      <path id="Path_6374" data-name="Path 6374" d="M375.639,228.992l15.009-8.666v17.332Z" transform="translate(-375.639 -220.326)" fill="#d4ebf8"/>
      <path id="Path_6375" data-name="Path 6375" d="M389.611,228.992l15.01-8.666v17.332Z" transform="translate(-373.126 -220.326)" fill="#d4ebf8"/>
    </g>
    <g id="Group_2978" data-name="Group 2978" transform="translate(285.049 89.012)">
      <path id="Path_6376" data-name="Path 6376" d="M279.942,106.618a16.247,16.247,0,0,0-2.034-6.946l2.015-1.123a18.634,18.634,0,0,0-3.891-4.852L274.5,95.423a16.232,16.232,0,0,0-6.343-3.489l.629-2.209-.028-.008a18.626,18.626,0,0,0-5.067-.706q-.547,0-1.089.032l.137,2.3a16.277,16.277,0,0,0-6.949,2.028l-1.121-2.015a18.586,18.586,0,0,0-4.855,3.888l1.725,1.535a16.229,16.229,0,0,0-3.492,6.34l-2.209-.631-.013.044a18.625,18.625,0,0,0-.706,5.066q0,.54.031,1.075l2.3-.134a16.26,16.26,0,0,0,2.023,6.95l-2.018,1.12a18.651,18.651,0,0,0,3.884,4.857l1.537-1.724a16.2,16.2,0,0,0,6.337,3.5l-.632,2.21.058.017a18.624,18.624,0,0,0,5.066.706q.563,0,1.12-.034l-.139-2.3a16.266,16.266,0,0,0,6.945-2.04l1.124,2.014a18.589,18.589,0,0,0,4.848-3.9l-1.727-1.533a16.226,16.226,0,0,0,3.484-6.345l2.209.627,0-.014a18.582,18.582,0,0,0,.707-5.066q0-.556-.033-1.106Zm-20.28,15.235h0l.113-.4Zm13.508-11.579a9.836,9.836,0,1,1,.374-2.687A9.85,9.85,0,0,1,273.169,110.274Z" transform="translate(-245.115 -89.012)" fill="#d4ebf8"/>
      <path id="Path_6377" data-name="Path 6377" d="M299.443,91.288Z" transform="translate(-235.345 -88.603)" fill="#d4ebf8"/>
      <path id="Path_6378" data-name="Path 6378" d="M302.554,99.6l-1.535.3a11.529,11.529,0,0,0-1.229-3.385l1.365-.755a13.1,13.1,0,0,0-4.115-4.5l-.871,1.287a11.542,11.542,0,0,0-3.262-1.533l.43-1.485-.068-.02a13.141,13.141,0,0,0-3.569-.5,13,13,0,0,0-2.459.235l.295,1.533A11.565,11.565,0,0,0,284.146,92l-.75-1.364a13.089,13.089,0,0,0-4.515,4.1l1.282.872a11.586,11.586,0,0,0-1.537,3.26l-1.485-.433-.029.1a13.035,13.035,0,0,0-.27,5.994l1.533-.29a11.555,11.555,0,0,0,1.211,3.392l-1.364.746h0a13.083,13.083,0,0,0,4.091,4.526l.874-1.279a11.534,11.534,0,0,0,3.258,1.542L286,114.657h0l.136.04a13.056,13.056,0,0,0,6.1.249l-.3-1.535a11.507,11.507,0,0,0,3.38-1.239l.76,1.364a13.093,13.093,0,0,0,4.493-4.127l-1.291-.868a11.6,11.6,0,0,0,1.528-3.265l1.484.425.009-.034a13.059,13.059,0,0,0,.256-6.063ZM289.709,109.9a7.805,7.805,0,1,1,7.49-5.671A7.787,7.787,0,0,1,289.709,109.9Z" transform="translate(-239.45 -89.012)" fill="#d4ebf8"/>
    </g>
    <circle id="Ellipse_403" data-name="Ellipse 403" cx="19.012" cy="19.012" r="19.012" transform="translate(512.205 276.928)" fill="#d4ebf8"/>
    <circle id="Ellipse_404" data-name="Ellipse 404" cx="6.911" cy="6.911" r="6.911" transform="translate(430.203 271.197)" fill="#d4ebf8"/>
    <g id="Group_2979" data-name="Group 2979" transform="translate(59.369 185.375)">
      <path id="Path_6379" data-name="Path 6379" d="M81.753,170.686l-6.441,24.04-17.6-17.6Z" transform="translate(-53.138 -170.686)" fill="#d4ebf8"/>
      <rect id="Rectangle_811" data-name="Rectangle 811" width="15.621" height="13.342" transform="translate(0 19.181) rotate(-45)" fill="#d4ebf8"/>
    </g>
    <g id="Group_2981" data-name="Group 2981" transform="translate(357.684 101.982)">
      <path id="Path_6380" data-name="Path 6380" d="M440.348,113.21a13.209,13.209,0,0,1-13.22,13.22H319.9a13.212,13.212,0,1,1,0-26.425H427.128A13.211,13.211,0,0,1,440.348,113.21Z" transform="translate(-306.678 -100.005)" fill="#d4ebf8"/>
      <path id="Path_6381" data-name="Path 6381" d="M424.084,113.21a13.209,13.209,0,0,1-13.22,13.22H397.116V100.005h13.748A13.211,13.211,0,0,1,424.084,113.21Z" transform="translate(-290.413 -100.005)" fill="url(#linear-gradient-31)"/>
      <g id="Group_2980" data-name="Group 2980" transform="translate(112.056 5.314)">
        <path id="Path_6382" data-name="Path 6382" d="M402.986,106.847a6.189,6.189,0,0,0,8.28,9l3.958,3.957a.426.426,0,0,0,.6,0l1.113-1.111a.429.429,0,0,0,0-.605l-3.958-3.957a6.189,6.189,0,0,0-10-7.28Zm7.507,6.507a3.761,3.761,0,1,1,0-5.319A3.765,3.765,0,0,1,410.494,113.354Z" transform="translate(-401.653 -104.509)" fill="#f9fbfc"/>
      </g>
      <rect id="Rectangle_812" data-name="Rectangle 812" width="93.464" height="1" transform="translate(8.856 18.751)" fill="#f9fbfc"/>
    </g>
  </g>
</svg>
