<svg xmlns="http://www.w3.org/2000/svg" width="393.377" height="294.648" viewBox="0 0 393.377 294.648"><g transform="translate(0 -0.002)"><g transform="translate(165.46 0)"><g transform="translate(0 126.128)"><path d="M1902,1696.757l0,.01-37.007-6.327-47,13.905-20.074-7.407c-2.8.693-5.3,1.388-7.561,2.088h0s-72.488,11.583-63.758,75.733l40.509.97c1.126,3.479,1.206,2.638,2.021,4.717l14.508,47.96h118.728l1.1-39.129,36.031,23.188a7.054,7.054,0,0,0,10.845-5.28c1.526-16.652,3.366-45.958,3.393-46.718C1955.637,1707.161,1902,1696.757,1902,1696.757Z" transform="translate(-1725.871 -1690.44)" fill="#009ce8"/><path d="M1780.9,1805.317a.79.79,0,0,1-.763-.593l-7.218-28.123a.789.789,0,1,1,1.528-.393l7.219,28.123a.791.791,0,0,1-.568.961A.815.815,0,0,1,1780.9,1805.317Z" transform="translate(-1735.798 -1708.421)" fill="#0065c4"/><path d="M1950.725,1806.763a.784.784,0,0,1-.48-.163l-22.132-17.028a10.927,10.927,0,0,1-4.827-8.025L1921,1759.2a.789.789,0,0,1,.7-.865.8.8,0,0,1,.865.7l2.281,22.351a9.389,9.389,0,0,0,4.173,6.9l22.177,17.06a.788.788,0,0,1-.481,1.414Z" transform="translate(-1767.063 -1704.771)" fill="#0065c4"/></g><g transform="translate(45.707)"><g transform="translate(6.051 30.671)"><path d="M1862.855,1596.514h0l-10.938-.38a13.106,13.106,0,0,0-12.259,7.487l2.118-31.052s-10.943,6.338-25.307-1.96c0,0-16.519-5.48-21.693,7.3-.013.127-.03.253-.039.382l-3.179,46.162c-1.164,16.886,10.373,31.616,26.225,34.262l3.694,18.33a25.366,25.366,0,0,0,29.944,19.558l.57-.114c13.743-2.769,25.488-13.157,22.762-26.683l-10.806-44.872,2.533.089a14.3,14.3,0,0,0,14.739-13.749l.036-1.045a13.13,13.13,0,0,0-12.6-13.507Z" transform="translate(-1791.479 -1569.44)" fill="#ffaa89"/><path d="M1825.123,1678.318s27.725-3.3,30.7-13.857h0s3.744,14.732-28.125,28.052Z" transform="translate(-1798.581 -1588.509)" fill="#ff6a48"/><path d="M1891.541,1621.1" transform="translate(-1812.602 -1580.346)" fill="none" stroke="#121936" stroke-linecap="round" stroke-linejoin="round" stroke-width="5"/></g><path d="M1883.412,1648.675a23.044,23.044,0,0,1,2.1-8.747l-12.039-.418Z" transform="translate(-1802.736 -1553.56)" fill="#0b3563"/><path d="M1862.044,1555.867s7.5-13.085-12.562-22.533-27.45,8.28-27.45,8.28-2.394-16.239-26.675-8.373-2.736,37.96-2.736,37.96c.161-.53.343-1.026.536-1.5,5.173-12.775,21.692-7.3,21.692-7.3,14.364,8.3,25.307,1.96,25.307,1.96l-1.881,27.572c-.815,5.512-1.9,12.806-2.677,18.023a5.259,5.259,0,0,1-7.172,4.1l-17.377-7a5.252,5.252,0,0,0-2.616-.341l-13.73,1.7a5.265,5.265,0,0,0-4.6,4.812l-1.033,13.162a24.713,24.713,0,0,0,25.19,26.642l7.663-.171a5.248,5.248,0,0,0,1.535-.264l1.925-.11a28.157,28.157,0,0,0,24.085-39.608h0a5.261,5.261,0,0,1-.978-3.26l.8-20.114a5.15,5.15,0,0,0-.177-1.563c.392-.022.786-.032,1.186-.019l10.938.38,5.8.2a12.986,12.986,0,0,1,8.473,3.558c3.474-8.721,6.509-17.323,7.394-22.667C1885.3,1554.944,1862.044,1555.867,1862.044,1555.867Z" transform="translate(-1783.808 -1530.562)" fill="#0b3563"/><path d="M1895.186,1622.361" transform="translate(-1807.32 -1549.94)" fill="none" stroke="#ff6969" stroke-linecap="round" stroke-linejoin="round" stroke-width="5"/><g transform="translate(1.828 41.563)"><path d="M1889.436,1625.2a.781.781,0,0,1-.43-.128l-4.576-2.983a.79.79,0,0,1-.156-1.189l4.891-5.441a.789.789,0,0,1,1.174,1.055l-4.275,4.756,3.8,2.48a.788.788,0,0,1-.432,1.449Z" transform="translate(-1806.802 -1589.993)" fill="#ff6a48"/><g transform="translate(8.732 18.57)"><path d="M1798,1609.139a2.972,2.972,0,1,0,3.526-2.287A2.971,2.971,0,0,0,1798,1609.139Z" transform="translate(-1797.349 -1606.786)" fill="#121936"/><path d="M1825.058,1609.787a2.972,2.972,0,1,0,2.943-3A2.971,2.971,0,0,0,1825.058,1609.787Z" transform="translate(-1803.076 -1606.786)" fill="#121936"/><g transform="translate(21.779 4.582)"><path d="M1831.042,1614.506a4.234,4.234,0,0,0-5.241.022" transform="translate(-1825.012 -1612.804)" fill="#ffa386"/><path d="M1825.591,1615.107a.789.789,0,0,1-.484-1.413,4.989,4.989,0,0,1,6.225-.007.789.789,0,0,1-1,1.221,3.439,3.439,0,0,0-4.26.035A.782.782,0,0,1,1825.591,1615.107Z" transform="translate(-1824.801 -1612.595)" fill="#ff6a48"/></g><path d="M1797.982,1615.936a.788.788,0,0,1-.535-1.368,4.541,4.541,0,0,1,5.933-.387.789.789,0,0,1-.966,1.247,2.957,2.957,0,0,0-3.9.3A.784.784,0,0,1,1797.982,1615.936Z" transform="translate(-1797.193 -1608.152)" fill="#ff6a48"/></g><path d="M1796.094,1616.5c-5.5,0-9.969-5.121-9.969-11.415s4.471-11.414,9.969-11.414,9.968,5.121,9.968,11.414S1801.59,1616.5,1796.094,1616.5Zm0-21.252c-4.627,0-8.391,4.412-8.391,9.837s3.764,9.838,8.391,9.838,8.39-4.413,8.39-9.838S1800.72,1595.248,1796.094,1595.248Z" transform="translate(-1786.125 -1585.447)" fill="#fff"/><g transform="translate(13.097 13.938)"><path d="M1811.588,1601.913v10.323h-5.365a2.5,2.5,0,0,0-2.5,2.5v1.129a4.887,4.887,0,0,0,4.887,4.887h4.887" transform="translate(-1802.938 -1601.125)" fill="#ffaa89"/><path d="M1813.291,1621.325H1808.4a5.683,5.683,0,0,1-5.677-5.676v-1.129a3.288,3.288,0,0,1,3.285-3.284h4.576V1601.7a.789.789,0,1,1,1.578,0v11.111h-6.153a1.709,1.709,0,0,0-1.707,1.706v1.129a4.1,4.1,0,0,0,4.1,4.1h4.887a.789.789,0,0,1,0,1.578Z" transform="translate(-1802.727 -1600.914)" fill="#ff6a48"/></g><path d="M1826.58,1615.589c-5.5,0-9.968-5.121-9.968-11.415s4.471-11.415,9.968-11.415,9.969,5.121,9.969,11.415S1832.078,1615.589,1826.58,1615.589Zm0-21.253c-4.626,0-8.391,4.413-8.391,9.838s3.765,9.838,8.391,9.838,8.392-4.413,8.392-9.838S1831.208,1594.336,1826.58,1594.336Z" transform="translate(-1792.561 -1585.255)" fill="#fff"/><g transform="translate(4.986)"><g transform="translate(24.144 1.262)"><path d="M1835.948,1591.845a7.611,7.611,0,0,1-3.112-.573c-1.072-.348-2.156-.671-3.109-.918s-2.059-.5-3.164-.714a7.579,7.579,0,0,1-2.991-1.017c-.728-.559-.8-1.638.484-2.6,1.22-.951,3.937-1.621,7.1-.807,3.152.829,5.157,2.73,5.724,4.144C1837.487,1590.818,1836.867,1591.715,1835.948,1591.845Z" transform="translate(-1823.05 -1584.846)" fill="#121936"/></g><path d="M1793.184,1588.3a5.253,5.253,0,0,0,2.477.01c.873-.129,1.753-.234,2.521-.294s1.655-.1,2.536-.107a5.225,5.225,0,0,0,2.443-.4c.636-.371.836-1.3-.03-2.365a6.407,6.407,0,0,0-5.369-1.875,6.285,6.285,0,0,0-4.964,2.694C1792.132,1587.146,1792.492,1588.036,1793.184,1588.3Z" transform="translate(-1792.445 -1583.247)" fill="#121936"/></g><path d="M1816.313,1606.595h-4.065a.789.789,0,0,1,0-1.578h4.065a.789.789,0,0,1,0,1.578Z" transform="translate(-1791.473 -1587.843)" fill="#fff"/><path d="M1840.673,1605.49a.789.789,0,0,1-.074-1.575l24.153-2.28a.789.789,0,0,1,.148,1.572l-24.154,2.279C1840.723,1605.488,1840.7,1605.49,1840.673,1605.49Z" transform="translate(-1797.474 -1587.128)" fill="#fff"/><path d="M1821.452,1642.864h-.093l-9.47-.121a.789.789,0,0,1,.01-1.578h.01l9.471.12a5.742,5.742,0,0,0,5.62-4.4l1.536.36A7.32,7.32,0,0,1,1821.452,1642.864Z" transform="translate(-1791.399 -1594.571)" fill="#ff6a48"/></g></g><g transform="translate(66.308 117.096)"><path d="M1822.059,1687.321l-12.136,10.5,1.811,24.809a1.531,1.531,0,0,0,2.545,1.032l22.321-19.889Z" transform="translate(-1809.923 -1680.75)" fill="#fff"/><path d="M1882.162,1678.991l-39.692,22.9,15.937,26.762a2.335,2.335,0,0,0,3.515.588l38.612-32.7Z" transform="translate(-1816.793 -1678.991)" fill="#fff"/><path d="M1819.282,1725.509l10.5,21.354,22.749-13.548-14.562-24.456Z" transform="translate(-1811.898 -1685.296)" fill="#121936"/></g></g><g transform="translate(0 13.552)"><path d="M1633.384,1582.062l-24.562.172-32.069,0,.074-11.892a25.184,25.184,0,0,0-.405-4.676c-4.282-23.508-38.7-23.646-43.227-.185a25.212,25.212,0,0,0-.456,4.783v14.3h.014l.059,10.66c.062,11.268-7.21,20.9-16.648,23a15.066,15.066,0,0,0,2.272.108c1.733.047,3.11,0,3.11,0l91.609.119c11.282-.079,20.371-10.478,20.3-23.227Z" transform="translate(-1516.135 -1547.786)" fill="#0b3563"/><g transform="translate(38.623)"><path d="M1718.207,1581.847A33.976,33.976,0,0,0,1696.066,1550a24.967,24.967,0,0,0-10.247-2.26l-76.155.088.006-.01h-41.513c-.555,0-1.1.025-1.65.06l-1.414,0v.046c.106.013.21.032.315.046a25.08,25.08,0,0,1,21.7,23.362h-.014v236.7a20.921,20.921,0,0,0,21.032,20.808h110.035v-95.5h.043Z" transform="translate(-1565.093 -1547.74)" fill="#fbfbfb"/><g transform="translate(43.919 113.511)"><path d="M1710.905,1709.2h-89.352a.789.789,0,1,1,0-1.578h89.352a.789.789,0,0,1,0,1.578Z" transform="translate(-1620.764 -1695.004)" fill="#121936"/><path d="M1690.606,1693.2h-37.641a.789.789,0,0,1,0-1.578h37.641a.789.789,0,1,1,0,1.578Z" transform="translate(-1627.395 -1691.626)" fill="#121936"/><path d="M1710.905,1732.689h-89.352a.789.789,0,1,1,0-1.578h89.352a.789.789,0,0,1,0,1.578Z" transform="translate(-1620.764 -1699.961)" fill="#121936"/><path d="M1710.905,1756.174h-89.352a.789.789,0,1,1,0-1.578h89.352a.789.789,0,0,1,0,1.578Z" transform="translate(-1620.764 -1704.919)" fill="#121936"/><path d="M1710.905,1778.155h-89.352a.789.789,0,1,1,0-1.578h89.352a.789.789,0,0,1,0,1.578Z" transform="translate(-1620.764 -1709.559)" fill="#121936"/></g><g transform="translate(33.484 26.242)"><g transform="translate(14.88)"><path d="M1663.323,1583.132h0a3.058,3.058,0,0,0-5.97.946h0a3.058,3.058,0,0,1-5.539,1.8h0a3.059,3.059,0,0,0-5.387,2.745h0a3.059,3.059,0,0,1-4.713,3.424h0a3.058,3.058,0,0,0-4.274,4.275h0a3.058,3.058,0,0,1-3.424,4.712h0a3.059,3.059,0,0,0-2.745,5.387h0a3.058,3.058,0,0,1-1.8,5.539h0a3.058,3.058,0,0,0-.946,5.97h0a3.059,3.059,0,0,1,0,5.825h0a3.058,3.058,0,0,0,.946,5.97h0a3.059,3.059,0,0,1,1.8,5.54h0a3.058,3.058,0,0,0,2.745,5.386h0a3.059,3.059,0,0,1,3.424,4.713h0a3.058,3.058,0,0,0,4.274,4.274h0a3.059,3.059,0,0,1,4.713,3.424h0a3.059,3.059,0,0,0,5.387,2.745h0a3.058,3.058,0,0,1,5.539,1.8h0a3.058,3.058,0,0,0,5.97.946h0a3.059,3.059,0,0,1,5.825,0h0a3.058,3.058,0,0,0,5.97-.946h0a3.058,3.058,0,0,1,5.54-1.8h0a3.058,3.058,0,0,0,5.386-2.745h0a3.059,3.059,0,0,1,4.713-3.424h0a3.058,3.058,0,0,0,4.274-4.274h0a3.059,3.059,0,0,1,3.424-4.713h0a3.058,3.058,0,0,0,2.745-5.386h0a3.059,3.059,0,0,1,1.8-5.54h0a3.058,3.058,0,0,0,.946-5.97h0a3.059,3.059,0,0,1,0-5.825h0a3.058,3.058,0,0,0-.946-5.97h0a3.058,3.058,0,0,1-1.8-5.539h0a3.059,3.059,0,0,0-2.745-5.387h0a3.058,3.058,0,0,1-3.424-4.712h0a3.058,3.058,0,0,0-4.274-4.275h0a3.059,3.059,0,0,1-4.713-3.424h0a3.058,3.058,0,0,0-5.386-2.745h0a3.058,3.058,0,0,1-5.54-1.8h0a3.058,3.058,0,0,0-5.97-.946h0A3.059,3.059,0,0,1,1663.323,1583.132Z" transform="translate(-1626.399 -1581.005)" fill="#ffa900"/></g><g transform="translate(34.683 14.225)"><path d="M1685.6,1652.821h-28.126a5.977,5.977,0,0,1-5.97-5.97v-22.235a5.977,5.977,0,0,1,5.97-5.97H1685.6a5.978,5.978,0,0,1,5.97,5.97v22.235A5.977,5.977,0,0,1,1685.6,1652.821Zm-28.126-31.809a3.608,3.608,0,0,0-3.6,3.6v22.235a3.608,3.608,0,0,0,3.6,3.6H1685.6a3.608,3.608,0,0,0,3.6-3.6v-22.235a3.608,3.608,0,0,0-3.6-3.6Z" transform="translate(-1651.501 -1603.175)" fill="#121936"/><path d="M1686.367,1616.872a1.184,1.184,0,0,1-1.183-1.183v-6.461c0-4.315-3.98-7.825-8.871-7.825h-6.622c-4.891,0-8.871,3.51-8.871,7.825v6.461a1.183,1.183,0,1,1-2.367,0v-6.461c0-5.62,5.042-10.192,11.238-10.192h6.622c6.2,0,11.238,4.572,11.238,10.192v6.461A1.183,1.183,0,0,1,1686.367,1616.872Z" transform="translate(-1652.968 -1599.036)" fill="#121936"/><g transform="translate(13.33 22.482)"><path d="M1682.241,1634.12a6.937,6.937,0,0,0-13.838-.254,6.452,6.452,0,0,0,2.639,5.429,1.4,1.4,0,0,1,.581,1.114v1.8a1.439,1.439,0,0,0,1.473,1.4h4.448a1.439,1.439,0,0,0,1.474-1.4v-1.8a1.4,1.4,0,0,1,.578-1.113A6.461,6.461,0,0,0,1682.241,1634.12Z" transform="translate(-1668.397 -1627.534)" fill="#121936"/><g transform="translate(5.258 16.904)"><path d="M1678.245,1650.677a1.466,1.466,0,1,1-1.466-1.466A1.466,1.466,0,0,1,1678.245,1650.677Z" transform="translate(-1675.116 -1649.014)" fill="#121936"/><path d="M1676.726,1652.287a1.663,1.663,0,1,1,1.663-1.663A1.665,1.665,0,0,1,1676.726,1652.287Zm0-2.931a1.269,1.269,0,1,0,1.268,1.269A1.27,1.27,0,0,0,1676.726,1649.355Z" transform="translate(-1675.063 -1648.961)" fill="#ffd066"/></g><g transform="translate(4.009 16.269)"><rect width="5.431" height="1.221" rx="0.61" transform="translate(0.197 0.197)" fill="#121936"/><path d="M1678.574,1649.771h-4.364a.731.731,0,0,1-.731-.73v-.154a.731.731,0,0,1,.731-.731h4.364a.731.731,0,0,1,.731.731v.154A.731.731,0,0,1,1678.574,1649.771Zm-4.364-1.22a.337.337,0,0,0-.336.336v.154a.337.337,0,0,0,.336.336h4.364a.336.336,0,0,0,.336-.336v-.154a.336.336,0,0,0-.336-.336Z" transform="translate(-1673.479 -1648.156)" fill="#ffd066"/></g><g transform="translate(4.341 17.489)"><rect width="4.766" height="1.067" rx="0.533" transform="translate(0.198 0.197)" fill="#121936"/><path d="M1678.4,1651.164h-3.833a.664.664,0,0,1-.664-.664v-.134a.664.664,0,0,1,.664-.663h3.833a.664.664,0,0,1,.664.663v.134A.664.664,0,0,1,1678.4,1651.164Zm-3.833-1.067a.27.27,0,0,0-.269.269v.134a.27.27,0,0,0,.269.269h3.833a.27.27,0,0,0,.269-.269v-.134a.269.269,0,0,0-.269-.269Z" transform="translate(-1673.9 -1649.703)" fill="#ffd066"/></g><path d="M1670.965,1636.5a.3.3,0,0,1-.286-.218,4.662,4.662,0,0,1,1.661-4.952.3.3,0,0,1,.339.486,3.994,3.994,0,0,0-1.43,4.309.3.3,0,0,1-.285.375Z" transform="translate(-1668.841 -1628.324)" fill="#ffd066"/></g></g><path d="M1627,1594.168a.786.786,0,0,1-.49-.171l-7.444-5.928a.789.789,0,1,1,.983-1.235l7.444,5.928a.789.789,0,0,1-.492,1.406Z" transform="translate(-1609.907 -1582.199)" fill="#121936"/><path d="M1608.326,1630.95a.789.789,0,0,1-.18-1.556l9.266-2.174a.789.789,0,1,1,.361,1.536l-9.266,2.174A.783.783,0,0,1,1608.326,1630.95Z" transform="translate(-1607.537 -1590.756)" fill="#121936"/><path d="M1619.271,1611.847a.814.814,0,0,1-.211-.028l-9.173-2.535a.789.789,0,0,1,.42-1.521l9.173,2.535a.789.789,0,0,1-.21,1.549Z" transform="translate(-1607.911 -1586.647)" fill="#121936"/><path d="M1732,1630.436a.789.789,0,0,1-.063-1.575l9.485-.768a.789.789,0,1,1,.128,1.572l-9.485.768A.64.64,0,0,1,1732,1630.436Z" transform="translate(-1633.645 -1590.944)" fill="#121936"/><path d="M1730.485,1611.847a.789.789,0,0,1-.209-1.549l9.172-2.535a.789.789,0,0,1,.42,1.521l-9.172,2.535A.814.814,0,0,1,1730.485,1611.847Z" transform="translate(-1633.325 -1586.647)" fill="#121936"/><path d="M1737.391,1649.4a.781.781,0,0,1-.363-.089l-8.444-4.388a.789.789,0,1,1,.727-1.4l8.444,4.388a.789.789,0,0,1-.365,1.489Z" transform="translate(-1633.001 -1594.184)" fill="#121936"/><g transform="translate(71.199 1.275)"><path d="M1720,1593.743a11.173,11.173,0,0,1-11.155,11.188A11.155,11.155,0,1,1,1720,1593.743Zm-19.9.07a8.727,8.727,0,0,0,8.74,8.813,8.851,8.851,0,1,0-8.74-8.813Zm12.472-2.3h0a1.49,1.49,0,0,1-1.966.328,2.535,2.535,0,0,0-1.4-.5,2.389,2.389,0,0,0,0,4.758,2.916,2.916,0,0,0,1.456-.476,1.423,1.423,0,0,1,1.773.254l.036.038a1.43,1.43,0,0,1-.229,2.172,6.1,6.1,0,0,1-3.232,1,5.215,5.215,0,0,1-5.48-5.315,5.282,5.282,0,0,1,5.61-5.282,6.241,6.241,0,0,1,3.117.9A1.423,1.423,0,0,1,1712.571,1591.517Z" transform="translate(-1697.789 -1582.621)" fill="#121936"/></g></g></g><g transform="translate(60.574 198.145)"><path d="M1705.134,1820.237V1855.1a24.986,24.986,0,0,0,24.985,24.986h4.638a30.023,30.023,0,0,0,30.022-30.023h0a21.133,21.133,0,0,1,21.133-21.133h8.691a17.942,17.942,0,0,1,5.687.924v-.924h.2v-13.109a16.912,16.912,0,0,0-16.912-16.912h-98.827v.024A21.33,21.33,0,0,1,1705.134,1820.237Z" transform="translate(-1612.306 -1798.907)" fill="#f4f2ed"/><line transform="translate(322.716 82.952)" fill="none" stroke="#faf8f3" stroke-linecap="round" stroke-linejoin="round" stroke-width="0"/><path d="M1947.127,1867.334l-.182-13.462a16.911,16.911,0,0,0-16.911-16.911h-98.826v.924a17.976,17.976,0,0,1,12.285,17.049v8.493a26.465,26.465,0,0,0,26.466,26.465h95.979A23.312,23.312,0,0,1,1947.127,1867.334Z" transform="translate(-1643.222 -1806.94)" fill="#faf8f3"/><path d="M1592.919,1877.852a18.923,18.923,0,0,0,.424,3.975,21.892,21.892,0,0,1-.371-4.147Z" transform="translate(-1592.919 -1815.536)" fill="#121936"/><line transform="translate(226.737 82.952)" fill="none" stroke="#121936" stroke-linecap="round" stroke-linejoin="round" stroke-width="0"/><path d="M1793.3,1855.394V1846.9a17.974,17.974,0,0,0-17.973-17.973h-8.691a21.133,21.133,0,0,0-21.133,21.133h0a30.023,30.023,0,0,1-30.022,30.023h-4.639a24.986,24.986,0,0,1-24.985-24.986v-34.861a21.33,21.33,0,0,0-20.378-21.307c-.316-.013-.633-.024-.954-.024h0a26.071,26.071,0,0,0-26.071,26.071v28.541a26.565,26.565,0,0,1-26.566,26.565h0a18.865,18.865,0,0,1-18.437-14.886,20.417,20.417,0,0,0,20.521,16.661h205.791A26.466,26.466,0,0,1,1793.3,1855.394Z" transform="translate(-1593.032 -1798.907)" fill="#0b3563"/></g></g><g transform="translate(36.41 124.625)"><g transform="translate(0 37.338)"><path d="M1610.765,1742.8c-3.738-8.006-12.282-2.126-17.854.708-2.522,1.541-4.848,2.916-7.031,4.187.425-3,.846-6.045.208-9.072a3.579,3.579,0,0,0-1.475-2.516,2.3,2.3,0,0,0-2.118.042,5.833,5.833,0,0,0-1.629,1.387c-4.5,4.971-14.607,22.014-14.607,22.014a45.87,45.87,0,0,0-3.8,13.216c-1.737,13.168,10.246,25.207,22.865,22.592a9.742,9.742,0,0,0,3.9-1.583l21.216-15.226c4.057-2.585,4.5-9.048.73-9.111,3.608-1.075,7.091-3.613,5.023-8.119-.869-2.6-2.883-2.989-5.031-2.652,3.268-1.07,6.209-2.776,4.761-6.627-1-4.369-4.538-4.512-7.845-3.726C1610.215,1747.307,1611.839,1745.672,1610.765,1742.8Z" transform="translate(-1562.289 -1735.864)" fill="#ffa386"/><path d="M1580.44,1756.4a.789.789,0,0,1-.4-1.471l11.467-6.681a.789.789,0,1,1,.794,1.363l-11.467,6.681A.786.786,0,0,1,1580.44,1756.4Z" transform="translate(-1565.954 -1738.455)" fill="#ff6a48"/><path d="M1609.631,1756.834a.789.789,0,0,1-.409-1.464c.8-.484,7.869-4.73,9.367-5.138a.789.789,0,1,1,.415,1.523,92.9,92.9,0,0,0-8.968,4.966A.782.782,0,0,1,1609.631,1756.834Z" transform="translate(-1572.116 -1738.891)" fill="#ff6a48"/><path d="M1615.034,1769.695a.789.789,0,0,1-.4-1.471l7.215-4.178a.788.788,0,1,1,.79,1.365l-7.214,4.178A.776.776,0,0,1,1615.034,1769.695Z" transform="translate(-1573.256 -1741.79)" fill="#ff6a48"/><path d="M1617.758,1782.064a.789.789,0,0,1-.381-1.48l3.936-2.165a.789.789,0,1,1,.76,1.382l-3.936,2.165A.783.783,0,0,1,1617.758,1782.064Z" transform="translate(-1573.831 -1744.827)" fill="#ff6a48"/></g><g transform="translate(136.057)"><path d="M1803.613,1689.221l4.838,4.15a3.026,3.026,0,0,1,.228,4.271l-4.345,5.066a3.025,3.025,0,0,1-4.255.425l-4.838-4.15a3.026,3.026,0,0,1-.228-4.27l4.345-5.067A3.026,3.026,0,0,1,1803.613,1689.221Z" transform="translate(-1747.311 -1688.534)" fill="#ff6a48"/><rect width="68.921" height="12.281" transform="translate(5.18 55.789) rotate(-49.382)" fill="#ffd066"/><path d="M1740.019,1759.341l9.151,7.848c.039.034.181.156-.033.135l-14.383,7.416h0l5.137-15.346C1739.91,1759.337,1739.979,1759.307,1740.019,1759.341Z" transform="translate(-1734.753 -1703.479)" fill="#ffaa89"/><path d="M1736.658,1771.895l3.275,2.808c.014.013.065.056-.012.049l-5.148,2.654h0l1.839-5.492C1736.619,1771.893,1736.644,1771.882,1736.658,1771.895Z" transform="translate(-1734.757 -1706.131)" fill="#233863"/><path d="M1793.885,1713.082a.394.394,0,0,1-.3-.651l6.454-7.524a.395.395,0,0,1,.6.513l-6.454,7.524A.394.394,0,0,1,1793.885,1713.082Z" transform="translate(-1747.153 -1691.961)" fill="#fff"/><path d="M1773.791,1723.231a.395.395,0,0,1-.3-.652l18.607-21.7a.395.395,0,1,1,.6.513l-18.607,21.7A.4.4,0,0,1,1773.791,1723.231Z" transform="translate(-1742.911 -1691.112)" fill="#fff"/><g transform="translate(6.019 18.246)"><path d="M1906.076,1788.237l-79.608-52.652-18.452-14.46a34.749,34.749,0,0,0-17.893-7.216l-21.142-2.165a15.735,15.735,0,0,0-8.807,1.663l-10.037,5.166a4.509,4.509,0,0,0-2.435,4.314l.08,1.177-.772.368a6.049,6.049,0,0,0-3.448,5.479l.013,4.152-.692,1.623a6.244,6.244,0,0,0,1.083,6.6l15.582,17.485a2.458,2.458,0,0,0,3.607.069,7.02,7.02,0,0,0,.409-9.271l-4.821-5.985,16.144,9.557a19.472,19.472,0,0,0,8.728,2.679l9.955.611,10.293,11.75,61.742,74.49a43.439,43.439,0,0,0,26.628,13.641c19.663,2.424,38.361-9.288,45.6-27.731l5.646-12.362Z" transform="translate(-1742.383 -1711.662)" fill="#ffaa89"/></g><path d="M1749.348,1727.4a.789.789,0,0,1-.239-1.541l12-3.828a.789.789,0,1,1,.479,1.5l-12,3.828A.77.77,0,0,1,1749.348,1727.4Z" transform="translate(-1737.667 -1695.598)" fill="#ff6a48"/><path d="M1744.282,1739.473a.789.789,0,0,1-.194-1.553l14.909-3.794a.789.789,0,0,1,.391,1.529l-14.91,3.793A.759.759,0,0,1,1744.282,1739.473Z" transform="translate(-1736.598 -1698.153)" fill="#ff6a48"/><path d="M1762.106,1753.075a.785.785,0,0,1-.588-.263l-3-3.358a.789.789,0,1,1,1.176-1.052l3,3.358a.789.789,0,0,1-.588,1.315Z" transform="translate(-1739.727 -1701.117)" fill="#ff6a48"/><path d="M1807.055,1770.134a.789.789,0,0,1-.031-1.577l11.756-.461a.789.789,0,1,1,.062,1.576l-11.755.462Z" transform="translate(-1749.849 -1705.33)" fill="#ff6a48"/></g></g></g></svg>