<?xml version="1.0" encoding="utf-8"?>
<!-- Generator: Adobe Illustrator 25.2.0, SVG Export Plug-In . SVG Version: 6.00 Build 0)  -->
<svg version="1.1" id="Layer_1" xmlns="http://www.w3.org/2000/svg" xmlns:xlink="http://www.w3.org/1999/xlink" x="0px" y="0px"
	 viewBox="0 0 50 50" style="enable-background:new 0 0 50 50;" xml:space="preserve">
<style type="text/css">
	.st0{fill:#D6D6D6;}
</style>
<g id="Group_3465" transform="translate(1472.437 -4377.5)">
	<path id="Path_6449" class="st0" d="M-1428.4,4394.5c-3.6,2.5-5.6,5.8-5.3,10.2c0.3,4.4,2.7,7.5,6.7,9.5c-0.4,1-0.8,2-1.2,2.9
		c-1.3,3-3.2,5.7-5.4,8.1c-1.9,2.2-5,2.8-7.6,1.6c-0.6-0.2-1.2-0.5-1.8-0.7c-2.5-0.9-5.3-0.9-7.7,0.3c-1.1,0.5-2.2,0.8-3.3,1.1
		c-1.8,0.3-3.7-0.4-4.9-1.8c-2.8-2.8-5-6.1-6.5-9.8c-1.8-4.1-2.6-8.6-2.3-13.1c0.3-4.2,1.8-7.8,5.2-10.5c3.4-2.6,7.2-3.4,11.3-1.7
		c0.6,0.3,1.3,0.5,1.9,0.8c1.4,0.6,3.1,0.6,4.5,0c1.5-0.7,3.1-1.2,4.7-1.5c4.6-0.7,8.6,0.7,11.5,4.4
		C-1428.6,4394.3-1428.5,4394.4-1428.4,4394.5z"/>
	<path id="Path_6450" class="st0" d="M-1437.5,4377.5c0.2,1.4,0,2.9-0.5,4.2c-1.3,3.6-3.7,6.3-7.6,7.1c-2.3,0.5-2.2,0.4-1.9-1.8
		c0.6-4.8,4.2-8.6,8.9-9.5C-1438.3,4377.6-1437.9,4377.5-1437.5,4377.5z"/>
</g>
</svg>
