<svg xmlns="http://www.w3.org/2000/svg" width="567.667" height="108.426" viewBox="0 0 567.667 108.426"><g transform="translate(-332.333 -25082.979)"><rect width="567.667" height="40.912" rx="8" transform="translate(332.333 25082.979)" fill="#ededed"/><rect width="395.05" height="29.939" rx="8" transform="translate(454.106 25088.465)" fill="#fff"/><g transform="translate(866.405 25095.609)"><g transform="translate(0 0)"><path d="M2434.41,3331.721a7.672,7.672,0,1,1,7.672-7.671A7.68,7.68,0,0,1,2434.41,3331.721Zm0-13.617a5.946,5.946,0,1,0,5.946,5.946A5.953,5.953,0,0,0,2434.41,3318.1Z" transform="translate(-2426.738 -3316.377)" fill="#fff"/></g><g transform="translate(11.572 11.673)"><path d="M2459.051,3349.189a.859.859,0,0,1-.566-.212l-4.63-4.032a.863.863,0,0,1,1.133-1.3l4.63,4.032a.862.862,0,0,1-.567,1.513Z" transform="translate(-2453.559 -3343.431)" fill="#fff"/></g></g><g transform="translate(345.409 25099.998)"><path d="M3930.667,10836H3944.2" transform="translate(-3930.667 -10836)" fill="none" stroke="#fff" stroke-linecap="round" stroke-width="3"/><path d="M3930.667,10836H3944.2" transform="translate(-3930.667 -10832.16)" fill="none" stroke="#fff" stroke-linecap="round" stroke-width="3"/><path d="M3930.667,10836H3944.2" transform="translate(-3930.667 -10828.318)" fill="none" stroke="#fff" stroke-linecap="round" stroke-width="3"/></g><g transform="translate(557.813 20065.605)"><path d="M-132.345,5027.4c3.782.065,7.858.037,11.917.415a4.107,4.107,0,0,1,3.727,2.909,13.5,13.5,0,0,1,.623,3.731,61.028,61.028,0,0,1-.19,11.207,8.351,8.351,0,0,1-.347,1.535,4.247,4.247,0,0,1-4.1,3.231c-4.629.335-9.265.408-13.9.345-3.234-.043-6.47-.05-9.694-.356a8.771,8.771,0,0,1-1.379-.238,3.923,3.923,0,0,1-2.848-2.6,13.52,13.52,0,0,1-.661-3.786,58.537,58.537,0,0,1,.2-11.205,5.475,5.475,0,0,1,1.756-3.831,5.415,5.415,0,0,1,3.282-1.033C-140.2,5027.484-136.415,5027.429-132.345,5027.4Zm2.08,8.733c0-1.195,0-2.285,0-3.375,0-1.411,0-1.391-1.413-1.42-.476-.01-.615.1-.613.6.022,4.439.012,8.878.012,13.318,0,1.072,0,1.072,1.055,1.069.905,0,.9,0,.973-.868,0-.021.059-.037.175-.107a2.926,2.926,0,0,0,.311.388,2.145,2.145,0,0,0,2.291.616,1.879,1.879,0,0,0,1.151-1.869,58.325,58.325,0,0,0,.01-7.233,4.417,4.417,0,0,0-.141-.8,1.743,1.743,0,0,0-2.754-1.156C-129.577,5035.5-129.839,5035.837-130.265,5036.128Zm-5.8,9.014a5.408,5.408,0,0,1,0,.6c-.062.44.081.634.558.581a7.277,7.277,0,0,1,1.167,0c.289.015.412-.058.412-.381q-.016-5.2,0-10.4c0-.3-.082-.424-.4-.41a9.415,9.415,0,0,1-1.225,0c-.423-.036-.52.135-.518.532.016,2.454-.011,4.907.022,7.361a1.562,1.562,0,0,1-.564,1.271c-.25.227-.522.448-.883.287-.341-.153-.255-.493-.255-.773-.006-2.376,0-4.751,0-7.126,0-1.57,0-1.558-1.591-1.553-.389,0-.541.084-.539.512.019,2.862.009,5.725.016,8.587a5.037,5.037,0,0,0,.08.812,1.544,1.544,0,0,0,2.508,1.148A7.354,7.354,0,0,0-136.067,5045.142Zm15.34-4.071c.545,0,1.091-.006,1.635,0,.231,0,.372-.049.363-.319a22.108,22.108,0,0,0-.1-3.147,2.9,2.9,0,0,0-2.991-2.626,2.9,2.9,0,0,0-2.967,2.727,29.1,29.1,0,0,0-.011,6,2.988,2.988,0,0,0,3.809,2.688c1.409-.3,2.189-1.4,2.25-3.189.027-.79.027-.792-.757-.79-.408,0-.905-.133-1.2.051-.378.234-.095.785-.154,1.192-.087.611-.386.955-.9.97s-.86-.291-.957-.9a19.5,19.5,0,0,1-.064-2.333c-.012-.317.17-.337.409-.334C-121.817,5041.075-121.272,5041.071-120.727,5041.071Zm-23.509-1.132c0,1.559,0,3.117,0,4.675,0,.543-.19,1.267.083,1.582.318.37,1.064.059,1.618.127.45.056.542-.119.54-.547-.017-3.858-.012-7.714-.009-11.572,0-.836-.111-.723.754-.734.039,0,.078,0,.117,0,.515-.048,1.218.237,1.5-.127.258-.335.059-1.007.1-1.527.033-.4-.118-.484-.491-.479-1.636.019-3.272.008-4.909.008-1.756,0-1.749,0-1.649,1.761.016.271.084.38.367.369.486-.019.976.02,1.461-.013.4-.026.53.1.525.516C-144.247,5035.966-144.236,5037.953-144.236,5039.939Z" transform="translate(-4.569)" fill="#fe0318"/><path d="M-154.8,5046.79c-.353.3-.667.609-1.027.854a1.566,1.566,0,0,1-2.646-1.145,6.1,6.1,0,0,1-.048-.931c0-2.823.006-5.646-.012-8.47,0-.393.069-.563.5-.515.519.058,1.2-.212,1.526.1s.1.992.1,1.51c.01,2.414,0,4.828.006,7.243,0,.264-.065.571.272.7a.724.724,0,0,0,.751-.205,1.562,1.562,0,0,0,.655-1.284c-.034-2.512-.007-5.023-.023-7.534,0-.39.073-.563.5-.526.519.044,1.206-.166,1.521.1.332.274.1.985.1,1.5.009,3.057,0,6.113.013,9.17,0,.39-.076.585-.5.516a2.324,2.324,0,0,0-.35,0,2.91,2.91,0,0,1-1.152-.05C-154.94,5047.653-154.63,5047.145-154.8,5046.79Z" transform="translate(-3.026 -1.54)" fill="#040404"/><path d="M-172.557,5037.582l.624-2.33c.257-.958.53-1.912.763-2.876a.422.422,0,0,1,.515-.388,11.027,11.027,0,0,0,1.344,0c.457-.033.6.044.438.555-.861,2.665-1.68,5.342-2.522,8.012a2.967,2.967,0,0,0-.135.917c.006,1.715-.007,3.429.012,5.144,0,.377-.088.517-.482.486-.561-.043-1.3.182-1.643-.1-.358-.294-.155-1.069-.1-1.618a22.171,22.171,0,0,0-1.648-9.744c-.377-1.063-.669-2.156-1.034-3.222-.122-.356-.052-.444.306-.428.62.029,1.365-.178,1.829.1.444.264.39,1.082.551,1.656.357,1.271.683,2.549,1.021,3.824Z" transform="translate(0 -0.767)" fill="#040404"/><path d="M-167.634,5042.243c0-.954-.055-1.913.011-2.863a2.791,2.791,0,0,1,2.714-2.88,2.709,2.709,0,0,1,3.153,2.573,27.541,27.541,0,0,1,.009,6.415,2.821,2.821,0,0,1-3.072,2.575,2.934,2.934,0,0,1-2.8-2.84C-167.693,5044.234-167.634,5043.237-167.634,5042.243Zm2.073-.012h.012c0,.467,0,.935,0,1.4,0,.564-.025,1.131.019,1.693a.83.83,0,0,0,.861.853.851.851,0,0,0,.885-.833,4.017,4.017,0,0,0,.025-.641c0-1.655.007-3.31,0-4.965a2.713,2.713,0,0,0-.084-.748.788.788,0,0,0-.836-.6.8.8,0,0,0-.813.629,2.641,2.641,0,0,0-.067.694C-165.566,5040.557-165.562,5041.395-165.562,5042.231Z" transform="translate(-1.487 -1.534)" fill="#040404"/><path d="M-126.8,5036.927c.426-.291.688-.633,1.058-.845a1.743,1.743,0,0,1,2.754,1.155,4.429,4.429,0,0,1,.141.8,58.325,58.325,0,0,1-.01,7.233,1.879,1.879,0,0,1-1.151,1.869,2.146,2.146,0,0,1-2.291-.616,2.9,2.9,0,0,1-.311-.388c-.116.07-.173.087-.175.107-.068.866-.067.866-.973.868-1.055,0-1.055,0-1.055-1.069,0-4.439.009-8.879-.012-13.318,0-.5.137-.607.613-.6,1.414.029,1.413.009,1.413,1.42C-126.8,5034.642-126.8,5035.731-126.8,5036.927Zm0,4.57v2.86a.97.97,0,0,0,1.007,1.073c.5.022.775-.275.861-.962a5.587,5.587,0,0,0,.047-.7q0-2.276,0-4.553a6.1,6.1,0,0,0-.065-.871.737.737,0,0,0-.89-.7.932.932,0,0,0-.955.877C-126.8,5039.513-126.8,5040.506-126.8,5041.5Z" transform="translate(-8.035 -0.799)" fill="#fbfcfb"/><path d="M-134.143,5046.709a7.354,7.354,0,0,1-1.217,1.042,1.544,1.544,0,0,1-2.508-1.148,5.037,5.037,0,0,1-.08-.812c-.007-2.863,0-5.725-.016-8.587,0-.428.15-.512.539-.512,1.59,0,1.591-.017,1.591,1.553,0,2.375,0,4.75,0,7.126,0,.28-.086.62.255.773.361.161.633-.06.883-.287a1.562,1.562,0,0,0,.564-1.271c-.032-2.454-.006-4.907-.022-7.361,0-.4.095-.567.518-.532a9.415,9.415,0,0,0,1.225,0c.313-.015.4.113.4.41q-.011,5.2,0,10.4c0,.324-.122.4-.412.381a7.277,7.277,0,0,0-1.167,0c-.477.053-.62-.141-.558-.581A5.408,5.408,0,0,0-134.143,5046.709Z" transform="translate(-6.494 -1.567)" fill="#fbfcfb"/><path d="M-115.773,5042.609c-.545,0-1.09,0-1.635,0-.239,0-.422.017-.409.334a19.492,19.492,0,0,0,.064,2.332c.1.608.434.914.957.9s.809-.358.9-.97c.059-.408-.224-.959.154-1.192.3-.185.795-.05,1.2-.051.783,0,.783,0,.757.79-.061,1.788-.841,2.894-2.25,3.189a2.988,2.988,0,0,1-3.809-2.688,29.1,29.1,0,0,1,.011-6,2.9,2.9,0,0,1,2.967-2.728,2.9,2.9,0,0,1,2.991,2.627,22.105,22.105,0,0,1,.1,3.147c.008.27-.132.322-.363.318C-114.683,5042.6-115.228,5042.609-115.773,5042.609Zm-1.166-1.673c.253,0,.505,0,.758,0,.194,0,.288-.078.282-.275a10.685,10.685,0,0,0-.06-1.572.794.794,0,0,0-.9-.715c-.484.006-.843.194-.89.724-.042.482-.037.97-.068,1.454-.021.314.119.417.413.388A4.658,4.658,0,0,1-116.94,5040.937Z" transform="translate(-9.523 -1.538)" fill="#fbfcfb"/><path d="M-143.676,5040.738c0-1.986-.012-3.973.009-5.96.005-.416-.121-.542-.525-.516-.485.032-.974-.006-1.461.013-.283.011-.351-.1-.367-.369-.1-1.762-.107-1.761,1.649-1.761,1.636,0,3.272.011,4.909-.008.373,0,.525.083.491.479-.043.52.155,1.191-.1,1.527-.279.364-.982.079-1.5.127-.039,0-.078,0-.117,0-.865.011-.753-.1-.754.734,0,3.857-.008,7.714.009,11.572,0,.428-.091.6-.54.547-.554-.069-1.3.242-1.618-.127-.273-.315-.082-1.039-.083-1.582C-143.678,5043.855-143.676,5042.3-143.676,5040.738Z" transform="translate(-5.129 -0.799)" fill="#fbfcfb"/><path d="M-126.39,5042.614c0-.992,0-1.984,0-2.977a.933.933,0,0,1,.955-.877.737.737,0,0,1,.89.7,6.122,6.122,0,0,1,.065.871q.01,2.276,0,4.553a5.59,5.59,0,0,1-.047.7c-.086.687-.358.984-.861.962a.97.97,0,0,1-1.007-1.073Z" transform="translate(-8.445 -1.915)" fill="#fe0318"/><path d="M-116.5,5041.313a4.658,4.658,0,0,0-.467,0c-.294.029-.434-.073-.413-.387.032-.484.026-.972.068-1.455.047-.529.406-.717.89-.724a.8.8,0,0,1,.9.715,10.688,10.688,0,0,1,.06,1.572c.006.2-.088.28-.282.276C-115.993,5041.308-116.246,5041.313-116.5,5041.313Z" transform="translate(-9.964 -1.914)" fill="#fe0318"/></g><text transform="translate(465.333 25088)" fill="#707070" font-size="20" font-family="SegoeUI, Segoe UI"><tspan x="0" y="22">Salud mental en tiempos de COVID-19</tspan></text><rect width="395.05" height="67.939" rx="8" transform="translate(454.106 25123.465)" fill="#f6f6f6"/><text transform="translate(465.333 25127)" fill="#707070" font-size="20" font-family="SegoeUI-Light, Segoe UI" font-weight="300"><tspan x="0" y="22">Salud mental en tiempos de COVID-19</tspan></text><text transform="translate(465.333 25159)" fill="#707070" font-size="20" font-family="SegoeUI-Light, Segoe UI" font-weight="300"><tspan x="0" y="22">Salud mental en niños COVID-19</tspan></text></g></svg>