<svg xmlns="http://www.w3.org/2000/svg" xmlns:xlink="http://www.w3.org/1999/xlink" width="547.246" height="387.485" viewBox="0 0 547.246 387.485">
  <defs>
    <linearGradient id="linear-gradient" x1="0.5" y1="0.196" x2="0.5" y2="0.949" gradientUnits="objectBoundingBox">
      <stop offset="0" stop-color="#26e6ff"/>
      <stop offset="0.486" stop-color="#4188ff"/>
      <stop offset="0.834" stop-color="#534cff"/>
      <stop offset="1" stop-color="#5a35ff"/>
    </linearGradient>
    <linearGradient id="linear-gradient-2" x1="0.5" x2="0.5" y2="1" gradientUnits="objectBoundingBox">
      <stop offset="0" stop-color="#949aff"/>
      <stop offset="0.999" stop-color="#a600ff"/>
    </linearGradient>
    <linearGradient id="linear-gradient-5" x1="0.527" y1="-0.007" x2="0.527" y2="1.001" xlink:href="#linear-gradient-2"/>
    <linearGradient id="linear-gradient-7" x1="0.5" y1="1" x2="0.5" gradientUnits="objectBoundingBox">
      <stop offset="0" stop-color="#f9fbfc"/>
      <stop offset="1" stop-color="#bee1f4"/>
    </linearGradient>
    <linearGradient id="linear-gradient-9" x1="0.202" y1="0.233" x2="0.928" y2="0.912" xlink:href="#linear-gradient"/>
    <linearGradient id="linear-gradient-10" x1="-0.62" y1="0.154" x2="1.573" y2="0.932" xlink:href="#linear-gradient"/>
    <linearGradient id="linear-gradient-11" x1="-0.891" y1="0.139" x2="1.526" y2="0.942" xlink:href="#linear-gradient"/>
    <linearGradient id="linear-gradient-12" x1="-0.437" y1="0.108" x2="0.951" y2="1.011" xlink:href="#linear-gradient"/>
    <linearGradient id="linear-gradient-13" x1="0.106" y1="0.214" x2="0.997" y2="0.87" xlink:href="#linear-gradient"/>
    <linearGradient id="linear-gradient-15" x1="-0.62" y1="0.154" x2="1.573" y2="0.932" xlink:href="#linear-gradient"/>
    <linearGradient id="linear-gradient-18" x1="0.106" y1="0.214" x2="0.997" y2="0.87" xlink:href="#linear-gradient"/>
    <linearGradient id="linear-gradient-19" x1="0.5" x2="0.5" y2="1" gradientUnits="objectBoundingBox">
      <stop offset="0" stop-color="#ff697d"/>
      <stop offset="1" stop-color="#de2276"/>
    </linearGradient>
    <linearGradient id="linear-gradient-20" x1="0.5" x2="0.5" y2="1" gradientUnits="objectBoundingBox">
      <stop offset="0" stop-color="#435df1"/>
      <stop offset="0.327" stop-color="#4333f1"/>
      <stop offset="1" stop-color="#4c008c"/>
    </linearGradient>
    <linearGradient id="linear-gradient-21" x1="0.5" x2="0.5" y2="1" gradientUnits="objectBoundingBox">
      <stop offset="0" stop-color="#69479b"/>
      <stop offset="1" stop-color="#4c008c"/>
    </linearGradient>
    <linearGradient id="linear-gradient-22" x1="0.311" y1="0.048" x2="0.689" y2="1.315" xlink:href="#linear-gradient-21"/>
    <linearGradient id="linear-gradient-23" x1="0.872" y1="0.434" x2="0.186" y2="0.556" xlink:href="#linear-gradient-21"/>
    <linearGradient id="linear-gradient-25" x1="0" y1="0.5" x2="1" y2="0.5" xlink:href="#linear-gradient-19"/>
    <linearGradient id="linear-gradient-26" x1="0" y1="0.5" x2="1" y2="0.5" xlink:href="#linear-gradient-19"/>
    <linearGradient id="linear-gradient-27" x1="0.5" y1="-0.119" x2="0.5" y2="0.958" xlink:href="#linear-gradient-21"/>
    <linearGradient id="linear-gradient-28" x1="0.5" y1="-0.072" x2="0.5" y2="1.07" xlink:href="#linear-gradient-20"/>
    <linearGradient id="linear-gradient-29" x1="0.5" y1="-0.082" x2="0.5" y2="1.049" xlink:href="#linear-gradient-20"/>
    <linearGradient id="linear-gradient-30" x1="0" y1="0.5" x2="1" y2="0.5" xlink:href="#linear-gradient-19"/>
    <linearGradient id="linear-gradient-31" x1="0.5" x2="0.5" y2="1" gradientUnits="objectBoundingBox">
      <stop offset="0" stop-color="#435df1"/>
      <stop offset="1" stop-color="#4333f1"/>
    </linearGradient>
  </defs>
  <g id="Group_2982" data-name="Group 2982" transform="translate(-23.063 -89.012)">
    <g id="Group_2924" data-name="Group 2924" transform="translate(23.063 112.477)">
      <g id="Group_2917" data-name="Group 2917" transform="translate(4.752)">
        <path id="Path_6287" data-name="Path 6287" d="M550.272,428.834H42.522C14.744,382.416,25.826,324.9,63.293,296.708c29.057-21.867,70.771-23.682,105.7-4.719a31.523,31.523,0,0,1,52.85-27.369c2.141-4.852,15.62-34.1,48.131-44.356,29.471-9.3,62.858.7,84.938,25.482A55.083,55.083,0,0,1,441.74,287.27c33.76-14.187,71.7-10.112,97.207,11.325C573.427,327.574,580.826,384.617,550.272,428.834Z" transform="translate(-27.005 -86.18)" fill="#d4ebf8"/>
        <circle id="Ellipse_396" data-name="Ellipse 396" cx="83.669" cy="83.669" r="83.669" transform="translate(13.58 94.817)" fill="#d4ebf8"/>
        <circle id="Ellipse_397" data-name="Ellipse 397" cx="83.669" cy="83.669" r="83.669" transform="translate(126.491 118.325) rotate(-45)" fill="#d4ebf8"/>
        <circle id="Ellipse_398" data-name="Ellipse 398" cx="26.762" cy="26.762" r="26.762" transform="translate(120.753 133.244) rotate(-80.016)" fill="#d4ebf8"/>
      </g>
      <circle id="Ellipse_399" data-name="Ellipse 399" cx="42.583" cy="42.583" r="42.583" transform="matrix(0.23, -0.973, 0.973, 0.23, 188.847, 311.374)" fill="#c0dfed"/>
      <path id="Path_6288" data-name="Path 6288" d="M506.733,327.64a42.865,42.865,0,0,0-6.347.474,26.452,26.452,0,0,0-42.235-11.679,64.255,64.255,0,0,0-81.609-14.554,64.266,64.266,0,0,0-75.32-32.768,42.585,42.585,0,0,0-82.071-5.156,76.3,76.3,0,0,0-38.273-1.118,60.9,60.9,0,0,0-95.745,69.793,39.532,39.532,0,0,0-21.355,30.654,26.458,26.458,0,1,0,25.112,41.471,39.505,39.505,0,0,0,49.519-19.36A76.42,76.42,0,0,0,267.427,369a64.254,64.254,0,0,0,83.906,17.485,64.286,64.286,0,0,0,115.479-1.422,42.585,42.585,0,1,0,39.92-57.421Z" transform="translate(-19.413 -82.44)" fill="url(#linear-gradient)"/>
      <g id="Group_2918" data-name="Group 2918" transform="translate(472.114 223.879)">
        <path id="Path_6289" data-name="Path 6289" d="M445.919,345.8a22.841,22.841,0,0,0-6.36-11.219,20.477,20.477,0,0,0-10.31-5.568,37.972,37.972,0,0,0,7.01,9.874A27.8,27.8,0,0,0,445.919,345.8Zm-20.068,30.276a20.59,20.59,0,0,0-7.085-9.461,39.174,39.174,0,0,0,2.228,12.011,28.166,28.166,0,0,0,5.872,10.474A22.9,22.9,0,0,0,425.851,376.073Zm20.518-18.53a18.942,18.942,0,0,0,11.958-2.93,32.069,32.069,0,0,0,10.191-10.671,25.017,25.017,0,0,0-11.687,4.483A48.545,48.545,0,0,0,446.369,357.544ZM430.9,367.119a20.464,20.464,0,0,0-7.93-8.622,38.388,38.388,0,0,0,3.4,11.618,27.852,27.852,0,0,0,6.858,9.716A22.758,22.758,0,0,0,430.9,367.119Zm3.073-18.5a28.2,28.2,0,0,0,9,7.9,22.864,22.864,0,0,0-5.252-11.863,20.691,20.691,0,0,0-9.792-6.6A38.386,38.386,0,0,0,433.973,348.617Zm7.234,22.751a18.947,18.947,0,0,0,12.242-1.354,32.122,32.122,0,0,0,11.492-9.248,25,25,0,0,0-12.168,2.914A48.4,48.4,0,0,0,441.207,371.367Zm-11.123-10.479a28.22,28.22,0,0,0,7.885,9.021,22.845,22.845,0,0,0-3.656-12.46,20.686,20.686,0,0,0-8.849-7.817A38.53,38.53,0,0,0,430.084,360.889Zm18.726-14.534a18.791,18.791,0,0,0,11.5-4.078,28.523,28.523,0,0,0,8.981-11.533,24.805,24.805,0,0,0-11.077,5.586A48.135,48.135,0,0,0,448.81,346.355Zm1.309-10.491c3.585-.874,6.339-3.386,8.643-5.867a23.769,23.769,0,0,0,5.435-11.131c-3.293,1.557-5.822,4.325-8.072,6.959A36.943,36.943,0,0,0,450.12,335.864Zm10.122,37.361a24.714,24.714,0,0,0-12.286,1.646,47.729,47.729,0,0,0-12.174,6.433,18.8,18.8,0,0,0,12.209-.122A28.672,28.672,0,0,0,460.242,373.224Zm-17.626-47.485a16.965,16.965,0,0,0-8.338-5.4,31,31,0,0,0,5.52,8.879,24.187,24.187,0,0,0,7.8,6.4A20.458,20.458,0,0,0,442.615,325.739Zm-12.873,65.439a18.925,18.925,0,0,0,12.3,1.089,32.449,32.449,0,0,0,13.162-6.827,24.908,24.908,0,0,0-12.524.446A48.791,48.791,0,0,0,429.742,391.179Zm14-75.423a14.9,14.9,0,0,0-7.125-3.884,25.376,25.376,0,0,0,5.136,6.98,19.121,19.121,0,0,0,6.827,4.566A18.245,18.245,0,0,0,443.746,315.756Zm1.227-21.6a43.792,43.792,0,0,0,.76,11.691,49.182,49.182,0,0,0,3.218,10.824c.041.089.08.177.122.264.03-.092.055-.185.082-.279a27.764,27.764,0,0,0-4.181-22.5Zm15.17,14.558a19.822,19.822,0,0,0-6.008,6.126,29.217,29.217,0,0,0-4,8.557,14.954,14.954,0,0,0,6.452-5.435A20.765,20.765,0,0,0,460.144,308.711Z" transform="translate(-413.772 -294.153)" fill="url(#linear-gradient-2)"/>
        <path id="Path_6290" data-name="Path 6290" d="M447.247,354.925c.154-.033.3-.071.453-.1l0,0h0c.483-.1.965-.207,1.446-.354a27.566,27.566,0,0,0,7.463-3.3,22.409,22.409,0,0,0,3.487-2.682,21.805,21.805,0,0,1-3.526,2.522,25.925,25.925,0,0,1-3.69,1.789,30.581,30.581,0,0,1-3.757,1.171c-.491.119-1,.218-1.493.3-.131.023-.263.048-.391.071-.394.074-.8.117-1.2.165.939-3.468,1.752-6.886,2.474-10.405.5-.143,1.006-.285,1.5-.451.07-.027.139-.049.206-.071l0,0c.544-.189,1.1-.367,1.634-.6a28.163,28.163,0,0,0,3.623-1.739,27.83,27.83,0,0,0,3.469-2.331,22.368,22.368,0,0,0,3.2-3.024,21.609,21.609,0,0,1-3.258,2.865,26.736,26.736,0,0,1-3.489,2.168,32.086,32.086,0,0,1-3.621,1.572c-.581.213-1.185.389-1.78.579l-.058.017c-.437.124-.872.23-1.308.338.592-3.19,1.037-6.455,1.318-9.688.406-.225.807-.458,1.208-.7l0,0c.47-.285.939-.594,1.4-.915a30.353,30.353,0,0,0,2.659-2.1,28.38,28.38,0,0,0,2.474-2.49,24.392,24.392,0,0,0,2.226-2.9,23.354,23.354,0,0,1-2.3,2.762,27.575,27.575,0,0,1-2.531,2.334,29.985,29.985,0,0,1-2.691,1.946c-.371.236-.749.468-1.129.68-.412.232-.832.455-1.25.666a111.2,111.2,0,0,0,.37-12.126c.225-.181.452-.369.673-.562a25.014,25.014,0,0,0,3.136-3.258,53.766,53.766,0,0,0,3.161-4.947,53.032,53.032,0,0,1-3.251,4.819,24.3,24.3,0,0,1-2.9,2.891q-.411.347-.834.673c-.072-2.647-.148-3.973-.38-6.621-.219-2.509-.365-3.764-.729-6.269.129,1.054.187,1.579.289,2.632-.127-1.05-.2-1.575-.348-2.624.306,2.51.423,3.767.585,6.275.171,2.649.217,3.973.23,6.612q-.434-.311-.86-.633c-1.055-.8-2.088-1.653-3.084-2.562-1.331-1.217-3.831-3.891-3.831-3.891s2.442,2.751,3.752,4.017c1.07,1.033,2.193,2.01,3.331,2.915.228.181.459.36.69.535a110.393,110.393,0,0,1-.644,12.06c-.37-.286-.742-.579-1.107-.873-.336-.27-.669-.553-1-.836-.8-.691-1.6-1.429-2.387-2.175s-1.542-1.528-2.281-2.325-1.465-1.621-2.14-2.492c.644.907,1.34,1.766,2.051,2.607s1.444,1.666,2.2,2.461,1.536,1.579,2.32,2.322c.4.377.8.755,1.213,1.114l0,0c.347.307.695.61,1.047.913-.354,3.2-.872,6.434-1.534,9.587-.367-.26-.733-.516-1.095-.784l-.048-.036c-.488-.383-.992-.749-1.466-1.133-.975-.792-1.986-1.636-2.93-2.495s-1.874-1.782-2.76-2.727a31.807,31.807,0,0,1-2.532-2.981,33.114,33.114,0,0,0,2.437,3.1c.859.984,1.765,1.95,2.685,2.859s1.878,1.81,2.862,2.651c.423.391.877.742,1.313,1.109l0,0c.055.045.111.089.166.139.4.332.816.649,1.226.972-.8,3.469-1.678,6.836-2.689,10.25-.307-.259-.626-.517-.918-.789-.1-.088-.193-.178-.291-.266-.37-.333-.75-.679-1.106-1.027-.891-.873-1.812-1.817-2.662-2.764s-1.684-1.959-2.465-2.989a32.269,32.269,0,0,1-2.2-3.228,32.975,32.975,0,0,0,2.1,3.328c.749,1.068,1.546,2.12,2.372,3.116s1.678,1.992,2.581,2.917c.33.368.681.705,1.03,1.049h0v0c.113.1.216.216.326.326.332.33.68.645,1.025.966-1.5,4.509-3.172,8.868-5.083,13.217-.187-.287-.375-.575-.557-.866-.229-.364-.452-.742-.67-1.115-.535-.914-1.051-1.872-1.548-2.831s-.96-1.945-1.4-2.937-.859-2-1.212-3.043c.313,1.062.691,2.1,1.091,3.123s.822,2.041,1.278,3.037.937,1.992,1.435,2.949c.253.486.514.975.784,1.449v0c.165.293.334.581.5.871-1.367,2.961-2.9,5.9-4.558,8.708-.21-.294-.421-.586-.626-.886l-.034-.049c-.334-.523-.691-1.036-1.012-1.555-.661-1.069-1.34-2.2-1.948-3.324s-1.186-2.3-1.715-3.487a32.354,32.354,0,0,1-1.418-3.649,33.473,33.473,0,0,0,1.291,3.726c.488,1.212,1.029,2.423,1.6,3.587s1.18,2.332,1.834,3.452c.27.51.584.991.875,1.483v0c.037.061.075.122.111.187.225.371.463.732.7,1.1-1.887,3.079-3.827,6.027-5.906,8.98-.176-.3-.361-.6-.52-.9-.06-.116-.122-.233-.186-.35-.239-.438-.482-.892-.7-1.341-.55-1.124-1.106-2.325-1.6-3.505s-.938-2.419-1.334-3.653a32.89,32.89,0,0,1-1.008-3.792,33.836,33.836,0,0,0,.878,3.855c.352,1.262.755,2.525,1.2,3.744s.922,2.449,1.467,3.626c.189.458.408.895.622,1.336l0,0v0c.071.136.13.276.2.417.178.373.377.738.569,1.106a134.132,134.132,0,0,1-13.527,15.144l1.114,1.188a136.036,136.036,0,0,0,13.594-15.465c.41.07.822.145,1.235.193.157.018.31.029.463.052h.007c.493.058.984.115,1.489.13a27.7,27.7,0,0,0,8.168-.721,22.662,22.662,0,0,0,4.19-1.42,21.961,21.961,0,0,1-4.173,1.255,26.093,26.093,0,0,1-4.089.509,30.568,30.568,0,0,1-3.95-.1c-.505-.045-1.02-.116-1.517-.194-.131-.021-.264-.04-.394-.058-.341-.051-.686-.128-1.026-.2,2.082-3.008,4.022-6.009,5.909-9.143.434.023.868.046,1.306.051.075,0,.147,0,.219,0l0,0c.578,0,1.159.01,1.745-.037a28.576,28.576,0,0,0,4-.469,28.005,28.005,0,0,0,4.043-1.079,22.544,22.544,0,0,0,4.015-1.817,21.761,21.761,0,0,1-4.016,1.647,27.021,27.021,0,0,1-4.01.918,32.017,32.017,0,0,1-3.942.311c-.619.014-1.248-.016-1.872-.03l-.061,0c-.364-.019-.725-.052-1.085-.084,1.651-2.858,3.182-5.842,4.542-8.849.33-.061.661-.124.991-.2h0c.538-.115,1.083-.254,1.62-.408a30.251,30.251,0,0,0,3.2-1.115,28.476,28.476,0,0,0,3.149-1.536,24.538,24.538,0,0,0,3.046-2,23.419,23.419,0,0,1-3.075,1.845,27.625,27.625,0,0,1-3.151,1.371,30.162,30.162,0,0,1-3.176.955c-.429.1-.862.2-1.289.275-.34.06-.682.112-1.022.162,1.9-4.413,3.556-8.833,5.03-13.4C446.321,355.1,446.788,355.024,447.247,354.925Z" transform="translate(-414.624 -291.384)" fill="#56548c"/>
      </g>
      <g id="Group_2919" data-name="Group 2919" transform="translate(358.574 194.846)">
        <path id="Path_6291" data-name="Path 6291" d="M351.751,321.719a22.841,22.841,0,0,0-6.36-11.219,20.481,20.481,0,0,0-10.31-5.568,37.973,37.973,0,0,0,7.01,9.874A27.817,27.817,0,0,0,351.751,321.719Zm-20.068,30.276a20.587,20.587,0,0,0-7.084-9.461,39.1,39.1,0,0,0,2.228,12.011,28.146,28.146,0,0,0,5.871,10.474A22.887,22.887,0,0,0,331.683,351.994Zm20.519-18.53a18.936,18.936,0,0,0,11.957-2.93,32.057,32.057,0,0,0,10.191-10.671,25.007,25.007,0,0,0-11.686,4.483A48.49,48.49,0,0,0,352.2,333.465Zm-15.471,9.575a20.464,20.464,0,0,0-7.93-8.622,38.388,38.388,0,0,0,3.4,11.618,27.867,27.867,0,0,0,6.858,9.716A22.758,22.758,0,0,0,336.731,343.04Zm3.073-18.5a28.209,28.209,0,0,0,9,7.9,22.864,22.864,0,0,0-5.252-11.863,20.688,20.688,0,0,0-9.79-6.6A38.35,38.35,0,0,0,339.8,324.538Zm7.234,22.751a18.947,18.947,0,0,0,12.242-1.354,32.126,32.126,0,0,0,11.493-9.248A25,25,0,0,0,358.6,339.6,48.424,48.424,0,0,0,347.039,347.289ZM335.916,336.81a28.235,28.235,0,0,0,7.885,9.021,22.844,22.844,0,0,0-3.656-12.46,20.689,20.689,0,0,0-8.848-7.817A38.529,38.529,0,0,0,335.916,336.81Zm18.727-14.534a18.791,18.791,0,0,0,11.5-4.078,28.523,28.523,0,0,0,8.981-11.533,24.8,24.8,0,0,0-11.076,5.586A48.1,48.1,0,0,0,354.643,322.276Zm1.308-10.491c3.585-.874,6.339-3.386,8.643-5.867a23.771,23.771,0,0,0,5.437-11.131c-3.293,1.557-5.824,4.325-8.073,6.959A36.971,36.971,0,0,0,355.951,311.785Zm10.122,37.361a24.713,24.713,0,0,0-12.286,1.646,47.768,47.768,0,0,0-12.174,6.432,18.8,18.8,0,0,0,12.209-.122A28.658,28.658,0,0,0,366.073,349.145ZM348.447,301.66a16.964,16.964,0,0,0-8.338-5.4,31.027,31.027,0,0,0,5.52,8.879,24.2,24.2,0,0,0,7.8,6.4A20.458,20.458,0,0,0,348.447,301.66ZM335.573,367.1a18.927,18.927,0,0,0,12.3,1.089,32.46,32.46,0,0,0,13.162-6.826,24.894,24.894,0,0,0-12.524.445A48.791,48.791,0,0,0,335.573,367.1Zm14-75.423a14.9,14.9,0,0,0-7.125-3.884,25.384,25.384,0,0,0,5.136,6.98,19.121,19.121,0,0,0,6.827,4.566A18.246,18.246,0,0,0,349.578,291.677Zm1.229-21.6a43.74,43.74,0,0,0,.76,11.691,49.091,49.091,0,0,0,3.217,10.824c.041.089.08.177.123.264.029-.092.054-.184.081-.279a27.758,27.758,0,0,0-4.18-22.5Zm15.17,14.558a19.819,19.819,0,0,0-6.009,6.125,29.238,29.238,0,0,0-4,8.558,14.953,14.953,0,0,0,6.452-5.435A20.781,20.781,0,0,0,365.977,284.632Z" transform="translate(-319.604 -270.074)" fill="url(#linear-gradient-2)"/>
        <path id="Path_6292" data-name="Path 6292" d="M353.08,330.846c.153-.033.3-.071.452-.1l0,0h0c.483-.1.965-.207,1.446-.354a27.564,27.564,0,0,0,7.463-3.3,22.335,22.335,0,0,0,3.487-2.682,21.841,21.841,0,0,1-3.524,2.522,26.053,26.053,0,0,1-3.69,1.789,30.665,30.665,0,0,1-3.758,1.171c-.489.119-1,.218-1.493.3-.131.023-.263.048-.391.071-.394.074-.8.117-1.2.165.94-3.468,1.753-6.886,2.474-10.405.5-.144,1.006-.285,1.506-.451.069-.026.137-.048.206-.071l0,0c.544-.189,1.1-.365,1.634-.6a28.254,28.254,0,0,0,3.624-1.739,27.82,27.82,0,0,0,3.468-2.331,22.366,22.366,0,0,0,3.2-3.024,21.654,21.654,0,0,1-3.257,2.865,26.825,26.825,0,0,1-3.491,2.168,32.082,32.082,0,0,1-3.621,1.572c-.58.213-1.184.389-1.78.579l-.058.017c-.435.124-.872.23-1.308.338.593-3.19,1.037-6.455,1.318-9.688.408-.225.808-.458,1.208-.7l0,0c.47-.285.94-.594,1.4-.915a30.171,30.171,0,0,0,2.657-2.1,28.392,28.392,0,0,0,2.475-2.49,24.519,24.519,0,0,0,2.225-2.9,23.354,23.354,0,0,1-2.3,2.762,27.571,27.571,0,0,1-2.531,2.334,29.968,29.968,0,0,1-2.69,1.946c-.373.236-.75.468-1.13.68-.412.231-.832.455-1.25.666a111.2,111.2,0,0,0,.37-12.126c.227-.181.452-.369.674-.562a25.175,25.175,0,0,0,3.136-3.258,54.039,54.039,0,0,0,3.161-4.947,53.4,53.4,0,0,1-3.252,4.819,24.284,24.284,0,0,1-2.9,2.891q-.412.347-.834.673c-.074-2.647-.15-3.973-.381-6.621-.219-2.509-.365-3.764-.729-6.267.129,1.053.187,1.578.291,2.631-.128-1.05-.2-1.575-.35-2.624.306,2.51.423,3.767.585,6.275.171,2.649.217,3.973.23,6.612q-.434-.311-.86-.633c-1.055-.8-2.088-1.653-3.084-2.562-1.33-1.217-3.831-3.892-3.831-3.892s2.443,2.753,3.752,4.019c1.069,1.033,2.194,2.01,3.331,2.915.229.181.459.361.691.535a110.692,110.692,0,0,1-.645,12.06c-.37-.286-.74-.579-1.107-.873-.335-.27-.669-.553-1-.836-.8-.691-1.6-1.429-2.389-2.175s-1.541-1.528-2.281-2.325-1.465-1.62-2.139-2.492c.643.907,1.338,1.766,2.05,2.607s1.444,1.666,2.2,2.461,1.536,1.579,2.32,2.322c.4.377.8.755,1.213,1.114l0,0c.347.307.694.61,1.047.913-.353,3.2-.871,6.434-1.534,9.587-.365-.26-.733-.516-1.095-.784l-.048-.036c-.487-.383-.992-.749-1.465-1.133-.977-.791-1.987-1.636-2.93-2.495s-1.875-1.782-2.761-2.727a31.807,31.807,0,0,1-2.532-2.981,32.92,32.92,0,0,0,2.438,3.1c.857.984,1.764,1.95,2.684,2.859s1.879,1.81,2.862,2.651c.423.391.877.742,1.314,1.109v0c.057.045.111.089.166.139.4.332.816.649,1.226.972-.8,3.469-1.678,6.836-2.689,10.25-.307-.259-.626-.517-.918-.789-.1-.088-.193-.178-.291-.266-.37-.333-.75-.679-1.106-1.027-.89-.873-1.811-1.817-2.662-2.764s-1.683-1.959-2.465-2.989a32.264,32.264,0,0,1-2.2-3.228,32.771,32.771,0,0,0,2.1,3.328c.748,1.068,1.545,2.12,2.37,3.116s1.68,1.992,2.581,2.917c.332.368.682.705,1.031,1.049h0l0,0c.112.1.215.216.326.326.33.33.679.645,1.024.966-1.5,4.509-3.172,8.868-5.083,13.217-.187-.287-.375-.575-.557-.866-.229-.364-.452-.742-.67-1.115-.534-.914-1.051-1.872-1.548-2.831s-.96-1.945-1.4-2.937-.857-2-1.212-3.043c.313,1.062.691,2.1,1.091,3.123s.822,2.041,1.279,3.037.937,1.992,1.435,2.949c.252.486.514.975.783,1.449v0c.165.293.334.581.5.871-1.368,2.96-2.906,5.9-4.559,8.708-.209-.294-.421-.586-.625-.886l-.034-.049c-.335-.523-.691-1.036-1.012-1.555-.662-1.069-1.341-2.2-1.95-3.324s-1.185-2.3-1.715-3.487a32.511,32.511,0,0,1-1.418-3.649,33.478,33.478,0,0,0,1.291,3.726c.488,1.212,1.028,2.423,1.6,3.587s1.18,2.332,1.834,3.452c.271.51.584.991.875,1.483v0c.037.061.075.123.111.187.227.371.463.733.7,1.1-1.887,3.079-3.826,6.027-5.906,8.98-.175-.3-.359-.6-.52-.9-.06-.116-.122-.234-.184-.35-.24-.438-.484-.892-.7-1.341-.551-1.124-1.107-2.325-1.6-3.505s-.939-2.419-1.335-3.653a33.137,33.137,0,0,1-1.008-3.792,33.836,33.836,0,0,0,.878,3.855c.352,1.262.755,2.525,1.2,3.744s.921,2.449,1.466,3.626c.189.458.409.895.623,1.337h0v0c.072.136.131.276.2.417.177.373.376.738.568,1.106a134.011,134.011,0,0,1-13.527,15.144l1.114,1.188a136.036,136.036,0,0,0,13.595-15.465c.411.071.822.145,1.236.193.157.018.309.029.463.052h.007c.492.058.983.115,1.488.13a27.684,27.684,0,0,0,8.168-.721,22.662,22.662,0,0,0,4.19-1.42,21.945,21.945,0,0,1-4.172,1.255,26.086,26.086,0,0,1-4.09.509,30.574,30.574,0,0,1-3.95-.1c-.505-.045-1.02-.116-1.517-.194-.131-.021-.264-.04-.393-.058-.342-.051-.687-.128-1.027-.2,2.083-3.007,4.023-6.008,5.909-9.142.434.023.868.046,1.307.051.074,0,.146,0,.218,0l0,0c.578,0,1.157.01,1.743-.037a28.577,28.577,0,0,0,4-.469,28.006,28.006,0,0,0,4.043-1.079,22.509,22.509,0,0,0,4.015-1.817,21.723,21.723,0,0,1-4.016,1.647,26.982,26.982,0,0,1-4.01.918,32,32,0,0,1-3.94.311c-.62.014-1.249-.016-1.874-.03l-.06,0c-.365-.019-.725-.052-1.085-.084,1.649-2.858,3.181-5.842,4.541-8.849.33-.061.661-.124.992-.2h0c.538-.115,1.083-.254,1.62-.408a30.254,30.254,0,0,0,3.2-1.115,28.477,28.477,0,0,0,3.149-1.536,24.359,24.359,0,0,0,3.046-2,23.421,23.421,0,0,1-3.075,1.845,27.623,27.623,0,0,1-3.151,1.371,29.894,29.894,0,0,1-3.176.955c-.428.1-.861.2-1.289.275-.34.06-.681.112-1.022.162,1.9-4.413,3.556-8.833,5.03-13.4C352.153,331.016,352.62,330.945,353.08,330.846Z" transform="translate(-320.456 -267.304)" fill="#56548c"/>
      </g>
      <g id="Group_2920" data-name="Group 2920" transform="translate(14.565 219.419)">
        <path id="Path_6293" data-name="Path 6293" d="M68.173,335.186a38.02,38.02,0,0,0,7.01-9.874,20.471,20.471,0,0,0-10.311,5.568,22.831,22.831,0,0,0-6.36,11.219A27.82,27.82,0,0,0,68.173,335.186ZM77.565,385.4a28.184,28.184,0,0,0,5.871-10.473,39.111,39.111,0,0,0,2.228-12.011,20.585,20.585,0,0,0-7.084,9.46A22.888,22.888,0,0,0,77.565,385.4ZM47.6,344.728a25.027,25.027,0,0,0-11.687-4.484A32.072,32.072,0,0,0,46.1,350.916a18.949,18.949,0,0,0,11.958,2.929A48.575,48.575,0,0,0,47.6,344.728Zm23.6,31.4a27.833,27.833,0,0,0,6.858-9.715,38.364,38.364,0,0,0,3.4-11.618,20.457,20.457,0,0,0-7.929,8.621A22.76,22.76,0,0,0,71.2,376.131Zm5.3-41.771a20.677,20.677,0,0,0-9.79,6.6,22.875,22.875,0,0,0-5.253,11.863,28.214,28.214,0,0,0,9-7.9A38.392,38.392,0,0,0,76.5,334.36ZM51.658,359.982a24.982,24.982,0,0,0-12.168-2.914,32.124,32.124,0,0,0,11.493,9.247,18.946,18.946,0,0,0,12.242,1.354A48.44,48.44,0,0,0,51.658,359.982Zm27.307-14.047a20.667,20.667,0,0,0-8.848,7.817,22.838,22.838,0,0,0-3.657,12.459,28.207,28.207,0,0,0,7.885-9.021A38.5,38.5,0,0,0,78.965,345.935Zm-32.746-13.3a24.813,24.813,0,0,0-11.076-5.586,28.507,28.507,0,0,0,8.981,11.533,18.792,18.792,0,0,0,11.5,4.079A48.11,48.11,0,0,0,46.219,332.631Zm2.086-10.5c-2.25-2.636-4.779-5.4-8.072-6.959a23.777,23.777,0,0,0,5.435,11.13c2.3,2.481,5.058,4.993,8.644,5.868A36.957,36.957,0,0,0,48.3,322.127Zm8.135,55.356a18.8,18.8,0,0,0,12.21.122,47.8,47.8,0,0,0-12.175-6.434,24.724,24.724,0,0,0-12.285-1.646A28.664,28.664,0,0,0,56.44,377.483Zm.394-45.562a24.2,24.2,0,0,0,7.8-6.4,31.018,31.018,0,0,0,5.519-8.878,16.982,16.982,0,0,0-8.338,5.4A20.479,20.479,0,0,0,56.834,331.921Zm4.916,50.267a24.927,24.927,0,0,0-12.525-.445,32.465,32.465,0,0,0,13.163,6.826,18.922,18.922,0,0,0,12.3-1.089A48.783,48.783,0,0,0,61.75,382.188Zm-5.9-62.468a19.125,19.125,0,0,0,6.828-4.566,25.365,25.365,0,0,0,5.136-6.98,14.926,14.926,0,0,0-7.126,3.884A18.245,18.245,0,0,0,55.845,319.719ZM54.9,301.465a26.168,26.168,0,0,0,.374,11.489c.027.1.053.187.082.279.042-.087.081-.174.122-.263A49.123,49.123,0,0,0,58.7,302.145a43.738,43.738,0,0,0,.76-11.691A26.242,26.242,0,0,0,54.9,301.465Zm-7.057,12.8a14.962,14.962,0,0,0,6.451,5.437,29.252,29.252,0,0,0-4-8.558,19.838,19.838,0,0,0-6.009-6.126A20.762,20.762,0,0,0,47.844,314.26Z" transform="translate(-35.143 -290.454)" fill="url(#linear-gradient-2)"/>
        <path id="Path_6294" data-name="Path 6294" d="M56.674,351.227c-.153-.033-.3-.072-.453-.1l0,0h0c-.482-.1-.965-.207-1.446-.354a26.551,26.551,0,0,1-3.781-1.338,26.2,26.2,0,0,1-3.682-1.958,22.374,22.374,0,0,1-3.486-2.68,21.857,21.857,0,0,0,3.524,2.521,25.993,25.993,0,0,0,3.69,1.79,30.79,30.79,0,0,0,3.757,1.17c.491.121,1,.218,1.494.3.131.023.263.048.391.072.394.072.8.117,1.2.165-.939-3.469-1.752-6.886-2.473-10.407-.5-.142-1.006-.285-1.506-.451-.069-.027-.137-.048-.206-.071l0,0c-.544-.189-1.1-.365-1.635-.6a28.155,28.155,0,0,1-3.623-1.739,27.471,27.471,0,0,1-3.468-2.331,22.428,22.428,0,0,1-3.2-3.023,21.714,21.714,0,0,0,3.258,2.864,26.815,26.815,0,0,0,3.489,2.168,31.858,31.858,0,0,0,3.621,1.572c.581.215,1.185.389,1.78.579l.059.017c.435.124.871.23,1.308.338-.593-3.189-1.038-6.455-1.319-9.687-.406-.225-.807-.458-1.207-.7l0,0c-.471-.283-.94-.594-1.4-.915a29.913,29.913,0,0,1-2.659-2.1,28.56,28.56,0,0,1-2.474-2.49,24.43,24.43,0,0,1-2.226-2.9,23.362,23.362,0,0,0,2.3,2.764,27.092,27.092,0,0,0,2.531,2.333,29.748,29.748,0,0,0,2.69,1.946c.371.236.75.468,1.129.681.414.23.832.455,1.25.666a111.529,111.529,0,0,1-.37-12.127c-.225-.18-.451-.368-.673-.561a25.03,25.03,0,0,1-3.136-3.259,53.773,53.773,0,0,1-3.161-4.947,53.137,53.137,0,0,0,3.252,4.819,24.208,24.208,0,0,0,2.9,2.893q.411.345.834.673c.072-2.648.148-3.973.38-6.622.221-2.509.367-3.763.729-6.267-.128,1.053-.186,1.579-.289,2.632.127-1.05.2-1.576.35-2.625-.306,2.51-.423,3.767-.586,6.276-.171,2.648-.217,3.972-.229,6.612q.432-.311.858-.634c1.056-.8,2.088-1.652,3.084-2.562,1.331-1.217,3.831-3.891,3.831-3.891s-2.442,2.751-3.752,4.017c-1.069,1.033-2.193,2.01-3.331,2.915-.228.182-.459.362-.69.537a110.667,110.667,0,0,0,.644,12.058c.37-.286.742-.579,1.107-.872.336-.27.669-.555,1-.837.8-.69,1.6-1.429,2.387-2.174s1.542-1.528,2.281-2.326,1.466-1.62,2.14-2.492c-.644.907-1.34,1.768-2.051,2.608s-1.443,1.665-2.2,2.46-1.536,1.579-2.319,2.323c-.4.376-.8.754-1.213,1.113l0,0c-.348.307-.7.61-1.048.912.354,3.2.872,6.435,1.535,9.588.365-.262.732-.517,1.095-.785l.048-.036c.487-.382.992-.749,1.465-1.132.975-.792,1.987-1.636,2.93-2.5s1.874-1.782,2.761-2.727a32.323,32.323,0,0,0,2.532-2.979,33.3,33.3,0,0,1-2.438,3.094c-.857.984-1.765,1.95-2.685,2.859s-1.877,1.811-2.862,2.651c-.422.391-.875.743-1.313,1.109l0,0c-.055.046-.111.09-.165.14-.4.33-.816.647-1.227.971.8,3.47,1.68,6.838,2.689,10.251.307-.26.626-.518.919-.789.094-.089.192-.178.291-.268.37-.333.75-.678,1.1-1.026.891-.874,1.812-1.817,2.663-2.765s1.683-1.959,2.463-2.989a32.27,32.27,0,0,0,2.2-3.228,32.917,32.917,0,0,1-2.1,3.329c-.749,1.068-1.545,2.12-2.37,3.116s-1.68,1.992-2.583,2.917c-.33.367-.681.7-1.03,1.048h0l0,0c-.113.1-.215.215-.326.326-.33.329-.68.644-1.024.966,1.5,4.509,3.171,8.867,5.082,13.216.187-.287.375-.575.557-.864.23-.365.452-.742.67-1.115.535-.915,1.051-1.874,1.549-2.832s.96-1.944,1.4-2.936.858-2,1.212-3.043c-.313,1.061-.691,2.1-1.09,3.122s-.822,2.041-1.279,3.037-.937,1.993-1.435,2.949c-.253.486-.514.977-.783,1.449v0c-.165.292-.334.58-.5.871,1.368,2.96,2.9,5.9,4.558,8.708.21-.3.421-.587.626-.886l.034-.049c.334-.525.691-1.037,1.012-1.555.661-1.071,1.34-2.2,1.948-3.325s1.186-2.3,1.715-3.487a32.276,32.276,0,0,0,1.418-3.648,33.475,33.475,0,0,1-1.291,3.726c-.487,1.213-1.027,2.425-1.6,3.588s-1.179,2.331-1.833,3.452c-.271.509-.584.991-.877,1.483v0c-.039.06-.076.122-.111.186-.227.371-.464.733-.7,1.1,1.888,3.078,3.827,6.026,5.907,8.979.175-.3.359-.6.518-.9.06-.115.122-.233.186-.35.239-.438.482-.892.7-1.34.551-1.124,1.107-2.325,1.6-3.506s.938-2.417,1.334-3.653a32.867,32.867,0,0,0,1.008-3.791,33.493,33.493,0,0,1-.878,3.853c-.352,1.262-.755,2.526-1.2,3.745s-.922,2.448-1.466,3.624c-.191.459-.409.9-.623,1.337l0,0v0c-.072.137-.131.276-.2.417-.178.373-.376.739-.569,1.107A134.239,134.239,0,0,0,89.3,398.948c-.446.475-.669.711-1.114,1.186a135.824,135.824,0,0,1-13.6-15.465c-.41.071-.821.145-1.235.193-.157.019-.309.029-.463.052h0l0,0c-.492.057-.984.115-1.489.129a27.7,27.7,0,0,1-8.168-.721,22.63,22.63,0,0,1-4.19-1.42,21.988,21.988,0,0,0,4.173,1.256,26.086,26.086,0,0,0,4.09.508,30.76,30.76,0,0,0,3.949-.1c.505-.045,1.02-.116,1.517-.194l.394-.059c.341-.049.686-.128,1.026-.2-2.082-3.007-4.022-6.008-5.909-9.143-.434.023-.868.046-1.306.051-.075,0-.146,0-.218,0l0,0c-.578,0-1.158.01-1.745-.039a28.237,28.237,0,0,1-4-.469,27.933,27.933,0,0,1-4.043-1.079,22.463,22.463,0,0,1-4.015-1.817,21.766,21.766,0,0,0,4.016,1.648,27.048,27.048,0,0,0,4.01.916,32.28,32.28,0,0,0,3.942.312c.62.013,1.248-.017,1.872-.03l.061,0c.364-.019.725-.052,1.085-.083-1.649-2.859-3.181-5.843-4.542-8.85-.33-.061-.66-.124-.991-.2l0,0c-.537-.115-1.082-.254-1.619-.408a30.264,30.264,0,0,1-3.2-1.114,28.586,28.586,0,0,1-3.148-1.537,24.485,24.485,0,0,1-3.046-2,23.6,23.6,0,0,0,3.073,1.845,27.421,27.421,0,0,0,3.152,1.37,29.9,29.9,0,0,0,3.176.956c.428.1.861.2,1.289.274.34.06.681.112,1.021.163-1.9-4.413-3.554-8.833-5.03-13.4C57.6,351.4,57.134,351.326,56.674,351.227Z" transform="translate(-33.782 -287.684)" fill="#56548c"/>
      </g>
      <g id="Group_2921" data-name="Group 2921" transform="translate(78.505 184.811)">
        <path id="Path_6295" data-name="Path 6295" d="M127.883,315.833a45.19,45.19,0,0,0,11.1-9.178,24.348,24.348,0,0,0-13.564,3.212,27.158,27.158,0,0,0-10.772,10.925A33.1,33.1,0,0,0,127.883,315.833Zm-4.719,60.588a33.487,33.487,0,0,0,9.98-10.22,46.526,46.526,0,0,0,6.27-13.11,24.488,24.488,0,0,0-11.06,8.68A27.238,27.238,0,0,0,123.164,376.42ZM101.3,320.441c-3.2-3.674-7.309-7.093-12.042-8.76a38.145,38.145,0,0,0,8.411,15.406,22.538,22.538,0,0,0,12.834,7.06A57.742,57.742,0,0,0,101.3,320.441Zm17.414,43.367a33.149,33.149,0,0,0,10.88-9.043,45.72,45.72,0,0,0,7.5-12.3,24.328,24.328,0,0,0-11.773,7.455A27.072,27.072,0,0,0,118.715,363.808Zm18.995-46.35a24.6,24.6,0,0,0-13.287,4.558,27.2,27.2,0,0,0-9.7,12.007,33.566,33.566,0,0,0,12.778-6.3A45.633,45.633,0,0,0,137.71,317.458Zm-36.457,21.76c-3.653-3.223-8.171-6.073-13.08-7.105a38.228,38.228,0,0,0,10.348,14.173,22.539,22.539,0,0,0,13.645,5.337A57.615,57.615,0,0,0,101.253,339.217Zm35.71-7.7a24.6,24.6,0,0,0-12.579,6.247,27.177,27.177,0,0,0-8.049,13.185,33.568,33.568,0,0,0,11.846-7.928A45.833,45.833,0,0,0,136.963,331.515Zm-33.512-25.4c-2.791-3.942-6.5-7.724-11-9.839A33.935,33.935,0,0,0,99.208,312.3a22.356,22.356,0,0,0,11.946,8.236A57.179,57.179,0,0,0,103.451,306.118Zm5.642-11.424c-1.771-3.722-3.822-7.684-7.125-10.489a28.285,28.285,0,0,0,2.807,14.466c1.881,3.562,4.268,7.3,8.117,9.409A43.932,43.932,0,0,0,109.092,294.694ZM101.341,360.8a22.362,22.362,0,0,0,13.989,3.91,56.843,56.843,0,0,0-12-11.151c-3.923-2.811-8.664-5.163-13.605-5.685A34.1,34.1,0,0,0,101.341,360.8Zm14.525-52.22a28.778,28.778,0,0,0,10.936-4.943,36.856,36.856,0,0,0,9.083-8.494,20.181,20.181,0,0,0-11.245,3.624A24.336,24.336,0,0,0,115.866,308.581Zm-9.878,59.265c-4.224-2.443-9.227-4.348-14.252-4.379a38.6,38.6,0,0,0,13.013,11.906,22.513,22.513,0,0,0,14.469,2.549A58.072,58.072,0,0,0,105.988,367.846ZM118.5,294.257a22.748,22.748,0,0,0,9.254-3.137,30.168,30.168,0,0,0,8.057-6.433,17.728,17.728,0,0,0-9.384,2.262A21.711,21.711,0,0,0,118.5,294.257Zm4.554-21.263a31.123,31.123,0,0,0-3.119,13.315c0,.117,0,.23.008.345.075-.086.147-.175.221-.265a58.39,58.39,0,0,0,7.04-11.441,52.037,52.037,0,0,0,4.484-13.2A31.2,31.2,0,0,0,123.052,272.994Zm-12.06,12.52a17.787,17.787,0,0,0,5.732,8.236,34.775,34.775,0,0,0-1.952-11.067,23.592,23.592,0,0,0-5.011-8.893A24.71,24.71,0,0,0,110.993,285.515Z" transform="translate(-88.173 -261.751)" fill="url(#linear-gradient-5)"/>
        <path id="Path_6296" data-name="Path 6296" d="M108.811,331.313c-.166-.086-.323-.176-.49-.256l0,0h0c-.522-.269-1.043-.537-1.551-.855a32.75,32.75,0,0,1-7.556-6.091,26.638,26.638,0,0,1-3.177-4.157,26.007,26.007,0,0,0,3.27,3.986,31,31,0,0,0,3.686,3.2,36.446,36.446,0,0,0,3.956,2.5c.526.291,1.08.561,1.62.811.143.066.287.136.427.2.43.2.886.382,1.331.562-.008-4.275.113-8.452.373-12.719-.534-.32-1.067-.638-1.59-.983-.071-.052-.143-.1-.216-.146l0,0c-.567-.386-1.147-.76-1.693-1.195a33.634,33.634,0,0,1-3.626-3.117A32.979,32.979,0,0,1,100.3,309.3a26.552,26.552,0,0,1-2.743-4.462,25.716,25.716,0,0,0,2.858,4.3,31.813,31.813,0,0,0,3.34,3.568,37.944,37.944,0,0,0,3.674,2.925c.6.426,1.241.813,1.865,1.214l.061.037c.463.277.931.534,1.4.792.305-3.847.8-7.736,1.478-11.536-.4-.385-.786-.775-1.171-1.179l0,0c-.452-.471-.9-.973-1.324-1.483a35.806,35.806,0,0,1-2.4-3.236,33.97,33.97,0,0,1-2.074-3.624,29.2,29.2,0,0,1-1.66-4.022,27.873,27.873,0,0,0,1.793,3.885,32.554,32.554,0,0,0,2.187,3.464,35.466,35.466,0,0,0,2.49,3.066c.353.386.716.769,1.086,1.131.4.393.815.779,1.231,1.15a132.363,132.363,0,0,1,3.321-14.045c-.2-.277-.405-.563-.6-.852a29.73,29.73,0,0,1-2.6-4.712,64.03,64.03,0,0,1-2.1-6.66,63.249,63.249,0,0,0,2.246,6.541,28.832,28.832,0,0,0,2.434,4.216q.365.526.751,1.031c.9-3.019,1.4-4.518,2.481-7.489,1.028-2.815,1.583-4.21,2.774-6.975-.473,1.17-.7,1.757-1.145,2.934.469-1.167.713-1.748,1.212-2.907-1.129,2.79-1.651,4.2-2.612,7.028-1.014,2.99-1.476,4.5-2.305,7.526q.593-.224,1.183-.463c1.458-.59,2.909-1.253,4.333-1.991,1.905-.986,5.6-3.288,5.6-3.288s-3.656,2.408-5.551,3.458c-1.548.856-3.141,1.631-4.728,2.32-.318.139-.639.272-.959.4a131.732,131.732,0,0,0-2.984,14.053c.514-.213,1.03-.435,1.541-.661.469-.206.94-.429,1.4-.651,1.137-.545,2.285-1.147,3.415-1.762s2.243-1.279,3.339-1.967,2.185-1.409,3.229-2.2c-1.02.843-2.085,1.617-3.161,2.362s-2.174,1.469-3.288,2.147-2.252,1.34-3.382,1.952c-.573.31-1.156.619-1.737.9l0,0c-.494.247-.987.487-1.485.726-.582,3.788-.986,7.66-1.2,11.488.5-.188,1-.368,1.5-.563l.068-.027c.678-.289,1.371-.555,2.033-.849,1.365-.609,2.788-1.266,4.137-1.963s2.7-1.467,4.014-2.28a38,38,0,0,0,3.829-2.642,39.257,39.257,0,0,1-3.757,2.8c-1.289.866-2.628,1.7-3.967,2.456s-2.716,1.5-4.107,2.162c-.606.318-1.236.581-1.852.868l0,0c-.078.035-.156.069-.234.109-.567.256-1.138.493-1.709.737-.158,4.232-.183,8.374-.077,12.607.433-.2.879-.4,1.3-.622.136-.072.276-.146.416-.217.528-.268,1.072-.547,1.588-.838,1.293-.728,2.642-1.528,3.913-2.354s2.539-1.731,3.753-2.673a38.464,38.464,0,0,0,3.523-3.029,39.325,39.325,0,0,1-3.436,3.177c-1.19,1-2.43,1.957-3.686,2.847s-2.545,1.769-3.868,2.553c-.493.319-1,.6-1.507.886h0l0,0c-.163.086-.315.181-.475.274-.482.276-.98.531-1.475.793.326,5.643.9,11.166,1.757,16.754.3-.272.609-.545.908-.821.376-.348.748-.713,1.114-1.076.9-.885,1.786-1.827,2.654-2.774s1.7-1.938,2.514-2.941,1.6-2.038,2.333-3.123c-.688,1.124-1.442,2.2-2.217,3.251s-1.576,2.091-2.408,3.094-1.692,2-2.56,2.946c-.44.48-.891.962-1.347,1.423l0,0c-.28.285-.563.563-.845.845.657,3.823,1.517,7.671,2.548,11.411.332-.274.664-.544.991-.825l.054-.047c.546-.5,1.114-.977,1.643-1.473,1.09-1.025,2.219-2.116,3.265-3.218s2.074-2.279,3.047-3.476a38.7,38.7,0,0,0,2.756-3.753,40.107,40.107,0,0,1-2.634,3.881c-.934,1.242-1.93,2.467-2.944,3.628s-2.076,2.314-3.173,3.4c-.468.5-.977.959-1.464,1.434l0,0c-.061.058-.124.117-.184.18-.375.357-.76.7-1.141,1.047,1.218,4.12,2.534,8.1,4.011,12.139.294-.289.6-.576.875-.877.1-.115.212-.23.321-.344.41-.43.83-.877,1.22-1.324.98-1.121,1.989-2.328,2.915-3.534s1.825-2.489,2.661-3.786a39.262,39.262,0,0,0,2.329-4.044,40.274,40.274,0,0,1-2.2,4.157c-.795,1.341-1.647,2.667-2.539,3.929s-1.816,2.527-2.8,3.711c-.359.468-.746.9-1.129,1.343h0l0,.006c-.124.134-.235.276-.357.417-.32.374-.66.732-.995,1.1a159.763,159.763,0,0,0,10.864,21.575l-1.646,1.019a161.623,161.623,0,0,1-10.842-21.963c-.493-.046-.99-.088-1.479-.16-.186-.028-.364-.063-.547-.084l0,0h0c-.584-.086-1.165-.172-1.751-.31a31.916,31.916,0,0,1-4.613-1.3,31.526,31.526,0,0,1-4.547-2.05,26.867,26.867,0,0,1-4.374-2.925,26.275,26.275,0,0,0,4.4,2.731,31.112,31.112,0,0,0,4.542,1.847,36.348,36.348,0,0,0,4.568,1.1c.594.1,1.208.182,1.8.246.158.017.316.036.47.054.409.048.828.065,1.242.088-1.464-4.1-2.766-8.146-3.966-12.329-.505-.107-1.012-.216-1.516-.346-.084-.025-.168-.047-.252-.068l0,0c-.663-.182-1.334-.347-1.992-.584a33.927,33.927,0,0,1-8.76-4.261,26.823,26.823,0,0,1-4.051-3.328,25.911,25.911,0,0,0,4.1,3.134,32.266,32.266,0,0,0,4.324,2.292,38.115,38.115,0,0,0,4.432,1.575c.707.207,1.438.368,2.161.544l.071.016c.424.09.848.164,1.272.239-1.012-3.793-1.85-7.695-2.484-11.569-.361-.174-.72-.347-1.079-.532l0,0c-.582-.3-1.165-.626-1.736-.968a36.158,36.158,0,0,1-3.328-2.268,33.95,33.95,0,0,1-3.143-2.738,29.134,29.134,0,0,1-2.88-3.24,28,28,0,0,0,2.962,3.07,32.764,32.764,0,0,0,3.2,2.548,35.867,35.867,0,0,0,3.353,2.079c.461.248.928.492,1.4.713.371.175.749.339,1.124.5-.816-5.655-1.356-11.246-1.639-16.952C109.824,331.792,109.309,331.567,108.811,331.313Z" transform="translate(-86.557 -258.751)" fill="#56548c"/>
      </g>
      <g id="Group_2922" data-name="Group 2922" transform="translate(413.178 226.116)">
        <path id="Path_6297" data-name="Path 6297" d="M384.532,337.492a18.725,18.725,0,0,0-6.8-8.1,16.78,16.78,0,0,0-9.138-2.953,31.142,31.142,0,0,0,7.119,6.914A22.786,22.786,0,0,0,384.532,337.492Zm-11.67,27.386a16.872,16.872,0,0,0-7.117-6.571,32.052,32.052,0,0,0,3.583,9.349,23.086,23.086,0,0,0,6.29,7.568A18.765,18.765,0,0,0,372.861,364.878Zm13.78-17.987a15.526,15.526,0,0,0,9.2-4.139,26.3,26.3,0,0,0,6.625-10.116,20.493,20.493,0,0,0-8.752,5.351A39.776,39.776,0,0,0,386.642,346.891ZM375.6,356.91a16.76,16.76,0,0,0-7.673-5.769A31.483,31.483,0,0,0,372.395,360a22.836,22.836,0,0,0,6.973,6.81A18.632,18.632,0,0,0,375.6,356.91Zm-.275-15.369a23.132,23.132,0,0,0,8.427,5.033,18.735,18.735,0,0,0-6-8.78,16.95,16.95,0,0,0-8.873-3.862A31.422,31.422,0,0,0,375.322,341.541Zm9.215,17.259a15.522,15.522,0,0,0,9.664-2.912,26.345,26.345,0,0,0,7.888-9.162,20.473,20.473,0,0,0-9.374,4.159A39.755,39.755,0,0,0,384.538,358.8Zm-10.524-6.789a23.141,23.141,0,0,0,7.7,6.1,18.717,18.717,0,0,0-4.8-9.5,16.94,16.94,0,0,0-8.294-4.983A31.611,31.611,0,0,0,374.014,352.01Zm12.93-14.5a15.393,15.393,0,0,0,8.658-5,23.373,23.373,0,0,0,5.523-10.631,20.325,20.325,0,0,0-8.1,6.15A39.428,39.428,0,0,0,386.944,337.51Zm-.505-8.65c2.759-1.238,4.6-3.671,6.093-6.014a19.48,19.48,0,0,0,2.725-9.78c-2.422,1.745-4.05,4.351-5.472,6.81A30.279,30.279,0,0,0,386.439,328.86Zm13.715,28.6a20.264,20.264,0,0,0-9.657,3.154,39.177,39.177,0,0,0-8.855,7,15.406,15.406,0,0,0,9.822-1.913A23.488,23.488,0,0,0,400.154,357.465Zm-21.27-35.648a13.92,13.92,0,0,0-7.522-3.108,25.435,25.435,0,0,0,5.769,6.335,19.841,19.841,0,0,0,7.238,4A16.769,16.769,0,0,0,378.884,321.816Zm-.639,54.657a15.508,15.508,0,0,0,10.076-.952,26.609,26.609,0,0,0,9.593-7.46,20.422,20.422,0,0,0-10.028,2.222A39.967,39.967,0,0,0,378.245,376.473Zm.065-62.87a12.212,12.212,0,0,0-6.319-2.07,20.766,20.766,0,0,0,5.177,4.86,15.659,15.659,0,0,0,6.182,2.665A14.953,14.953,0,0,0,378.31,313.6Zm-2.223-17.594a35.8,35.8,0,0,0,2.351,9.308,40.255,40.255,0,0,0,4.2,8.246c.047.066.09.13.137.194.011-.078.018-.157.024-.236a22.752,22.752,0,0,0-6.716-17.512Zm14.392,9.476a16.256,16.256,0,0,0-3.931,5.831,23.948,23.948,0,0,0-1.951,7.492,12.251,12.251,0,0,0,4.39-5.34A17.016,17.016,0,0,0,390.478,305.485Z" transform="translate(-365.744 -296.009)" fill="url(#linear-gradient-2)"/>
        <path id="Path_6298" data-name="Path 6298" d="M386.387,344.864c.119-.049.233-.1.351-.147l0,0h0c.374-.157.746-.311,1.113-.5a22.609,22.609,0,0,0,5.525-3.767,18.429,18.429,0,0,0,2.411-2.679,17.954,17.954,0,0,1-2.466,2.556,21.252,21.252,0,0,1-2.708,1.992,24.911,24.911,0,0,1-2.854,1.5c-.377.17-.773.326-1.158.468l-.305.116c-.306.117-.629.213-.944.312.241-2.935.387-5.81.445-8.755.385-.191.768-.38,1.147-.587.052-.031.1-.06.156-.088l0,0c.41-.234.83-.458,1.229-.727a23.212,23.212,0,0,0,2.661-1.94,22.874,22.874,0,0,0,2.449-2.395,18.4,18.4,0,0,0,2.129-2.913,17.783,17.783,0,0,1-2.2,2.792,22.024,22.024,0,0,1-2.49,2.267,26.22,26.22,0,0,1-2.685,1.806c-.435.258-.9.49-1.348.731l-.043.023c-.334.165-.669.315-1,.467,0-2.659-.125-5.357-.379-8,.294-.242.582-.49.868-.745l0,0c.338-.3.669-.619.991-.945a24.651,24.651,0,0,0,1.829-2.09,23.255,23.255,0,0,0,1.624-2.375,20.091,20.091,0,0,0,1.362-2.671,19.191,19.191,0,0,1-1.446,2.569,22.483,22.483,0,0,1-1.693,2.258,24.327,24.327,0,0,1-1.879,1.968c-.264.246-.534.488-.809.716-.3.248-.6.491-.909.723a91.068,91.068,0,0,0-1.5-9.829c.154-.178.309-.364.458-.552a20.625,20.625,0,0,0,2.044-3.093,44.157,44.157,0,0,0,1.811-4.458,43.528,43.528,0,0,1-1.9,4.368,19.933,19.933,0,0,1-1.905,2.761c-.186.227-.377.45-.572.667-.453-2.123-.711-3.181-1.293-5.28-.55-1.989-.854-2.979-1.519-4.943.259.83.385,1.246.625,2.079-.258-.828-.393-1.241-.672-2.063.62,1.977.9,2.972,1.4,4.97.533,2.109.766,3.169,1.17,5.294q-.4-.186-.787-.382c-.969-.486-1.929-1.021-2.866-1.606-1.254-.783-3.667-2.566-3.667-2.566s2.378,1.854,3.622,2.679c1.015.674,2.067,1.294,3.118,1.854.211.112.424.223.635.329a90.471,90.471,0,0,1,1.276,9.815c-.341-.175-.684-.356-1.021-.538-.311-.168-.622-.347-.93-.526-.75-.436-1.506-.913-2.247-1.4s-1.47-1-2.185-1.535-1.422-1.088-2.1-1.69c.654.635,1.343,1.225,2.041,1.8s1.412,1.129,2.139,1.655,1.473,1.044,2.215,1.528c.376.244.76.488,1.143.716l0,0c.327.2.651.388.98.579.19,2.634.254,5.316.189,7.955-.333-.156-.667-.307-1-.469l-.045-.022c-.45-.236-.911-.457-1.349-.7-.9-.493-1.845-1.022-2.732-1.575s-1.776-1.157-2.631-1.787a26.227,26.227,0,0,1-2.485-2.026,27.163,27.163,0,0,0,2.426,2.132c.837.666,1.712,1.308,2.589,1.905s1.783,1.179,2.7,1.71c.4.253.818.468,1.224.7l0,0c.052.028.1.055.154.087.375.207.755.4,1.133.6-.124,2.915-.335,5.76-.641,8.662-.287-.164-.582-.324-.857-.5-.09-.058-.182-.116-.274-.172-.348-.212-.705-.435-1.044-.663-.848-.57-1.73-1.195-2.557-1.832s-1.648-1.329-2.431-2.043a26.381,26.381,0,0,1-2.251-2.274,26.66,26.66,0,0,0,2.185,2.37c.762.75,1.56,1.479,2.374,2.158s1.649,1.356,2.514,1.967c.322.247.655.467.986.692h0l0,0c.107.068.2.141.311.213.316.217.644.42.969.627-.535,3.856-1.237,7.618-2.131,11.407-.193-.2-.388-.408-.578-.614-.24-.26-.475-.531-.707-.8-.567-.657-1.126-1.354-1.669-2.052s-1.063-1.424-1.565-2.158-.99-1.488-1.43-2.273c.411.809.869,1.589,1.344,2.355s.966,1.523,1.482,2.257,1.051,1.466,1.6,2.164c.276.353.559.71.846,1.05l0,0c.176.211.354.418.533.627-.662,2.59-1.464,5.185-2.378,7.7-.213-.206-.427-.41-.635-.621l-.035-.035c-.347-.373-.711-.732-1.047-1.1-.692-.763-1.407-1.575-2.065-2.39s-1.3-1.678-1.9-2.555a26.55,26.55,0,0,1-1.687-2.73,27.829,27.829,0,0,0,1.6,2.812c.574.9,1.19,1.8,1.823,2.653s1.3,1.7,1.991,2.509c.294.37.619.713.927,1.066v0c.04.043.078.087.117.134.237.265.482.521.726.78-1.063,2.762-2.188,5.427-3.424,8.116-.186-.215-.38-.429-.553-.65-.065-.084-.133-.17-.2-.254-.258-.317-.521-.647-.764-.975-.611-.823-1.238-1.71-1.807-2.589s-1.117-1.809-1.619-2.745a27.284,27.284,0,0,1-1.376-2.906,27.5,27.5,0,0,0,1.281,2.976c.471.965.984,1.923,1.528,2.838s1.107,1.836,1.721,2.7c.222.341.463.662.7.985h0v0c.077.1.146.2.222.307.2.273.412.538.622.807a109.966,109.966,0,0,1-8.649,14.217c.429.317.644.475,1.074.791a111.443,111.443,0,0,0,8.656-14.486c.341,0,.684-.006,1.024-.029.129-.007.254-.022.381-.027l0,0h0c.405-.027.81-.053,1.219-.116a22.779,22.779,0,0,0,6.476-1.8,18.546,18.546,0,0,0,3.165-1.769,18.078,18.078,0,0,1-3.176,1.634A21.543,21.543,0,0,1,382.8,373.4a24.955,24.955,0,0,1-3.2.5c-.414.04-.839.059-1.25.07-.11,0-.219.007-.327.011-.282.011-.571,0-.856-.007,1.23-2.735,2.348-5.441,3.4-8.248.353-.046.707-.093,1.06-.153.06-.013.118-.023.177-.034l0,0c.465-.088.936-.164,1.4-.291a23.213,23.213,0,0,0,3.153-.972,22.95,22.95,0,0,0,3.1-1.471,18.505,18.505,0,0,0,2.966-2.062,17.771,17.771,0,0,1-2.991,1.924,21.888,21.888,0,0,1-3.1,1.336,26.166,26.166,0,0,1-3.13.838c-.5.1-1.008.172-1.513.254l-.049.007c-.3.039-.592.065-.887.093.9-2.549,1.694-5.182,2.344-7.808.257-.1.514-.2.769-.3l0,0c.416-.171.834-.365,1.244-.569a24.593,24.593,0,0,0,2.411-1.373,23.512,23.512,0,0,0,2.309-1.707,20.146,20.146,0,0,0,2.157-2.065,19.292,19.292,0,0,1-2.2,1.944,22.445,22.445,0,0,1-2.336,1.573,24.806,24.806,0,0,1-2.417,1.243c-.33.145-.666.286-1,.412-.265.1-.533.192-.8.282.872-3.838,1.551-7.648,2.059-11.551C385.666,345.139,386.031,345.013,386.387,344.864Z" transform="translate(-365.446 -293.865)" fill="#56548c"/>
      </g>
      <g id="Group_2923" data-name="Group 2923" transform="translate(0 259.43)">
        <path id="Path_6299" data-name="Path 6299" d="M44.547,387.81c14.065-2.679,24.213,7.883,24.884,8.552.619-2.164,6.75-22.1,26.636-29.159a42.267,42.267,0,0,1,27.46,0,19.62,19.62,0,0,1,24.06-25.76,38.8,38.8,0,0,1,70.376,12A19.508,19.508,0,0,1,253.2,358.6a35.953,35.953,0,0,1,60.635,15.2,36.619,36.619,0,0,1,33.565-6.481c17.468,5.5,28.47,24.039,24.664,42.8h-349C25.174,398.733,33.83,389.82,44.547,387.81Z" transform="translate(-23.063 -323.638)" fill="url(#linear-gradient-7)"/>
        <path id="Path_6300" data-name="Path 6300" d="M208.342,391.791c14.065-2.679,24.215,7.882,24.885,8.551.617-2.163,6.748-22.1,26.636-29.159a42.276,42.276,0,0,1,27.46,0,19.619,19.619,0,0,1,24.059-25.76,38.8,38.8,0,0,1,70.377,12A19.508,19.508,0,0,1,417,362.579a35.952,35.952,0,0,1,60.633,15.2A36.614,36.614,0,0,1,511.2,371.3c17.469,5.5,28.47,24.038,24.664,42.8h-349C188.97,402.713,197.626,393.8,208.342,391.791Z" transform="translate(10.633 -322.819)" fill="url(#linear-gradient-7)"/>
      </g>
    </g>
    <circle id="Ellipse_400" data-name="Ellipse 400" cx="7.062" cy="7.062" r="7.062" transform="translate(64.785 331.602)" fill="#f9fbfc"/>
    <circle id="Ellipse_401" data-name="Ellipse 401" cx="19.429" cy="19.429" r="19.429" transform="translate(75.534 205.884)" fill="#f9fbfc"/>
    <g id="Group_2930" data-name="Group 2930" transform="translate(359.344 296.058)">
      <g id="Group_2925" data-name="Group 2925" transform="translate(77.655 80.252)">
        <path id="Path_6301" data-name="Path 6301" d="M406.011,327.345q5.766,1.989-13.123,75.765H379.279q10.345-28.462,19.536-57.341c.334-1.05-.292-1.235-.673-.235q-10.92,28.549-20.638,57.576H366.372Q399.925,325.251,406.011,327.345Z" transform="translate(-366.372 -327.291)" fill="url(#linear-gradient-9)"/>
        <path id="Path_6302" data-name="Path 6302" d="M396.243,342.534c.381-1,1.007-.815.673.235q-9.255,28.847-19.536,57.341h-1.775Q385.3,371.1,396.243,342.534Z" transform="translate(-364.473 -324.29)" fill="#4f5aff"/>
      </g>
      <g id="Group_2926" data-name="Group 2926" transform="translate(37.043)">
        <path id="Path_6303" data-name="Path 6303" d="M364.654,416.8H350.165l.123-5.393.254-9.483q.582-18.965,1.165-37.933,1.188-37.946,2.375-75.9c.061-2.018-.6-1.987-.715-.035q-2.288,37.879-3.571,75.858-.628,18.983-.9,37.972l-.088,9.5-.007,5.42H332.69c10.405-115.7,17.356-156.257,22.065-156.071S363.224,301.6,364.654,416.8Z" transform="translate(-332.69 -260.732)" fill="url(#linear-gradient-10)"/>
        <path id="Path_6304" data-name="Path 6304" d="M350.618,283.647c.119-1.952.776-1.983.715.035q-1.188,37.946-2.375,75.9-.582,18.97-1.165,37.933L347.539,407l-.123,5.393h-1.364l.007-5.42.088-9.5q.266-18.986.9-37.972Q348.3,321.543,350.618,283.647Z" transform="translate(-329.941 -256.32)" fill="#4f5aff"/>
      </g>
      <g id="Group_2927" data-name="Group 2927" transform="translate(21.727 48.919)">
        <path id="Path_6305" data-name="Path 6305" d="M340.53,408.457h-8.357c-.335-27.715-1.484-55.442-3.148-83.135-.07-1.177-.723-1.115-.711.027q.369,41.561,2.829,83.108H319.987c1.035-64.237,4.6-107.056,7.612-107.153Q332.379,301.154,340.53,408.457Z" transform="translate(-319.987 -301.304)" fill="url(#linear-gradient-11)"/>
        <path id="Path_6306" data-name="Path 6306" d="M330.753,404.5h-1.031q-2.5-41.487-2.829-83.108c-.012-1.142.641-1.2.711-.027C329.268,349.063,330.417,376.79,330.753,404.5Z" transform="translate(-318.566 -297.352)" fill="#4f5aff"/>
      </g>
      <g id="Group_2928" data-name="Group 2928" transform="translate(0 84.624)">
        <path id="Path_6307" data-name="Path 6307" d="M328.8,402.365h-8.072c-3.8-18.483-8.239-36.837-13.079-55.088-.227-.861-.856-.685-.7.162q5.352,27.63,12.359,54.927h-11.3q-9.249-70.426-4.332-71.433Q308.737,329.9,328.8,402.365Z" transform="translate(-301.967 -330.917)" fill="url(#linear-gradient-12)"/>
        <path id="Path_6308" data-name="Path 6308" d="M319.878,399.67h-1.416q-7.028-27.255-12.359-54.927c-.16-.846.469-1.022.7-.162C311.639,362.833,316.075,381.187,319.878,399.67Z" transform="translate(-301.121 -328.222)" fill="#4f5aff"/>
      </g>
      <g id="Group_2929" data-name="Group 2929" transform="translate(58.44 39.804)">
        <path id="Path_6309" data-name="Path 6309" d="M399.124,293.768q5.189,1.649-25.5,116.244H361.291Q377.3,363.763,391.9,317c.488-1.553-.146-1.713-.676-.227q-16.473,46.343-31.525,93.241h-9.26Q393.784,292.08,399.124,293.768Z" transform="translate(-350.436 -293.744)" fill="url(#linear-gradient-13)"/>
        <path id="Path_6310" data-name="Path 6310" d="M389.641,313.018c.531-1.487,1.165-1.326.676.227q-14.686,46.712-30.606,93.014h-1.6Q373.125,359.4,389.641,313.018Z" transform="translate(-348.856 -289.991)" fill="#4f5aff"/>
      </g>
    </g>
    <g id="Group_2936" data-name="Group 2936" transform="translate(73.74 296.058)">
      <g id="Group_2931" data-name="Group 2931" transform="translate(77.654 80.252)">
        <path id="Path_6311" data-name="Path 6311" d="M169.137,327.345q5.768,1.989-13.123,75.765H142.406c6.9-18.974,13.365-38.109,19.535-57.341.334-1.05-.292-1.235-.673-.235q-10.92,28.549-20.638,57.576H129.5Q163.051,325.251,169.137,327.345Z" transform="translate(-129.498 -327.291)" fill="url(#linear-gradient-9)"/>
        <path id="Path_6312" data-name="Path 6312" d="M159.369,342.534c.381-1,1.007-.815.673.235C153.872,362,147.4,381.136,140.507,400.11h-1.776Q148.423,371.1,159.369,342.534Z" transform="translate(-127.599 -324.29)" fill="#4f5aff"/>
      </g>
      <g id="Group_2932" data-name="Group 2932" transform="translate(37.043)">
        <path id="Path_6313" data-name="Path 6313" d="M127.78,416.8H113.292l.123-5.393.253-9.483q.582-18.965,1.165-37.933,1.188-37.946,2.375-75.9c.063-2.018-.6-1.987-.715-.035q-2.288,37.879-3.57,75.858-.629,18.983-.9,37.972l-.089,9.5-.007,5.42H95.816c10.407-115.7,17.356-156.257,22.065-156.071S126.35,301.6,127.78,416.8Z" transform="translate(-95.816 -260.732)" fill="url(#linear-gradient-15)"/>
        <path id="Path_6314" data-name="Path 6314" d="M113.744,283.647c.119-1.952.778-1.983.715.035q-1.186,37.946-2.375,75.9-.582,18.97-1.165,37.933L110.666,407l-.123,5.393h-1.365l.007-5.42.089-9.5q.264-18.986.9-37.972Q111.431,321.543,113.744,283.647Z" transform="translate(-93.067 -256.32)" fill="#4f5aff"/>
      </g>
      <g id="Group_2933" data-name="Group 2933" transform="translate(21.726 48.919)">
        <path id="Path_6315" data-name="Path 6315" d="M103.656,408.457H95.3c-.334-27.715-1.484-55.442-3.148-83.135-.07-1.177-.723-1.115-.711.027q.369,41.561,2.829,83.108H83.113c1.035-64.237,4.6-107.056,7.612-107.153Q95.5,301.154,103.656,408.457Z" transform="translate(-83.113 -301.304)" fill="url(#linear-gradient-11)"/>
        <path id="Path_6316" data-name="Path 6316" d="M93.879,404.5H92.848q-2.5-41.487-2.829-83.108c-.012-1.142.641-1.2.711-.027C92.394,349.063,93.545,376.79,93.879,404.5Z" transform="translate(-81.692 -297.352)" fill="#4f5aff"/>
      </g>
      <g id="Group_2934" data-name="Group 2934" transform="translate(0 84.624)">
        <path id="Path_6317" data-name="Path 6317" d="M91.921,402.365H83.849c-3.8-18.483-8.239-36.837-13.077-55.088-.228-.861-.857-.685-.7.162q5.35,27.63,12.357,54.927h-11.3q-9.247-70.426-4.332-71.433Q71.862,329.9,91.921,402.365Z" transform="translate(-65.094 -330.917)" fill="url(#linear-gradient-12)"/>
        <path id="Path_6318" data-name="Path 6318" d="M83,399.67H81.588Q74.56,372.414,69.23,344.743c-.162-.846.468-1.022.7-.162C74.765,362.833,79.2,381.187,83,399.67Z" transform="translate(-64.248 -328.222)" fill="#4f5aff"/>
      </g>
      <g id="Group_2935" data-name="Group 2935" transform="translate(58.439 39.804)">
        <path id="Path_6319" data-name="Path 6319" d="M162.25,293.768q5.191,1.649-25.5,116.244H124.417Q140.425,363.763,155.024,317c.487-1.553-.147-1.713-.676-.227q-16.474,46.343-31.526,93.241h-9.26Q156.91,292.08,162.25,293.768Z" transform="translate(-113.562 -293.744)" fill="url(#linear-gradient-18)"/>
        <path id="Path_6320" data-name="Path 6320" d="M152.768,313.018c.529-1.487,1.164-1.326.676.227q-14.688,46.712-30.607,93.014h-1.6Q136.251,359.4,152.768,313.018Z" transform="translate(-111.982 -289.991)" fill="#4f5aff"/>
      </g>
    </g>
    <g id="Group_2940" data-name="Group 2940" transform="translate(358.946 140.118)">
      <path id="Path_6321" data-name="Path 6321" d="M450.394,133.079V227.85a1.669,1.669,0,0,1-1.67,1.671H303.308a1.67,1.67,0,0,1-1.671-1.671V133.079a1.679,1.679,0,0,1,1.671-1.681H448.724A1.678,1.678,0,0,1,450.394,133.079Z" transform="translate(-301.637 -131.398)" fill="#bee1f4"/>
      <path id="Path_6322" data-name="Path 6322" d="M450.394,133.079v10.292H301.637V133.079a1.679,1.679,0,0,1,1.671-1.681H448.724A1.678,1.678,0,0,1,450.394,133.079Z" transform="translate(-301.637 -131.398)" fill="#606bf1"/>
      <path id="Path_6323" data-name="Path 6323" d="M311.091,136.808a2.475,2.475,0,1,1-2.475-2.475A2.475,2.475,0,0,1,311.091,136.808Z" transform="translate(-300.711 -130.794)" fill="#ec827d"/>
      <path id="Path_6324" data-name="Path 6324" d="M320,136.808a2.475,2.475,0,1,1-2.475-2.475A2.475,2.475,0,0,1,320,136.808Z" transform="translate(-298.879 -130.794)" fill="#fbd15b"/>
      <path id="Path_6325" data-name="Path 6325" d="M328.9,136.808a2.476,2.476,0,1,1-2.475-2.475A2.475,2.475,0,0,1,328.9,136.808Z" transform="translate(-297.047 -130.794)" fill="#b1b2f3"/>
      <rect id="Rectangle_778" data-name="Rectangle 778" width="80.082" height="72.308" transform="translate(60.004 18.278)" fill="#fff"/>
      <g id="Group_2937" data-name="Group 2937" transform="translate(11.531 27.89)">
        <rect id="Rectangle_779" data-name="Rectangle 779" width="28.29" height="1.846" fill="#fff"/>
        <rect id="Rectangle_780" data-name="Rectangle 780" width="42.349" height="1.847" transform="translate(0 9.207)" fill="#fff"/>
        <rect id="Rectangle_781" data-name="Rectangle 781" width="42.349" height="1.847" transform="translate(0 15.211)" fill="#fff"/>
        <rect id="Rectangle_782" data-name="Rectangle 782" width="42.349" height="1.847" transform="translate(0 21.216)" fill="#fff"/>
        <rect id="Rectangle_783" data-name="Rectangle 783" width="42.349" height="1.847" transform="translate(0 27.22)" fill="#fff"/>
        <rect id="Rectangle_784" data-name="Rectangle 784" width="42.349" height="1.847" transform="translate(0 33.225)" fill="#fff"/>
        <rect id="Rectangle_785" data-name="Rectangle 785" width="42.349" height="1.846" transform="translate(0 39.229)" fill="#fff"/>
        <rect id="Rectangle_786" data-name="Rectangle 786" width="42.349" height="1.846" transform="translate(0 45.234)" fill="#fff"/>
        <rect id="Rectangle_787" data-name="Rectangle 787" width="27.851" height="1.847" transform="translate(0 51.238)" fill="#fff"/>
      </g>
      <g id="Group_2938" data-name="Group 2938" transform="translate(66.993 27.145)">
        <rect id="Rectangle_788" data-name="Rectangle 788" width="9.946" height="54.574" fill="#bee1f4"/>
        <rect id="Rectangle_789" data-name="Rectangle 789" width="9.946" height="54.574" transform="translate(18.719)" fill="#bee1f4"/>
        <rect id="Rectangle_790" data-name="Rectangle 790" width="9.946" height="54.574" transform="translate(37.438)" fill="#bee1f4"/>
        <rect id="Rectangle_791" data-name="Rectangle 791" width="9.946" height="54.574" transform="translate(56.157)" fill="#bee1f4"/>
      </g>
      <g id="Group_2939" data-name="Group 2939" transform="translate(66.993 41.341)">
        <rect id="Rectangle_792" data-name="Rectangle 792" width="9.946" height="14.715" transform="translate(0 25.664)" fill="url(#linear-gradient-19)"/>
        <rect id="Rectangle_793" data-name="Rectangle 793" width="9.946" height="22.365" transform="translate(18.719 18.013)" fill="url(#linear-gradient-20)"/>
        <rect id="Rectangle_794" data-name="Rectangle 794" width="9.946" height="40.379" transform="translate(37.438)" fill="url(#linear-gradient-21)"/>
        <rect id="Rectangle_795" data-name="Rectangle 795" width="9.946" height="32.123" transform="translate(56.157 8.256)" fill="#fbd15b"/>
      </g>
    </g>
    <path id="Path_6326" data-name="Path 6326" d="M390.891,259.829,390.532,414.9a8.849,8.849,0,0,1-8.849,8.808l-259.868-.6a8.863,8.863,0,0,1-8.808-8.849l.429-184.98a8.849,8.849,0,0,1,8.849-8.808l75.9.176a24.488,24.488,0,0,1,15.043,6.281l17.395,17.459a24.56,24.56,0,0,0,15.058,6.279l136.4.316A8.852,8.852,0,0,1,390.891,259.829Z" transform="translate(18.504 27.044)" fill="#f4c44e"/>
    <g id="Group_2951" data-name="Group 2951" transform="translate(191.601 126.487)">
      <rect id="Rectangle_796" data-name="Rectangle 796" width="181.739" height="239.963" rx="7.008" transform="translate(0 24.206)" fill="#878cf0"/>
      <rect id="Rectangle_797" data-name="Rectangle 797" width="152.099" height="191.674" transform="translate(14.82 36.363)" fill="#fff"/>
      <g id="Group_2948" data-name="Group 2948" transform="translate(34.79 60.9)">
        <g id="Group_2941" data-name="Group 2941" transform="translate(0 19.181)">
          <path id="Path_6327" data-name="Path 6327" d="M301.446,191.333H194.11a2.411,2.411,0,1,1,0-4.823H301.446a2.411,2.411,0,0,1,0,4.823Z" transform="translate(-191.699 -186.51)" fill="#bee1f4"/>
        </g>
        <g id="Group_2942" data-name="Group 2942">
          <path id="Path_6328" data-name="Path 6328" d="M301.446,175.425H194.11a2.411,2.411,0,1,1,0-4.823H301.446a2.411,2.411,0,0,1,0,4.823Z" transform="translate(-191.699 -170.602)" fill="#bee1f4"/>
        </g>
        <g id="Group_2943" data-name="Group 2943" transform="translate(0 38.361)">
          <path id="Path_6329" data-name="Path 6329" d="M301.446,207.241H194.11a2.411,2.411,0,1,1,0-4.823H301.446a2.411,2.411,0,0,1,0,4.823Z" transform="translate(-191.699 -202.418)" fill="#bee1f4"/>
        </g>
        <g id="Group_2944" data-name="Group 2944" transform="translate(0 57.542)">
          <path id="Path_6330" data-name="Path 6330" d="M301.446,223.149H194.11a2.411,2.411,0,1,1,0-4.823H301.446a2.411,2.411,0,0,1,0,4.823Z" transform="translate(-191.699 -218.326)" fill="#bee1f4"/>
        </g>
        <g id="Group_2945" data-name="Group 2945" transform="translate(0 76.723)">
          <path id="Path_6331" data-name="Path 6331" d="M301.446,239.057H194.11a2.411,2.411,0,1,1,0-4.823H301.446a2.411,2.411,0,0,1,0,4.823Z" transform="translate(-191.699 -234.234)" fill="#bee1f4"/>
        </g>
        <g id="Group_2946" data-name="Group 2946" transform="translate(0 95.903)">
          <path id="Path_6332" data-name="Path 6332" d="M301.446,254.965H194.11a2.411,2.411,0,1,1,0-4.823H301.446a2.411,2.411,0,0,1,0,4.823Z" transform="translate(-191.699 -250.142)" fill="#bee1f4"/>
        </g>
        <g id="Group_2947" data-name="Group 2947" transform="translate(0 115.083)">
          <path id="Path_6333" data-name="Path 6333" d="M253.553,270.872H194.11a2.411,2.411,0,1,1,0-4.823h59.442a2.411,2.411,0,1,1,0,4.823Z" transform="translate(-191.699 -266.049)" fill="#bee1f4"/>
        </g>
      </g>
      <g id="Group_2950" data-name="Group 2950" transform="translate(49.792)">
        <path id="Path_6334" data-name="Path 6334" d="M283.127,135.512h-22.49a15.418,15.418,0,1,0-30.836,0H207.311a3.17,3.17,0,0,0-3.17,3.17v20.744a3.17,3.17,0,0,0,3.17,3.17h75.816a3.17,3.17,0,0,0,3.17-3.17V138.682A3.17,3.17,0,0,0,283.127,135.512Zm-37.909,6.775a6.776,6.776,0,1,1,6.776-6.776A6.782,6.782,0,0,1,245.218,142.287Z" transform="translate(-204.141 -120.093)" fill="url(#linear-gradient-22)"/>
        <g id="Group_2949" data-name="Group 2949" transform="translate(0 32.445)" style="mix-blend-mode: multiply;isolation: isolate">
          <path id="Path_6335" data-name="Path 6335" d="M283.127,150.173H207.311a3.17,3.17,0,0,1-3.17-3.171v6.888a3.17,3.17,0,0,0,3.17,3.17h75.816a3.17,3.17,0,0,0,3.17-3.17V147A3.17,3.17,0,0,1,283.127,150.173Z" transform="translate(-204.141 -147.002)" fill="#d1d3d4"/>
        </g>
      </g>
    </g>
    <path id="Path_6336" data-name="Path 6336" d="M390.891,270.547l-.359,155.07a8.849,8.849,0,0,1-8.849,8.808l-259.868-.6a8.861,8.861,0,0,1-8.808-8.849l.429-184.978a8.849,8.849,0,0,1,8.849-8.808l75.9.176a24.48,24.48,0,0,1,15.043,6.279L230.625,255.1a24.56,24.56,0,0,0,15.058,6.279l136.4.317A8.85,8.85,0,0,1,390.891,270.547Z" transform="translate(18.504 29.249)" fill="#f1f2f2" style="mix-blend-mode: multiply;isolation: isolate"/>
    <path id="Path_6337" data-name="Path 6337" d="M543.343,412.569H59.906a6.423,6.423,0,0,1-6.4-6.4h0a6.424,6.424,0,0,1,6.4-6.406H543.343a6.425,6.425,0,0,1,6.406,6.406h0A6.424,6.424,0,0,1,543.343,412.569Z" transform="translate(6.262 63.928)" fill="#e6f3f9"/>
    <path id="Path_6338" data-name="Path 6338" d="M469.075,397.673H59.906a6.424,6.424,0,0,1-6.4-6.406h0a6.423,6.423,0,0,1,6.4-6.4H469.075a6.423,6.423,0,0,1,6.4,6.4h0A6.424,6.424,0,0,1,469.075,397.673Z" transform="translate(6.262 60.863)" fill="#e6f3f9" style="mix-blend-mode: multiply;isolation: isolate"/>
    <path id="Path_6339" data-name="Path 6339" d="M390.891,276.964l-.359,155.07a8.849,8.849,0,0,1-8.849,8.808l-259.868-.6a8.861,8.861,0,0,1-8.808-8.849l.429-184.978a8.847,8.847,0,0,1,8.849-8.808l75.9.176a24.48,24.48,0,0,1,15.043,6.279l17.395,17.459a24.56,24.56,0,0,0,15.058,6.279l136.4.317A8.851,8.851,0,0,1,390.891,276.964Z" transform="translate(18.504 30.569)" fill="#fbd15b"/>
    <path id="Path_6340" data-name="Path 6340" d="M386.416,377.96l-.048,22.824a8.625,8.625,0,0,1-8.621,8.573l-253.2-.579a8.65,8.65,0,0,1-8.585-8.621l.048-22.2Z" transform="translate(19.111 59.443)" fill="#fbd15b"/>
    <path id="Path_6341" data-name="Path 6341" d="M113.436,258.112a8.847,8.847,0,0,1,8.849-8.807l75.9.176a24.48,24.48,0,0,1,15.043,6.279l17.395,17.459a24.56,24.56,0,0,0,15.058,6.279l136.4.317a8.846,8.846,0,0,1,8.782,8.313l.025-11.166a8.851,8.851,0,0,0-8.808-8.849l-136.4-.317a24.56,24.56,0,0,1-15.058-6.279L213.23,244.059a24.48,24.48,0,0,0-15.043-6.279l-75.9-.176a8.847,8.847,0,0,0-8.849,8.808l-.429,106.957C113.007,272.628,113.436,258.112,113.436,258.112Z" transform="translate(18.504 30.569)" fill="#f7d98d"/>
    <g id="Group_2952" data-name="Group 2952" transform="translate(301.938 178.586)">
      <path id="Rectangle_798" data-name="Rectangle 798" d="M0,0H20.186a0,0,0,0,1,0,0V107.964a5.579,5.579,0,0,1-5.579,5.579H5.579A5.579,5.579,0,0,1,0,107.964V0A0,0,0,0,1,0,0Z" transform="translate(107.576 121.849) rotate(-45)" fill="url(#linear-gradient-23)"/>
      <rect id="Rectangle_799" data-name="Rectangle 799" width="10.155" height="34.536" transform="translate(86.702 93.882) rotate(-45)" fill="#a5b7c6"/>
      <path id="Path_6342" data-name="Path 6342" d="M307.366,170.191A46.122,46.122,0,1,1,274.753,183.7a45.82,45.82,0,0,1,32.612-13.509m0-2.411a48.533,48.533,0,1,0,34.319,14.214,48.384,48.384,0,0,0-34.319-14.214Z" transform="translate(-253.435 -162.382)" fill="#fff"/>
      <circle id="Ellipse_402" data-name="Ellipse 402" cx="45.028" cy="45.028" r="45.028" transform="translate(8.903 8.902)" fill="#fff" style="mix-blend-mode: multiply;isolation: isolate"/>
      <path id="Path_6343" data-name="Path 6343" d="M270.152,179.1a53.931,53.931,0,1,0,76.27,0A53.93,53.93,0,0,0,270.152,179.1Zm72.453,72.453a48.533,48.533,0,1,1,0-68.637A48.534,48.534,0,0,1,342.605,251.552Z" transform="translate(-254.356 -163.303)" fill="url(#linear-gradient-21)"/>
      <path id="Path_6344" data-name="Path 6344" d="M339.971,185.308l-63.609,63.609a44.891,44.891,0,0,0,7.041,5.289l61.857-61.857A45.083,45.083,0,0,0,339.971,185.308ZM304.578,170.74l-42.785,42.785a44.964,44.964,0,0,0,7.66,27.388L331.966,178.4A44.969,44.969,0,0,0,304.578,170.74Z" transform="translate(-252.837 -161.784)" fill="#8382ab" style="mix-blend-mode: screen;isolation: isolate"/>
    </g>
    <g id="Group_2954" data-name="Group 2954" transform="translate(431.22 282.255)">
      <path id="Path_6345" data-name="Path 6345" d="M433.33,410.353c-3.541.48-17.7.323-17.306-1.408.178-.781,2.156-1.81,4.256-2.671,2.492-1.027,5.14-1.854,5.14-1.854l-5.5-13.244,7.631-4.413,5.216,20.819Z" transform="translate(-350.381 -221.001)" fill="#ffc8af"/>
      <path id="Path_6346" data-name="Path 6346" d="M433.33,407.024c-3.541.48-17.7.323-17.306-1.408.178-.781,2.156-1.81,4.256-2.671-.011,1.241.961,1.9,4.112,2.034a55.147,55.147,0,0,0,8.38-.726Z" transform="translate(-350.381 -217.672)" fill="url(#linear-gradient-25)"/>
      <path id="Path_6347" data-name="Path 6347" d="M414.418,414.5c-3.822.518-19.1.35-18.677-1.519.193-.844,2.327-1.953,4.594-2.882,2.689-1.109,5.546-2,5.546-2l-4.871-14.2,8.235-4.763,4.57,22.378Z" transform="translate(-354.553 -220.514)" fill="#ffc8af"/>
      <path id="Path_6348" data-name="Path 6348" d="M411.935,376.448c-4.546-.382-4.87-25.819-4.169-36.618s3.271-19.175,8.82-18.708,6.685,9.153,5.573,19.917S416.479,376.83,411.935,376.448Z" transform="translate(-352.136 -234.509)" fill="#ffc8af"/>
      <g id="Group_2953" data-name="Group 2953" transform="translate(42.469 33.534)">
        <path id="Path_6349" data-name="Path 6349" d="M432.388,316.007c-3.035,1.261-12-15.685-15.269-23.16s-4.512-13.949-.808-15.49,7.421,3.9,10.416,11.493S435.422,314.745,432.388,316.007Z" transform="translate(-393.255 -277.096)" fill="#ffc8af"/>
        <path id="Path_6350" data-name="Path 6350" d="M396.8,310.68c-.16-2.909,21.207-4.893,27.253-5.228s12.453-.241,12.632,3.02-6.176,4.062-12.222,4.4S396.965,313.59,396.8,310.68Z" transform="translate(-396.802 -271.289)" fill="#ffc8af"/>
      </g>
      <path id="Path_6351" data-name="Path 6351" d="M393.583,377.4c-4.456-.973-1.457-26.234.649-36.849s5.747-18.583,11.187-17.4,5.433,9.948,2.925,20.474S398.039,378.374,393.583,377.4Z" transform="translate(-355.471 -234.111)" fill="#ffc8af"/>
      <path id="Path_6352" data-name="Path 6352" d="M366.7,289.261c1.906-2.172,18.416,11.254,22.929,15.213s8.986,8.473,6.85,10.908-7.193-1.411-11.706-5.37S364.8,291.434,366.7,289.261Z" transform="translate(-360.559 -241.108)" fill="#ffc8af"/>
      <path id="Path_6353" data-name="Path 6353" d="M424.785,340.878l-28.3-1.177-1.24-48.41,1.955-12.157,13.07-4.806,8.417,1.606a9.875,9.875,0,0,1,8.018,10.046l-3.069,34.262Z" transform="translate(-354.653 -244.132)" fill="#ffc8af"/>
      <path id="Path_6354" data-name="Path 6354" d="M412.04,269.383v9.727s-2.056,1.229-6.865,1.229c-2.594,0-3.176-1.229-3.176-1.229v-3.6Z" transform="translate(-353.264 -245.149)" fill="#ffc8af"/>
      <path id="Path_6355" data-name="Path 6355" d="M408.976,263.811c.012.266.031.516.04.757.01.086.028.171.039.265.66,4.33-1.617,9.295-5.751,10.393,0,0-.034.012-.093.028-.034,0-.084.018-.143.024-.887.211-4.112.836-5.446-.342a11.14,11.14,0,0,1-3.333-6.006,24.773,24.773,0,0,1,0-3.2c-.066-.608-.6-2.474-.7-3.3-.457-3.878,1.73-8.018,6.371-8.531C406.92,253.126,408.656,259.114,408.976,263.811Z" transform="translate(-355.007 -248.349)" fill="#ffc8af"/>
      <path id="Path_6356" data-name="Path 6356" d="M402,277.177" transform="translate(-353.263 -243.546)" fill="#25bcaf"/>
      <path id="Path_6357" data-name="Path 6357" d="M396.876,278.643c-1.967,1.824-3.5,5.017-3.866,11.546-.1,1.824-1.455,6.833.992,12.937,4.314,10.759,1.671,24.106,1.671,24.106l29.317,1.08s.617-19.654,1.619-25.924c3.023-18.92-.023-25.009-5.3-26.487C413.419,273.686,398.843,276.819,396.876,278.643Z" transform="translate(-355.209 -243.965)" fill="url(#linear-gradient-26)"/>
      <path id="Path_6358" data-name="Path 6358" d="M390.356,318.349c-3.155-.814-.127-19.582,1.751-27.452s4.763-13.734,8.615-12.742,3.541,7.524,1.378,15.32S393.512,319.163,390.356,318.349Z" transform="translate(-355.941 -243.367)" fill="#ffc8af"/>
      <path id="Path_6359" data-name="Path 6359" d="M361.857,283.8c.758-.846,4.881,3.2,6.207,4.251.2.158.341.252.392.245s.048-.077.014-.181c-.215-.647-1.84-2.915-1.051-3.63.868-.785,4.113,2.294,5.212,4.262.06.109.142.228.189.328.892,1.929,1.082,3.222-.118,4.993-1.913,2.827-6.517-1.113-8.037-2.515a10.623,10.623,0,0,1-2.7-4.521C361.509,285.562,361.438,284.267,361.857,283.8Z" transform="translate(-361.579 -242.208)" fill="#ffc8af"/>
      <path id="Path_6360" data-name="Path 6360" d="M393.263,259.019a9.011,9.011,0,0,0,.178.932c.635,2.583,2.657,4.085,2.454,6.9a11.776,11.776,0,0,0,1.59,7.3c3.116,5.281-1.19,4.11-.324,12.215.424,3.983,4.2,5.621,11.669,5.513s15.679-.216,15.463-5.838a10.314,10.314,0,0,0-2.055-5.585c-1.434-2.172-2.662-3.992-1.882-6.668a15.581,15.581,0,0,0,.857-3.357c.17-2.824-1.856-3.732-3.427-5.563-1.687-1.965-.7-5.288-1.264-7.658-1.839-7.7-9.672-9.147-16.154-7.061C396.4,251.424,392.652,254.471,393.263,259.019Z" transform="translate(-355.075 -249.284)" fill="url(#linear-gradient-27)"/>
      <path id="Path_6361" data-name="Path 6361" d="M422.326,312.879c-.246,6.152,4.395,14.219,5.112,20.345,1.438,12.275-7.053,35.267-7.053,36.753s7.946,21.431,11.026,33.591c0,0-1.729,2.486-10.053,4,0,0-12.766-27.782-13.95-34.052s.269-59.49.269-59.49Z" transform="translate(-352.247 -236.201)" fill="url(#linear-gradient-28)"/>
      <path id="Path_6362" data-name="Path 6362" d="M413.066,313.717H397.011a300.867,300.867,0,0,0-6.072,34.224c-2.378,19.675-1.622,25.512-1.189,28.647s11.278,32.753,11.278,32.753a18.916,18.916,0,0,0,11.182-2.594s-3.651-16.864-6.786-24.647-3.479-9.512-3.479-9.512,13.415-23.119,15.667-36.847S413.066,313.717,413.066,313.717Z" transform="translate(-355.88 -236.029)" fill="url(#linear-gradient-29)"/>
      <path id="Path_6363" data-name="Path 6363" d="M414.418,410.924c-3.822.518-19.1.35-18.677-1.519.193-.844,2.327-1.953,4.594-2.882-.012,1.338,1.037,2.05,4.437,2.194a59.4,59.4,0,0,0,9.043-.784Z" transform="translate(-354.553 -216.936)" fill="url(#linear-gradient-30)"/>
      <path id="Path_6364" data-name="Path 6364" d="M406.943,352.086s4.918-11.207,7.038-20.1c0,0,.582,18.428-6.824,34.953Z" transform="translate(-352.247 -232.271)" fill="#d1d3d4" style="mix-blend-mode: multiply;isolation: isolate"/>
    </g>
    <g id="Group_2955" data-name="Group 2955" transform="translate(101.464 185.257)">
      <rect id="Rectangle_800" data-name="Rectangle 800" width="70.389" height="40.056" fill="#878cf0"/>
      <path id="Path_6365" data-name="Path 6365" d="M88.087,206.7l35.195-27.227L158.476,206.7Z" transform="translate(-88.087 -166.647)" fill="#737ee5"/>
      <path id="Path_6366" data-name="Path 6366" d="M158.476,168.836l-35.195,27.4-35.195-27.4Z" transform="translate(-88.087 -168.836)" fill="#929cf7"/>
    </g>
    <g id="Group_2962" data-name="Group 2962" transform="translate(92.53 114.613)">
      <g id="Group_2958" data-name="Group 2958">
        <g id="Group_2956" data-name="Group 2956">
          <path id="Path_6367" data-name="Path 6367" d="M108.059,164.829H82.486a1.808,1.808,0,0,1-1.809-1.809V112.054a1.808,1.808,0,0,1,1.809-1.809h38.981a1.808,1.808,0,0,1,1.809,1.809v34.039a1.813,1.813,0,0,1-.391,1.124l-13.408,16.928A1.81,1.81,0,0,1,108.059,164.829Zm-23.765-3.617h22.889l12.474-15.75v-31.6H84.294Z" transform="translate(-80.677 -110.245)" fill="#d4ebf8"/>
        </g>
        <g id="Group_2957" data-name="Group 2957" transform="translate(25.573 34.039)">
          <path id="Path_6368" data-name="Path 6368" d="M103.694,159.022a1.807,1.807,0,0,1-1.807-1.809V140.285a1.808,1.808,0,0,1,1.809-1.809H117.1a1.809,1.809,0,0,1,1.418,2.932l-13.408,16.928A1.81,1.81,0,0,1,103.694,159.022Zm1.81-16.928v9.923l7.859-9.923Z" transform="translate(-101.887 -138.476)" fill="#d4ebf8"/>
        </g>
      </g>
      <g id="Group_2959" data-name="Group 2959" transform="translate(8.934 9.109)">
        <rect id="Rectangle_801" data-name="Rectangle 801" width="25.151" height="3.617" fill="#d4ebf8"/>
      </g>
      <g id="Group_2960" data-name="Group 2960" transform="translate(8.934 16.003)">
        <rect id="Rectangle_802" data-name="Rectangle 802" width="25.151" height="3.617" fill="#d4ebf8"/>
      </g>
      <g id="Group_2961" data-name="Group 2961" transform="translate(8.934 22.899)">
        <rect id="Rectangle_803" data-name="Rectangle 803" width="19.927" height="3.617" fill="#d4ebf8"/>
      </g>
    </g>
    <g id="Group_2969" data-name="Group 2969" transform="translate(150.016 91.997)">
      <g id="Group_2965" data-name="Group 2965">
        <g id="Group_2963" data-name="Group 2963">
          <path id="Path_6369" data-name="Path 6369" d="M155.737,146.072H130.164a1.809,1.809,0,0,1-1.809-1.809V93.3a1.809,1.809,0,0,1,1.809-1.809h38.981a1.808,1.808,0,0,1,1.809,1.809v34.039a1.807,1.807,0,0,1-.391,1.123l-13.408,16.93A1.81,1.81,0,0,1,155.737,146.072Zm-23.765-3.617h22.891l12.473-15.75v-31.6H131.972Z" transform="translate(-128.355 -91.488)" fill="#d4ebf8"/>
        </g>
        <g id="Group_2964" data-name="Group 2964" transform="translate(25.573 34.039)">
          <path id="Path_6370" data-name="Path 6370" d="M151.374,140.265a1.807,1.807,0,0,1-1.809-1.809V121.528a1.809,1.809,0,0,1,1.809-1.809h13.408a1.808,1.808,0,0,1,1.418,2.931l-13.408,16.93A1.809,1.809,0,0,1,151.374,140.265Zm1.809-16.928v9.923l7.86-9.923Z" transform="translate(-149.565 -119.719)" fill="#d4ebf8"/>
        </g>
      </g>
      <g id="Group_2966" data-name="Group 2966" transform="translate(8.935 9.109)">
        <rect id="Rectangle_804" data-name="Rectangle 804" width="25.151" height="3.617" fill="#d4ebf8"/>
      </g>
      <g id="Group_2967" data-name="Group 2967" transform="translate(8.935 16.003)">
        <rect id="Rectangle_805" data-name="Rectangle 805" width="25.151" height="3.617" fill="#d4ebf8"/>
      </g>
      <g id="Group_2968" data-name="Group 2968" transform="translate(8.935 22.899)">
        <rect id="Rectangle_806" data-name="Rectangle 806" width="19.927" height="3.617" fill="#d4ebf8"/>
      </g>
    </g>
    <g id="Group_2976" data-name="Group 2976" transform="translate(207.504 91.997)">
      <g id="Group_2972" data-name="Group 2972">
        <g id="Group_2970" data-name="Group 2970">
          <path id="Path_6371" data-name="Path 6371" d="M203.416,146.072H177.843a1.808,1.808,0,0,1-1.809-1.809V93.3a1.808,1.808,0,0,1,1.809-1.809h38.981a1.809,1.809,0,0,1,1.809,1.809v34.039a1.814,1.814,0,0,1-.391,1.123l-13.409,16.93A1.806,1.806,0,0,1,203.416,146.072Zm-23.765-3.617h22.889l12.474-15.75v-31.6H179.651Z" transform="translate(-176.034 -91.488)" fill="#d4ebf8"/>
        </g>
        <g id="Group_2971" data-name="Group 2971" transform="translate(25.573 34.039)">
          <path id="Path_6372" data-name="Path 6372" d="M199.051,140.265a1.806,1.806,0,0,1-1.807-1.809V121.528a1.808,1.808,0,0,1,1.809-1.809H212.46a1.809,1.809,0,0,1,1.418,2.931l-13.409,16.93A1.807,1.807,0,0,1,199.051,140.265Zm1.81-16.928v9.923l7.859-9.923Z" transform="translate(-197.244 -119.719)" fill="#d4ebf8"/>
        </g>
      </g>
      <g id="Group_2973" data-name="Group 2973" transform="translate(8.934 9.109)">
        <rect id="Rectangle_807" data-name="Rectangle 807" width="25.151" height="3.617" fill="#d4ebf8"/>
      </g>
      <g id="Group_2974" data-name="Group 2974" transform="translate(8.934 16.003)">
        <rect id="Rectangle_808" data-name="Rectangle 808" width="25.151" height="3.617" fill="#d4ebf8"/>
      </g>
      <g id="Group_2975" data-name="Group 2975" transform="translate(8.934 22.899)">
        <rect id="Rectangle_809" data-name="Rectangle 809" width="19.927" height="3.617" fill="#d4ebf8"/>
      </g>
    </g>
    <path id="Path_6373" data-name="Path 6373" d="M386.416,377.96l-.048,22.824a8.625,8.625,0,0,1-8.621,8.573l-253.2-.579a8.65,8.65,0,0,1-8.585-8.621l.048-22.2Z" transform="translate(19.111 59.443)" fill="#f4c44e"/>
    <rect id="Rectangle_810" data-name="Rectangle 810" width="270.389" height="8.491" transform="translate(135.119 422.127)" fill="#f4c44e"/>
    <g id="Group_2977" data-name="Group 2977" transform="translate(448.172 247.34)">
      <path id="Path_6374" data-name="Path 6374" d="M375.639,229.182l15.339-8.856v17.712Z" transform="translate(-375.639 -220.326)" fill="#d4ebf8"/>
      <path id="Path_6375" data-name="Path 6375" d="M389.611,229.182l15.339-8.856v17.712Z" transform="translate(-372.764 -220.326)" fill="#d4ebf8"/>
    </g>
    <g id="Group_2978" data-name="Group 2978" transform="translate(290.796 89.012)">
      <path id="Path_6376" data-name="Path 6376" d="M280.706,107a16.6,16.6,0,0,0-2.079-7.1l2.059-1.148A19.043,19.043,0,0,0,276.71,93.8l-1.569,1.764A16.587,16.587,0,0,0,268.659,92l.643-2.257-.029-.008a19.035,19.035,0,0,0-5.179-.721q-.559,0-1.113.033l.14,2.354a16.634,16.634,0,0,0-7.1,2.073l-1.145-2.059a18.994,18.994,0,0,0-4.962,3.973l1.763,1.569a16.585,16.585,0,0,0-3.569,6.48l-2.257-.645-.013.045a19.033,19.033,0,0,0-.721,5.177q0,.552.031,1.1l2.354-.137a16.617,16.617,0,0,0,2.068,7.1l-2.062,1.144a19.06,19.06,0,0,0,3.969,4.964l1.571-1.762a16.555,16.555,0,0,0,6.476,3.574l-.646,2.258.059.017a19.032,19.032,0,0,0,5.177.721q.575,0,1.144-.035l-.142-2.352a16.622,16.622,0,0,0,7.1-2.085l1.149,2.058a19,19,0,0,0,4.954-3.981l-1.765-1.566a16.582,16.582,0,0,0,3.56-6.484l2.257.64,0-.014a18.989,18.989,0,0,0,.722-5.177q0-.568-.034-1.13ZM259.98,122.573h0l.116-.41Zm13.8-11.833a10.052,10.052,0,1,1,.382-2.745A10.067,10.067,0,0,1,273.785,110.74Z" transform="translate(-245.115 -89.012)" fill="#d4ebf8"/>
      <path id="Path_6377" data-name="Path 6377" d="M299.443,91.288Z" transform="translate(-233.939 -88.544)" fill="#d4ebf8"/>
      <path id="Path_6378" data-name="Path 6378" d="M303.123,99.836l-1.569.306a11.782,11.782,0,0,0-1.256-3.459l1.4-.772a13.387,13.387,0,0,0-4.206-4.6l-.89,1.315a11.8,11.8,0,0,0-3.334-1.566l.439-1.518-.07-.021a13.429,13.429,0,0,0-3.647-.508,13.286,13.286,0,0,0-2.513.24l.3,1.566a11.819,11.819,0,0,0-3.463,1.247l-.767-1.394a13.377,13.377,0,0,0-4.614,4.193l1.311.891a11.84,11.84,0,0,0-1.571,3.331l-1.518-.442-.03.1a13.32,13.32,0,0,0-.276,6.125l1.566-.3a11.809,11.809,0,0,0,1.237,3.466l-1.394.762h0a13.369,13.369,0,0,0,4.18,4.625l.893-1.307a11.787,11.787,0,0,0,3.329,1.576l-.447,1.52h0l.139.041a13.343,13.343,0,0,0,6.232.254l-.311-1.569a11.759,11.759,0,0,0,3.454-1.266l.776,1.394a13.381,13.381,0,0,0,4.591-4.218l-1.319-.887a11.849,11.849,0,0,0,1.561-3.336l1.517.434.01-.035a13.346,13.346,0,0,0,.262-6.2ZM290,110.353a7.976,7.976,0,1,1,7.654-5.8A7.958,7.958,0,0,1,290,110.353Z" transform="translate(-238.635 -89.012)" fill="#d4ebf8"/>
    </g>
    <circle id="Ellipse_403" data-name="Ellipse 403" cx="19.429" cy="19.429" r="19.429" transform="translate(522.935 281.05)" fill="#d4ebf8"/>
    <circle id="Ellipse_404" data-name="Ellipse 404" cx="7.062" cy="7.062" r="7.062" transform="translate(439.134 275.193)" fill="#d4ebf8"/>
    <g id="Group_2979" data-name="Group 2979" transform="translate(60.166 187.489)">
      <path id="Path_6379" data-name="Path 6379" d="M82.281,170.686,75.7,195.254,57.713,177.269Z" transform="translate(-53.037 -170.686)" fill="#d4ebf8"/>
      <rect id="Rectangle_811" data-name="Rectangle 811" width="15.963" height="13.635" transform="translate(0 19.602) rotate(-45)" fill="#d4ebf8"/>
    </g>
    <g id="Group_2981" data-name="Group 2981" transform="translate(365.024 102.267)">
      <path id="Path_6380" data-name="Path 6380" d="M443.28,113.5a13.5,13.5,0,0,1-13.51,13.51H320.187a13.5,13.5,0,1,1,0-27H429.77A13.5,13.5,0,0,1,443.28,113.5Z" transform="translate(-306.678 -100.005)" fill="#d4ebf8"/>
      <path id="Path_6381" data-name="Path 6381" d="M424.675,113.5a13.5,13.5,0,0,1-13.51,13.51H397.116V100h14.049A13.5,13.5,0,0,1,424.675,113.5Z" transform="translate(-288.073 -100.005)" fill="url(#linear-gradient-31)"/>
      <g id="Group_2980" data-name="Group 2980" transform="translate(114.514 5.431)">
        <path id="Path_6382" data-name="Path 6382" d="M403.015,106.9a6.324,6.324,0,0,0,8.462,9.194l4.045,4.044a.435.435,0,0,0,.617,0L417.277,119a.439.439,0,0,0,0-.619l-4.045-4.044a6.324,6.324,0,0,0-10.216-7.439Zm7.672,6.65a3.843,3.843,0,1,1,0-5.435A3.847,3.847,0,0,1,410.688,113.548Z" transform="translate(-401.653 -104.509)" fill="#f9fbfc"/>
      </g>
      <rect id="Rectangle_812" data-name="Rectangle 812" width="95.514" height="1.021" transform="translate(9.051 19.162)" fill="#f9fbfc"/>
    </g>
  </g>
</svg>
