<svg xmlns="http://www.w3.org/2000/svg" width="58.95" height="58.95" viewBox="0 0 58.95 58.95">
  <path id="Path_7093" data-name="Path 7093" d="M-1180.335,3651.632a19.946,19.946,0,0,1-.328,3.825,1.264,1.264,0,0,0,.223.9c3.426,6.518,3.009,12.787-1.5,18.6a15.672,15.672,0,0,1-11.062,6.016,16.392,16.392,0,0,1-9.914-2.056c-.854-.463-1.65-.124-2.444-.067a26.622,26.622,0,0,1-22.9-9.292,26.622,26.622,0,0,1-6.745-18.87,8.752,8.752,0,0,1,.192-2.115,2.979,2.979,0,0,0-.437-2.266,16.394,16.394,0,0,1,6.618-22.031,15.739,15.739,0,0,1,15.194-.373,5.617,5.617,0,0,0,3.2.583,26.2,26.2,0,0,1,19.03,5.38,26.741,26.741,0,0,1,10.635,18.357A15.074,15.074,0,0,1-1180.335,3651.632Zm-26.577,17.775a18.708,18.708,0,0,0,4.316-.5c3.065-.749,5.847-1.987,7.8-4.624,2.942-3.964,2.876-11.15-3.3-14.031a44.124,44.124,0,0,0-7.679-2.49c-2.322-.606-4.738-.91-6.878-2.118-2.5-1.411-2.547-4.024-.057-5.475a9.477,9.477,0,0,1,6.086-.971,5.617,5.617,0,0,1,4.3,2.59c.6.916,1.154,1.866,1.809,2.74a3.357,3.357,0,0,0,4.732.374,3.621,3.621,0,0,0,.968-4.207,8.407,8.407,0,0,0-4.581-4.981,19.809,19.809,0,0,0-17.1-.042c-4.212,1.858-5.908,5.569-4.964,10.083.661,3.156,2.993,4.862,5.729,6.069a53.468,53.468,0,0,0,8.972,2.559c1.768.436,3.589.779,5,2.114a3.749,3.749,0,0,1,.144,5.278c-2.13,2.148-4.813,2.443-7.621,2.2a6.777,6.777,0,0,1-5.951-4.532,9.264,9.264,0,0,0-1.1-2.032,3.407,3.407,0,0,0-3.89-1.154,3.025,3.025,0,0,0-2.246,3.125c.13,2.958,1.741,5.148,3.928,6.921C-1215.107,3669.048-1211.057,3669.455-1206.912,3669.407Z" transform="translate(1237.121 -3622.138)" fill="#00aef1"/>
</svg>
