<svg xmlns="http://www.w3.org/2000/svg" width="61.468" height="61.468" viewBox="0 0 61.468 61.468">
  <g id="Group_3463" data-name="Group 3463" transform="translate(1479.159 -3875.951)">
    <path id="Path_6476" data-name="Path 6476" d="M-1450.339,3875.951h3.827c.064.078.064.077.194.087a31.194,31.194,0,0,1,4.248.589,30.454,30.454,0,0,1,7.2,2.484,30.564,30.564,0,0,1,8.566,6.251,30.566,30.566,0,0,1,6.47,10.072,30.511,30.511,0,0,1,1.576,5.4,28.215,28.215,0,0,1,.486,3.742c0,.066-.045.174.084.194v3.828c-.131.007-.075.112-.081.171-.037.381-.061.762-.1,1.142a29.158,29.158,0,0,1-.815,4.5,30.558,30.558,0,0,1-5.4,11.018,30.365,30.365,0,0,1-7.787,7.137,30.775,30.775,0,0,1-6.383,3.118,30.375,30.375,0,0,1-5.371,1.35c0-.03,0-.06,0-.089q0-10.582-.005-21.164c0-.192.07-.212.23-.211q3.276.006,6.552,0c.372,0,.373,0,.442-.375.017-.095.029-.192.044-.288q.307-1.984.614-3.969c.2-1.323.4-2.648.6-3.971.044-.286.05-.285-.228-.285q-4,0-7.993,0c-.2,0-.265-.04-.263-.255q.014-2.724,0-5.448a6.7,6.7,0,0,1,.092-1.209,4.041,4.041,0,0,1,2.274-3.14,5.619,5.619,0,0,1,2.416-.515q1.948-.01,3.9,0c.163,0,.215-.034.215-.208q-.01-3.579,0-7.159c0-.153-.046-.211-.189-.23-.727-.094-1.453-.2-2.182-.286-.99-.114-1.983-.2-2.98-.237a21.817,21.817,0,0,0-3.213.047,12.179,12.179,0,0,0-4.044,1.1,9.534,9.534,0,0,0-4.119,3.7,12.617,12.617,0,0,0-1.746,6.463c-.042,2.371-.012,4.743-.005,7.114,0,.2-.046.263-.257.263-2.431-.008-4.863,0-7.294-.009-.2,0-.265.039-.264.254q.012,4.2,0,8.4c0,.2.046.246.245.245,2.439-.007,4.878,0,7.317-.01.212,0,.253.061.252.259q-.008,8.7,0,17.4,0,1.9,0,3.8c-.464-.083-.93-.157-1.392-.253a30.512,30.512,0,0,1-8.722-3.235,30.491,30.491,0,0,1-7.8-6.165,30.749,30.749,0,0,1-5.353-8.187,30.711,30.711,0,0,1-2.074-6.511,27.438,27.438,0,0,1-.514-3.919c0-.058.051-.165-.08-.171v-3.828c.13-.007.075-.112.081-.172.037-.38.059-.762.1-1.142a29.851,29.851,0,0,1,.863-4.678,30.648,30.648,0,0,1,3.468-8.107,30.609,30.609,0,0,1,6.957-7.921,30.538,30.538,0,0,1,7.91-4.613,30.584,30.584,0,0,1,5.551-1.623,31.979,31.979,0,0,1,3.7-.48C-1450.466,3876.03-1450.358,3876.081-1450.339,3875.951Z" fill="#0078f6"/>
    <path id="Path_6477" data-name="Path 6477" d="M-1453.225,3937.04q0-1.9,0-3.8,0-8.7,0-17.4c0-.2-.04-.26-.252-.259-2.439.009-4.878,0-7.317.01-.2,0-.245-.048-.245-.245q.01-4.2,0-8.4c0-.215.067-.255.264-.254,2.431.006,4.863,0,7.294.009.211,0,.257-.061.257-.263-.007-2.371-.037-4.743.005-7.114a12.617,12.617,0,0,1,1.746-6.463,9.534,9.534,0,0,1,4.119-3.7,12.179,12.179,0,0,1,4.044-1.1,21.817,21.817,0,0,1,3.213-.047c1,.042,1.99.123,2.98.237.729.085,1.455.192,2.182.286.143.019.189.077.189.23q-.009,3.579,0,7.159c0,.174-.052.208-.215.208q-1.947-.01-3.9,0a5.619,5.619,0,0,0-2.416.515,4.041,4.041,0,0,0-2.274,3.14,6.7,6.7,0,0,0-.092,1.209q.008,2.724,0,5.448c0,.215.066.255.263.255q4-.009,7.993,0c.278,0,.272,0,.228.285-.2,1.323-.4,2.648-.6,3.971s-.409,2.646-.614,3.969c-.015.1-.027.193-.044.288-.069.376-.07.375-.442.375q-3.276,0-6.552,0c-.16,0-.23.019-.23.211q.009,10.582.005,21.164c0,.029,0,.059,0,.089a24.323,24.323,0,0,1-2.538.295c-.069,0-.189-.06-.212.084h-.451a.153.153,0,0,0-.225,0h-2.882c-.007-.037-.034-.045-.065-.042s-.038.016-.025.042h-.45c-.062-.081-.062-.08-.236-.089A22.652,22.652,0,0,1-1453.225,3937.04Z" fill="#fefefe"/>
  </g>
</svg>
