<svg xmlns="http://www.w3.org/2000/svg" width="57.613" height="58.321" viewBox="0 0 57.613 58.321">
  <g id="Group_3457" data-name="Group 3457" transform="translate(-1039.843 -1283)">
    <path id="Path_6498" data-name="Path 6498" d="M-1207.24,1681.022h-21.907a6.689,6.689,0,0,1-6.876-6.837q-.014-14.24,0-28.479a6.554,6.554,0,0,1,2.875-5.557q2.862-2.067,5.751-4.1a.877.877,0,0,0,.412-.756,6.68,6.68,0,0,1,6.916-6.517,7.821,7.821,0,0,1,1.094.008,4.1,4.1,0,0,0,3.2-1.028c1.807-1.39,3.692-2.679,5.553-4a4.772,4.772,0,0,1,5.99,0c2.2,1.563,4.389,3.147,6.6,4.7a1.869,1.869,0,0,0,.945.3c1,.048,2.015-.045,3.009.061a6.655,6.655,0,0,1,6.017,6.333.886.886,0,0,0,.415.754c1.954,1.377,3.89,2.779,5.839,4.163a6.716,6.716,0,0,1,2.985,5.781q0,13.281-.01,26.562a16.029,16.029,0,0,1-.239,3.586,6.579,6.579,0,0,1-6.557,5.021Q-1196.232,1681.025-1207.24,1681.022Zm-.064-48.428q-6.408,0-12.814,0a2.887,2.887,0,0,0-3.048,3.014q-.021,6.79.005,13.581a1.059,1.059,0,0,0,.344.726q7.421,6.015,14.869,11.995c.591.475.864.475,1.45,0q7.355-5.922,14.7-11.86a.993.993,0,0,0,.33-.675q.027-6.872.009-13.744a2.907,2.907,0,0,0-3.083-3.04Q-1200.924,1632.592-1207.3,1632.594Zm21.456,44.591.053-.111-16.715-13.464c-1.148.871-2.235,1.7-3.329,2.522a2.16,2.16,0,0,1-2.773-.005c-.817-.614-1.629-1.235-2.443-1.852-.869-.659-.876-.666-1.72.013q-7.761,6.245-15.516,12.5c-.127.1-.247.214-.459.4Zm3.551-29.856-17.161,13.824,17.161,13.825Zm-49.861-.007v27.664l17.171-13.834Zm44.556-6.975v6.341l4.167-3.364Zm-43.412,2.979,3.975,3.2v-6.04Zm27.174-14.586c-.991-.708-1.863-1.322-2.725-1.948a1.042,1.042,0,0,0-1.356.021q-1.148.838-2.313,1.656a1.283,1.283,0,0,1-.35.115l.165.156Z" transform="translate(2275.872 -339.702)" fill="#9b9b9b"/>
    <path id="Path_6501" data-name="Path 6501" d="M-1203.2,1652.28l.658,2.124a9.989,9.989,0,0,1-3.459,1.028,10.625,10.625,0,0,1-5.695-.655,8.222,8.222,0,0,1-5.118-7.033,10.456,10.456,0,0,1,3.392-9.36,10.073,10.073,0,0,1,10.763-2.051c3.763,1.391,5.49,4.934,5.019,8.888a6.731,6.731,0,0,1-1.962,4.232,4.944,4.944,0,0,1-3.525,1.388,2.45,2.45,0,0,1-2.466-1.6,15.685,15.685,0,0,1-2.094,1.3,3.348,3.348,0,0,1-4.79-2.862,6.6,6.6,0,0,1,6.985-7.445,19.182,19.182,0,0,1,2.883.564c.361.077.47.3.4.686-.31,1.741-.6,3.486-.875,5.232a4.7,4.7,0,0,0-.035,1.086c.045.588.376.788.948.6a2.485,2.485,0,0,0,1.332-1.234,5.841,5.841,0,0,0,.7-3,5.744,5.744,0,0,0-3.906-5.9,7.338,7.338,0,0,0-5.1.077c-3.283,1.262-4.8,3.811-5.079,7.2a7.69,7.69,0,0,0,.9,4.607c1.467,2.5,3.809,3.244,6.54,3.1A8.226,8.226,0,0,0-1203.2,1652.28Zm-2.43-9.273a2.657,2.657,0,0,0-2.825,1.205,3.4,3.4,0,0,0-.534,3.354.934.934,0,0,0,1.359.385,3.234,3.234,0,0,0,.954-.866C-1205.794,1645.886-1205.92,1644.426-1205.627,1643.007Z" transform="translate(2275.872 -339.702)" fill="#ffa900"/>
  </g>
</svg>
