<svg xmlns="http://www.w3.org/2000/svg" width="54.601" height="54.583" viewBox="0 0 54.601 54.583">
  <g id="Group_3466" data-name="Group 3466" transform="translate(1473.185 -4877.203)">
    <path id="Path_6447" data-name="Path 6447" d="M-1419.378,4911.1a27.3,27.3,0,0,1-7.695,13.174,26.644,26.644,0,0,1-15.646,7.325,27.037,27.037,0,0,1-14.52-2.275,1.49,1.49,0,0,0-.947-.139q-6.367,1.25-12.735,2.493c-.679.133-.829-.013-.737-.686q.868-6.324,1.725-12.651a2.131,2.131,0,0,0-.235-1.375c-.5-.921-.911-1.89-1.359-2.839a.707.707,0,0,0-.2-.573.273.273,0,0,0-.113-.332,34.131,34.131,0,0,1-1.137-5.578,31.855,31.855,0,0,1-.138-5.405,27.3,27.3,0,0,1,5.207-13.876,24.338,24.338,0,0,1,4.709-5.048,27.7,27.7,0,0,1,13.6-5.863,27.275,27.275,0,0,1,14.548,2,27.026,27.026,0,0,1,7.809,5.144,26.618,26.618,0,0,1,8.008,13.993,27.194,27.194,0,0,1,.029,11.7Q-1419.291,4910.693-1419.378,4911.1Zm-7.95,6.092a21.162,21.162,0,0,0,3.937-11.714,20.991,20.991,0,0,0-2.828-11.865,22.954,22.954,0,0,0-5.564-6.683,22.153,22.153,0,0,0-17.944-4.616,21.734,21.734,0,0,0-13.647,7.982,21.935,21.935,0,0,0-5.024,15.211,20.443,20.443,0,0,0,2.194,8.669,12.121,12.121,0,0,0,1.055,2,1.4,1.4,0,0,1,.2,1c-.388,2.743-.76,5.488-1.157,8.229-.064.443.124.46.458.394,2.145-.426,4.3-.793,6.433-1.29a5.663,5.663,0,0,1,3.952.417,21.623,21.623,0,0,0,16.754.845A21.62,21.62,0,0,0-1427.328,4917.191Z" fill="#00e44d"/>
    <path id="Path_6448" data-name="Path 6448" d="M-1433.123,4915.347a7.857,7.857,0,0,1-3.6,2.239,7.886,7.886,0,0,1-4.528-.2,29.925,29.925,0,0,1-8.168-3.905,20.046,20.046,0,0,1-1.834-1.6,33.488,33.488,0,0,1-4.166-4.859,28.343,28.343,0,0,1-3.4-6.047,9.149,9.149,0,0,1,.3-7.258,4.643,4.643,0,0,1,5.214-2.788,1.477,1.477,0,0,1,1.206,1.009q1.055,2.853,2.023,5.738c.271.809-.29,1.4-.741,1.958a15.926,15.926,0,0,1-1.317,1.357,1.056,1.056,0,0,0-.222,1.367,18.727,18.727,0,0,0,9.042,8.756,1.039,1.039,0,0,0,1.355-.255,18.309,18.309,0,0,0,2.031-2.324c.472-.736.971-.832,1.8-.434,1.858.886,3.619,1.951,5.416,2.95a.98.98,0,0,1,.539.991A7.875,7.875,0,0,1-1433.123,4915.347Z" fill="#00e44d"/>
  </g>
</svg>
