<svg xmlns="http://www.w3.org/2000/svg" width="58.504" height="55.725" viewBox="0 0 58.504 55.725">
  <g id="Group_3459" data-name="Group 3459" transform="translate(1237.006 -2129.851)">
    <g id="Group_3020" data-name="Group 3020">
      <path id="Path_6502" data-name="Path 6502" d="M-1190.507,2139.2c.525-2.526,1.038-4.973,1.538-7.422.3-1.443.821-1.91,2.26-1.916,2.1-.009,4.2-.014,6.3.007a1.786,1.786,0,0,1,1.875,1.453,1.757,1.757,0,0,1-1.06,1.971,2.77,2.77,0,0,1-.961.15c-1.442.014-2.885.036-4.325-.011-.612-.02-.809.2-.927.777q-2.936,14.293-5.914,28.577a4.484,4.484,0,0,1-.107.442,2.058,2.058,0,0,0,.338,1.948,4.45,4.45,0,0,1,.187,4.887,4.531,4.531,0,0,1-4.149,2.495q-16.656.038-33.313.01a1.783,1.783,0,0,1-1.976-1.822,1.793,1.793,0,0,1,2.018-1.779q16.125-.006,32.251,0c.253,0,.506,0,.759,0,.873-.019,1.427-.5,1.413-1.237s-.565-1.2-1.451-1.2q-12.028,0-24.056,0-5.084,0-10.169,0a1.842,1.842,0,0,1-2.153-1.745c-1.6-7.667-3.174-15.34-4.8-23a2,2,0,0,1,2.183-2.6c14.418.044,28.837.026,43.255.026Zm-31.446,3.64.96,8.152h7v-8.152Zm11.65,8.167h7.023l.947-8.15h-7.97Zm-15.27-8.156h-7.442l1.7,8.145h6.7Zm25.921,8.142h6.7l1.679-8.13h-7.438Zm-20.917,3.709c.312,2.664.61,5.247.931,7.827.018.141.226.367.348.369,1.759.024,3.519.016,5.306.016V2154.7Zm16.856.012h-6.6v8.2c1.8,0,3.56.009,5.318-.02.13,0,.348-.271.368-.436C-1204.308,2159.9-1204.018,2157.347-1203.713,2154.71Zm-26.842-.011,1.7,8.165h5.619l-.96-8.165Zm30.471,0-.955,8.211c1.84,0,3.576.01,5.312-.019.133,0,.338-.268.379-.442.227-.959.414-1.927.614-2.892l1.007-4.858Z" fill="#ffa900"/>
      <path id="Path_6503" data-name="Path 6503" d="M-1201.077,2185.561a5.733,5.733,0,0,1-5.745-5.581,5.759,5.759,0,0,1,5.555-5.86,5.758,5.758,0,0,1,5.9,5.593A5.729,5.729,0,0,1-1201.077,2185.561Zm2.1-5.687a2.111,2.111,0,0,0-2.089-2.142,2.132,2.132,0,0,0-2.156,2.089,2.182,2.182,0,0,0,2.1,2.158A2.149,2.149,0,0,0-1198.98,2179.874Z" fill="#ffa900"/>
      <path id="Path_6504" data-name="Path 6504" d="M-1217.481,2179.884a5.718,5.718,0,0,1-5.705,5.691,5.735,5.735,0,0,1-5.713-5.694,5.731,5.731,0,0,1,5.718-5.76A5.7,5.7,0,0,1-1217.481,2179.884Zm-5.62-2.146a2.076,2.076,0,0,0-2.191,2.026,2.13,2.13,0,0,0,2.027,2.212,2.153,2.153,0,0,0,2.2-2.047A2.114,2.114,0,0,0-1223.1,2177.738Z" fill="#ffa900"/>
    </g>
  </g>
</svg>
