<svg xmlns="http://www.w3.org/2000/svg" width="118.157" height="117.973" viewBox="0 0 118.157 117.973"><g transform="translate(-1406.048 -8782.972)"><g transform="translate(1406.048 8782.972)"><path d="M1464.486,8900.944c-32.28-.056-58.533-26.59-58.437-59.065.1-32.674,26.206-58.935,58.568-58.907,34.048.029,59.652,25.627,59.588,59.572C1524.143,8875.405,1497.97,8901,1464.486,8900.944Zm49.16-58.959c-.087-27.3-21.361-48.311-48.908-48.307-26.452,0-48.285,21.978-48.167,48.478.117,26.136,22.345,48.4,48.39,47.992C1491.373,8889.73,1513.66,8870.431,1513.646,8841.985Z" transform="translate(-1406.048 -8782.972)"/><path d="M1632.78,8924.189l-7.51,3.958c-1.065-1.159-1.922-2.571-3.172-3.366-4.9-3.114-10.546-.66-11.719,5.063a22.046,22.046,0,0,0-.311,5.413c.23,4.9,2.155,7.82,5.6,8.826,3.842,1.123,7.262-.32,10.38-4.622l6.549,3.34c-2.334,6.553-9.834,10.231-18.6,9.241-8.161-.923-13.673-6.823-14.548-15.58-.945-9.453,3.4-17.174,11.171-19.869C1619.125,8913.645,1628.161,8916.613,1632.78,8924.189Z" transform="translate(-1540.176 -8874.926)"/><path d="M1520.915,8924.438l-7.319,3.927c-.675-.826-1.162-1.5-1.724-2.1-4-4.293-10.31-3.015-12.089,2.594a20.546,20.546,0,0,0-.748,6.43c.074,4.751,2.115,7.924,5.429,8.978,3.7,1.178,6.533-.068,9.85-4.467,1.131.536,2.318,1.067,3.477,1.655,1.06.54,2.088,1.143,3.11,1.705-2.9,6.885-10.79,10.516-19.164,8.955-8.033-1.5-12.974-7.791-13.386-17.049-.409-9.189,4.505-16.5,12.493-18.577C1509.159,8914.32,1517.24,8917.446,1520.915,8924.438Z" transform="translate(-1463.15 -8875.161)"/></g></g></svg>