<svg xmlns="http://www.w3.org/2000/svg" xmlns:xlink="http://www.w3.org/1999/xlink" width="623.047" height="466" viewBox="0 0 623.047 466">
  <defs>
    <clipPath id="clip-path">
      <path id="Path_6780" data-name="Path 6780" d="M-558.227,536.117c-10.345,7.844-25.752,7.241-36.029-1.41a36.086,36.086,0,0,1-11.982-21.846c-1.684-10.811,1.653-22.308,8.988-29.629a27.472,27.472,0,0,1,28.3-6.591C-545.83,484.917-538.443,521.117-558.227,536.117Z" transform="translate(606.667 -475.14)" fill="none"/>
    </clipPath>
    <clipPath id="clip-path-2">
      <path id="Path_6782" data-name="Path 6782" d="M-593.162,584.436c.383,10.4-7.1,20.223-17.508,22.983a28.925,28.925,0,0,1-19.844-2.2c-7.865-3.872-13.871-11.353-15.3-19.533a22.013,22.013,0,0,1,8.7-21.595C-621.039,552.738-593.9,564.555-593.162,584.436Z" transform="translate(646.135 -559.666)" fill="none"/>
    </clipPath>
    <clipPath id="clip-path-3">
      <rect id="Rectangle_906" data-name="Rectangle 906" width="173.28" height="123.089" transform="translate(173.28 123.089) rotate(-180)" fill="none"/>
    </clipPath>
    <clipPath id="clip-path-4">
      <path id="Path_6819" data-name="Path 6819" d="M-482.825,625.375l173.593-60.419s20.741,73.54,58.291,97.825a48.716,48.716,0,0,0,13.784,6.285,39.9,39.9,0,0,0,10.439,1.4c52.754,0,108.213-148.342,108.213-148.342l-63.575-38.777-39.228,61.321s-20.29-37.424-32.464-48.246-46.892-9.919-46.892-9.919c-10.371,38.776-68.986-1.8-68.986-1.8s-43.345-3.156-57.263,2.255C-443.146,493.265-498.38,584.759-482.825,625.375Z" transform="translate(485.557 -483.345)" fill="none"/>
    </clipPath>
    <clipPath id="clip-path-5">
      <path id="Path_6829" data-name="Path 6829" d="M15.988,606.136c-8.179,11.752-21.6,21.29-34.14,26.431l-.185.128c-14.076-11.945-19.57-33.016-13.109-50.313,4.394-11.774,13.485-21.257,18.441-32.8,4.322-10.079,5.3-21.22,7.536-31.956.347-1.669.739-3.353,1.178-5.023.182.062.368.119.561.174a7.2,7.2,0,0,0,8.473-4.784,7.227,7.227,0,0,0-4.109-8.344,34.363,34.363,0,0,1,8.624-10.7c6.775-5.467,17.6-7.252,23.847-1.189,5,4.851,5.341,12.783,4.061,19.632-3.052,16.345-13.224,30.959-14.637,47.526-.846,9.92,1.537,19.856,1.222,29.8A33.708,33.708,0,0,1,22.2,593.74a5.7,5.7,0,0,0-.8-.308C13.305,590.982,9.366,602.651,15.988,606.136Z" transform="translate(34.136 -483.954)" fill="none"/>
    </clipPath>
  </defs>
  <g id="Group_3470" data-name="Group 3470" transform="translate(683.118 -143.124)">
    <g id="Group_3219" data-name="Group 3219" transform="translate(-683.118 143.124)">
      <g id="Group_3218" data-name="Group 3218" opacity="0.2">
        <g id="Group_3217" data-name="Group 3217">
          <path id="Path_6778" data-name="Path 6778" d="M-493.662,591.982c-52.693,22-117.479,28.252-156.854-14.4s-41.783-105.021-14.23-154.253c26.029-46.509,71.874-78.647,99.251-124.377,15.581-26.026,22.278-56.585,37.511-82.816,30-51.657,94.51-80.378,149.053-71.374,51.731,8.54,91.38,55.269,133.4,94.1,22.018,20.348,54.521,33.16,81.82,48.046,29.633,16.159,57.151,33.149,77.139,61.623,38.545,54.91,31.157,98.3,2.647,139.873s-102.089,55.42-159.472,42.6C-335.911,510.332-408,556.217-493.662,591.982Z" transform="translate(683.118 -143.124)" fill="#a8dadc"/>
        </g>
      </g>
    </g>
    <g id="Group_3310" data-name="Group 3310" transform="translate(-652.994 216.662)">
      <g id="Group_3236" data-name="Group 3236" transform="translate(0 196.907)">
        <g id="Group_3226" data-name="Group 3226" transform="translate(32.149)">
          <g id="Group_3220" data-name="Group 3220">
            <path id="Path_6779" data-name="Path 6779" d="M-558.227,536.117c-10.345,7.844-25.752,7.241-36.029-1.41a36.086,36.086,0,0,1-11.982-21.846c-1.684-10.811,1.653-22.308,8.988-29.629a27.472,27.472,0,0,1,28.3-6.591C-545.83,484.917-538.443,521.117-558.227,536.117Z" transform="translate(606.667 -475.14)" fill="#b8b42d"/>
          </g>
          <g id="Group_3225" data-name="Group 3225">
            <g id="Group_3224" data-name="Group 3224" clip-path="url(#clip-path)">
              <g id="Group_3223" data-name="Group 3223" transform="translate(-19.424 0.125)">
                <g id="Group_3221" data-name="Group 3221" transform="translate(55.075 0)">
                  <rect id="Rectangle_899" data-name="Rectangle 899" width="47.144" height="2.889" transform="translate(0 43.667) rotate(-67.858)"/>
                </g>
                <g id="Group_3222" data-name="Group 3222" transform="translate(0 11.618)">
                  <rect id="Rectangle_900" data-name="Rectangle 900" width="2.89" height="56.521" transform="translate(0 2.656) rotate(-66.811)"/>
                </g>
              </g>
            </g>
          </g>
        </g>
        <g id="Group_3227" data-name="Group 3227" transform="translate(50 1.598)">
          <rect id="Rectangle_901" data-name="Rectangle 901" width="2.89" height="207.455" transform="matrix(0.924, -0.383, 0.383, 0.924, 0, 1.106)"/>
        </g>
        <g id="Group_3235" data-name="Group 3235" transform="translate(0 68.851)">
          <g id="Group_3228" data-name="Group 3228">
            <path id="Path_6781" data-name="Path 6781" d="M-593.162,584.433c.384,10.394-7.1,20.224-17.506,22.983a28.911,28.911,0,0,1-19.843-2.194c-7.867-3.871-13.873-11.351-15.3-19.53a22.017,22.017,0,0,1,8.7-21.6C-621.041,552.738-593.9,564.553-593.162,584.433Z" transform="translate(646.135 -559.666)" fill="#b8b42d"/>
          </g>
          <g id="Group_3233" data-name="Group 3233" transform="translate(0 0)">
            <g id="Group_3232" data-name="Group 3232" clip-path="url(#clip-path-2)">
              <g id="Group_3231" data-name="Group 3231" transform="translate(-1.906 -4.082)">
                <g id="Group_3229" data-name="Group 3229" transform="translate(0 29.795)">
                  <rect id="Rectangle_902" data-name="Rectangle 902" width="38.09" height="2.89" transform="matrix(0.916, -0.4, 0.4, 0.916, 0, 15.25)"/>
                </g>
                <g id="Group_3230" data-name="Group 3230" transform="translate(44.183 0)">
                  <rect id="Rectangle_903" data-name="Rectangle 903" width="35.594" height="2.89" transform="translate(0 35.593) rotate(-89.457)"/>
                </g>
              </g>
            </g>
          </g>
          <g id="Group_3234" data-name="Group 3234" transform="translate(1.317 12.705)">
            <rect id="Rectangle_904" data-name="Rectangle 904" width="2.889" height="106.478" transform="translate(0 2.681) rotate(-68.096)"/>
          </g>
        </g>
      </g>
      <g id="Group_3237" data-name="Group 3237" transform="translate(116.243 111.699)">
        <rect id="Rectangle_905" data-name="Rectangle 905" width="173.28" height="123.089" transform="translate(173.28 123.089) rotate(-180)" fill="#a8dadc"/>
      </g>
      <g id="Group_3240" data-name="Group 3240" transform="translate(116.243 111.699)">
        <g id="Group_3239" data-name="Group 3239" clip-path="url(#clip-path-3)">
          <g id="Group_3238" data-name="Group 3238" transform="translate(-17.653 50.582)">
            <path id="Path_6783" data-name="Path 6783" d="M-433.2,611.413c-8.115-5.6-14.27-13.623-18-19.365a189.917,189.917,0,0,1-30.347-107.319c.383-15.093,3.475-25.595,7.643-32.9A158.154,158.154,0,0,0-525.1,435.493l.394-2.862a161.058,161.058,0,0,1,52.324,16.733,32.34,32.34,0,0,1,12.112-11.025c12.226-6.284,27.97-4.1,46.791,6.5a182.865,182.865,0,0,1,64.279,61.63,182.864,182.864,0,0,1,28.21,84.465l-2.884.2a179.968,179.968,0,0,0-27.767-83.123,179.959,179.959,0,0,0-63.255-60.657c-17.922-10.089-32.743-12.257-44.054-6.445a29.391,29.391,0,0,0-10.781,9.867,160.421,160.421,0,0,1,35.267,25.963,161.722,161.722,0,0,1,46.395,89.087c1.365,8.343,2.521,19.255-.683,29.658-3.3,10.713-11.082,18.873-20.308,21.3a24.9,24.9,0,0,1-6.354.828C-421.263,617.608-427.221,615.536-433.2,611.413ZM-478.659,484.8a187,187,0,0,0,29.881,105.67c4.4,6.764,20.2,28.445,38.985,23.515,8.267-2.172,15.272-9.587,18.28-19.353,3.028-9.828,1.908-20.308.594-28.34a158.809,158.809,0,0,0-45.561-87.485,157.565,157.565,0,0,0-34.782-25.578C-475.168,460.028-478.284,470.05-478.659,484.8Z" transform="translate(525.099 -432.631)" fill="#fff"/>
          </g>
        </g>
      </g>
      <g id="Group_3242" data-name="Group 3242" transform="translate(116.243 112.296)">
        <g id="Group_3241" data-name="Group 3241">
          <rect id="Rectangle_907" data-name="Rectangle 907" width="173.28" height="23.901" fill="#009ce8"/>
        </g>
      </g>
      <g id="Group_3243" data-name="Group 3243" transform="translate(41.025 258.599)">
        <path id="Path_6784" data-name="Path 6784" d="M-595.77,682.988s24.286-132.111,109.686-132.111,110.2,132.111,110.2,132.111" transform="translate(595.77 -550.877)" fill="#ffa051"/>
      </g>
      <g id="Group_3295" data-name="Group 3295" transform="translate(130.8)">
        <g id="Group_3244" data-name="Group 3244" transform="translate(305.712 175.456)">
          <path id="Path_6785" data-name="Path 6785" d="M-105.266,448.984c5.765-1.647,9.191,8.407,10.988,16.524l9.753-13.368,32.465,21.643-10.048,33.879-43.547-26.56S-116.234,452.118-105.266,448.984Z" transform="translate(110.244 -448.805)" fill="#9b4a3a"/>
        </g>
        <g id="Group_3246" data-name="Group 3246" transform="translate(60.22 241.014)">
          <g id="Group_3245" data-name="Group 3245">
            <path id="Path_6786" data-name="Path 6786" d="M-411.626,529.289v69.888l22.553,24.9,49.729,54.905h102.438l-4.13-95.589Z" transform="translate(411.626 -529.289)" fill="#ffcb00"/>
          </g>
        </g>
        <g id="Group_3247" data-name="Group 3247" transform="translate(116.12 125.263)">
          <path id="Path_6787" data-name="Path 6787" d="M-343,466.685l6.937,27.466,69.567-4.357-8.317-21.3-5.871-49.905-48.113-31.4Z" transform="translate(343 -387.185)" fill="#b2614e"/>
        </g>
        <g id="Group_3248" data-name="Group 3248" transform="translate(150.449 148.746)">
          <path id="Path_6788" data-name="Path 6788" d="M-300.856,423.759c5.467,14.719,17.439,26.686,31.834,32.857l-3.671-31.177-14.349-9.425C-291.675,418.6-296.125,421.156-300.856,423.759Z" transform="translate(300.856 -416.014)"/>
        </g>
        <g id="Group_3249" data-name="Group 3249" transform="translate(123.989 41.269)">
          <path id="Path_6789" data-name="Path 6789" d="M-333.338,343.21l1.121,2.949,20.919,55.35s28.257,29.137,57.41,3.548c16.174-14.229,20.822-51.964,12.791-81.538-.262-.946-.525-1.873-.8-2.794l-.124-.414c-.054-.183-.111-.374-.174-.563-.03-.086-.055-.183-.086-.277-.346-1.065-.709-2.126-1.1-3.167-.257-.754-.531-1.476-.83-2.2-.367-.945-.764-1.878-1.164-2.794-4.272-9.737-10.263-17.756-18.042-22.509a31.272,31.272,0,0,0-5.569-2.727,27.932,27.932,0,0,0-2.748-.885c-.747-.21-1.517-.385-2.286-.534a33.311,33.311,0,0,0-6.312-.589c-.2.007-.4,0-.612.007-18.665.132-30.673,7.713-38.405,17.368-9.771,12.183-12.708,27.714-13.6,35.988-.029.3-.064.583-.09.864l-.037.406-.057.809c-.055.764-.1,1.428-.132,1.974-.051.753-.062,1.284-.07,1.541C-333.342,343.149-333.338,343.21-333.338,343.21Z" transform="translate(333.34 -284.069)" fill="#b2614e"/>
        </g>
        <g id="Group_3250" data-name="Group 3250" transform="translate(189.527 102.202)">
          <path id="Path_6790" data-name="Path 6790" d="M-252.879,387.832a6.291,6.291,0,0,0,4.608-2.016,6.291,6.291,0,0,0,1.647-4.753l-1.755-22.189-2.88.228,1.755,22.189a3.345,3.345,0,0,1-.888,2.563,3.349,3.349,0,0,1-2.486,1.088h0v2.89Z" transform="translate(252.881 -358.874)"/>
        </g>
        <g id="Group_3251" data-name="Group 3251" transform="translate(171.673 101.391)">
          <path id="Path_6791" data-name="Path 6791" d="M-270.442,360.928c0,1.684-.977,3.05-2.18,3.05s-2.178-1.367-2.177-3.051.977-3.049,2.18-3.049S-270.442,359.245-270.442,360.928Z" transform="translate(274.799 -357.878)"/>
        </g>
        <g id="Group_3252" data-name="Group 3252" transform="translate(204.784 101.403)">
          <path id="Path_6792" data-name="Path 6792" d="M-229.793,360.943c0,1.685-.977,3.05-2.18,3.049s-2.178-1.366-2.177-3.05.977-3.05,2.18-3.049S-229.793,359.259-229.793,360.943Z" transform="translate(234.15 -357.893)"/>
        </g>
        <g id="Group_3253" data-name="Group 3253" transform="translate(164.73 89.25)">
          <path id="Path_6793" data-name="Path 6793" d="M-279.528,343.9a9.112,9.112,0,0,0-2.63,1.016c-.748.48-1.272,1.174-1.146,1.815.209,1.059,1.958,1.5,3.514,1.624a28.022,28.022,0,0,0,10.164-1.091c1.156-.347,2.4-.868,2.765-1.684.841-1.9-2.675-2.482-4.108-2.569A28.572,28.572,0,0,0-279.528,343.9Z" transform="translate(283.323 -342.973)"/>
        </g>
        <g id="Group_3254" data-name="Group 3254" transform="translate(199.736 89.172)">
          <path id="Path_6794" data-name="Path 6794" d="M-236.762,342.981a7.422,7.422,0,0,0-2.391.526c-.7.322-1.231.872-1.192,1.47.064.99,1.531,1.649,2.866,2a23.438,23.438,0,0,0,8.924.532c1.04-.142,2.178-.426,2.581-1.111.938-1.592-2.044-2.646-3.275-2.939A23.9,23.9,0,0,0-236.762,342.981Z" transform="translate(240.347 -342.878)"/>
        </g>
        <g id="Group_3256" data-name="Group 3256" transform="translate(0.002 203.59)">
          <g id="Group_3255" data-name="Group 3255">
            <path id="Path_6795" data-name="Path 6795" d="M-482.822,625.376l173.592-60.422s20.742,73.541,58.29,97.826a48.777,48.777,0,0,0,13.783,6.288,40.05,40.05,0,0,0,10.438,1.4c37.4,0,76.165-74.564,95.561-117.961,7.957-17.818,12.657-30.381,12.657-30.381l-63.578-38.779-13.9,21.73-25.331,39.594s-20.291-37.426-32.462-48.245-46.893-9.923-46.893-9.923c-10.368,38.778-68.987-1.8-68.987-1.8s-43.345-3.156-57.261,2.254C-443.148,493.262-498.38,584.76-482.822,625.376Z" transform="translate(485.555 -483.345)" fill="#ffcb00"/>
          </g>
        </g>
        <g id="Group_3257" data-name="Group 3257" transform="translate(82.774 261.079)">
          <path id="Path_6796" data-name="Path 6796" d="M-383.938,628.647l49.729,54.905h18.631l20.682-75.073-69.437-26.151-9.469-28.406Z" transform="translate(383.938 -553.922)" fill="#a39b13"/>
        </g>
        <g id="Group_3263" data-name="Group 3263" transform="translate(134.041 327.741)">
          <g id="Group_3258" data-name="Group 3258" transform="translate(18.218)">
            <path id="Path_6797" data-name="Path 6797" d="M-267.7,652.585c10.18,2.92,16.827.607,17.576-4.86.614-4.488-15.078-8.045-28.834-9.05a168.918,168.918,0,0,1-19.676-2.914" transform="translate(298.633 -635.761)" fill="#b2614e"/>
          </g>
          <g id="Group_3262" data-name="Group 3262">
            <g id="Group_3259" data-name="Group 3259">
              <path id="Path_6798" data-name="Path 6798" d="M-302.781,635.761-321,686s57.323,11.421,62.475,6.088c3.086-3.2.6-5.658.6-5.658s5.663,1.857,8.163-.669.6-5.657.6-5.657,5.122.887,5.544-3.879c.462-5.21-13.667-14.993-28.231-23.636" transform="translate(320.999 -635.761)" fill="#b2614e"/>
            </g>
            <g id="Group_3260" data-name="Group 3260" transform="translate(50.456 29.928)">
              <path id="Path_6799" data-name="Path 6799" d="M-238.647,687.98l1.949-2.133A85.438,85.438,0,0,0-257.883,672.5l-1.173,2.641A83.925,83.925,0,0,1-238.647,687.98Z" transform="translate(259.056 -672.503)"/>
            </g>
            <g id="Group_3261" data-name="Group 3261" transform="translate(44.875 39.998)">
              <path id="Path_6800" data-name="Path 6800" d="M-248.482,696.751l1.55-2.438a139.232,139.232,0,0,0-17.849-9.448l-1.126,2.662A139.13,139.13,0,0,1-248.482,696.751Z" transform="translate(265.907 -684.865)"/>
            </g>
          </g>
        </g>
        <g id="Group_3264" data-name="Group 3264" transform="translate(150.021)">
          <path id="Path_6801" data-name="Path 6801" d="M-277.154,233.841A20.565,20.565,0,0,0-298.591,243a20.565,20.565,0,0,0,1.767,23.244,20.565,20.565,0,0,0,22.575,5.81C-256.167,265.045-258.221,238.031-277.154,233.841Z" transform="translate(301.38 -233.404)"/>
        </g>
        <g id="Group_3266" data-name="Group 3266" transform="translate(2.734 260.851)">
          <g id="Group_3265" data-name="Group 3265">
            <path id="Path_6802" data-name="Path 6802" d="M-482.2,638.412c10.709,28.943,63.78,39.311,100.415,43.022,20.43,2.069,35.751,2.069,35.751,2.069l19.84-71.242-26.6-9.656-39.231-14.241V553.642Z" transform="translate(482.2 -553.642)" fill="#ffcb00"/>
          </g>
        </g>
        <g id="Group_3267" data-name="Group 3267" transform="translate(230.882 295.121)">
          <path id="Path_6803" data-name="Path 6803" d="M-202.11,595.714l3.733,87.906a48.715,48.715,0,0,0,13.784,6.285Z" transform="translate(202.11 -595.714)" fill="#a39b13"/>
        </g>
        <g id="Group_3274" data-name="Group 3274" transform="translate(225.064 60.944)">
          <g id="Group_3268" data-name="Group 3268" transform="translate(0 0)">
            <circle id="Ellipse_701" data-name="Ellipse 701" cx="48.696" cy="48.696" r="48.696" transform="translate(0 81.226) rotate(-56.513)" fill="#ffa051"/>
          </g>
          <g id="Group_3269" data-name="Group 3269" transform="translate(72.725 76.884)">
            <path id="Path_6804" data-name="Path 6804" d="M-51.709,486.908h0a11.213,11.213,0,0,0,1.592-16.128l-58.5-68.169-11.357,8.9,52.219,73.09A11.213,11.213,0,0,0-51.709,486.908Z" transform="translate(119.97 -402.611)" fill="#ffa051"/>
          </g>
          <g id="Group_3270" data-name="Group 3270" transform="translate(30.958 30.956)">
            <path id="Path_6805" data-name="Path 6805" d="M-163.468,405.279a36.412,36.412,0,0,0,7.074,6.875,36.5,36.5,0,0,0,17.48,6.874,36.376,36.376,0,0,0,26.722-7.533,36.289,36.289,0,0,0,8.856-10.058,36.6,36.6,0,0,0,4.365-26.178,36.38,36.38,0,0,0-7.009-15.036,36.483,36.483,0,0,0-31.926-13.86,36.444,36.444,0,0,0-10.346,2.453,36.689,36.689,0,0,0-8.3,4.65q-.353.266-.7.541a36.631,36.631,0,0,0-4.034,3.673A36.528,36.528,0,0,0-163.468,405.279Z" transform="translate(171.246 -346.226)" fill="#a8dadc"/>
          </g>
          <g id="Group_3271" data-name="Group 3271" transform="translate(45.657 33.546)" opacity="0.5">
            <path id="Path_6806" data-name="Path 6806" d="M-153.2,354.056l17.633,65.562a36.375,36.375,0,0,0,26.722-7.533,36.289,36.289,0,0,0,8.856-10.058l-44.916-52.621A36.689,36.689,0,0,0-153.2,354.056Z" transform="translate(153.201 -349.406)" fill="#fff"/>
          </g>
          <g id="Group_3272" data-name="Group 3272" transform="translate(30.958 42.41)" opacity="0.5">
            <path id="Path_6807" data-name="Path 6807" d="M-163.468,407.887a36.419,36.419,0,0,0,7.074,6.875l-4.891-54.474A36.528,36.528,0,0,0-163.468,407.887Z" transform="translate(171.246 -360.288)" fill="#fff"/>
          </g>
          <g id="Group_3273" data-name="Group 3273" transform="translate(64.298 30.956)" opacity="0.5">
            <path id="Path_6808" data-name="Path 6808" d="M-130.316,346.363l38.936,28.9a36.379,36.379,0,0,0-7.009-15.036A36.483,36.483,0,0,0-130.316,346.363Z" transform="translate(130.316 -346.226)" fill="#fff"/>
          </g>
        </g>
        <g id="Group_3278" data-name="Group 3278" transform="translate(311.919 170.232)">
          <g id="Group_3275" data-name="Group 3275" transform="translate(0)">
            <path id="Path_6809" data-name="Path 6809" d="M-87.615,476.818s-2.188,2.651,1.137,5.468c3.251,2.765,32.243-2.757,35.755-7.781,4.933-7.056-15.041-32.783-26.579-32.1-9.17.544-26.243,20.794-25.283,25.837.876,4.612,5.791,3.246,5.791,3.246s-1.552,3.249,1.136,5.468S-87.615,476.818-87.615,476.818Z" transform="translate(102.624 -442.392)" fill="#b2614e"/>
          </g>
          <g id="Group_3276" data-name="Group 3276" transform="translate(4.757 13.036)">
            <path id="Path_6810" data-name="Path 6810" d="M-94.634,475.426A82.585,82.585,0,0,1-75.95,460.908l-1.428-2.512a83.89,83.89,0,0,0-19.406,15.1Z" transform="translate(96.784 -458.396)"/>
          </g>
          <g id="Group_3277" data-name="Group 3277" transform="translate(14.116 22.325)">
            <path id="Path_6811" data-name="Path 6811" d="M-83.509,483.039a136.668,136.668,0,0,1,16.122-10.7l-1.384-2.537a136.852,136.852,0,0,0-16.522,10.966Z" transform="translate(85.294 -469.8)"/>
          </g>
        </g>
        <g id="Group_3283" data-name="Group 3283" transform="translate(127.582 90.745)">
          <g id="Group_3279" data-name="Group 3279" transform="translate(67.813 7.019)">
            <path id="Path_6812" data-name="Path 6812" d="M-245.676,368.172a14.763,14.763,0,0,1,14.746-14.746,14.763,14.763,0,0,1,14.746,14.746,14.763,14.763,0,0,1-14.746,14.746A14.763,14.763,0,0,1-245.676,368.172Zm2.89,0a11.87,11.87,0,0,0,11.856,11.857,11.87,11.87,0,0,0,11.856-11.857,11.87,11.87,0,0,0-11.856-11.857A11.87,11.87,0,0,0-242.786,368.172Z" transform="translate(245.676 -353.426)" fill="#ff6542"/>
          </g>
          <g id="Group_3280" data-name="Group 3280" transform="translate(34.448 7.019)">
            <path id="Path_6813" data-name="Path 6813" d="M-286.638,368.172a14.763,14.763,0,0,1,14.746-14.746,14.762,14.762,0,0,1,14.746,14.746,14.763,14.763,0,0,1-14.746,14.746A14.763,14.763,0,0,1-286.638,368.172Zm2.889,0a11.87,11.87,0,0,0,11.857,11.857,11.87,11.87,0,0,0,11.856-11.857,11.87,11.87,0,0,0-11.856-11.857A11.87,11.87,0,0,0-283.749,368.172Z" transform="translate(286.638 -353.426)" fill="#ff6542"/>
          </g>
          <g id="Group_3281" data-name="Group 3281" transform="translate(62.494 20.095)">
            <rect id="Rectangle_908" data-name="Rectangle 908" width="6.764" height="2.89" fill="#ff6542"/>
          </g>
          <g id="Group_3282" data-name="Group 3282" transform="translate(0 0)">
            <rect id="Rectangle_909" data-name="Rectangle 909" width="2.89" height="40.603" transform="translate(0 2.503) rotate(-60.024)" fill="#ff6542"/>
          </g>
        </g>
        <g id="Group_3284" data-name="Group 3284" transform="translate(124.376 41.269)">
          <path id="Path_6814" data-name="Path 6814" d="M-332.865,337.432a58.512,58.512,0,0,0,36.22-11.264A58.519,58.519,0,0,0-275.282,294.4a65.4,65.4,0,0,0,33.17,25.346c-.03-.086-.055-.183-.086-.277-.346-1.065-.709-2.126-1.1-3.167-.257-.754-.531-1.476-.83-2.2-.367-.945-.764-1.878-1.164-2.794-4.272-9.737-10.263-17.756-18.042-22.509a31.275,31.275,0,0,0-5.569-2.727,27.927,27.927,0,0,0-2.748-.885c-.747-.21-1.517-.385-2.286-.534a33.311,33.311,0,0,0-6.312-.589c-.2.007-.4,0-.612.007-18.665.132-30.673,7.713-38.405,17.368C-329.036,313.628-331.973,329.158-332.865,337.432Z" transform="translate(332.865 -284.069)"/>
        </g>
        <g id="Group_3285" data-name="Group 3285" transform="translate(110.721 93.596)">
          <path id="Path_6815" data-name="Path 6815" d="M-324.369,353.161a11.057,11.057,0,0,0-10.077-4.826,15.619,15.619,0,0,0-10.188,5.248,20.257,20.257,0,0,0-1.463,24.741,20.257,20.257,0,0,0,23.93,6.455" transform="translate(349.628 -348.309)" fill="#b2614e"/>
        </g>
        <g id="Group_3286" data-name="Group 3286" transform="translate(121.199 103.957)">
          <path id="Path_6816" data-name="Path 6816" d="M-334.538,376.614l2.881-.207a17.15,17.15,0,0,1,4.684-12.933l-1.077-2.447-8.716.214.071,2.889,5.594-.138A20.125,20.125,0,0,0-334.538,376.614Z" transform="translate(336.765 -361.028)"/>
        </g>
        <g id="Group_3287" data-name="Group 3287" transform="translate(179.29 131.005)">
          <path id="Path_6817" data-name="Path 6817" d="M-256.317,402.073l.191-2.884a8.236,8.236,0,0,1-4.605-1.421,4.829,4.829,0,0,1-1.83-3.534l-2.886.137a7.752,7.752,0,0,0,2.94,5.676A10.96,10.96,0,0,0-256.317,402.073Z" transform="translate(265.448 -394.235)"/>
        </g>
        <g id="Group_3290" data-name="Group 3290" transform="translate(0 203.59)">
          <g id="Group_3289" data-name="Group 3289" clip-path="url(#clip-path-4)">
            <g id="Group_3288" data-name="Group 3288" transform="translate(88.771 -8.943)">
              <path id="Path_6818" data-name="Path 6818" d="M-306.511,521.048c10.012,0,19.6-2.888,26.892-8.305,11.053-8.2,16.544-22.454,13.352-34.653l-2.8.732c2.9,11.087-2.149,24.081-12.279,31.6-9.181,6.816-22.3,9.335-35.1,6.735-11.061-2.246-22.026-8-32.593-17.112-9.165-7.9-16.877-17.209-25.293-27.679l-2.252,1.81c8.507,10.582,16.309,20,25.658,28.057,10.945,9.435,22.352,15.409,33.9,17.756A52.872,52.872,0,0,0-306.511,521.048Z" transform="translate(376.576 -472.366)"/>
            </g>
          </g>
        </g>
        <g id="Group_3291" data-name="Group 3291" transform="translate(289.577 203.59)">
          <path id="Path_6820" data-name="Path 6820" d="M-130.052,505.075l64.82,47.431c7.957-17.818,12.657-30.381,12.657-30.381l-63.578-38.779Z" transform="translate(130.052 -483.345)" fill="#fff"/>
        </g>
        <g id="Group_3292" data-name="Group 3292" transform="translate(103.149 309.814)">
          <path id="Path_6821" data-name="Path 6821" d="M-358.924,692.581c20.43,2.069,35.751,2.069,35.751,2.069l19.84-71.241-26.6-9.657Z" transform="translate(358.924 -613.752)" fill="#fff"/>
        </g>
        <g id="Group_3293" data-name="Group 3293" transform="translate(342.452 244.681)">
          <path id="Path_6822" data-name="Path 6822" d="M-65.14,539.859a6.075,6.075,0,0,1,6.068-6.068A6.075,6.075,0,0,1-53,539.859a6.075,6.075,0,0,1-6.068,6.068A6.075,6.075,0,0,1-65.14,539.859Zm2.89,0a3.182,3.182,0,0,0,3.178,3.179,3.182,3.182,0,0,0,3.178-3.179,3.182,3.182,0,0,0-3.178-3.178A3.182,3.182,0,0,0-62.25,539.859Z" transform="translate(65.14 -533.791)"/>
        </g>
        <g id="Group_3294" data-name="Group 3294" transform="translate(121.105 366.045)">
          <path id="Path_6823" data-name="Path 6823" d="M-336.88,688.854a6.075,6.075,0,0,1,6.068-6.068,6.075,6.075,0,0,1,6.068,6.068,6.075,6.075,0,0,1-6.068,6.068A6.075,6.075,0,0,1-336.88,688.854Zm2.89,0a3.181,3.181,0,0,0,3.178,3.178,3.182,3.182,0,0,0,3.178-3.178,3.183,3.183,0,0,0-3.178-3.178A3.182,3.182,0,0,0-333.99,688.854Z" transform="translate(336.88 -682.786)"/>
        </g>
      </g>
      <g id="Group_3296" data-name="Group 3296" transform="translate(393.687 268.969)">
        <path id="Path_6824" data-name="Path 6824" d="M-5.963,684.733c10.195-15.052,19.114-27.4,22.987-45.165s2.26-37.261-7.4-52.659-28.2-25.7-46.144-22.816c-15.839,2.544-28.866,14.572-36.655,28.595s-11.159,30-14.432,45.706c-6.2-14.091-21.794-23.3-37.162-22.4s-29.6,11.574-35.23,25.9-2.613,31.562,7.158,43.456" transform="translate(162.819 -563.609)" fill="#ffa051"/>
      </g>
      <g id="Group_3297" data-name="Group 3297" transform="translate(88.796 288.728)">
        <path id="Path_6825" data-name="Path 6825" d="M-392.662,690.765a37.9,37.9,0,0,0,6.14-37.338,35.524,35.524,0,0,0-30.358-22.308,34.147,34.147,0,0,0-30.184,15.732c-2.472-11.68-5.321-23.559-11.251-34.236-7.374-13.278-19.078-22.378-31.308-24.343-14.612-2.349-30.885,5.673-39.564,19.5-7.557,12.04-9.854,28.285-6.3,44.569,3.066,14.059,9.845,24.033,17.693,35.582l1.509,2.224,2.393-1.621-1.512-2.227c-7.68-11.3-14.312-21.061-17.26-34.574-3.391-15.552-1.231-31.012,5.927-42.417,8.081-12.876,23.155-20.357,36.659-18.186,11.362,1.825,22.293,10.383,29.239,22.893,6.382,11.491,9.121,24.633,11.77,37.342l2.737.287c4.807-10.934,17.114-18.354,29.286-17.643,11.928.7,23.375,9.117,27.836,20.479,4.375,11.14,2.091,24.983-5.682,34.448Z" transform="translate(537.124 -587.866)"/>
      </g>
      <g id="Group_3298" data-name="Group 3298" transform="translate(189.71 44.067)">
        <path id="Path_6826" data-name="Path 6826" d="M-410.3,313.685a17.992,17.992,0,0,1-.934-18.094c2.787-5.218,7.907-8.088,14.426-8.088h.085c8.273.032,15.9,7.307,16.331,15.569s-6.416,16.285-14.642,17.168h0a20.909,20.909,0,0,1-2.232.122A15.093,15.093,0,0,1-410.3,313.685Zm14.958,3.681a14.053,14.053,0,0,0,12.064-14.145,14.053,14.053,0,0,0-13.456-12.828h-.072c-5.4,0-9.62,2.327-11.879,6.559a15.031,15.031,0,0,0,.781,15.117c2.7,4,7.16,5.879,12.562,5.3Z" transform="translate(413.234 -287.503)"/>
      </g>
      <g id="Group_3299" data-name="Group 3299" transform="translate(444.55 358.821)">
        <path id="Path_6827" data-name="Path 6827" d="M-13.555,706.619l2.389-1.626a96.655,96.655,0,0,0-14.153-15.8c-11.535-10.35-23.487-15.632-34.594-15.252-15.027.5-28.64,10.979-40.462,31.138l2.493,1.462c11.288-19.247,24.1-29.244,38.066-29.712q.516-.018,1.03-.018C-34.124,676.807-13.76,706.316-13.555,706.619Z" transform="translate(100.375 -673.917)" fill="#fff"/>
      </g>
      <g id="Group_3309" data-name="Group 3309" transform="translate(498.506 204.086)">
        <g id="Group_3300" data-name="Group 3300" transform="translate(0)">
          <path id="Path_6828" data-name="Path 6828" d="M15.988,606.136c-8.179,11.752-21.6,21.29-34.14,26.431l-.185.128c-14.076-11.945-19.57-33.016-13.109-50.313,4.394-11.774,13.485-21.257,18.441-32.8,4.322-10.079,5.3-21.22,7.536-31.956.347-1.669.739-3.353,1.178-5.023.182.062.368.119.561.174a7.2,7.2,0,0,0,8.473-4.784,7.227,7.227,0,0,0-4.109-8.344,34.363,34.363,0,0,1,8.624-10.7c6.775-5.467,17.6-7.252,23.847-1.189,5,4.851,5.341,12.783,4.061,19.632-3.052,16.345-13.224,30.959-14.637,47.526-.846,9.92,1.537,19.856,1.222,29.8A33.708,33.708,0,0,1,22.2,593.74a5.7,5.7,0,0,0-.8-.308C13.305,590.982,9.366,602.651,15.988,606.136Z" transform="translate(34.136 -483.954)" fill="#a8dadc"/>
        </g>
        <g id="Group_3301" data-name="Group 3301" transform="translate(2.61 33.147)">
          <rect id="Rectangle_910" data-name="Rectangle 910" width="160.254" height="2.89" transform="matrix(0.296, -0.955, 0.955, 0.296, 0, 153.048)"/>
        </g>
        <g id="Group_3308" data-name="Group 3308" transform="translate(0)">
          <g id="Group_3307" data-name="Group 3307" clip-path="url(#clip-path-5)">
            <g id="Group_3304" data-name="Group 3304" transform="translate(9.701 46.71)">
              <g id="Group_3302" data-name="Group 3302" transform="translate(26.693 0)">
                <rect id="Rectangle_911" data-name="Rectangle 911" width="46.105" height="2.889" transform="matrix(0.734, -0.679, 0.679, 0.734, 0, 31.312)"/>
              </g>
              <g id="Group_3303" data-name="Group 3303" transform="translate(0 14.179)">
                <rect id="Rectangle_912" data-name="Rectangle 912" width="2.89" height="50.93" transform="matrix(0.943, -0.332, 0.332, 0.943, 0, 0.958)"/>
              </g>
            </g>
            <g id="Group_3305" data-name="Group 3305" transform="translate(28.816 8.704)">
              <rect id="Rectangle_913" data-name="Rectangle 913" width="2.89" height="52.714" transform="translate(0 0.722) rotate(-14.475)"/>
            </g>
            <g id="Group_3306" data-name="Group 3306" transform="translate(23.756 92.154)">
              <rect id="Rectangle_914" data-name="Rectangle 914" width="46.625" height="2.89" transform="translate(0 27.298) rotate(-35.837)"/>
            </g>
          </g>
        </g>
      </g>
    </g>
  </g>
</svg>
