<svg xmlns="http://www.w3.org/2000/svg" width="73.679" height="30.778" viewBox="0 0 73.679 30.778">
  <g id="Group_3464" data-name="Group 3464" transform="translate(1244.47 -4138.548)">
    <path id="Path_6466" data-name="Path 6466" d="M-1192.415,4138.548c4.977.086,10.339.048,15.681.545a5.4,5.4,0,0,1,4.9,3.826,17.762,17.762,0,0,1,.82,4.91,80.445,80.445,0,0,1-.251,14.745,10.957,10.957,0,0,1-.457,2.019,5.587,5.587,0,0,1-5.4,4.252c-6.091.442-12.191.536-18.3.455-4.254-.057-8.512-.066-12.754-.468a11.637,11.637,0,0,1-1.815-.315,5.157,5.157,0,0,1-3.747-3.424,17.77,17.77,0,0,1-.87-4.981,77.014,77.014,0,0,1,.258-14.743,7.2,7.2,0,0,1,2.31-5.039,7.121,7.121,0,0,1,4.318-1.361C-1202.743,4138.665-1197.769,4138.592-1192.415,4138.548Zm2.738,11.49c0-1.573,0-3.007,0-4.441,0-1.857,0-1.829-1.858-1.868-.625-.014-.81.129-.806.786.028,5.841.016,11.682.016,17.523,0,1.409,0,1.409,1.388,1.406,1.191,0,1.19,0,1.28-1.142,0-.028.077-.05.229-.141a3.856,3.856,0,0,0,.41.51,2.826,2.826,0,0,0,3.014.811,2.474,2.474,0,0,0,1.514-2.46,76.52,76.52,0,0,0,.013-9.518,5.686,5.686,0,0,0-.184-1.057,2.294,2.294,0,0,0-3.624-1.521C-1188.773,4149.205-1189.118,4149.655-1189.677,4150.038Zm-7.635,11.86a6.966,6.966,0,0,1,0,.795c-.082.578.106.833.734.763a9.658,9.658,0,0,1,1.536-.006c.38.019.542-.076.541-.5q-.021-6.842,0-13.682c0-.39-.109-.559-.52-.539a12.261,12.261,0,0,1-1.613-.006c-.557-.047-.685.178-.682.7.021,3.228-.014,6.457.029,9.684a2.062,2.062,0,0,1-.741,1.673c-.33.3-.688.589-1.163.376-.448-.2-.335-.649-.336-1.017-.007-3.126,0-6.251,0-9.376,0-2.065,0-2.05-2.094-2.044-.512,0-.712.11-.708.674.025,3.766.012,7.533.02,11.3a6.73,6.73,0,0,0,.1,1.068,2.031,2.031,0,0,0,3.3,1.511A9.633,9.633,0,0,0-1197.312,4161.9Zm20.184-5.358c.717,0,1.434-.008,2.151,0,.3,0,.489-.064.478-.419a29.045,29.045,0,0,0-.134-4.141,3.82,3.82,0,0,0-3.936-3.456,3.816,3.816,0,0,0-3.9,3.588,38.26,38.26,0,0,0-.015,7.9,3.933,3.933,0,0,0,5.013,3.538c1.854-.389,2.88-1.844,2.96-4.2.035-1.038.035-1.041-1-1.039-.537,0-1.191-.176-1.583.067-.5.307-.125,1.031-.2,1.569-.115.8-.508,1.255-1.18,1.274-.687.02-1.131-.381-1.258-1.182a25.741,25.741,0,0,1-.085-3.069c-.016-.417.225-.443.539-.439C-1178.563,4156.546-1177.846,4156.54-1177.128,4156.54Zm-30.931-1.488c0,2.05,0,4.1,0,6.151,0,.715-.248,1.665.111,2.082.418.485,1.4.076,2.128.167.592.073.714-.157.711-.721-.023-5.074-.017-10.149-.012-15.223,0-1.1-.146-.952.992-.967.052,0,.1,0,.154,0,.678-.063,1.6.313,1.971-.166.339-.442.077-1.325.134-2.009.043-.521-.156-.637-.647-.631-2.152.025-4.305.01-6.458.01-2.31,0-2.3,0-2.169,2.318.021.357.111.5.483.485.64-.024,1.283.026,1.921-.017.533-.035.7.132.692.68C-1208.075,4149.824-1208.059,4152.438-1208.059,4155.052Z" fill="#fe0318"/>
    <path id="Path_6467" data-name="Path 6467" d="M-1219.928,4162.039c-.465.391-.877.8-1.351,1.124-1.638,1.116-3.181.444-3.481-1.506a8.21,8.21,0,0,1-.063-1.226c-.005-3.714.008-7.428-.015-11.142,0-.518.091-.742.657-.679.683.076,1.578-.279,2.007.127s.129,1.305.132,1.986c.013,3.176,0,6.353.007,9.529,0,.347-.085.751.358.922a.949.949,0,0,0,.988-.27,2.055,2.055,0,0,0,.862-1.689c-.045-3.3-.009-6.609-.031-9.913,0-.513.1-.74.659-.692.684.058,1.587-.217,2,.126.436.361.131,1.3.133,1.978.012,4.021,0,8.043.017,12.065,0,.513-.1.77-.656.679a3.086,3.086,0,0,0-.461,0,3.854,3.854,0,0,1-1.514-.065C-1220.111,4163.175-1219.7,4162.506-1219.928,4162.039Z" fill="#040404"/>
    <path id="Path_6468" data-name="Path 6468" d="M-1239.31,4150.941q.41-1.533.82-3.065c.338-1.26.7-2.516,1-3.785a.556.556,0,0,1,.679-.511,14.731,14.731,0,0,0,1.768,0c.6-.043.794.058.577.73-1.132,3.506-2.211,7.028-3.319,10.542a3.9,3.9,0,0,0-.177,1.206c.007,2.256-.011,4.512.015,6.768.005.495-.115.679-.635.64-.738-.056-1.71.239-2.161-.131-.472-.387-.2-1.407-.129-2.129.457-4.48-.7-8.671-2.168-12.821-.5-1.4-.881-2.835-1.361-4.239-.16-.469-.069-.584.4-.563.817.038,1.8-.234,2.407.129.585.349.513,1.424.726,2.18.47,1.671.9,3.354,1.342,5.031Z" fill="#040404"/>
    <path id="Path_6469" data-name="Path 6469" d="M-1234.791,4156.065c0-1.256-.072-2.517.015-3.766.159-2.295,1.52-3.689,3.571-3.79,2.327-.114,3.849.989,4.147,3.386a36.264,36.264,0,0,1,.012,8.44,3.711,3.711,0,0,1-4.042,3.387,3.861,3.861,0,0,1-3.684-3.737C-1234.867,4158.685-1234.79,4157.372-1234.791,4156.065Zm2.728-.016h.015c0,.615,0,1.23,0,1.845,0,.742-.032,1.488.025,2.226a1.093,1.093,0,0,0,1.133,1.124,1.12,1.12,0,0,0,1.163-1.1,5.264,5.264,0,0,0,.033-.843c0-2.178.009-4.355,0-6.533a3.564,3.564,0,0,0-.11-.985,1.036,1.036,0,0,0-1.1-.782,1.057,1.057,0,0,0-1.071.827,3.513,3.513,0,0,0-.088.913C-1232.069,4153.846-1232.063,4154.948-1232.063,4156.049Z" fill="#040404"/>
    <path id="Path_6470" data-name="Path 6470" d="M-1189.677,4150.038c.559-.383.9-.833,1.392-1.112a2.294,2.294,0,0,1,3.624,1.521,5.686,5.686,0,0,1,.184,1.057,76.52,76.52,0,0,1-.013,9.518,2.474,2.474,0,0,1-1.514,2.46,2.826,2.826,0,0,1-3.014-.811,3.856,3.856,0,0,1-.41-.51c-.152.091-.226.113-.229.141-.09,1.14-.089,1.14-1.28,1.142-1.388,0-1.388,0-1.388-1.406,0-5.841.012-11.682-.016-17.523,0-.657.181-.8.806-.786,1.86.039,1.86.011,1.858,1.868C-1189.679,4147.031-1189.677,4148.465-1189.677,4150.038Zm0,6.014v3.762a1.277,1.277,0,0,0,1.325,1.413c.663.029,1.02-.362,1.133-1.265a7.424,7.424,0,0,0,.062-.918q.006-3,0-5.99a8.275,8.275,0,0,0-.086-1.147.971.971,0,0,0-1.172-.926,1.229,1.229,0,0,0-1.257,1.155C-1189.683,4153.441-1189.679,4154.746-1189.679,4156.052Z" fill="#fbfcfb"/>
    <path id="Path_6471" data-name="Path 6471" d="M-1197.312,4161.9a9.633,9.633,0,0,1-1.6,1.371,2.031,2.031,0,0,1-3.3-1.511,6.73,6.73,0,0,1-.1-1.068c-.008-3.766.005-7.533-.02-11.3,0-.564.2-.672.708-.674,2.093-.006,2.094-.021,2.094,2.044,0,3.125,0,6.25,0,9.376,0,.368-.112.816.336,1.017.475.213.833-.078,1.163-.376a2.062,2.062,0,0,0,.741-1.673c-.043-3.227-.008-6.456-.029-9.684,0-.522.125-.747.682-.7a12.261,12.261,0,0,0,1.613.006c.411-.02.521.149.52.539q-.015,6.842,0,13.682c0,.426-.161.521-.541.5a9.658,9.658,0,0,0-1.536.006c-.628.07-.816-.185-.734-.763A6.966,6.966,0,0,0-1197.312,4161.9Z" fill="#fbfcfb"/>
    <path id="Path_6472" data-name="Path 6472" d="M-1177.128,4156.54c-.718,0-1.435.006-2.152,0-.314,0-.555.022-.539.439a25.741,25.741,0,0,0,.085,3.069c.127.8.571,1.2,1.258,1.182.672-.019,1.065-.47,1.18-1.274.077-.538-.3-1.262.2-1.569.392-.243,1.046-.065,1.583-.067,1.031,0,1.031,0,1,1.039-.08,2.353-1.106,3.808-2.96,4.2a3.933,3.933,0,0,1-5.013-3.538,38.26,38.26,0,0,1,.015-7.9,3.816,3.816,0,0,1,3.9-3.588,3.82,3.82,0,0,1,3.936,3.456,29.045,29.045,0,0,1,.134,4.141c.011.355-.174.424-.478.419C-1175.694,4156.532-1176.411,4156.54-1177.128,4156.54Zm-1.536-2.2c.333,0,.666,0,1,0,.255.005.378-.1.371-.364a14.129,14.129,0,0,0-.078-2.068,1.045,1.045,0,0,0-1.188-.94c-.638.008-1.11.256-1.171.951-.056.636-.048,1.277-.09,1.914-.027.414.157.549.544.51A5.986,5.986,0,0,1-1178.664,4154.34Z" fill="#fbfcfb"/>
    <path id="Path_6473" data-name="Path 6473" d="M-1208.059,4155.052c0-2.614-.016-5.228.012-7.842.006-.548-.159-.715-.692-.68-.638.043-1.281-.007-1.921.017-.372.014-.462-.128-.483-.485-.132-2.318-.141-2.318,2.169-2.318,2.153,0,4.306.015,6.458-.01.491-.006.69.11.647.631-.057.684.205,1.567-.134,2.009-.368.479-1.293.1-1.971.166-.051,0-.1,0-.154,0-1.138.015-.99-.134-.992.967-.005,5.074-.011,10.149.012,15.223,0,.564-.119.794-.711.721-.729-.091-1.71.318-2.128-.167-.359-.417-.109-1.367-.111-2.082C-1208.063,4159.153-1208.059,4157.1-1208.059,4155.052Z" fill="#fbfcfb"/>
    <path id="Path_6474" data-name="Path 6474" d="M-1189.679,4156.052c0-1.306,0-2.611,0-3.916a1.229,1.229,0,0,1,1.257-1.155.971.971,0,0,1,1.172.926,8.275,8.275,0,0,1,.086,1.147q.012,2.993,0,5.99a7.424,7.424,0,0,1-.062.918c-.113.9-.47,1.294-1.133,1.265a1.277,1.277,0,0,1-1.325-1.413Z" fill="#fe0318"/>
    <path id="Path_6475" data-name="Path 6475" d="M-1178.664,4154.34a5.986,5.986,0,0,0-.614,0c-.387.039-.571-.1-.544-.51.042-.637.034-1.278.09-1.914.061-.695.533-.943,1.171-.951a1.045,1.045,0,0,1,1.188.94,14.129,14.129,0,0,1,.078,2.068c.007.261-.116.369-.371.364C-1178,4154.335-1178.331,4154.34-1178.664,4154.34Z" fill="#fe0318"/>
  </g>
</svg>
