<svg xmlns="http://www.w3.org/2000/svg" width="153" height="91.419" viewBox="0 0 153 91.419">
  <g id="Group_3471" data-name="Group 3471" transform="translate(-4298.998 -3227.975)">
    <g id="Group_3058" data-name="Group 3058" transform="translate(4298.998 3227.975)">
      <ellipse id="Ellipse_699" data-name="Ellipse 699" cx="15.213" cy="33.55" rx="15.213" ry="33.55" transform="translate(61.287 12.16)" fill="#00a89b"/>
      <path id="Path_6533" data-name="Path 6533" d="M4251.786,3521.686A45.2,45.2,0,0,1,4267,3487.9a46.948,46.948,0,0,0-31.394-11.926c-25.74,0-46.606,20.464-46.606,45.71s20.866,45.709,46.606,45.709A46.947,46.947,0,0,0,4267,3555.469,45.2,45.2,0,0,1,4251.786,3521.686Z" transform="translate(-4188.999 -3475.976)" fill="#00d1e3"/>
      <path id="Path_6534" data-name="Path 6534" d="M4464.711,3475.976a46.947,46.947,0,0,0-31.394,11.926,45.118,45.118,0,0,1,0,67.568,46.946,46.946,0,0,0,31.394,11.926c25.74,0,46.606-20.465,46.606-45.709S4490.451,3475.976,4464.711,3475.976Z" transform="translate(-4358.317 -3475.976)" fill="#00d1e3"/>
    </g>
  </g>
</svg>
