<svg xmlns="http://www.w3.org/2000/svg" width="59.711" height="48.912" viewBox="0 0 59.711 48.912">
  <path id="Path_7094" data-name="Path 7094" d="M-1236.216,4672.092c1.355-.222,2.719.008,4.078-.08a24.714,24.714,0,0,0,13.462-4.947,1.806,1.806,0,0,0,.216-.272,14.337,14.337,0,0,1-4.64-1.123,12.333,12.333,0,0,1-6.414-6.707c-.216-.531-.234-.691.446-.641a12.32,12.32,0,0,0,4.646-.319c-6.1-1.867-9.316-5.846-9.763-12.246a13.247,13.247,0,0,0,5.448,1.486c-5.407-4.539-6.681-9.954-3.716-16.47a35.428,35.428,0,0,0,25.507,12.934,12.455,12.455,0,0,1,6.074-13.63,12.281,12.281,0,0,1,14.467,1.867,1.167,1.167,0,0,0,1.217.342,26.186,26.186,0,0,0,6.33-2.385c.191-.1.352-.3.68-.235a12.134,12.134,0,0,1-1.924,3.575,18.245,18.245,0,0,1-2.932,2.843,18.356,18.356,0,0,0,5.118-1.141c.45-.151.857-.516,1.389-.365l.008-.027a27.419,27.419,0,0,1-5.764,5.916c-.422.306-.271.741-.265,1.126a35.281,35.281,0,0,1-5.463,19.521,32.943,32.943,0,0,1-23.2,15.748,35.033,35.033,0,0,1-25.02-4.788Z" transform="translate(1236.23 -4628.521)" fill="#00a1f4"/>
</svg>
