<svg xmlns="http://www.w3.org/2000/svg" width="1364" height="440.953" viewBox="0 0 1364 440.953">
  <g id="Group_3468" data-name="Group 3468" transform="translate(-4109.104 -2448.847)">
    <rect id="Rectangle_925" data-name="Rectangle 925" width="1364" height="135.198" transform="translate(4109.104 2448.847)" fill="#dee2e7"/>
    <path id="Path_6985" data-name="Path 6985" d="M4109.1,2512.978H4600.85c7.185,0,13.008-5.019,13.008-11.208v-36.663c0-3.413,3.211-6.18,7.173-6.18h469.983c3.962,0,7.173,2.767,7.173,6.18v36.663c0,6.188,5.823,11.208,13.008,11.208H5473.1v288.479h-1364Z" transform="translate(0 10.343)" fill="#fff"/>
    <rect id="Rectangle_926" data-name="Rectangle 926" width="1364" height="257.141" transform="translate(4109.104 2632.659)" fill="#f2f2f2"/>
    <rect id="Rectangle_927" data-name="Rectangle 927" width="504.753" height="68.565" rx="4.98" transform="translate(4109.104 2469.27)" fill="#f2f2f2"/>
    <path id="Path_6986" data-name="Path 6986" d="M4217.846,2519.625a4.116,4.116,0,0,1-.5.055q-5.628.006-11.255,0c-.16,0-.317-.024-.5-.041l5.555-5.533a9.847,9.847,0,0,0-3.457-2.472,10.65,10.65,0,1,0-3.6,20.468,10.258,10.258,0,0,0,9.229-6.23.767.767,0,0,1,.83-.547c1.01.039,2.021.012,3.127.012-.066.253-.105.466-.179.667a14.129,14.129,0,0,1-11.482,9.543c-.308.055-.618.1-.928.144h-2.149c-.142-.034-.282-.081-.426-.1a13.876,13.876,0,0,1-11.95-9.574,26.045,26.045,0,0,1-.78-3.481v-2.4a1.605,1.605,0,0,0,.1-.292,13.955,13.955,0,0,1,9.1-11.644,26.854,26.854,0,0,1,3.951-.966h2.149a1.983,1.983,0,0,0,.361.1,13.636,13.636,0,0,1,6.706,2.524c.662.473,1.276,1.011,1.951,1.55.905-.912,1.8-1.83,2.717-2.731.46-.452.946-.877,1.421-1.315Z" transform="translate(82.378 59.908)" fill="#5d6368"/>
    <path id="Path_6987" data-name="Path 6987" d="M4695.5,2534.126c.2-.914.371-1.7.545-2.49.551-2.482,1.1-4.966,1.664-7.446a.6.6,0,0,0-.222-.636q-3.013-3.006-6.017-6.02c-.136-.138-.264-.279-.477-.5h.639c2.654,0,5.306-.008,7.96.008a.6.6,0,0,0,.649-.421q2.013-4.589,4.056-9.164c.043-.1.095-.185.174-.334.088.166.154.279.207.4q2.024,4.559,4.04,9.122a.565.565,0,0,0,.616.4c2.654-.012,5.307-.006,7.961-.006h.666c-.185.2-.289.318-.4.429-1.993,2-3.98,4-5.991,5.981a.9.9,0,0,0-.282.962c.706,3.092,1.387,6.189,2.073,9.286.022.1.03.2.056.381-.152-.1-.252-.152-.343-.221q-4.085-3.064-8.164-6.137a.582.582,0,0,0-.854-.01c-2.66,2.024-5.342,4.026-8.014,6.032C4695.895,2533.838,4695.748,2533.944,4695.5,2534.126Zm1.61-2.519c.209-.144.335-.223.454-.312,2.171-1.629,4.347-3.252,6.5-4.9a.564.564,0,0,1,.823.006c2.159,1.644,4.333,3.267,6.5,4.9.113.085.23.164.43.306-.051-.279-.073-.444-.11-.605-.519-2.348-1.028-4.7-1.572-7.041a.749.749,0,0,1,.254-.8q2.386-2.364,4.749-4.75c.09-.087.163-.188.3-.348h-.6c-2.04,0-4.077-.01-6.118.008a.617.617,0,0,1-.683-.431c-1.1-2.529-2.229-5.045-3.35-7.566-.056-.127-.123-.251-.213-.434-.085.167-.131.245-.168.328-1.131,2.549-2.271,5.094-3.379,7.653a.652.652,0,0,1-.72.45c-2.055-.016-4.109-.008-6.163-.008-.148,0-.294.012-.523.022.148.166.239.279.343.383q2.37,2.377,4.749,4.747a.631.631,0,0,1,.211.681c-.275,1.147-.517,2.3-.771,3.451C4697.743,2528.734,4697.437,2530.12,4697.107,2531.608Z" transform="translate(597.1 59.793)" fill="#5d6368"/>
    <path id="Path_6988" data-name="Path 6988" d="M4226.144,2537.019c-.829,0-1.144-.306-1.144-1.135q0-6.337.015-12.673c0-.362-.045-.545-.477-.531-.746.024-1.493-.035-2.238-.022a.963.963,0,0,1-1.058-.572,1.011,1.011,0,0,1,.321-1.171q3.642-3.635,7.28-7.276l6.736-6.737a1.046,1.046,0,0,1,1.764,0q6.99,6.99,13.983,13.98a1.039,1.039,0,0,1,.354,1.2.957.957,0,0,1-1.056.574c-.807-.019-1.612,0-2.422.008a1.719,1.719,0,0,0-.275.044v1.71q0,5.687,0,11.373c0,.942-.285,1.224-1.233,1.224C4244.312,2537.021,4228.541,2537.019,4226.144,2537.019Zm19.9-1.919v-.545q0-4.783,0-9.571c0-1.048-.02-2.095-.01-3.145a.959.959,0,0,1,1.056-1.064c.209-.006.42.016.629.02.229,0,.456,0,.69,0l-11.916-11.914-11.907,11.888h1.024c.973,0,1.259.288,1.261,1.256q.009,6.245.016,12.491v.569C4228.838,2535.085,4244.1,2535.1,4246.042,2535.1Z" transform="translate(114.991 59.076)" fill="#5d6368"/>
    <path id="Path_6989" data-name="Path 6989" d="M4158.639,2523.556v-4.008h21.706l-9.8-10.256,1.941-2.062c5.162,4.762,10.179,9.389,15.577,14.367-5.259,4.8-10.247,9.361-15.426,14.094l-2.527-2.652,10.019-8.561-.537-.922Z" transform="translate(50.829 59.908)" fill="#bbbdbf"/>
    <path id="Path_6990" data-name="Path 6990" d="M4154.938,2523.556v-4.008H4133.23l9.807-10.256-1.943-2.062c-5.16,4.762-10.179,9.389-15.575,14.367,5.256,4.8,10.245,9.361,15.423,14.094l2.526-2.652c-3.448-2.946-6.732-5.754-10.015-8.561l.537-.922Z" transform="translate(16.843 59.908)" fill="#bbbdbf"/>
    <rect id="Rectangle_928" data-name="Rectangle 928" width="939.725" height="57.38" rx="14.16" transform="translate(4398.437 2552.423)" fill="none" stroke="#aed6fa" stroke-miterlimit="10" stroke-width="1"/>
    <g id="Group_3428" data-name="Group 3428" transform="translate(5422.045 2569.838)">
      <circle id="Ellipse_867" data-name="Ellipse 867" cx="2.553" cy="2.553" r="2.553" fill="#5d6368"/>
      <circle id="Ellipse_868" data-name="Ellipse 868" cx="2.553" cy="2.553" r="2.553" transform="translate(0 10.05)" fill="#5d6368"/>
      <circle id="Ellipse_869" data-name="Ellipse 869" cx="2.553" cy="2.553" r="2.553" transform="translate(0 20.626)" fill="#5d6368"/>
    </g>
    <g id="Group_3430" data-name="Group 3430" transform="translate(5224.773 2568.071)">
      <g id="Group_3429" data-name="Group 3429">
        <path id="Path_6991" data-name="Path 6991" d="M4667.427,2507.94a9.88,9.88,0,1,0,11.829,7.434A9.88,9.88,0,0,0,4667.427,2507.94Zm10.234,7.8a8.245,8.245,0,1,1-9.872-6.2A8.245,8.245,0,0,1,4677.662,2515.739Z" transform="translate(-4659.741 -2507.69)" fill="#5d6368"/>
        <path id="Path_6992" data-name="Path 6992" d="M4676.79,2522.768a1.225,1.225,0,0,1,.23,1.692h0a1.226,1.226,0,0,1-1.7-.174l-7.188-6.915a1.223,1.223,0,0,1-.229-1.692h0a1.225,1.225,0,0,1,1.7.176Z" transform="translate(-4651.621 -2499.769)" fill="#5d6368"/>
      </g>
    </g>
    <g id="Group_3432" data-name="Group 3432" transform="translate(5290.618 2469.27)">
      <line id="Line_110" data-name="Line 110" x2="18.728" transform="translate(0 10.212)" fill="none" stroke="#000" stroke-miterlimit="10" stroke-width="0.75"/>
      <rect id="Rectangle_929" data-name="Rectangle 929" width="18.235" height="18.235" transform="translate(61.438)" fill="none" stroke="#000" stroke-miterlimit="10" stroke-width="0.75"/>
      <g id="Group_3431" data-name="Group 3431" transform="translate(122.953)">
        <line id="Line_111" data-name="Line 111" x2="19.451" y2="18.235" fill="none" stroke="#000" stroke-miterlimit="10" stroke-width="0.75"/>
        <line id="Line_112" data-name="Line 112" x1="19.451" y2="18.235" fill="none" stroke="#000" stroke-miterlimit="10" stroke-width="0.75"/>
      </g>
    </g>
    <path id="Path_6993" data-name="Path 6993" d="M4594.6,2471.1l-1.04-1.108-7.715,7.233-7.715-7.233-1.041,1.108,7.645,7.167-7.645,7.167,1.041,1.108,7.715-7.233,7.715,7.233,1.04-1.108-7.645-7.167Z" transform="translate(480.217 21.7)" fill="#5d6368"/>
    <line id="Line_113" data-name="Line 113" y2="22.612" transform="translate(5143.47 2488.813)" fill="none" stroke="#5d6368" stroke-miterlimit="10" stroke-width="1"/>
    <line id="Line_114" data-name="Line 114" x2="24.314" transform="translate(5131.253 2500.119)" fill="none" stroke="#5d6368" stroke-miterlimit="10" stroke-width="1"/>
  </g>
</svg>
