<svg xmlns="http://www.w3.org/2000/svg" width="82.128" height="80.275" viewBox="0 0 82.128 80.275">
  <g id="Group_3460" data-name="Group 3460" transform="translate(-766.056 -2022.914)">
    <g id="Group_3013" data-name="Group 3013" transform="translate(779.216 2022.915)">
      <path id="Path_6456" data-name="Path 6456" d="M-1432.133,2394.375c-.009,1.66.035,3.784-.027,5.911a7.509,7.509,0,0,0,1.794,5.057c.15.186.3.373.438.57a1.176,1.176,0,0,1-.228,1.891c-.918.787-1.846,1.563-2.769,2.344-.466.394-.926.8-1.4,1.181a1.352,1.352,0,0,1-2.042.026,12.736,12.736,0,0,1-2.7-3.042c-.4-.6-.4-.6-.909-.107a12.313,12.313,0,0,1-3.641,2.673,12.756,12.756,0,0,1-9.637.418,7.51,7.51,0,0,1-4.961-5.876,11.32,11.32,0,0,1,.086-5.721,10.032,10.032,0,0,1,5.856-6.529,21.152,21.152,0,0,1,5.37-1.436c1.948-.3,3.913-.476,5.875-.659.164-.016.323-.049.321-.247a16.687,16.687,0,0,0-.151-3.388,3.393,3.393,0,0,0-2.909-2.789,5.607,5.607,0,0,0-3.446.38,4.217,4.217,0,0,0-2.432,3.006c-.229.892-.563,1.157-1.462,1.073q-2.716-.255-5.427-.57a1.03,1.03,0,0,1-.943-1.376,10.157,10.157,0,0,1,7.114-7.922,18.386,18.386,0,0,1,7.91-.974,14.749,14.749,0,0,1,6.292,1.881,7.94,7.94,0,0,1,3.849,5.885,26.259,26.259,0,0,1,.178,3.85C-1432.125,2391.227-1432.133,2392.568-1432.133,2394.375Zm-8.562,3.587v-1.7c0-.372-.1-.462-.471-.437-.533.034-1.067.062-1.6.1a12.2,12.2,0,0,0-3.134.584,5.179,5.179,0,0,0-3.4,3.059,5.92,5.92,0,0,0-.025,4.066,3.291,3.291,0,0,0,2.749,2.308,4.141,4.141,0,0,0,2.944-.713,6.236,6.236,0,0,0,2.413-3.279A12.055,12.055,0,0,0-1440.695,2397.962Z" transform="translate(1471.952 -2378.183)" fill="#020202"/>
      <path id="Path_6457" data-name="Path 6457" d="M-1441.913,2414.957a47.455,47.455,0,0,1-7.128-.639,39.1,39.1,0,0,1-14.185-5.342,35.986,35.986,0,0,1-5.242-3.888,1.386,1.386,0,0,1-.33-.4.4.4,0,0,1,.354-.6.84.84,0,0,1,.433.124c1.616.836,3.227,1.682,4.9,2.4a55.187,55.187,0,0,0,8.537,2.872,57.884,57.884,0,0,0,5.865,1.133c1.445.2,2.9.347,4.358.423,1.525.079,3.05.1,4.576.06a53.225,53.225,0,0,0,7.182-.7,53.033,53.033,0,0,0,10.316-2.816c.467-.179.935-.356,1.4-.537a1.56,1.56,0,0,1,.579-.079.656.656,0,0,1,.637.371.717.717,0,0,1-.077.823,2.032,2.032,0,0,1-.506.459,34.982,34.982,0,0,1-6.955,3.585,42.545,42.545,0,0,1-6.071,1.8,41.591,41.591,0,0,1-6.5.895C-1440.407,2414.928-1441.05,2414.947-1441.913,2414.957Z" transform="translate(1468.851 -2370.393)" fill="#fea704"/>
      <path id="Path_6458" data-name="Path 6458" d="M-1431.019,2405.38c-1.024.02-2.245.165-3.468.3-.455.049-.663-.124-.558-.462a.572.572,0,0,1,.258-.284,8.135,8.135,0,0,1,2.821-1.244,12.748,12.748,0,0,1,5.7-.128c.064.013.127.026.191.042.906.229,1.13.523,1.091,1.452a11.058,11.058,0,0,1-2.092,6.218,9.006,9.006,0,0,1-1.277,1.438,1.986,1.986,0,0,1-.283.218.437.437,0,0,1-.548.022c-.172-.146-.107-.331-.035-.51a33.486,33.486,0,0,0,1.419-3.961,7.165,7.165,0,0,0,.307-1.731,1,1,0,0,0-.849-1.168A9.217,9.217,0,0,0-1431.019,2405.38Z" transform="translate(1479.01 -2370.63)" fill="#fda807"/>
    </g>
    <g id="Group_3014" data-name="Group 3014" transform="translate(766.057 2071.958)">
      <path id="Path_6459" data-name="Path 6459" d="M-1444,2435.081a11.149,11.149,0,0,1-1.354,2.595,8.539,8.539,0,0,1-5.249,3.3,10.329,10.329,0,0,1-7.437-1.1,7.741,7.741,0,0,1-1.85-1.53c-.159.095-.092.234-.1.341-.017.45-.014.9-.073,1.349-.07.543-.053.546-.615.546-.956,0-1.913-.009-2.871.009-.307,0-.426-.046-.4-.4.138-2.4.113-4.809.084-7.214l0-2.551c.007-.765.017-1.531.017-2.3q0-5.908-.007-11.816c0-.334.077-.437.421-.431q1.578.035,3.159,0c.325-.008.371.1.371.39-.012,2.913-.008,5.826-.008,8.739v.609a12.736,12.736,0,0,1,1.345-1.221,8.973,8.973,0,0,1,4.566-1.6,10.065,10.065,0,0,1,5.461.9,8.378,8.378,0,0,1,4.717,5.976,12.039,12.039,0,0,1,.16,3.91Zm-9.728,3.426c.086-.005.264-.009.441-.023a5.554,5.554,0,0,0,4.895-3.3,7.505,7.505,0,0,0,.617-4.233,5.985,5.985,0,0,0-2.542-4.479,6.1,6.1,0,0,0-4.328-.967,5.487,5.487,0,0,0-4.305,2.764,7.49,7.49,0,0,0-.8,5.259A5.837,5.837,0,0,0-1453.727,2438.507Z" transform="translate(1483.484 -2415.886)" fill="#0165d6"/>
      <path id="Path_6460" data-name="Path 6460" d="M-1448.611,2433.495l.336-1.493a5.709,5.709,0,0,1,4.144-3.149,20.179,20.179,0,0,1,4.454-.592c1.777-.075,3.553-.063,5.329-.058.286,0,.36-.072.362-.36.013-2.358-1.3-3.754-3.751-3.995a7.811,7.811,0,0,0-3.279.248,2.842,2.842,0,0,0-2.161,2.171c-.036.183-.144.169-.264.169-1.2,0-2.406,0-3.61.006-.423,0-.245-.292-.216-.458a4.84,4.84,0,0,1,2.542-3.525,10.254,10.254,0,0,1,3.973-1.174,16.928,16.928,0,0,1,5.258.177,7.226,7.226,0,0,1,4.134,2.208,7.868,7.868,0,0,1,1.068,1.972c.01.066-.052.167.082.176l-.008,0a63.966,63.966,0,0,1,.163,7.187c.026,1.408.005,2.816.02,4.224.005.5.038,1.011.09,1.513.024.22-.053.263-.239.263-1.052,0-2.1-.005-3.157,0-.211,0-.246-.1-.258-.273-.043-.676-.094-1.352-.148-2.115a11.276,11.276,0,0,1-1.133,1.127,7.592,7.592,0,0,1-4.159,1.756,12.654,12.654,0,0,1-5.354-.3,5.749,5.749,0,0,1-3.915-3.322A5.747,5.747,0,0,1-1448.611,2433.495Zm12.56-2.673v.084c-1.149,0-2.3-.031-3.443.009a10.172,10.172,0,0,0-3.019.5,2.919,2.919,0,0,0-1.461.938,2.8,2.8,0,0,0,.986,4.108,6.5,6.5,0,0,0,3.911.557,5.91,5.91,0,0,0,2.73-.916,5.507,5.507,0,0,0,2.356-5.068c0-.2-.1-.213-.256-.212C-1434.846,2430.824-1435.448,2430.822-1436.05,2430.822Z" transform="translate(1488.095 -2414.3)" fill="#feb102"/>
      <path id="Path_6461" data-name="Path 6461" d="M-1459.349,2428.854l0,2.551c-5.046,0-10.091.006-15.137-.009-.423,0-.489.118-.445.5a5.606,5.606,0,0,0,5.407,5.1,6.752,6.752,0,0,0,3.693-.7,3.913,3.913,0,0,0,1.839-2.018.353.353,0,0,1,.388-.263c1.149.01,2.3.013,3.447,0,.288,0,.308.094.251.334a5.891,5.891,0,0,1-2.542,3.593,9.96,9.96,0,0,1-4.481,1.57,14.16,14.16,0,0,1-6.556-.579,7.765,7.765,0,0,1-5.383-6.838,11.811,11.811,0,0,1,.4-4.988,7.524,7.524,0,0,1,4.882-5.151,13.254,13.254,0,0,1,8.807-.131,7.619,7.619,0,0,1,5.28,6.192C-1459.445,2428.291-1459.4,2428.573-1459.349,2428.854Zm-9.819-.075c1.805,0,3.609,0,5.415,0,.234,0,.35-.029.324-.308a4.8,4.8,0,0,0-1.828-3.573,5.756,5.756,0,0,0-3.253-1.094c-2.981-.166-5.66,1.1-6.309,4.538-.065.344-.008.445.358.441C-1472.7,2428.769-1470.932,2428.779-1469.168,2428.779Z" transform="translate(1478.967 -2414.31)" fill="#fe2f36"/>
      <path id="Path_6462" data-name="Path 6462" d="M-1434.1,2425.493a7.871,7.871,0,0,0-1.068-1.972,6.175,6.175,0,0,0-.706-1.463c-.164-.32-.147-.407.238-.4,1.257.02,2.516.016,3.774,0a.534.534,0,0,1,.559.353q3.12,6.267,6.259,12.526a.886.886,0,0,0,.272.423c.691-1.387,1.38-2.764,2.067-4.144q2.191-4.4,4.377-8.805a.528.528,0,0,1,.555-.354c1.149.02,2.3.013,3.446,0,.282,0,.324.048.187.315q-2.037,3.973-4.052,7.956-3.861,7.592-7.719,15.184a.42.42,0,0,1-.438.271q-1.867-.013-3.733,0c-.286,0-.363-.038-.208-.326,1.027-1.926,2.03-3.866,3.067-5.787a.861.861,0,0,0,.005-.934q-3.26-6.1-6.5-12.221c-.085-.159-.109-.368-.31-.45l.008,0C-1433.975,2425.578-1434.011,2425.523-1434.1,2425.493Z" transform="translate(1491.899 -2414.152)" fill="#6bb902"/>
      <path id="Path_6463" data-name="Path 6463" d="M-1417.308,2422.366c.04-.143-.084-.445.082-.454.245-.013.511-.192.736-.03.17.122.271.059.423-.008a.44.44,0,0,1,.653.451c-.007.194.126.545-.1.558-.252.013-.083-.329-.127-.507-.039-.16-.029-.349-.254-.353-.2,0-.285.148-.317.316a2.66,2.66,0,0,0-.016.368c-.007.084.042.215-.116.206-.138-.009-.115-.127-.118-.22-.005-.108,0-.218-.009-.326-.014-.166-.031-.355-.258-.342a.329.329,0,0,0-.317.358c0,.109,0,.219,0,.328-.005.085.039.206-.118.206-.14,0-.138-.1-.138-.2S-1417.308,2422.5-1417.308,2422.366Z" transform="translate(1497.51 -2414.104)" fill="#6bb902"/>
      <path id="Path_6464" data-name="Path 6464" d="M-1417.257,2422.889c-.428.156-.548.084-.576-.3-.014-.189.081-.386-.2-.535-.134-.07.185-.273.272-.358.2-.2.148.326.416.255.044-.012.04.139-.062.163-.334.075-.113.333-.159.5C-1417.633,2422.854-1417.352,2422.743-1417.257,2422.889Z" transform="translate(1497.284 -2414.153)" fill="#6bb902"/>
      <path id="Path_6465" data-name="Path 6465" d="M-1434.529,2424.6c.086.031.122.086.082.176C-1434.581,2424.771-1434.518,2424.671-1434.529,2424.6Z" transform="translate(1492.331 -2413.265)" fill="#fefefe"/>
    </g>
  </g>
</svg>
