<svg xmlns="http://www.w3.org/2000/svg" width="63.127" height="58.757" viewBox="0 0 63.127 58.757">
  <g id="Group_3462" data-name="Group 3462" transform="translate(1239.95 -3126.437)">
    <path id="Path_6505" data-name="Path 6505" d="M-1210.183,3176.385c-1.054-.023-2.1-.109-3.152-.193a33.583,33.583,0,0,1-5.4-.934c-.247-.061-.354.094-.461.254a16.434,16.434,0,0,1-2.369,2.839,17.741,17.741,0,0,1-3.592,2.618,20.094,20.094,0,0,1-5.365,2.017,29.188,29.188,0,0,1-2.972.483.884.884,0,0,1-.985-.6.806.806,0,0,1,.477-1.065,11.551,11.551,0,0,0,3-2.323,11.937,11.937,0,0,0,2.335-4.018,17,17,0,0,0,.782-3.563.671.671,0,0,0-.339-.767,29.338,29.338,0,0,1-3.959-3.035,25.5,25.5,0,0,1-3.688-4.163,22.881,22.881,0,0,1-2.553-4.7,22.552,22.552,0,0,1-1.266-4.558,19.5,19.5,0,0,1-.224-4.448,21.049,21.049,0,0,1,1.524-6.765,23.261,23.261,0,0,1,2.584-4.678,29.833,29.833,0,0,1,2.312-2.838,22.587,22.587,0,0,1,2.507-2.309,30.407,30.407,0,0,1,3.221-2.289,32.5,32.5,0,0,1,5.457-2.665,34.864,34.864,0,0,1,5-1.463,36,36,0,0,1,3.682-.572,33.476,33.476,0,0,1,4.7-.2c1.11.038,2.218.109,3.326.251,1.294.167,2.576.375,3.85.657a32.769,32.769,0,0,1,5.071,1.579,31.251,31.251,0,0,1,5.642,2.94,32.012,32.012,0,0,1,3.537,2.764,24.939,24.939,0,0,1,3.644,4.107,22.043,22.043,0,0,1,2.844,5.378,21.914,21.914,0,0,1,1.052,3.983,21.973,21.973,0,0,1,.224,4.556c-.031.716-.138,1.428-.211,2.141a19.111,19.111,0,0,0-6.614-5.352,22.7,22.7,0,0,0-8.964-2.351,23.522,23.522,0,0,0-8.4.989,19.671,19.671,0,0,0-9.755,6.372,14.34,14.34,0,0,0-3.374,10.256,14.546,14.546,0,0,0,2.865,7.7A18.978,18.978,0,0,0-1210.183,3176.385Z" fill="#d4dadd"/>
    <path id="Path_6506" data-name="Path 6506" d="M-1210.183,3176.385a18.978,18.978,0,0,1-4.007-3.966,14.546,14.546,0,0,1-2.865-7.7,14.34,14.34,0,0,1,3.374-10.256,19.671,19.671,0,0,1,9.755-6.372,23.522,23.522,0,0,1,8.4-.989,22.7,22.7,0,0,1,8.964,2.351,19.111,19.111,0,0,1,6.614,5.352,15.107,15.107,0,0,1,2.846,6.2,13.913,13.913,0,0,1-1.074,8.754,17.143,17.143,0,0,1-6.352,7.107.615.615,0,0,0-.338.683,8.426,8.426,0,0,0,2.508,5.406,7.01,7.01,0,0,0,1.524,1.082.587.587,0,0,1,.368.73.575.575,0,0,1-.7.413c-3.878-.425-7.175-1.909-9.459-5.219a.44.44,0,0,0-.555-.215,23.62,23.62,0,0,1-16.509-1.856A26.716,26.716,0,0,1-1210.183,3176.385Zm2.862-9.9a2.673,2.673,0,0,0,2.729-2.708,2.531,2.531,0,0,0-2.73-2.737,2.664,2.664,0,0,0-2.712,2.728A2.54,2.54,0,0,0-1207.321,3166.488Zm10.358,0a2.672,2.672,0,0,0,2.726-2.676,2.538,2.538,0,0,0-2.7-2.77,2.675,2.675,0,0,0-2.753,2.733A2.54,2.54,0,0,0-1196.963,3166.488Zm10.387,0a2.679,2.679,0,0,0,2.706-2.7,2.535,2.535,0,0,0-2.737-2.74,2.675,2.675,0,0,0-2.721,2.724A2.556,2.556,0,0,0-1186.576,3166.488Z" fill="#00d1e3"/>
  </g>
</svg>
